<svg id="W-gold_and_black" data-name="W-gold and black" xmlns="http://www.w3.org/2000/svg" viewBox="0 0 166.66 185.09"><defs><style>.cls-1{fill:#231f20;}.cls-2,.cls-4{fill:#fff;}.cls-3{fill:#eeb111;}.cls-4{stroke:#fff;stroke-miterlimit:3.86;stroke-width:0.26px;}</style></defs><title>Univ Lib-stack gold and white</title><text x="-60.71" y="-55.35"></text><polygon class="cls-1" points="150.81 0.01 107.34 0.01 107.34 27.08 113.23 27.08 107.68 49.1 96.24 0 70.59 0 59.04 49.15 53.51 27.08 59.43 27.08 59.43 0 15.73 0 15.73 27.09 21.83 27.09 45.05 117.32 70.73 117.32 83.3 70.66 96.1 117.32 121.64 117.32 144.74 27.09 150.81 27.09 150.81 0.01"/><polygon class="cls-2" points="148.57 2.27 109.61 2.27 109.61 24.82 116.2 24.82 107.68 58.97 94.34 2.27 72.5 2.27 59.05 58.64 50.52 24.82 57.15 24.82 57.15 2.27 17.98 2.27 17.98 24.83 23.59 24.83 46.8 115.06 69 115.06 83.3 62.27 97.82 115.06 119.9 115.06 142.99 24.83 148.57 24.83 148.57 2.27"/><polygon class="cls-3" points="147.38 3.46 110.8 3.46 110.8 23.63 117.68 23.63 107.68 63.97 93.37 3.46 73.48 3.46 59.05 63.95 49.03 23.63 55.95 23.63 55.95 3.46 19.18 3.46 19.18 23.64 24.51 23.64 47.74 113.91 68.1 113.91 83.3 57.49 98.72 113.91 118.97 113.91 142.07 23.64 147.38 23.64 147.38 3.46"/><path class="cls-4" d="M60.92,183a8,8,0,0,1,.42,1.15l1.88,7.14h1.23L66.36,184l2,7.25h1.21l1.9-7.19a6,6,0,0,1,.45-1.1h-.88a3.55,3.55,0,0,1-.16,1.07l-1.68,6.22-2-7.29H66.05l-2,7.26-1.65-6.05a2.53,2.53,0,0,1-.08-1.21Z" transform="translate(-60.71 -55.35)"/><path class="cls-4" d="M72.77,184.36a5.22,5.22,0,0,1,.13,1.12v4.36a7.88,7.88,0,0,1-.13,1.41h4.48v-.63a4.45,4.45,0,0,1-1.08.23H73.81v-2.8h2.71a2.88,2.88,0,0,1,.59,0v-.56a3.37,3.37,0,0,1-.6.06h-2.7v-2.8h2.25a4.1,4.1,0,0,1,1.19.2v-.64Z" transform="translate(-60.71 -55.35)"/><path class="cls-4" d="M79.13,189c.16,1.16.59,2,2,2s1.71-.69,1.71-1.34-.25-1.1-2-1.46-2.3-.9-2.3-2.13,1.15-1.87,2.38-1.87,2.31.55,2.46,1.85l-.73.29c-.12-.93-.61-1.73-1.73-1.73a1.54,1.54,0,0,0-1.7,1.35c0,.67.72,1.09,1.65,1.29,1.26.25,2.69.61,2.69,1.87a2.14,2.14,0,0,1-2.44,2.27c-1.54,0-2.62-.7-2.83-2.06l.79-.35Z" transform="translate(-60.71 -55.35)"/><path class="cls-4" d="M86.8,184.81v5.86a1.54,1.54,0,0,1-.1.58h1.19a2.07,2.07,0,0,1-.1-.58v-5.86h1.72a4.2,4.2,0,0,1,1,.13v-.58H84.22v.58a4,4,0,0,1,.88-.13Z" transform="translate(-60.71 -55.35)"/><path class="cls-4" d="M91.39,184.36a5.22,5.22,0,0,1,.13,1.12v4.36a7.88,7.88,0,0,1-.13,1.41h4.48v-.63a4.35,4.35,0,0,1-1.08.23H92.43v-2.8h2.71a2.82,2.82,0,0,1,.59,0v-.56a3.37,3.37,0,0,1-.6.06h-2.7v-2.8h2.25a4,4,0,0,1,1.19.2v-.64Z" transform="translate(-60.71 -55.35)"/><path class="cls-4" d="M98.34,187v.57h1.23a1.46,1.46,0,0,0,1.57-1.41,1.32,1.32,0,0,0-1.45-1.39H98.34V187l-.91,0v-1.59a5.22,5.22,0,0,0-.13-1.12h2.62a1.87,1.87,0,0,1,2.11,1.8,1.8,1.8,0,0,1-1.68,1.79,24,24,0,0,1,1.88,2.8,2,2,0,0,0,.42.5h-1.16a2.81,2.81,0,0,0-.24-.5,22.09,22.09,0,0,0-1.49-2.35.79.79,0,0,0-.63-.35h-.79v3.2h-1a7.88,7.88,0,0,0,.13-1.41v-2.77l.91,0Z" transform="translate(-60.71 -55.35)"/><path class="cls-4" d="M108.84,191.25h.75a8,8,0,0,1-.12-1.41v-4.36a6.07,6.07,0,0,1,.12-1.12h-.73a5.22,5.22,0,0,1,.13,1.12v4.65l-4.28-5.77h-.88a6.07,6.07,0,0,1,.12,1.12v4.36a9.05,9.05,0,0,1-.12,1.41h.72a8,8,0,0,1-.12-1.41V185.3l4.41,5.95Z" transform="translate(-60.71 -55.35)"/><path class="cls-4" d="M115.49,183.87v5.68a9.21,9.21,0,0,0,.15,1.71h-.88a10.15,10.15,0,0,0,.15-1.71v-5.24a6.21,6.21,0,0,0-.15-1.34h1.51l2.89,7.22,3-7.22h1.36a6.65,6.65,0,0,0-.17,1.4v5.24a9.49,9.49,0,0,0,.15,1.65h-1.35a8.53,8.53,0,0,0,.16-1.65v-5.47l-3,7.11h-.7l-3.07-7.38Z" transform="translate(-60.71 -55.35)"/><path class="cls-4" d="M126.46,184.36h-1a5.22,5.22,0,0,1,.13,1.12v4.36a7.88,7.88,0,0,1-.13,1.41h1a7.88,7.88,0,0,1-.13-1.41v-4.36a6.3,6.3,0,0,1,.14-1.12Z" transform="translate(-60.71 -55.35)"/><path class="cls-4" d="M133.85,186.42a2.63,2.63,0,0,0-2.49-1.76,2.75,2.75,0,0,0-2.63,2.91c0,1.93.84,3.5,2.63,3.5a2.62,2.62,0,0,0,2.46-1.79l.56.53a3.75,3.75,0,0,1-3,1.65,3.63,3.63,0,0,1,0-7.25,3.44,3.44,0,0,1,3,1.65l-.53.56Z" transform="translate(-60.71 -55.35)"/><path class="cls-4" d="M143.6,184.36h-1a5.22,5.22,0,0,1,.13,1.12v4.36a7.88,7.88,0,0,1-.13,1.41h1a7.88,7.88,0,0,1-.13-1.41v-4.36a6.3,6.3,0,0,1,.14-1.12Z" transform="translate(-60.71 -55.35)"/><path class="cls-4" d="M139.91,188.05v1.79a7.88,7.88,0,0,1-.13,1.41h1a7.88,7.88,0,0,1-.13-1.41v-4.36a6.3,6.3,0,0,1,.14-1.12h-1a5.22,5.22,0,0,1,.13,1.12v2.11h-3.73v-2.11a5.49,5.49,0,0,1,.14-1.12h-1a5.31,5.31,0,0,1,.12,1.12v4.36a8,8,0,0,1-.12,1.41h1a7.88,7.88,0,0,1-.13-1.41v-1.79Z" transform="translate(-60.71 -55.35)"/><path class="cls-4" d="M150.49,190.13a2.66,2.66,0,0,1-2.16.94c-1.79,0-2.63-1.57-2.63-3.5a2.75,2.75,0,0,1,2.63-2.91,2.63,2.63,0,0,1,2.49,1.76l.53-.56a3.46,3.46,0,0,0-3-1.65,3.63,3.63,0,0,0,0,7.25,4.07,4.07,0,0,0,3-1.13v-2.65h-2.1V188h1.2v2.17Z" transform="translate(-60.71 -55.35)"/><path class="cls-4" d="M155.18,187.92h-.93l1-2.79,1,2.79h-1.1l0,.43h1.28l.83,2.29a1.92,1.92,0,0,1,.16.6h1.08c-.09-.16-.18-.39-.3-.62l-2.32-6.27H155l-2.3,6.32a1.94,1.94,0,0,1-.3.57h.77a1.6,1.6,0,0,1,.09-.67l.83-2.23h1.07l0-.43Z" transform="translate(-60.71 -55.35)"/><path class="cls-4" d="M187.12,184.36h-1a6.07,6.07,0,0,1,.12,1.12v4.36a8,8,0,0,1-.12,1.41h1a8,8,0,0,1-.12-1.41v-4.36a5.49,5.49,0,0,1,.14-1.12Z" transform="translate(-60.71 -55.35)"/><path class="cls-4" d="M202.31,187.19V184.8h1.36a1.31,1.31,0,0,1,1.44,1.39,1.46,1.46,0,0,1-1.57,1.41h-1.23v-.41h-.91v2.65a7.88,7.88,0,0,1-.13,1.41h1v-3.2h.8a.81.81,0,0,1,.63.35,23.64,23.64,0,0,1,1.48,2.35,1.89,1.89,0,0,1,.24.5h1.16a2.28,2.28,0,0,1-.42-.5,23.94,23.94,0,0,0-1.87-2.8,1.8,1.8,0,0,0,1.68-1.79,1.88,1.88,0,0,0-2.12-1.8h-2.62a5.22,5.22,0,0,1,.13,1.12v1.71Z" transform="translate(-60.71 -55.35)"/><path class="cls-4" d="M207.88,189c.17,1.16.59,2,2,2s1.71-.7,1.71-1.35-.25-1.09-2-1.45-2.3-.9-2.3-2.13,1.15-1.88,2.38-1.88a2.17,2.17,0,0,1,2.46,1.86l-.74.29a1.7,1.7,0,0,0-1.72-1.73A1.55,1.55,0,0,0,208,186c0,.67.73,1.09,1.65,1.28,1.26.26,2.69.62,2.69,1.88a2.14,2.14,0,0,1-2.43,2.27c-1.55,0-2.62-.7-2.83-2.06l.78-.35Z" transform="translate(-60.71 -55.35)"/><path class="cls-4" d="M214.77,184.36h-1a5.22,5.22,0,0,1,.13,1.12v4.36a7.88,7.88,0,0,1-.13,1.41h1a7.88,7.88,0,0,1-.13-1.41v-4.36a5.49,5.49,0,0,1,.14-1.12Z" transform="translate(-60.71 -55.35)"/><path class="cls-4" d="M222.16,185.05l1.83,2.56,2-2.73a2.59,2.59,0,0,0,.23-.52h.82c-.24.3-.44.54-.54.7l-2.32,3.18v2.34a2,2,0,0,0,.14.67h-1.09a2.37,2.37,0,0,0,.14-.66v-2.38l-2.39-3.4h-2.2v5.86a1.76,1.76,0,0,0,.1.58h-1.19a1.54,1.54,0,0,0,.1-.58v-5.86h-1.7a4,4,0,0,0-.88.13v-.58h6.53a3,3,0,0,0,.37.69Z" transform="translate(-60.71 -55.35)"/><path class="cls-4" d="M195.39,184.36a5.22,5.22,0,0,1,.13,1.12v4.36a7.88,7.88,0,0,1-.13,1.41h4.48v-.63a4.35,4.35,0,0,1-1.08.23h-2.36v-2.8h2.72a2.72,2.72,0,0,1,.58,0v-.56a3.37,3.37,0,0,1-.6.06h-2.7v-2.8h2.25a4,4,0,0,1,1.19.2v-.64Z" transform="translate(-60.71 -55.35)"/><path class="cls-4" d="M170.35,183a7.85,7.85,0,0,1,.14,1.32v4.19c0,1.43.79,3,3.22,3a3,3,0,0,0,3-3v-4.15a5.41,5.41,0,0,1,.18-1.33h-1a5.84,5.84,0,0,1,.13,1.32v4a2.43,2.43,0,0,1-2.37,2.66c-1.69,0-2.15-1.29-2.15-2.41v-4.28a5.55,5.55,0,0,1,.15-1.31Z" transform="translate(-60.71 -55.35)"/><path class="cls-4" d="M188.26,184.36a4.12,4.12,0,0,1,.46.94l2.1,5.95h1.09l2.24-5.92a5.44,5.44,0,0,1,.54-1h-1a4.35,4.35,0,0,1-.18.85l-2,5.38-1.88-5.29a3.42,3.42,0,0,1-.19-.94Z" transform="translate(-60.71 -55.35)"/><path class="cls-4" d="M164.82,191.25h.76a7.88,7.88,0,0,1-.13-1.41v-4.36a5.22,5.22,0,0,1,.13-1.12h-.73a6.07,6.07,0,0,1,.12,1.12v4.65l-4.28-5.77h-.88a6.07,6.07,0,0,1,.12,1.12v4.36a8,8,0,0,1-.12,1.41h.72a8,8,0,0,1-.12-1.41V185.3l4.41,5.95Z" transform="translate(-60.71 -55.35)"/><path class="cls-4" d="M183.75,191.25h.75a8,8,0,0,1-.12-1.41v-4.36a5.31,5.31,0,0,1,.12-1.12h-.73a5.22,5.22,0,0,1,.13,1.12v4.65l-4.28-5.77h-.89a5.22,5.22,0,0,1,.13,1.12v4.36a7.88,7.88,0,0,1-.13,1.41h.73a8,8,0,0,1-.12-1.41V185.3l4.41,5.95Z" transform="translate(-60.71 -55.35)"/><text x="-60.71" y="-55.35"></text><path class="cls-2" d="M63.64,215v-7.7h2.43v7.89c0,3,1.12,4,2.77,4s2.86-1,2.86-4v-7.89H74V215c0,4.52-2,6.28-5.19,6.28S63.64,219.54,63.64,215Z" transform="translate(-60.71 -55.35)"/><path class="cls-2" d="M76.72,210.74h2l.17,1.38H79a4.78,4.78,0,0,1,3.38-1.63c2.2,0,3.17,1.49,3.17,4.09v6.47H83.1V214.9c0-1.7-.48-2.33-1.61-2.33a3.28,3.28,0,0,0-2.36,1.28v7.2H76.72Z" transform="translate(-60.71 -55.35)"/><path class="cls-2" d="M87.68,207.57a1.5,1.5,0,1,1,1.49,1.36A1.39,1.39,0,0,1,87.68,207.57Zm.28,3.17h2.41v10.31H88Z" transform="translate(-60.71 -55.35)"/><path class="cls-2" d="M91.65,210.74h2.46l1.64,5.35c.27,1,.58,2.06.86,3.11h.08c.29-1,.59-2.1.88-3.11l1.64-5.35h2.33L98,221.05H95.24Z" transform="translate(-60.71 -55.35)"/><path class="cls-2" d="M102,215.9c0-3.36,2.33-5.41,4.75-5.41,2.79,0,4.26,2,4.26,4.89a6,6,0,0,1-.1,1.18h-6.55a3,3,0,0,0,3,2.87,4.3,4.3,0,0,0,2.39-.75l.82,1.51a6.48,6.48,0,0,1-3.53,1.11C104.23,221.3,102,219.31,102,215.9Zm6.91-1c0-1.6-.69-2.56-2.1-2.56a2.59,2.59,0,0,0-2.48,2.56Z" transform="translate(-60.71 -55.35)"/><path class="cls-2" d="M112.8,210.74h2l.17,1.83H115a3.5,3.5,0,0,1,2.92-2.08,2.6,2.6,0,0,1,1.18.21l-.42,2.1a3.25,3.25,0,0,0-1.07-.17c-.82,0-1.81.57-2.44,2.12v6.3H112.8Z" transform="translate(-60.71 -55.35)"/><path class="cls-2" d="M119,219.87l1.13-1.55a4.63,4.63,0,0,0,2.86,1.15c1.11,0,1.64-.52,1.64-1.23,0-.87-1.12-1.24-2.21-1.66-1.36-.51-2.89-1.28-2.89-3s1.44-3.08,3.75-3.08a5.59,5.59,0,0,1,3.43,1.24l-1.12,1.47a3.81,3.81,0,0,0-2.26-.89c-1,0-1.52.49-1.52,1.14,0,.82,1,1.13,2.15,1.53,1.4.53,3,1.2,3,3.13,0,1.76-1.41,3.19-4,3.19A6.53,6.53,0,0,1,119,219.87Z" transform="translate(-60.71 -55.35)"/><path class="cls-2" d="M128.23,207.57a1.5,1.5,0,1,1,1.49,1.36A1.39,1.39,0,0,1,128.23,207.57Zm.28,3.17h2.41v10.31h-2.41Z" transform="translate(-60.71 -55.35)"/><path class="cls-2" d="M133.84,217.56v-4.91h-1.47v-1.81l1.6-.1.29-2.81h2v2.81h2.63v1.91h-2.63v4.91c0,1.22.47,1.81,1.45,1.81a3,3,0,0,0,1.07-.23l.42,1.78a6.51,6.51,0,0,1-2.1.38C134.72,221.3,133.84,219.79,133.84,217.56Z" transform="translate(-60.71 -55.35)"/><path class="cls-2" d="M139.89,225.08l.44-1.89a2.62,2.62,0,0,0,.73.15,2.17,2.17,0,0,0,2.06-1.77l.19-.65-4.05-10.18h2.45l1.79,5.06c.29.9.59,1.93.9,2.9h.09c.25-.95.52-2,.77-2.9l1.56-5.06h2.33l-3.74,10.77c-.86,2.33-1.93,3.78-4.18,3.78A3.88,3.88,0,0,1,139.89,225.08Z" transform="translate(-60.71 -55.35)"/><path class="cls-2" d="M154.29,207.32h2.44V219h5.71v2.06h-8.15Z" transform="translate(-60.71 -55.35)"/><path class="cls-2" d="M163.83,207.57a1.5,1.5,0,1,1,1.49,1.36A1.39,1.39,0,0,1,163.83,207.57Zm.27,3.17h2.41v10.31H164.1Z" transform="translate(-60.71 -55.35)"/><path class="cls-2" d="M171.26,220h-.06l-.21,1.09h-1.91V206.23h2.41v3.82l-.06,1.72a4.68,4.68,0,0,1,3-1.28c2.58,0,4.07,2,4.07,5.23,0,3.54-2.12,5.58-4.41,5.58A4.12,4.12,0,0,1,171.26,220Zm4.72-4.2c0-2.06-.67-3.28-2.22-3.28a3.29,3.29,0,0,0-2.27,1.16v4.81a3.23,3.23,0,0,0,2.08.86C174.93,219.31,176,218.09,176,215.76Z" transform="translate(-60.71 -55.35)"/><path class="cls-2" d="M180.37,210.74h2l.17,1.83h.08a3.5,3.5,0,0,1,2.92-2.08,2.55,2.55,0,0,1,1.17.21l-.42,2.1a3.16,3.16,0,0,0-1.07-.17c-.81,0-1.8.57-2.43,2.12v6.3h-2.42Z" transform="translate(-60.71 -55.35)"/><path class="cls-2" d="M186.59,218.28c0-2.21,1.83-3.36,6.07-3.82,0-1.1-.48-2-1.89-2a5.83,5.83,0,0,0-2.9,1l-.88-1.62a8.07,8.07,0,0,1,4.24-1.34c2.56,0,3.84,1.57,3.84,4.45v6.11h-2l-.17-1.13h-.08a5.08,5.08,0,0,1-3.2,1.38A2.88,2.88,0,0,1,186.59,218.28Zm6.07,0V216c-2.81.35-3.74,1.09-3.74,2.12s.63,1.32,1.49,1.32A3.3,3.3,0,0,0,192.66,218.28Z" transform="translate(-60.71 -55.35)"/><path class="cls-2" d="M197.45,210.74h2l.17,1.83h.08a3.5,3.5,0,0,1,2.92-2.08,2.6,2.6,0,0,1,1.18.21l-.42,2.1a3.25,3.25,0,0,0-1.07-.17c-.82,0-1.81.57-2.44,2.12v6.3h-2.41Z" transform="translate(-60.71 -55.35)"/><path class="cls-2" d="M204.48,207.57a1.5,1.5,0,1,1,1.49,1.36A1.39,1.39,0,0,1,204.48,207.57Zm.28,3.17h2.41v10.31h-2.41Z" transform="translate(-60.71 -55.35)"/><path class="cls-2" d="M209.06,215.9c0-3.36,2.33-5.41,4.74-5.41,2.8,0,4.27,2,4.27,4.89a5.24,5.24,0,0,1-.11,1.18h-6.55a3,3,0,0,0,3.05,2.87,4.33,4.33,0,0,0,2.39-.75l.82,1.51a6.53,6.53,0,0,1-3.53,1.11C211.29,221.3,209.06,219.31,209.06,215.9Zm6.91-1c0-1.6-.69-2.56-2.1-2.56a2.59,2.59,0,0,0-2.48,2.56Z" transform="translate(-60.71 -55.35)"/><path class="cls-2" d="M218.83,219.87l1.13-1.55a4.58,4.58,0,0,0,2.85,1.15c1.12,0,1.64-.52,1.64-1.23,0-.87-1.11-1.24-2.2-1.66-1.37-.51-2.9-1.28-2.9-3s1.45-3.08,3.76-3.08a5.56,5.56,0,0,1,3.42,1.24l-1.11,1.47a3.84,3.84,0,0,0-2.27-.89c-1,0-1.51.49-1.51,1.14,0,.82,1,1.13,2.14,1.53,1.41.53,3,1.2,3,3.13,0,1.76-1.41,3.19-4,3.19A6.48,6.48,0,0,1,218.83,219.87Z" transform="translate(-60.71 -55.35)"/></svg>