<svg id="W-gold_and_black" data-name="W-gold and black" xmlns="http://www.w3.org/2000/svg" viewBox="0 0 439.09 133.87"><defs><style>.cls-1{fill:#231f20;}.cls-2,.cls-4{fill:#fff;}.cls-3{fill:#eeb111;}.cls-4{stroke:#fff;stroke-miterlimit:3.86;stroke-width:0.26px;}</style></defs><title>Univ Libraries horz_gold and white</title><text x="-22.11" y="-42.19"></text><polygon class="cls-1" points="48.48 0 38.46 42.63 33.67 23.49 38.8 23.49 38.8 0 0.91 0 0.91 23.5 6.2 23.5 26.33 101.74 48.6 101.74 59.5 61.28 70.59 101.74 92.74 101.74 112.77 23.5 118.04 23.5 118.04 0.01 80.34 0.01 80.34 23.48 85.45 23.48 80.64 42.58 70.72 0 48.48 0"/><polygon class="cls-2" points="116.09 1.97 82.31 1.97 82.31 21.52 88.03 21.52 80.64 51.14 69.07 1.97 50.13 1.97 38.47 50.85 31.07 21.52 36.82 21.52 36.82 1.97 2.86 1.97 2.86 21.53 7.72 21.53 27.85 99.78 47.1 99.78 59.5 54 72.09 99.78 91.23 99.78 111.25 21.53 116.09 21.53 116.09 1.97"/><polygon class="cls-3" points="115.06 3 83.34 3 83.34 20.49 89.31 20.49 80.64 55.47 68.23 3 50.98 3 38.47 55.46 29.78 20.49 35.78 20.49 35.78 3 3.9 3 3.9 20.5 8.52 20.5 28.66 98.78 46.32 98.78 59.5 49.85 72.86 98.78 90.42 98.78 110.46 20.5 115.06 20.5 115.06 3"/><path class="cls-4" d="M22.33,157.53a12.8,12.8,0,0,1,.72,2l3.25,12.35h2.13l3.29-12.54,3.49,12.54H37.3l3.29-12.45a10.78,10.78,0,0,1,.77-1.88H39.84a6.12,6.12,0,0,1-.27,1.83l-2.91,10.76-3.43-12.59h-2l-3.44,12.54-2.86-10.46a4.42,4.42,0,0,1-.14-2.08Z" transform="translate(-22.11 -42.19)"/><path class="cls-4" d="M42.82,160a9,9,0,0,1,.22,1.93v7.54a13.86,13.86,0,0,1-.22,2.44h7.75v-1.08a7.72,7.72,0,0,1-1.86.38h-4.1v-4.84h4.7a4.26,4.26,0,0,1,1,.1v-1a6.3,6.3,0,0,1-1,.09H44.61V160.7h3.9a7.12,7.12,0,0,1,2.06.35V160Z" transform="translate(-22.11 -42.19)"/><path class="cls-4" d="M53.82,168c.29,2,1,3.49,3.49,3.49,2.26,0,2.95-1.2,2.95-2.33s-.44-1.89-3.39-2.52c-2.76-.62-4-1.55-4-3.68s2-3.24,4.11-3.24,4,.95,4.25,3.2l-1.27.5c-.19-1.6-1-3-3-3s-2.95,1.26-2.95,2.33,1.26,1.89,2.86,2.23c2.18.43,4.65,1.06,4.65,3.24s-1.26,3.92-4.22,3.92c-2.66,0-4.53-1.2-4.89-3.56l1.36-.6Z" transform="translate(-22.11 -42.19)"/><path class="cls-4" d="M67.09,160.72v10.13a2.68,2.68,0,0,1-.17,1H69a3.14,3.14,0,0,1-.17-1V160.72h3a7.38,7.38,0,0,1,1.65.22v-1H62.63v1a7,7,0,0,1,1.53-.22Z" transform="translate(-22.11 -42.19)"/><path class="cls-4" d="M75,160a9.7,9.7,0,0,1,.22,1.93v7.54a13.86,13.86,0,0,1-.22,2.44h7.75v-1.08a7.7,7.7,0,0,1-1.87.38H76.83v-4.84h4.7a4.26,4.26,0,0,1,1,.1v-1a6.3,6.3,0,0,1-1,.09H76.83V160.7h3.9a7.12,7.12,0,0,1,2.06.35V160Z" transform="translate(-22.11 -42.19)"/><path class="cls-4" d="M87.05,164.56v1h2.13a2.53,2.53,0,0,0,2.72-2.44,2.28,2.28,0,0,0-2.5-2.4H87.05v3.86l-1.57.06v-2.74a9,9,0,0,0-.22-1.93h4.53c1.7,0,3.66.82,3.66,3.1s-1.79,2.86-2.91,3.1A42.21,42.21,0,0,1,93.79,171a3.8,3.8,0,0,0,.72.87h-2a3.56,3.56,0,0,0-.41-.87,38.55,38.55,0,0,0-2.57-4.07,1.36,1.36,0,0,0-1.09-.6H87.05v5.54H85.26a13.86,13.86,0,0,0,.22-2.44v-4.8l1.57-.06Z" transform="translate(-22.11 -42.19)"/><path class="cls-4" d="M105.23,171.86h1.3a13.86,13.86,0,0,1-.22-2.44v-7.54a9,9,0,0,1,.22-1.93h-1.26a9,9,0,0,1,.22,1.93v8l-7.41-10H96.55a9,9,0,0,1,.22,1.93v7.54a13.86,13.86,0,0,1-.22,2.44h1.26a13.86,13.86,0,0,1-.22-2.44v-7.85l7.64,10.29Z" transform="translate(-22.11 -42.19)"/><path class="cls-4" d="M116.73,159.09v9.83a16.32,16.32,0,0,0,.26,3h-1.52a16.32,16.32,0,0,0,.26-3v-9.07a10.87,10.87,0,0,0-.26-2.32h2.61l5,12.5,5.19-12.5h2.35a11.56,11.56,0,0,0-.29,2.42V169a15.16,15.16,0,0,0,.27,2.85h-2.34a15.16,15.16,0,0,0,.27-2.85v-9.46l-5.27,12.3h-1.21l-5.32-12.77Z" transform="translate(-22.11 -42.19)"/><path class="cls-4" d="M135.72,160H134a9,9,0,0,1,.22,1.93v7.54a13.86,13.86,0,0,1-.22,2.44h1.75a13.86,13.86,0,0,1-.22-2.44v-7.54a9.44,9.44,0,0,1,.24-1.93Z" transform="translate(-22.11 -42.19)"/><path class="cls-4" d="M148.5,163.51c-.73-1.36-1.65-3-4.31-3a4.76,4.76,0,0,0-4.56,5c0,3.34,1.46,6.05,4.56,6.05a4.53,4.53,0,0,0,4.26-3.1l1,.92c-1.21,1.45-2.67,2.86-5.23,2.86s-6.2-1.84-6.2-6.64c0-3.88,3.63-5.91,6.15-5.91a6,6,0,0,1,5.28,2.86l-.92,1Z" transform="translate(-22.11 -42.19)"/><path class="cls-4" d="M165.37,160H163.6a9,9,0,0,1,.22,1.93v7.54a13.86,13.86,0,0,1-.22,2.44h1.75a13.86,13.86,0,0,1-.22-2.44v-7.54a10.2,10.2,0,0,1,.24-1.93Z" transform="translate(-22.11 -42.19)"/><path class="cls-4" d="M159,166.32v3.1a13.86,13.86,0,0,1-.22,2.44h1.74a14,14,0,0,1-.21-2.44v-7.54a9.44,9.44,0,0,1,.24-1.93h-1.77a9.7,9.7,0,0,1,.22,1.93v3.64h-6.45v-3.64a9.37,9.37,0,0,1,.25-1.93H151a9.82,9.82,0,0,1,.21,1.93v7.54a14,14,0,0,1-.21,2.44h1.74a13.86,13.86,0,0,1-.22-2.44v-3.1Z" transform="translate(-22.11 -42.19)"/><path class="cls-4" d="M177.29,169.92a4.57,4.57,0,0,1-3.74,1.63c-3.1,0-4.56-2.71-4.56-6.05a4.76,4.76,0,0,1,4.56-5c2.66,0,3.58,1.69,4.31,3l.92-1a6,6,0,0,0-5.28-2.86c-2.52,0-6.15,2-6.15,5.91,0,4.8,3.58,6.64,6.2,6.64a7,7,0,0,0,5.28-2v-4.58H175.2v.48h2.08v3.75Z" transform="translate(-22.11 -42.19)"/><path class="cls-4" d="M185.41,166.1h-1.62l1.77-4.82,1.75,4.82h-1.9l0,.75h2.21l1.44,4a3.41,3.41,0,0,1,.27,1h1.87c-.16-.27-.32-.67-.53-1.07l-4-10.85h-1.55l-4,10.93a3.56,3.56,0,0,1-.51,1h1.33a3,3,0,0,1,.14-1.16l1.45-3.85h1.86l0-.75Z" transform="translate(-22.11 -42.19)"/><path class="cls-4" d="M240.66,160H238.9a9.82,9.82,0,0,1,.21,1.93v7.54a14,14,0,0,1-.21,2.44h1.74a13.86,13.86,0,0,1-.22-2.44v-7.54a10.2,10.2,0,0,1,.24-1.93Z" transform="translate(-22.11 -42.19)"/><path class="cls-4" d="M267,164.84V160.7h2.35a2.28,2.28,0,0,1,2.49,2.4,2.52,2.52,0,0,1-2.71,2.44H267v-.7h-1.58v4.58a13.86,13.86,0,0,1-.22,2.44H267v-5.54h1.38a1.39,1.39,0,0,1,1.09.6A42.1,42.1,0,0,1,272,171a4,4,0,0,1,.41.87h2a4.11,4.11,0,0,1-.73-.87,42.11,42.11,0,0,0-3.24-4.84c1.11-.24,2.9-.82,2.9-3.1s-2-3.1-3.66-3.1h-4.53a9,9,0,0,1,.22,1.93v3Z" transform="translate(-22.11 -42.19)"/><path class="cls-4" d="M276.59,168c.29,2,1,3.49,3.49,3.49,2.26,0,2.95-1.21,2.95-2.33s-.43-1.89-3.39-2.52c-2.76-.63-4-1.55-4-3.68s2-3.25,4.12-3.25,4,1,4.25,3.21l-1.28.5c-.19-1.6-1-3-3-3s-3,1.26-3,2.33,1.26,1.88,2.86,2.22c2.18.44,4.65,1.07,4.65,3.25s-1.26,3.92-4.21,3.92c-2.67,0-4.53-1.21-4.9-3.56l1.36-.6Z" transform="translate(-22.11 -42.19)"/><path class="cls-4" d="M288.51,160h-1.77a9,9,0,0,1,.22,1.93v7.54a13.86,13.86,0,0,1-.22,2.44h1.74a13.86,13.86,0,0,1-.22-2.44v-7.54a9.37,9.37,0,0,1,.25-1.93Z" transform="translate(-22.11 -42.19)"/><path class="cls-4" d="M301.3,161.13l3.16,4.44,3.54-4.72a5,5,0,0,0,.41-.9h1.42c-.43.51-.77.93-.95,1.2l-4,5.5v4a3.52,3.52,0,0,0,.24,1.16h-1.89a4.21,4.21,0,0,0,.25-1.13v-4.12l-4.13-5.89h-3.81v10.13a3.14,3.14,0,0,0,.17,1h-2.06a2.68,2.68,0,0,0,.17-1V160.72h-2.93a7,7,0,0,0-1.53.22v-1h11.29a5.35,5.35,0,0,0,.66,1.18Z" transform="translate(-22.11 -42.19)"/><path class="cls-4" d="M255,160a9,9,0,0,1,.22,1.93v7.54a13.86,13.86,0,0,1-.22,2.44h7.75v-1.08a7.61,7.61,0,0,1-1.87.38h-4.09v-4.84h4.7a4.26,4.26,0,0,1,1,.1v-1a6.3,6.3,0,0,1-1,.09h-4.68V160.7h3.9a7.06,7.06,0,0,1,2.06.35V160Z" transform="translate(-22.11 -42.19)"/><path class="cls-4" d="M211.65,157.53a12.42,12.42,0,0,1,.25,2.27v7.25c0,2.47,1.35,5.18,5.57,5.18A5.18,5.18,0,0,0,222.7,167v-7.18a10,10,0,0,1,.31-2.29h-1.67a10.34,10.34,0,0,1,.22,2.27v6.95c0,1.84-.95,4.61-4.09,4.61-2.93,0-3.73-2.23-3.73-4.17v-7.41a9.49,9.49,0,0,1,.26-2.25Z" transform="translate(-22.11 -42.19)"/><path class="cls-4" d="M242.64,160a7.19,7.19,0,0,1,.8,1.62l3.63,10.29H249l3.88-10.24a8.24,8.24,0,0,1,.92-1.67h-1.65a6.65,6.65,0,0,1-.32,1.45l-3.51,9.33L245,161.57a5.86,5.86,0,0,1-.34-1.62Z" transform="translate(-22.11 -42.19)"/><path class="cls-4" d="M202.09,171.86h1.3a13.86,13.86,0,0,1-.22-2.44v-7.54a9,9,0,0,1,.22-1.93h-1.26a9,9,0,0,1,.22,1.93v8l-7.42-10h-1.52a9.7,9.7,0,0,1,.22,1.93v7.54a13.86,13.86,0,0,1-.22,2.44h1.26a13.86,13.86,0,0,1-.22-2.44v-7.85l7.64,10.29Z" transform="translate(-22.11 -42.19)"/><path class="cls-4" d="M234.84,171.86h1.29a14,14,0,0,1-.21-2.44v-7.54a9.82,9.82,0,0,1,.21-1.93h-1.26a9,9,0,0,1,.22,1.93v8l-7.41-10h-1.52a9.82,9.82,0,0,1,.21,1.93v7.54a15,15,0,0,1-.21,2.44h1.25a14,14,0,0,1-.21-2.44v-7.85l7.64,10.29Z" transform="translate(-22.11 -42.19)"/><path class="cls-2" d="M150.91,80.83V68.35h3.94V81.14c0,4.82,1.81,6.42,4.49,6.42S164,86,164,81.14V68.35h3.78V80.83c0,7.31-3.23,10.17-8.4,10.17S150.91,88.14,150.91,80.83Z" transform="translate(-22.11 -42.19)"/><path class="cls-2" d="M172.09,73.89h3.23l.27,2.25h.14a7.75,7.75,0,0,1,5.47-2.65c3.57,0,5.14,2.41,5.14,6.63V90.59h-3.91v-10c0-2.76-.79-3.78-2.62-3.78-1.46,0-2.41.72-3.81,2.08V90.59h-3.91Z" transform="translate(-22.11 -42.19)"/><path class="cls-2" d="M189.84,68.76A2.42,2.42,0,1,1,192.25,71,2.24,2.24,0,0,1,189.84,68.76Zm.44,5.13h3.91v16.7h-3.91Z" transform="translate(-22.11 -42.19)"/><path class="cls-2" d="M196.27,73.89h4l2.65,8.67c.45,1.64,1,3.34,1.4,5h.13c.48-1.7,1-3.4,1.43-5l2.65-8.67h3.78l-5.68,16.7h-4.52Z" transform="translate(-22.11 -42.19)"/><path class="cls-2" d="M213.23,82.26c0-5.44,3.77-8.77,7.68-8.77,4.53,0,6.91,3.26,6.91,7.92a9.21,9.21,0,0,1-.17,1.9H217c.34,3,2.24,4.66,4.93,4.66a7,7,0,0,0,3.87-1.22l1.33,2.44A10.48,10.48,0,0,1,221.46,91C216.83,91,213.23,87.77,213.23,82.26Zm11.19-1.6c0-2.58-1.13-4.15-3.4-4.15-2,0-3.68,1.46-4,4.15Z" transform="translate(-22.11 -42.19)"/><path class="cls-2" d="M230.71,73.89h3.23l.27,3h.13c1.19-2.17,3-3.36,4.73-3.36a4.2,4.2,0,0,1,1.9.34l-.68,3.4a5.41,5.41,0,0,0-1.73-.28c-1.33,0-2.92.92-3.94,3.44v10.2h-3.91Z" transform="translate(-22.11 -42.19)"/><path class="cls-2" d="M240.87,88.68l1.84-2.51A7.44,7.44,0,0,0,247.33,88c1.8,0,2.65-.85,2.65-2,0-1.39-1.8-2-3.57-2.68-2.21-.82-4.69-2.08-4.69-4.87s2.35-5,6.09-5a9,9,0,0,1,5.54,2l-1.8,2.38a6.24,6.24,0,0,0-3.67-1.43c-1.67,0-2.45.79-2.45,1.84,0,1.33,1.66,1.84,3.47,2.48,2.27.85,4.79,1.94,4.79,5.07,0,2.85-2.28,5.17-6.49,5.17A10.56,10.56,0,0,1,240.87,88.68Z" transform="translate(-22.11 -42.19)"/><path class="cls-2" d="M255.9,68.76A2.42,2.42,0,1,1,258.31,71,2.24,2.24,0,0,1,255.9,68.76Zm.44,5.13h3.91v16.7h-3.91Z" transform="translate(-22.11 -42.19)"/><path class="cls-2" d="M265,84.94V77H262.6V74.06l2.58-.17.48-4.55h3.26v4.55h4.25V77h-4.25v8c0,2,.75,2.93,2.35,2.93a4.61,4.61,0,0,0,1.73-.38l.68,2.89a10.53,10.53,0,0,1-3.4.62C266.41,91,265,88.55,265,84.94Z" transform="translate(-22.11 -42.19)"/><path class="cls-2" d="M274.77,97.11l.71-3.06a3.93,3.93,0,0,0,1.19.24c1.77,0,2.79-1.19,3.34-2.85l.3-1.06-6.56-16.49h4l2.89,8.2c.47,1.46.95,3.13,1.46,4.69h.14c.4-1.53.85-3.2,1.25-4.69l2.52-8.2h3.77l-6.05,17.44c-1.39,3.78-3.13,6.12-6.76,6.12A6.35,6.35,0,0,1,274.77,97.11Z" transform="translate(-22.11 -42.19)"/><path class="cls-2" d="M151,103.35h4v18.9h9.24v3.34H151Z" transform="translate(-22.11 -42.19)"/><path class="cls-2" d="M166.45,103.76a2.42,2.42,0,1,1,2.41,2.21A2.24,2.24,0,0,1,166.45,103.76Zm.44,5.13h3.91v16.7h-3.91Z" transform="translate(-22.11 -42.19)"/><path class="cls-2" d="M178.48,123.82h-.1l-.34,1.77H175v-24h3.91v6.19l-.1,2.79a7.6,7.6,0,0,1,4.82-2.07c4.18,0,6.6,3.33,6.6,8.46,0,5.75-3.44,9-7.14,9A6.71,6.71,0,0,1,178.48,123.82Zm7.65-6.8c0-3.33-1.09-5.3-3.6-5.3a5.32,5.32,0,0,0-3.67,1.87v7.78a5.22,5.22,0,0,0,3.36,1.4C184.43,122.77,186.13,120.79,186.13,117Z" transform="translate(-22.11 -42.19)"/><path class="cls-2" d="M193.24,108.89h3.23l.27,3h.14c1.19-2.17,3-3.36,4.72-3.36a4.24,4.24,0,0,1,1.91.34l-.68,3.4a5.47,5.47,0,0,0-1.74-.28c-1.32,0-2.92.92-3.94,3.44v10.2h-3.91Z" transform="translate(-22.11 -42.19)"/><path class="cls-2" d="M204.19,121.1c0-3.57,2.95-5.44,9.82-6.19-.07-1.77-.78-3.26-3.06-3.26a9.56,9.56,0,0,0-4.69,1.63l-1.43-2.62a13.13,13.13,0,0,1,6.87-2.17c4.15,0,6.22,2.55,6.22,7.2v9.9h-3.23l-.27-1.84h-.14a8.09,8.09,0,0,1-5.16,2.25A4.67,4.67,0,0,1,204.19,121.1Zm9.82,0v-3.74c-4.55.58-6,1.77-6,3.43,0,1.5,1,2.15,2.41,2.15S212.75,122.25,214,121.1Z" transform="translate(-22.11 -42.19)"/><path class="cls-2" d="M221.76,108.89H225l.28,3h.13c1.19-2.17,3-3.36,4.73-3.36a4.2,4.2,0,0,1,1.9.34l-.68,3.4a5.45,5.45,0,0,0-1.73-.28c-1.33,0-2.93.92-4,3.44v10.2h-3.91Z" transform="translate(-22.11 -42.19)"/><path class="cls-2" d="M233.15,103.76a2.42,2.42,0,1,1,2.42,2.21A2.25,2.25,0,0,1,233.15,103.76Zm.45,5.13h3.91v16.7H233.6Z" transform="translate(-22.11 -42.19)"/><path class="cls-2" d="M240.57,117.26c0-5.44,3.77-8.77,7.68-8.77,4.52,0,6.9,3.26,6.9,7.92a9.21,9.21,0,0,1-.17,1.9H244.37c.34,3,2.25,4.66,4.93,4.66a7,7,0,0,0,3.88-1.22l1.32,2.44a10.46,10.46,0,0,1-5.71,1.81C244.17,126,240.57,122.77,240.57,117.26Zm11.18-1.6c0-2.58-1.12-4.15-3.4-4.15-2,0-3.67,1.46-4,4.15Z" transform="translate(-22.11 -42.19)"/><path class="cls-2" d="M256.38,123.68l1.83-2.51a7.48,7.48,0,0,0,4.62,1.87c1.81,0,2.66-.85,2.66-2,0-1.39-1.81-2-3.57-2.68-2.21-.82-4.69-2.08-4.69-4.87s2.34-5,6.08-5a9,9,0,0,1,5.54,2l-1.8,2.38a6.21,6.21,0,0,0-3.67-1.43c-1.67,0-2.45.79-2.45,1.84,0,1.33,1.67,1.84,3.47,2.48,2.28.85,4.79,1.94,4.79,5.07,0,2.85-2.27,5.17-6.49,5.17A10.53,10.53,0,0,1,256.38,123.68Z" transform="translate(-22.11 -42.19)"/></svg>