<?xml version="1.0" encoding="utf-8"?>
<!-- Generator: Adobe Illustrator 22.1.0, SVG Export Plug-In . SVG Version: 6.00 Build 0)  -->
<svg version="1.1" id="Layer_1" xmlns="http://www.w3.org/2000/svg" xmlns:xlink="http://www.w3.org/1999/xlink" x="0px" y="0px"
	 viewBox="0 0 288 288" style="enable-background:new 0 0 288 288;" xml:space="preserve">
<style type="text/css">
	.st0{fill:#FFFFFF;}
	.st1{fill:#FAC315;}
</style>
<g>
	<polygon points="266.3,38.4 187.8,38.4 187.8,87.2 198.4,87.2 188.4,126.9 167.8,38.3 121.5,38.3 100.6,127 90.7,87.2 101.3,87.2 
		101.3,38.3 22.5,38.3 22.5,87.2 33.5,87.2 75.4,250 121.7,250 144.4,165.8 167.5,250 213.6,250 255.3,87.2 266.3,87.2 	"/>
	<polygon class="st0" points="262.2,42.4 191.9,42.4 191.9,83.1 203.8,83.1 188.4,144.8 164.3,42.4 124.9,42.4 100.7,144.2 
		85.3,83.1 97.2,83.1 97.2,42.4 26.6,42.4 26.6,83.1 36.7,83.1 78.6,246 118.6,246 144.4,150.7 170.6,246 210.5,246 252.1,83.1 
		262.2,83.1 	"/>
	<polygon class="st1" points="260.1,44.6 194,44.6 194,81 206.5,81 188.4,153.8 162.6,44.6 126.7,44.6 100.7,153.7 82.6,81 95.1,81 
		95.1,44.6 28.7,44.6 28.7,81 38.3,81 80.3,243.9 117,243.9 144.4,142.1 172.2,243.9 208.8,243.9 250.5,81 260.1,81 	"/>
</g>
</svg>
