<svg xmlns="http://www.w3.org/2000/svg" xmlns:xlink="http://www.w3.org/1999/xlink" id="Layer_1" x="0" y="0" version="1.1" viewBox="0 0 288 288" xml:space="preserve" style="enable-background:new 0 0 288 288"><style type="text/css">.st0{fill:#fff}</style><g><g><path d="M164.6,42.3l19.9,85.5l3.7,16.1l4-16l10-39.7l1.3-5h-5.1h-6.6V42.4h70.4v40.9h-7h-3.1l-0.8,3L210.5,246h-39.9 l-22.3-81.2l-3.9-14.2l-3.8,14.2L118.7,246H78.5L37.4,86.2l-0.8-3h-3.1h-7V42.3h70.9v40.9h-6.7h-5.1l1.2,5l10,39.8l4,16l3.8-16 l20.1-85.6H164.6 M167.8,38.3h-46.3L100.6,127l-10-39.8h10.7V38.3H22.5v48.9h11L75.4,250h46.3l22.7-84.2l23.1,84.2h46.1 l41.7-162.8h11V38.4h-78.4v48.8h10.6l-10,39.7L167.8,38.3L167.8,38.3z" class="st0"/></g><polygon points="260.1 44.6 194 44.6 194 81 206.5 81 188.4 153.8 162.6 44.6 126.7 44.6 100.7 153.7 82.6 81 95.1 81 95.1 44.6 28.7 44.6 28.7 81 38.3 81 80.3 243.9 117 243.9 144.4 142.1 172.2 243.9 208.8 243.9 250.5 81 260.1 81" class="st0"/></g></svg>