<svg xmlns="http://www.w3.org/2000/svg" xmlns:xlink="http://www.w3.org/1999/xlink" style="enable-background:new 0 0 856.3 484.7" x="0" y="0" version="1.1" viewBox="0 0 856.3 484.7" xml:space="preserve"><style type="text/css">.st0{fill:#e1e1e1}.st0,.st1,.st2,.st3,.st4,.st5{stroke:#6e6e6e;stroke-width:.48;stroke-linecap:round;stroke-linejoin:round;stroke-miterlimit:10}.st1{fill:#e9ffbe}.st2{fill:#fff}.st3{fill:#d4efff}.st4{fill:#ff7f7f}.st5{fill:#c49a6c}.st6{clip-path:url(#SVGID_2_)}.st6,.st7{fill:none;stroke:#000;stroke-width:.62;stroke-linecap:round;stroke-linejoin:round;stroke-miterlimit:10}.st7,.st8,.st9{fill-rule:evenodd;clip-rule:evenodd}.st9{fill:none;stroke:#000;stroke-width:.62;stroke-linecap:round;stroke-miterlimit:10}</style><g id="Layers"><g id="LowerLevelPublic"><g><polyline points="851.4 316.8 759.3 370.2 759.3 430.9 566.4 431.2 562.8 427.6 561.1 427.3 560.9 299.2 636.5 299.2 636.2 234.4 636.2 180.9 671.3 180.9 671.5 194.8 752.4 194.8 852.2 137" class="st0"/><polygon points="636.2 180.9 636.2 234.4 611 234.4 610.8 236.5 567.8 236.5 560.6 236.3 560.4 180.6" class="st1"/><polygon points="559.4 40 616.5 40 616.5 73.1 550.8 73.1 547.7 73.1 547.7 59.9 559.4 59.9" class="st2"/><polygon points="566.9 88.7 617.7 88.7 617.7 105.5 650.1 105.5 650.1 143.2 568.3 143.2 568.3 148.7 558.5 148.7 558.5 137.2 559.4 134.3 559.7 103.3 566.9 103.3" class="st2"/><polygon points="676.8 43.8 676.5 143.2 650.1 143.2 650.1 105.5 624.5 105.5 624.5 43.8" class="st3"/><rect width="22.8" height="20.6" x="688.3" y="142.9" class="st2"/><polygon points="457.7 204.1 457.9 278.5 392.4 278.8 392.1 242.5 335.3 242.5 335 203.9" class="st2"/><polygon points="501.3 217.3 501.6 242.8 474.7 242.8 474.7 217.3" class="st2"/><polygon points="224.6 180.4 250.8 180.1 250.8 177.5 264 177.7 263.7 188.1 262.1 188.1 262.1 189 224.9 189 224.9 265.8 250.3 265.8 250.3 206.3 262.1 206.3 262.1 304.9 173.3 304.7 173.3 274.9 178.1 274.9 178.1 274.5 216.9 274.5 216.9 214 217.2 178 224.9 177.7" class="st0"/><polygon points="216.9 214 216.9 274.5 178.1 274.5 178.1 213.7" class="st3"/><polygon points="262.1 189 262.1 206.3 250.3 206.3 250.3 265.8 224.9 265.8 224.9 189" class="st4"/><polygon points="78.9 229.6 112.8 229.6 112.8 226.7 118.3 226.7 118.3 232.5 115.9 232 100.1 232 100.1 258.9 115.7 258.9 115.7 260.5 118.3 260.5 118.3 282.6 78.9 282.6" class="st0"/><polygon points="115.9 232 115.7 258.9 100.1 258.9 100.1 232" class="st2"/><polygon points="573.3 236.5 610.8 236.5 611 234.4 636.2 234.4 636.5 299.2 560.9 299.2 560.9 251.2 560.6 236.3" class="st5"/></g></g></g><g id="Other_2"><g><defs><rect id="SVGID_1_" width="1074.3" height="784.5" x="-12.8" y="-274.8"/></defs><clipPath id="SVGID_2_"><use style="overflow:visible" xlink:href="#SVGID_1_"/></clipPath><path d="M43.3,59.7c-57.3,56.9-57.3,149.4,0,206.8 M258.2,442.1c95,54.5,211.3,56.5,308.3,5.3 M201.7,60.5 c1.2,0,1.2,0,1.2,0c0,1.2,0,1.2,0,1.2 M240.6,63.8c0-2.9,0-2.9,0-2.9 M240.6,60.9c2.5,0,2.5,0,2.5,0c0,2.9,0,2.9,0,2.9 M197.6,64.6c0-2,0-2,0-2 M258.6,64.6c-59.4,0-59.4,0-59.4,0 M255.4,60.5c5.7,0,5.7,0,5.7,0c0,3.3,0,3.3,0,3.3 M255.4,61.7 c-12.3,0-12.3,0-12.3,0 M627.1,141.2c0-3.7,0-3.7,0-3.7c-3.7,0-3.7,0-3.7,0 M494.9,241.5c5.3,0,5.3,0,5.3,0 M484.6,242.3 c0-0.8,0-0.8,0-0.8 M494.9,241.5c0,0.8,0,0.8,0,0.8 M475.6,216.1c0,2,0,2,0,2 M526.8,241.5c-21.3,0-21.3,0-21.3,0 c0-4.9,0-4.9,0-4.9 M475.6,241.5c9,0,9,0,9,0 M220.6,253.8c2.5,0,2.5,0,2.5,0c0,3.7,0,3.7,0,3.7c-2.5,0-2.5,0-2.5,0 C220.6,253.8,220.6,253.8,220.6,253.8 M562.4,243.1c4.1,0,4.1,0,4.1,0 M566.5,243.1c0-6.6,0-6.6,0-6.6c-4.1,0-4.1,0-4.1,0 M505.5,236.6c-5.3,0-5.3,0-5.3,0c0,4.9,0,4.9,0,4.9 M43.3,266.5c0,163.4,0,163.4,0,163.4c214.9,0,214.9,0,214.9,0 M563.7,321.3 c-2.9,0-2.9,0-2.9,0c0,5.3,0,5.3,0,5.3c5.3,0,5.3,0,5.3,0c0-5.3,0-5.3,0-5.3C563.7,321.3,563.7,321.3,563.7,321.3 M566.1,100.2 c-5.3,0-5.3,0-5.3,0c0-4.1,0-4.1,0-4.1c5.3,0,5.3,0,5.3,0c0,2.5,0,2.5,0,2.5C566.1,100.2,566.1,100.2,566.1,100.2 M751.2,354.9 c0,4.1,0,4.1,0,4.1c4.1,0,4.1,0,4.1,0c0-4.1,0-4.1,0-4.1C751.2,354.9,751.2,354.9,751.2,354.9 M696.3,80.2 c1.6,3.3,1.6,3.3,1.6,3.3c0.8,1.6,0.8,1.6,0.8,1.6 M618.9,72.8c0-72.5,0-72.5,0-72.5 M700.8,77.7c-4.5,2.5-4.5,2.5-4.5,2.5 M739.7,154.3c4.5-2.9,4.5-2.9,4.5-2.9 M744.2,151.4c-2.5-4.5-2.5-4.5-2.5-4.5c-4.5,2.5-4.5,2.5-4.5,2.5" class="st6"/><path d="M852.2,310.7l-45.3,26.2 M851.4,316.8l-91.6,53.7 M835.9,320.5l-8.2,4.5 M757.3,371.7l-9.4-16.8 M755.7,366.8 l-6.6-11.5 M747.9,354.9l6.6-4.1 M749.1,355.3l4.9-2.9l6.6,11.5l-4.9,2.9l4.9-2.9 M826.9,325.4l-20.1,11.5 M806,337.7l-18,10.2 M786.8,345.5l-4.9,2.9l2.9,4.5l4.5-2.5L786.8,345.5 M783.1,350.4l-21.7,12.7 M806,337.7l-18,10.2 M834.3,317.6l2.5,4.9l4.5-2.9 l-2.5-4.5L834.3,317.6 M742.2,160l-5.7-10.2 M714.7,161.2l3.3-2 M731.1,126.4l17.2,29.9l-6.1,3.7 M752.4,196.4L856,136.7l-0.4-0.8 l-103.2,59.4" class="st6"/></g><g><path d="M547.3,71.6c-3.3,0-3.3,0-3.3,0c0-10.2,0-10.2,0-10.2c3.3,0,3.3,0,3.3,0C547.3,71.6,547.3,71.6,547.3,71.6 M543.2,72.4c8.2,0,8.2,0,8.2,0 M543.2,72.4c0-12.3,0-12.3,0-12.3c5.3,0,5.3,0,5.3,0c0,11.5,0,11.5,0,11.5 M751.2,426.5 c4.1,0,4.1,0,4.1,0c0-4.1,0-4.1,0-4.1c-4.1,0-4.1,0-4.1,0C751.2,426.5,751.2,426.5,751.2,426.5 M756.9,421.6c-6.6,0-6.6,0-6.6,0 c0,7,0,7,0,7 M682.8,426.5c4.1,0,4.1,0,4.1,0c0-4.1,0-4.1,0-4.1c-4.1,0-4.1,0-4.1,0C682.8,426.5,682.8,426.5,682.8,426.5 M684.8,421.6c-2.9,0-2.9,0-2.9,0c0,7,0,7,0,7 M687.7,428.6c0-7,0-7,0-7c-2.9,0-2.9,0-2.9,0 M759.8,370.5c0,60.6,0,60.6,0,60.6 M757.3,371.7c-0.4,0.4-0.4,0.4-0.4,0.4c0,22.9,0,22.9,0,22.9 M761.4,363.1c-7-12.3-7-12.3-7-12.3 M752.4,196.4 c-42.6,0-42.6,0-42.6,0 M752.4,195.2c-42.6,0-42.6,0-42.6,0 M648.4,196.4c0-13.9,0-13.9,0-13.9 M649.6,195.2c0-12.7,0-12.7,0-12.7 M648.4,182.5c-12.3,0-12.3,0-12.3,0 M649.6,181.3c-16.8,0-16.8,0-16.8,0 M562.4,185.4c0,23.7,0,23.7,0,23.7 M561.2,181.3 c0,30.7,0,30.7,0,30.7 M562.4,312.7c-1.2,0-1.2,0-1.2,0 M636.1,182.5c0,115.9,0,115.9,0,115.9 M634.9,209.1c0-26.6,0-26.6,0-26.6 c-2,0-2,0-2,0 M562.4,244.3c0,10.6,0,10.6,0,10.6 M567.8,234.9c-5.3,0-5.3,0-5.3,0 M562.4,244.3c5.3,0,5.3,0,5.3,0 c0-6.1,0-6.1,0-6.1 M626.7,242.3c0-5.3,0-5.3,0-5.3c-5.3,0-5.3,0-5.3,0c0,5.3,0,5.3,0,5.3C626.7,242.3,626.7,242.3,626.7,242.3 M634.9,243.1c0-6.6,0-6.6,0-6.6c-22.5,0-22.5,0-22.5,0 M634.9,234.9c-23.7,0-23.7,0-23.7,0 M612.4,236.6c0,6.6,0,6.6,0,6.6 M611.2,234.9c0,2,0,2,0,2 M612.4,243.1c22.5,0,22.5,0,22.5,0 M611.2,244.3c23.7,0,23.7,0,23.7,0c0,52.8,0,52.8,0,52.8 M566.5,181.3c0,4.1,0,4.1,0,4.1c-5.3,0-5.3,0-5.3,0 M567.3,181.3c0,1.2,0,1.2,0,1.2 M575.5,182.5c0-1.2,0-1.2,0-1.2 M567.3,181.3 c-6.1,0-6.1,0-6.1,0 M567.3,182.5c-0.8,0-0.8,0-0.8,0 M634.9,234.9c0-24.6,0-24.6,0-24.6c-35.2,0-35.2,0-35.2,0 M634.9,209.1 c-44.2,0-44.2,0-44.2,0 M589.5,209.1c0-17.2,0-17.2,0-17.2 M589.5,182.5c-13.9,0-13.9,0-13.9,0 M590.7,209.1c0-17.2,0-17.2,0-17.2 M589.5,183.7c1.2,0,1.2,0,1.2,0 M590.7,191.9c-1.2,0-1.2,0-1.2,0 M590.7,183.7c0-1.2,0-1.2,0-1.2 M589.5,183.7c0-1.2,0-1.2,0-1.2 M561.6,359c4.1,0,4.1,0,4.1,0c0-4.1,0-4.1,0-4.1c-4.1,0-4.1,0-4.1,0C561.6,359,561.6,359,561.6,359 M563.7,354.5 c-2.5,0-2.5,0-2.5,0c0,5.3,0,5.3,0,5.3 M566.1,359.8c0-5.3,0-5.3,0-5.3c-2.5,0-2.5,0-2.5,0 M622.2,426.5c4.1,0,4.1,0,4.1,0 c0-4.1,0-4.1,0-4.1c-4.1,0-4.1,0-4.1,0C622.2,426.5,622.2,426.5,622.2,426.5 M624.3,421.6c-2.9,0-2.9,0-2.9,0c0,7,0,7,0,7 M627.1,428.6c0-7,0-7,0-7c-2.9,0-2.9,0-2.9,0 M566.1,428.6c0-7,0-7,0-7c-2.5,0-2.5,0-2.5,0 M561.2,421.6c0,5.7,0,5.7,0,5.7 M563.7,421.6c-1.6,0-1.6,0-1.6,0 M565.7,426.5c0-4.1,0-4.1,0-4.1c-4.1,0-4.1,0-4.1,0c0,4.1,0,4.1,0,4.1 C565.7,426.5,565.7,426.5,565.7,426.5 M759.8,431.1c-193.2,0-193.2,0-193.2,0 M750.4,428.6c-26.2,0-26.2,0-26.2,0 M566.5,431.1 c0,16.4,0,16.4,0,16.4 M563.7,428.6c0,17.2,0,17.2,0,17.2 M561.2,427.4c2.5,0,2.5,0,2.5,0c0,1.2,0,1.2,0,1.2 M561.2,421.6 c0-61.8,0-61.8,0-61.8 M562,359.8c4.1,0,4.1,0,4.1,0 M562,421.6c0-24.6,0-24.6,0-24.6 M560.8,321.3c0-1.6,0-1.6,0-1.6 M562,321.3 c0-1.6,0-1.6,0-1.6c-1.2,0-1.2,0-1.2,0 M260.7,440.5c18.4,10.2,37.3,18.8,57.3,25.4 M261.1,440.5c0-18.8,0-18.8,0-18.8 M261.1,421.6c-5.7,0-5.7,0-5.7,0c0,5.7,0,5.7,0,5.7 M260.3,426.5c0-4.1,0-4.1,0-4.1c-4.1,0-4.1,0-4.1,0c0,4.1,0,4.1,0,4.1 C260.3,426.5,260.3,426.5,260.3,426.5 M258.2,442.1c0-12.3,0-12.3,0-12.3 M45.8,427.4c209.6,0,209.6,0,209.6,0 M528.5,316.8 c0-53.2,0-53.2,0-53.2 M530.1,318.5c0-56.5,0-56.5,0-56.5 M528.5,263.6c-50.4,0-50.4,0-50.4,0 M530.1,261.9c-53.2,0-53.2,0-53.2,0 M478.1,263.6c0,53.2,0,53.2,0,53.2 M476.9,261.9c0,56.5,0,56.5,0,56.5" class="st7"/><path d="M478.1,316.8h1.6 M476.9,318.5h2.9 M525.6,318.5v-1.6 M479.7,318.5v-1.6 M525.6,316.8h2.9 M525.6,318.5h4.5 M474.4,242.3h10.2 M526.8,241.5v-8.2 M528.5,242.3v-10.6h-1.6 M526.8,233.3H517 M526.8,232.1h-8.6 M517,233.3v-13.9 M518.2,232.1 v-7.4 M517,214.5h11.5 M518.2,216.1h8.6 M528.5,214.5v2.5 M526.8,216.1v0.8h1.6 M526.8,232.1v-0.4 M501.4,236.6v-17.2 M518.2,223.5h8.6 M518.2,224.7h8.6 M526.8,223.5v-1.2 M528.5,224.7v-2.5h-1.6 M526.8,224.7v1.2h1.6v-2.5 M518.2,223.5v-7.4 M474.4,214.5v27.8 M494.1,218.1h0.8 M494.1,219.4h6.1 M501.4,218.1H517 M501.4,219.4H517 M517,222.2v1.2 M517,218.1v-3.7 M500.2,218.1v-2 M501.4,218.1v-3.7 M500.2,216.1h-2.5 M501.4,214.5h-4.1 M475.6,219.4v22.1 M494.1,219.4v-1.2 M494.9,218.1 l2.5-3.7 M500.2,218.1h-3.7l1.2-2 M478.1,216.1l1.6,2h-4.1 M481.4,218.1l-2.5-3.7 M481.8,219.4v-1.2 M474.4,214.5h4.5 M475.6,216.1h2.5 M481.8,219.4h-6.1 M481.8,218.1h-0.4 M500.2,219.4v17.2 M481.8,218.1h12.3 M475.6,219.4l24.6,22.1 M475.6,241.5 l24.6-22.1 M378.6,242.3L378.6,242.3 M378.6,242.3h-16 M378.6,241.1h-14.3 M335.6,271.4v-20.5 M337.3,241.1v-35.2 M335.6,204.2 h122 M337.3,205.9h27 M457.6,204.2v11.1 M456,205.9v8.6 M457.6,277.9h-65.1 M456,276.7h-61.8 M392.5,277.9v-22.1 M394.2,276.7 v-20.9 M392.5,205.9h21.3 M364.3,241.1h-1.6 M363.5,205.9h29.1 M362.6,241.1v1.2 M335.6,242.3h19.2v-1.2h-17.6 M392.5,240.7v1.2 M392.5,241.9L392.5,241.9 M392.5,240.7L392.5,240.7 M456,237.4L456,237.4 M456,236.2L456,236.2 M394.2,244.8L394.2,244.8 M453.9,244.8L453.9,244.8 M394.2,246L394.2,246 M453.9,246L453.9,246 M456,236.2v6.6 M456,248v28.7 M394.2,246v-4.9 M392.5,247.6 h1.6 M394.2,255.8h-1.6 M392.5,247.6v-5.7 M394.2,247.6V246 M456.8,248v29.5h-63.5v-21.7 M354.9,241.9h-18.4V205h56.1 M378.6,241.9h-16 M456,214.5L456,214.5 M456,213.2L456,213.2 M393.8,205.9L393.8,205.9 M456,214.5v0.8h1.6 M457.6,242.7v-19.2 H456v12.7 M415,205.9L415,205.9 M413.8,205.9L413.8,205.9 M435.9,205.9L435.9,205.9 M434.7,205.9L434.7,205.9 M413.8,205.9h20.9 M433.9,205.9H456" class="st7"/><path d="M692.6,195.2v1.2 M709.8,196.4v-1.2 M692.6,195.2h-21.7 M692.6,196.4h-44.2 M566.1,141.2h-5.3v5.3h5.3V141.2 M563.7,148.1h-4.5 M563.7,146.5h-2.9 M559.2,148.1v-11.5 M560.8,146.5V135 M559.2,136.7h-7.8 M560.8,135h-0.4 M551.4,136.7V72.4 M552.6,135V72.8 M548.5,71.6h68 M552.6,72.8h66.3 M616.5,71.6V54.4 M563.7,146.5h2.5 M563.7,148.1h4.1 M566.1,146.5V135 M567.8,148.1v-5.7 M566.1,135h6.6 M567.8,136.7h4.5 M572.7,135v3.3 M572.3,136.7v2.9 M572.7,138.3h22.1 M596,126.4v14.7 M628.8,142.4H621 M572.3,139.5h22.5 M594.8,141.2h-27v-4.5 M623,124.8h-28.2v13.5 M594.8,139.5v1.6 M627.5,141.2H623 M600.5,126.4v14.7 M601.7,126.4v14.7 M600.5,141.2H596 M600.5,126.4H596 M621.8,126.4v14.7 M623,124.8v8.2 M621.8,126.4h-20.1 M621.8,141.2H621v1.2 M582.5,142.4h30.7v-1.2h-11.5 M627.5,134.2v7 M623.4,137.5v3.7 M628.8,133v9.4 M627.5,134.2H623 M628.8,133 H623 M623,134.2v7 M559.6,135v-31.5 M560.4,135v-30.7 M559.6,103.5h7.4 M560.4,104.3h7.4 M566.9,103.5V88.8 M567.8,104.3V89.6 M566.9,88.8h50.8 M567.8,89.6h49.1 M617.7,88.8v17.2 M616.9,89.6V117h0.8 M582.5,142.4v5.7 M567.8,142.4h13.5v5.7h1.2 M617.7,105.9h31.1 M617.7,107.6h31.1 M650,89.2V99 M648.8,88.3V99 M648.8,141.2h-1.6 M647.2,142.4L647.2,142.4 M647.2,141.2 L647.2,141.2 M647.2,141.2v1.2 M636.1,133.4h2.9v7.8h0.8v1.2h-2v-7.8h-1.6V133.4 M617.7,107.6v9.4 M650,141.2h3.3 M647.2,142.4 h8.2 M650,132.2h5.3 M650,133.4h3.3 M655.4,132.2v1.2 M671.7,142.4v-1.2 M672.6,133.4h-0.8v-1.2h5.3 M655.4,141.2v1.2 M671.7,141.2h0.8 M671.7,142.4h5.3 M650,133.4v7.8 M654.5,133.4v7.8 M653.3,133.4v7.8 M655,133.4h-0.4 M673.8,133.4v7.8 M672.6,133.4v7.8 M677.1,133.4v7.8 M654.5,141.2h0.8 M654.5,133.4h0.8 M673.8,133.4h3.3 M673.8,141.2h3.3 M677.1,142.4v8.6 M677.1,162.9h17.2V160h-6.1v-16.8 M686.1,162v-18.8 M688.1,162h5.3 M693.4,162v-1.2h-5.3v1.2 M677.9,162h8.2 M686.1,143.2h-8.2 v7.8 M685.7,141.2h-7.8v-2.5h7.8V141.2 M678.7,137.1h10.6v1.6h25.4v11.9 M688.1,143.2h22.5v17.2h-7v2.5h11.1 M689.3,141.6h22.9 M689.3,140.3h24.2 M712.3,141.6v19.7 M713.5,140.3V162h-9 M712.3,161.2h-7.8v0.8 M689.3,140.3v1.2 M710.6,160.4l-22.5-17.2 M688.1,160l22.5-16.8 M559.6,135h-7 M739.7,154.3l-2.5-4.9 M677.1,159.2h0.8 M677.9,151h-0.8 M677.9,159.2v2.9 M677.1,159.2v3.7 M714.7,162.5v0.4 M736.4,149.8l-13.1,7.8 M714.7,150.6h8.6 M714.7,152.2h7.8 M723.3,150.6l2.5,4.5 M722.5,152.2l2,3.3 M714.7,152.2v9 M725.8,155.1l16.4-9.4 M723.7,158.8l-4.5,2.9l-1.6-3.3l4.5-2.9L723.7,158.8 M722.9,156.7l1.6-1.2 M718.4,160.4 l-3.7,2 M691.8,58.9l12.3-7.4 M689.8,58.5l13.1-7.8 M561.2,42.5v22.1 M560,40.4v25.4 M561.2,64.6h4.5 M560,65.8h6.6 M565.7,64.6 V42.5 M566.5,65.8V42.5 M548.5,60.5h1.2 M548.5,61.3h1.2 M557.9,60.5v0.8 M549.7,61.3v-0.8 M557.9,60.5h2 M557.9,61.3h2" class="st7"/><path d="M549.7,61.3l5.7,5.7l-6.1-5.3L549.7,61.3L549.7,61.3z M555.5,67.1l-6.1-5.3l5.7,5.7L555.5,67.1L555.5,67.1z" class="st8"/><path d="M549.7,61.3l5.7,5.7l-6.1-5.3L549.7,61.3L549.7,61.3z M555.5,67.1l-6.1-5.3l5.7,5.7L555.5,67.1L555.5,67.1z" class="st9"/><path d="M549.7,61.3l-0.4,0.4l5.7,5.7l0.4-0.4L549.7,61.3l-0.4,0.4L549.7,61.3 M549.3,61.7l5.7,5.7L549.3,61.7 M555.1,67.5l0.4-0.4L555.1,67.5 M555.5,67.1l-5.7-5.7L555.5,67.1" class="st7"/><path d="M567.8,182.5l5.7,5.7l-6.1-5.3L567.8,182.5L567.8,182.5z M573.5,188.2l-6.1-5.3l5.7,5.7L573.5,188.2 L573.5,188.2z" class="st8"/><path d="M567.8,182.5l5.7,5.7l-6.1-5.3L567.8,182.5L567.8,182.5z M573.5,188.2l-6.1-5.3l5.7,5.7L573.5,188.2 L573.5,188.2z" class="st9"/><path d="M567.8,182.5l-0.4,0.4l5.7,5.7l0.4-0.4L567.8,182.5l-0.4,0.4L567.8,182.5 M567.3,182.9l5.7,5.7L567.3,182.9 M573.1,188.7l0.4-0.4L573.1,188.7 M573.5,188.2l-5.7-5.7L573.5,188.2" class="st7"/><path d="M590.7,184.2l5.3,5.7l-5.7-5.3L590.7,184.2L590.7,184.2z M596,189.9l-5.7-5.3l5.7,5.7V189.9L596,189.9z" class="st8"/><path d="M590.7,184.2l5.3,5.7l-5.7-5.3L590.7,184.2L590.7,184.2z M596,189.9l-5.7-5.3l5.7,5.7V189.9L596,189.9z" class="st9"/><path d="M590.7,184.2l-0.4,0.4l5.7,5.7v-0.4L590.7,184.2l-0.4,0.4L590.7,184.2 M590.3,184.6l5.7,5.7L590.3,184.6 M596,190.3v-0.4V190.3 M596,189.9l-5.3-5.7L596,189.9 M552.6,74.8H623 M625.1,72.8V50.7 M625.1,42.1h53.6V65 M678.7,101.9V70.3h2 V65h-2 M626.3,43.7h50.8v57.7 M626.3,74.4v-2 M677.1,107.2h3.7v-5.3h-3.7 M677.1,101.4v30.7 M710.2,93.7l-6.6-11.5 M703.7,82.2 l-4.9,2.9 M703.7,82.2l-13.9-23.7 M725.4,120.3l-15.1-26.6 M726.6,119.5l-34.8-60.6" class="st7"/><path d="M726.6,119.5l6.6,4.9l-6.6-4.5V119.5L726.6,119.5z M733.2,124.4l-6.6-4.5l6.6,4.9V124.4L733.2,124.4z" class="st8"/><path d="M726.6,119.5l6.6,4.9l-6.6-4.5V119.5L726.6,119.5z M733.2,124.4l-6.6-4.5l6.6,4.9V124.4L733.2,124.4z" class="st9"/><path d="M726.6,119.5v0.4l6.6,4.9v-0.4L726.6,119.5v0.4V119.5 M726.6,119.9l6.6,4.9L726.6,119.9 M733.2,124.8v-0.4 V124.8 M733.2,124.4l-6.6-4.9L733.2,124.4" class="st7"/><path d="M721.7,110.5l-1.2,0.8 M715.1,101.9l1.2-0.8 M714.7,101.4l1.2-0.8 M721.3,110l-1.2,0.4 M725.4,120.3l1.2-0.8 M740.5,145.7l1.2-0.4 M736.4,135.4l-1.2,0.8 M729.9,127.2l1.2-0.8 M729.9,127.6l1.2-0.8 M736.8,136.2l-1.2,0.8 M729.9,127.2 l11.1,18.8 M725.4,119.5l0.8-0.4 M678.7,109.6v27.4 M677.1,100.2h-2 M677.1,99.8h-1.6 M675,100.2V72 M675.4,99.8V72.4 M675,72h2 M675.4,72.4h1.6 M677.1,100.2v-0.4 M677.1,72v0.4 M626.3,72h1.6 M626.3,72.4h1.2 M627.9,72v2.9 M627.5,72.4v2.5 M623,102.3h1.6 M623.4,74.8v20.5H623v7 M624.7,102.3V72.8 M624.7,96.5h0.4V75.6 M636.5,81.8v16 M636.1,81.8v16.4 M636.5,97.8h12.3 M636.1,98.2 h12.7 M653.7,97.8V68.3 M654.1,98.2V67.5 M653.7,68.3h-6.6 M654.1,67.5h-7.8 M647.2,68.3v17.2 M646.4,67.5v17.6 M648.8,107.6v33.6 M650,105.9v26.2 M648.8,99h1.2 M650,97.8h3.7 M650,98.2h4.1 M622.2,50.7V72 M623.4,72.8h1.6 M622.2,72l11.1,6.1 M626.3,72V43.7 M618.1,72l12.7,7 M644.7,84.2h1.6 M640.6,82.2h5.7 M636.5,79.7h9.8 M632.4,77.7h1.2 M627.9,75.2h18.4 M627.9,73.2h18.4 M625.1,96.5h11.1 M625.1,94.1h11.1 M625.1,92h11.1 M625.1,89.6h11.1 M625.1,87.5h11.1 M625.1,85.1h11.1 M625.1,83h11.1 M625.1,80.6h4.9 M625.1,78.5h4.9 M625.1,76.1h0.8 M654.1,98.2H675 M654.1,95.7H675 M654.1,93.7H675 M654.1,91.2H675 M654.1,89.2 H675 M654.1,86.7H675 M654.1,84.7H675 M654.1,82.2H675 M654.1,80.2H675 M654.1,77.7H675 M654.1,75.6H675 M654.1,73.2H675 M650,105.9v-1.2h-1.2v1.2" class="st7"/><path d="M648.4,105.1l-4.1-4.5l4.5,4.1L648.4,105.1L648.4,105.1z M644.3,100.6l4.5,4.1l-4.1-4.1H644.3L644.3,100.6z" class="st8"/><path d="M648.4,105.1l-4.1-4.5l4.5,4.1L648.4,105.1L648.4,105.1z M644.3,100.6l4.5,4.1l-4.1-4.1H644.3L644.3,100.6z" class="st9"/><path d="M648.4,105.1l0.4-0.4l-4.1-4.1h-0.4L648.4,105.1l0.4-0.4L648.4,105.1 M648.8,104.7l-4.1-4.1L648.8,104.7 M644.7,100.6h-0.4H644.7 M644.3,100.6l4.1,4.5L644.3,100.6 M623,98.6h-0.8" class="st7"/><path d="M621.8,98.6l-3.3-3.7l3.7,3.3L621.8,98.6L621.8,98.6z M618.5,94.9l3.7,3.3l-3.7-3.7V94.9L618.5,94.9z" class="st8"/><path d="M621.8,98.6l-3.3-3.7l3.7,3.3L621.8,98.6L621.8,98.6z M618.5,94.9l3.7,3.3l-3.7-3.7V94.9L618.5,94.9z" class="st9"/><path d="M621.8,98.6l0.4-0.4l-3.7-3.7v0.4L621.8,98.6l0.4-0.4L621.8,98.6 M622.2,98.2l-3.7-3.7L622.2,98.2 M618.5,94.5v0.4V94.5 M618.5,94.9l3.3,3.7L618.5,94.9" class="st7"/><path d="M655,141.2l5.7-5.7l-5.3,6.1L655,141.2L655,141.2z M660.7,135.4l-5.3,6.1l5.7-5.7L660.7,135.4L660.7,135.4z" class="st8"/><path d="M655,141.2l5.7-5.7l-5.3,6.1L655,141.2L655,141.2z M660.7,135.4l-5.3,6.1l5.7-5.7L660.7,135.4L660.7,135.4z" class="st9"/><path d="M655,141.2l0.4,0.4l5.7-5.7l-0.4-0.4L655,141.2l0.4,0.4L655,141.2 M655.4,141.6l5.7-5.7L655.4,141.6 M661.1,135.8l-0.4-0.4L661.1,135.8 M660.7,135.4l-5.7,5.7L660.7,135.4" class="st7"/><path d="M671.7,141.2l-5.7-5.7l5.3,6.1L671.7,141.2L671.7,141.2z M666,135.4l5.3,6.1l-5.7-5.7L666,135.4L666,135.4z" class="st8"/><path d="M671.7,141.2l-5.7-5.7l5.3,6.1L671.7,141.2L671.7,141.2z M666,135.4l5.3,6.1l-5.7-5.7L666,135.4L666,135.4z" class="st9"/><path d="M671.7,141.2l-0.4,0.4l-5.7-5.7l0.4-0.4L671.7,141.2l-0.4,0.4L671.7,141.2 M671.3,141.6l-5.7-5.7L671.3,141.6 M665.6,135.8l0.4-0.4L665.6,135.8 M666,135.4l5.7,5.7L666,135.4" class="st7"/><path d="M636.1,134.6l-4.9,4.9l4.5-5.3L636.1,134.6L636.1,134.6z M631.2,139.5l4.5-5.3l-4.9,4.9L631.2,139.5 L631.2,139.5z" class="st8"/><path d="M636.1,134.6l-4.9,4.9l4.5-5.3L636.1,134.6L636.1,134.6z M631.2,139.5l4.5-5.3l-4.9,4.9L631.2,139.5 L631.2,139.5z" class="st9"/><path d="M636.1,134.6l-0.4-0.4l-4.9,4.9l0.4,0.4L636.1,134.6l-0.4-0.4L636.1,134.6 M635.7,134.2l-4.9,4.9L635.7,134.2 M630.8,139.1l0.4,0.4L630.8,139.1 M631.2,139.5l4.9-4.9L631.2,139.5" class="st7"/><path d="M647.2,141.6l-4.9-4.9l4.9,4.5V141.6L647.2,141.6z M642.3,136.7l4.9,4.5l-4.5-4.9L642.3,136.7L642.3,136.7z" class="st8"/><path d="M647.2,141.6l-4.9-4.9l4.9,4.5V141.6L647.2,141.6z M642.3,136.7l4.9,4.5l-4.5-4.9L642.3,136.7L642.3,136.7z" class="st9"/><path d="M647.2,141.6v-0.4l-4.5-4.9l-0.4,0.4L647.2,141.6v-0.4V141.6 M647.2,141.2l-4.5-4.9L647.2,141.2 M642.7,136.2 l-0.4,0.4L642.7,136.2 M642.3,136.7l4.9,4.9L642.3,136.7" class="st7"/><path d="M677.5,159.6l-5.3-5.7l5.7,5.3L677.5,159.6L677.5,159.6z M672.2,153.9l5.7,5.3l-5.3-5.7L672.2,153.9 L672.2,153.9z" class="st8"/><path d="M677.5,159.6l-5.3-5.7l5.7,5.3L677.5,159.6L677.5,159.6z M672.2,153.9l5.7,5.3l-5.3-5.7L672.2,153.9 L672.2,153.9z" class="st9"/><path d="M677.5,159.6l0.4-0.4l-5.3-5.7l-0.4,0.4L677.5,159.6l0.4-0.4L677.5,159.6 M677.9,159.2l-5.3-5.7L677.9,159.2 M672.6,153.4l-0.4,0.4L672.6,153.4 M672.2,153.9l5.3,5.7L672.2,153.9 M633.3,78.1l2.5-2.5l-1.2,4.5l1.2-0.4 M630.8,78.9l-1.6,2.9 l4.9-3.3l-0.4,1.6l20.1,11.1 M635.7,79.7l18,9.4 M630.8,80.6h3.7 M634.9,77.7h11.5" class="st7"/><path d="M261.5,143.2V87.5 M46.6,63v4.1 M46.6,67.1h4.1V63h-4.1 M197.6,62.5h-69.2 M46.2,62.5v4.9h4.9v-4.9 M118.6,282.4v-7.4 M117.4,266.5h-4.1v-5.3 M118.6,261.1H91.2 M118.2,265.6h-4.1 M118.2,265.6v-4.1h-4.1v4.1" class="st7"/><path d="M274.2,447.8v-0.4 M287.7,454L287.7,454 M301.2,459.7h0.4 M301.6,460.1v-0.4 M315.6,465L315.6,465 M329.9,469.5h0.4 M330.3,469.5v-0.4 M344.6,473.2h0.4 M344.6,473.2L344.6,473.2 M359.4,476.5h0.4 M359.4,476.5v-0.4 M374.1,478.6 h0.4v0.4 M404,481.4L404,481.4 M419.1,481.8L419.1,481.8 M419.1,481.8v-0.4 M433.9,481.4h0.4 M434.3,481.4V481 M449.4,480.2H449 v-0.4 M464.2,478.1L464.2,478.1 M478.9,475.7L478.9,475.7 M493.7,472.4L493.7,472.4 M508,468.3h0.4 M508,468.3L508,468.3 M522.3,463.4v0.4 M536.6,458.1v0.4 M550.1,452.3h0.4l0,0" class="st7"/><path d="M550.6,452.3l0.8,2.5 M536.6,458.1l0.8,2.9 M522.3,463.4l0.8,2.9 M508,468.3l0.8,2.5 M493.7,472.4l0.8,2.5 M478.9,475.7l0.4,2.5 M464.2,478.1l0.4,2.9 M449,480.2l0.4,2.5 M434.3,481.4v2.5 M419.1,481.8v2.5 M404,481.4v2.5 M389.3,480.6 l-0.4,2.5 M374.5,478.6l-0.4,2.9 M359.4,476.5L359,479 M344.6,473.2l-0.4,2.9 M330.3,469.5l-0.8,2.5 M315.6,465L315.6,465 M315.6,465l-0.4,2.5 M301.6,459.7l-0.8,2.9 M287.7,454l-1.2,2.5 M274.2,447.8l-1.2,2 M45.8,62.5V26.1" class="st7"/><path d="M201.7,60.5c0-27,0-27,0-27 M199.3,64.6c0,76.6,0,76.6,0,76.6 M197.6,64.6c0,78.6,0,78.6,0,78.6 M113.7,62.5 c0,4.9,0,4.9,0,4.9c4.9,0,4.9,0,4.9,0c0-4.9,0-4.9,0-4.9 M118.2,67.1c-4.1,0-4.1,0-4.1,0 M118.2,67.1c0-4.1,0-4.1,0-4.1 c-4.1,0-4.1,0-4.1,0c0,4.1,0,4.1,0,4.1 M167.8,62.5c0,4.9,0,4.9,0,4.9c4.9,0,4.9,0,4.9,0c0-4.9,0-4.9,0-4.9 M172.3,67.1 c-4.1,0-4.1,0-4.1,0 M172.3,67.1c0-4.1,0-4.1,0-4.1c-4.1,0-4.1,0-4.1,0c0,4.1,0,4.1,0,4.1 M45.8,60.5 C19.6,86.7,4.4,121.9,3.2,158.8 M199.3,141.2c41.8,0,41.8,0,41.8,0 M197.6,143.2c43.4,0,43.4,0,43.4,0 M252.5,138.7 c0,3.7,0,3.7,0,3.7c3.7,0,3.7,0,3.7,0c0-3.7,0-3.7,0-3.7C252.5,138.7,252.5,138.7,252.5,138.7 M260.3,141.2c0-53.6,0-53.6,0-53.6 M260.3,141.2c-4.1,0-4.1,0-4.1,0c0-2.5,0-2.5,0-2.5c-3.7,0-3.7,0-3.7,0 M251.7,64.6L251.7,64.6 M251.7,141.2L251.7,141.2 M260.3,60.5c0-2.9,0-2.9,0-2.9 M261.5,59.3c0-1.6,0-1.6,0-1.6 M260.3,65.4c1.2,0,1.2,0,1.2,0 M261.5,60.5c22.1,0,22.1,0,22.1,0 M261.5,59.3c22.1,0,22.1,0,22.1,0 M291.8,60.5c0-1.2,0-1.2,0-1.2 M283.6,59.3c0,1.2,0,1.2,0,1.2 M291.8,59.3c1.2,0,1.2,0,1.2,0 M291.8,60.5c1.6,0,1.6,0,1.6,0" class="st7"/><path d="M291.4,59.3l-7-3.7l7.4,3.3L291.4,59.3L291.4,59.3z M284.4,55.6l7.4,3.3l-7-3.7L284.4,55.6L284.4,55.6z" class="st8"/><path d="M291.4,59.3l-7-3.7l7.4,3.3L291.4,59.3L291.4,59.3z M284.4,55.6l7.4,3.3l-7-3.7L284.4,55.6L284.4,55.6z" class="st9"/><path d="M291.4,59.3l0.4-0.4l-7-3.7l-0.4,0.4L291.4,59.3l0.4-0.4L291.4,59.3 M291.8,58.9l-7-3.7L291.8,58.9 M284.4,55.6l7,3.7L284.4,55.6 M261.1,63.8H203 M255.4,61.7v-1.2 M240.6,61.7H203 M250.1,64.6L250.1,64.6" class="st7"/><path d="M224.3,61.7v-6.1 M218.5,61.7l5.7-6.1l3.7,0.8l-3.7-4.9h2.9l6.6-7 M227.1,61.7V56 M229.6,61.7V49 M232,61.7 v-16 M234.9,61.7v-16 M237.8,61.7v-16 M240.2,61.7v-16" class="st7"/><path d="M174.3,275.9v5.3 M174.3,281.2h5.7v-5.3h-5.7 M223.8,275.1h-4.1 M173.9,275.1v29.9 M180.5,275.1v7h-5.3 M174.3,226.7v5.3 M174.3,232.1h5.7v-5.3h-5.7 M180.5,226.3h-6.6v6.6h6.6 M180.5,275.1v-13.5 M179.2,275.1v-42.2 M225.1,276.3 h-34.4 M218.1,275.1v-61 M219.8,275.1v-97 M225.1,276.3v-8.6 M190.7,276.3h-10.2 M218.1,275.1h-44.2 M251.3,267.7h-26.2 M251.3,266.5h-26.2 M220.6,222.6v-4.1h2.5v4.1H220.6 M198.9,261.5h-18.4 M197.6,224.3v36.4h-17.2 M198.9,261.5v-29.5 M180.5,260.7v-34.4 M198.1,230.8V228h2.9v2.9H198.1 M198.9,232.1h2.9V228 M183.3,257.9h-2.9 M187.8,255.4h-7.4 M189,252.5h-0.8 M191.9,250.1h-11.5 M194.8,247.2h-14.3 M197.6,244.8h-17.2 M197.6,241.9h-17.2 M197.6,239h-17.2 M197.6,236.6h-17.2 M197.6,233.7 h-17.2 M197.6,231.2h-17.2 M180.5,260.7l5.7-5.3l2.5,1.2l-2.9-6.1l2.9,2.5l9-8.2 M187,252.5h-6.6 M221,187.8h2.5v4.1H221V187.8 M180.5,226.3v-2h-0.8v-8.6h0.8V214H178v12.3 M197.6,215.7V214h2.5v12.7 M197.6,224.3h0.8v-8.6h-0.8 M218.1,214v-36 M251.3,281.2 v-13.5 M251.3,266.5v-31.9 M253.3,279.6v-22.1 M262.3,304.9v-97.9 M253.3,208.7v45h2.9v3.7h-2.9 M237.4,249.7v-31.5 M241.5,250.9 h-4.9 M240.6,249.7h-3.3 M236.5,250.9v-33.2 M225.1,266.5V187 M240.6,249.7v-31.5 M241.5,250.9v-32.8 M240.6,218.1h-3.3 M251.3,217.7h-1.2 M240.6,217.7v-1.2h2.5v1.6h-1.6 M242.7,232.9v-14.7 M251.3,234.5h-9.8 M251.3,217.7v15.2h-8.6 M251.3,216.5 h-1.2v1.2 M240.6,217.7h-4.1" class="st7"/><path d="M249.6,216.1l-6.1-5.3l6.6,5.3H249.6L249.6,216.1z M243.5,210.8l6.6,5.3l-6.1-5.3H243.5L243.5,210.8z" class="st8"/><path d="M249.6,216.1l-6.1-5.3l6.6,5.3H249.6L249.6,216.1z M243.5,210.8l6.6,5.3l-6.1-5.3H243.5L243.5,210.8z" class="st9"/><path d="M249.6,216.1h0.4l-6.1-5.3h-0.4L249.6,216.1h0.4H249.6 M250.1,216.1l-6.1-5.3L250.1,216.1 M243.9,210.8h-0.4 H243.9 M243.5,210.8l6.1,5.3L243.5,210.8 M242.7,228h2.5v3.3h-2.5 M225.1,250.9h11.5 M241.5,250.9h9.8 M225.1,248h11.5 M225.1,245.2h11.5 M225.1,242.7h11.5 M225.1,239.8h11.5 M225.1,237h11.5 M225.1,234.5h11.5 M225.1,232.1h11.5 M225.1,229.2h11.5 M225.1,226.3h11.5 M243.1,248h3.7 M246,245.2h5.3 M248,242.7h3.3 M250.5,239.8h0.8 M241.5,250.1l2.9-3.3l4.1,2l-5.3-7.4l4.1,1.6 l4.1-4.1 M247.6,248h3.7 M251.3,216.5v-9.4h8.6 M261.1,207.1v-1.6 M259.9,207.1v-1.6h1.2 M261.1,207.1h1.2 M261.1,303.7v-22.5 M253.3,208.7h7.8 M261.1,237h-7.8 M261.1,239.8h-7.8 M251.3,281.2h9.8 M253.3,279.6h7.8 M262.3,304.9h-24.6 M175.1,282v21.7 M190.7,276.3L190.7,276.3 M190.7,303.7h-15.6 M223.8,275.1v-91.3 M261.1,303.7h-23.3 M261.1,279.6v-70.8 M227.1,304.9v-5.3h-5.3 v5.3 M221.8,303.7h-2.9v1.2 M211.2,303.7v1.2 M237.8,303.7v1.2 M230,304.9v-1.2 M211.2,303.7h-20.5 M211.2,304.9h-37.3 M230,303.7 h-2.9 M230,304.9h-11.1" class="st7"/><path d="M229.6,303.7v-8.2l0.4,8.2H229.6L229.6,303.7z M229.6,295.5l0.4,8.2v-8.2H229.6L229.6,295.5z" class="st8"/><path d="M229.6,303.7v-8.2l0.4,8.2H229.6L229.6,303.7z M229.6,295.5l0.4,8.2v-8.2H229.6L229.6,295.5z" class="st9"/><path d="M229.6,303.7h0.4v-8.2h-0.4V303.7h0.4H229.6 M230,303.7v-8.2V303.7 M230,295.5h-0.4H230 M229.6,295.5v8.2 V295.5" class="st7"/><path d="M218.9,303.7v-8.2l0.4,8.2H218.9L218.9,303.7z M218.9,295.5l0.4,8.2v-8.2H218.9L218.9,295.5z" class="st8"/><path d="M218.9,303.7v-8.2l0.4,8.2H218.9L218.9,303.7z M218.9,295.5l0.4,8.2v-8.2H218.9L218.9,295.5z" class="st9"/><path d="M218.9,303.7h0.4v-8.2h-0.4V303.7h0.4H218.9 M219.3,303.7v-8.2V303.7 M219.3,295.5h-0.4H219.3 M218.9,295.5 v8.2V295.5 M218.1,178h7 M225.1,180.9h26.6 M223.8,183.7h37.7 M225.1,180.9V178 M225.1,187h36.4 M225.1,188.7h34.8 M261.5,187 v-3.3 M264,178v10.6h-2.9v1.6h-1.2v-1.6 M251.7,180.9V178 M261.5,180.9h-7.8v-0.8 M251.7,178H264 M253.7,180.1h7.8v0.8" class="st7"/><path d="M260.3,190.3l-6.1,5.7l5.7-6.1L260.3,190.3L260.3,190.3z M254.1,196l5.7-6.1l-5.7,5.7V196L254.1,196z" class="st8"/><path d="M260.3,190.3l-6.1,5.7l5.7-6.1L260.3,190.3L260.3,190.3z M254.1,196l5.7-6.1l-5.7,5.7V196L254.1,196z" class="st9"/><path d="M260.3,190.3l-0.4-0.4l-5.7,5.7v0.4L260.3,190.3l-0.4-0.4L260.3,190.3 M259.9,189.9l-5.7,5.7L259.9,189.9 M254.1,195.6v0.4V195.6 M254.1,196l6.1-5.7L254.1,196" class="st7"/><path d="M259.9,205l-5.7-5.7l5.3,6.1L259.9,205L259.9,205z M254.1,199.3l5.3,6.1l-5.7-5.7L254.1,199.3L254.1,199.3z" class="st8"/><path d="M259.9,205l-5.7-5.7l5.3,6.1L259.9,205L259.9,205z M254.1,199.3l5.3,6.1l-5.7-5.7L254.1,199.3L254.1,199.3z" class="st9"/><path d="M259.9,205l-0.4,0.4l-5.7-5.7l0.4-0.4L259.9,205l-0.4,0.4L259.9,205 M259.5,205.4l-5.7-5.7L259.5,205.4 M253.7,199.7l0.4-0.4L253.7,199.7 M254.1,199.3l5.7,5.7L254.1,199.3 M46.2,264.4v4.1 M46.2,268.5h4.5v-4.1h-4.5 M51.1,263.6h-5.3 v5.3h5.3V263.6 M45.8,265.2v162.1 M114.1,228v4.1 M114.1,232.1h4.1V228h-4.1 M118.6,227.1h-5.3v2.9 M118.6,227.1v5.3h-2.5 M117.4,281.6H81 M118.6,282.4H79.7 M117.4,281.6v-6.6 M81,281.6v-20.5 M79.7,282.4V230 M113.3,259.1h-12.7 M81.8,259.1v-27 M97.7,259.1v-27 M100.6,259.1v-26.6h15.6 M113.3,230H79.7 M97.7,232.1h-16 M97.7,259.1h-6.6 M118.6,266.9h-1.2 M117.4,275.1h1.2 M118.6,266.9v-5.7 M117.4,266.9v-0.4" class="st7"/><path d="M117.4,266.9l-4.5,6.6l4.1-7L117.4,266.9L117.4,266.9z M112.9,273.4l4.1-7l-4.5,7H112.9L112.9,273.4z" class="st8"/><path d="M117.4,266.9l-4.5,6.6l4.1-7L117.4,266.9L117.4,266.9z M112.9,273.4l4.1-7l-4.5,7H112.9L112.9,273.4z" class="st9"/><path d="M117.4,266.9l-0.4-0.4l-4.5,7h0.4L117.4,266.9l-0.4-0.4L117.4,266.9 M117,266.5l-4.5,7L117,266.5 M112.5,273.4h0.4H112.5 M112.9,273.4l4.5-6.6L112.9,273.4 M83.4,259.1v2 M91.2,261.1v-2 M83.4,259.1h-1.6 M83.4,261.1H81" class="st7"/><path d="M83.4,261.1l6.1,4.9l-6.6-4.9H83.4L83.4,261.1z M89.6,266l-6.6-4.9l6.6,5.3V266L89.6,266z" class="st8"/><path d="M83.4,261.1l6.1,4.9l-6.6-4.9H83.4L83.4,261.1z M89.6,266l-6.6-4.9l6.6,5.3V266L89.6,266z" class="st9"/><path d="M83.4,261.1H83l6.6,5.3V266L83.4,261.1H83H83.4 M83,261.1l6.6,5.3L83,261.1 M89.6,266.5V266V266.5 M89.6,266 l-6.1-4.9L89.6,266 M116.2,232.5v2.5 M113.3,232.5v2.5h2.9 M116.2,261.1v-16.8h-2.9v14.7 M100.6,232.5l12.7,26.6 M100.6,259.1 l12.7-26.6 M46.2,320.9v5.3h4.9v-5.3H46.2 M50.7,325.4h-4.1 M50.7,325.4v-4.1h-4.1v4.1 M175.1,422.5v4.1 M175.1,426.5h4.5v-4.1 h-4.5 M180,422h-5.3v4.9h5.3V422 M46.6,354.9v4.1 M46.6,359h4.1v-4.1h-4.1 M51.5,354.5h-5.3v5.3h5.3V354.5 M46.6,422.5v4.1 M46.6,426.5h4.1v-4.1h-4.1 M51.5,422h-5.3v4.9h5.3V422 M114.1,422.5v4.1 M114.1,426.5h4.1v-4.1h-4.1 M119,422h-5.3v4.9h5.3V422 M121.9,195.2l-3.7-3.3l-3.7-4.1l-4.1,3.7l3.7,4.1l4.1,3.3l4.1-3.7 M111.3,191.5l3.3,3.7l3.7,3.3 M111.3,191.5l2.9-3.3l3.7,3.7 l3.7,3.3l-3.3,3.3 M118.2,127.6l3.3,2.9 M121.5,130.5l-3.7,3.3l-3.7,4.1l-2.9-3.3l3.3-3.7l3.7-3.3 M121.9,130.9l-3.7,3.3l-3.7,4.1 M118.2,126.8l4.1,4.1 M114.5,138.7l-4.1-4.1l3.7-4.1l4.1-3.7 M175.1,198.5l-3.3-3.3 M171.9,195.2l3.7-3.3l3.3-3.7l3.3,3.3 l-3.3,3.7l-3.7,3.3 M182.9,191.5l-3.7,4.1l-4.1,3.3l-3.7-3.7l4.1-3.3l3.3-4.1L182.9,191.5 M178.8,138.7l4.1-4.1l-3.7-4.1l-4.1-3.7 l-3.7,4.1l4.1,3.3l3.3,4.1 M182.1,134.6l-3.3-3.7l-3.7-3.3 M182.1,134.6l-3.3,3.3l-3.3-4.1l-3.7-3.3l3.3-2.9" class="st7"/><path d="M300.4,462.6h0.4 M300.8,462.6v-0.4" class="st7"/><path d="M494.9,242.3h33.6" class="st7"/><path d="M451.9,221l5.3-6.1l-4.9,6.1H451.9L451.9,221z M457.2,214.9l-4.9,6.1l5.3-5.7L457.2,214.9L457.2,214.9z" class="st8"/><path d="M451.9,221l5.3-6.1l-4.9,6.1H451.9L451.9,221z M457.2,214.9l-4.9,6.1l5.3-5.7L457.2,214.9L457.2,214.9z" class="st9"/><path d="M451.9,221h0.4l5.3-5.7l-0.4-0.4L451.9,221h0.4H451.9 M452.3,221l5.3-5.7L452.3,221 M457.6,215.3l-0.4-0.4 L457.6,215.3 M457.2,214.9l-5.3,6.1L457.2,214.9" class="st7"/><path d="M562,319.3l5.7-5.7l-5.3,6.1L562,319.3L562,319.3z M567.8,313.5l-5.3,6.1l5.7-5.7L567.8,313.5L567.8,313.5z" class="st8"/><path d="M562,319.3l5.7-5.7l-5.3,6.1L562,319.3L562,319.3z M567.8,313.5l-5.3,6.1l5.7-5.7L567.8,313.5L567.8,313.5z" class="st9"/><path d="M562,319.3l0.4,0.4l5.7-5.7l-0.4-0.4L562,319.3l0.4,0.4L562,319.3 M562.4,319.7l5.7-5.7L562.4,319.7 M568.2,314l-0.4-0.4L568.2,314 M567.8,313.5l-5.7,5.7L567.8,313.5" class="st7"/><path d="M180.5,216.1l5.7,5.7l-5.7-6.1V216.1L180.5,216.1z M186.2,221.8l-5.7-6.1l5.7,5.7V221.8L186.2,221.8z" class="st8"/><path d="M180.5,216.1l5.7,5.7l-5.7-6.1V216.1L180.5,216.1z M186.2,221.8l-5.7-6.1l5.7,5.7V221.8L186.2,221.8z" class="st9"/><path d="M180.5,216.1v-0.4l5.7,5.7v0.4L180.5,216.1v-0.4V216.1 M180.5,215.7l5.7,5.7L180.5,215.7 M186.2,221.4v0.4 V221.4 M186.2,221.8l-5.7-5.7L186.2,221.8" class="st7"/><path d="M197.6,215.7l-5.7,5.7l5.7-5.3V215.7L197.6,215.7z M191.9,221.4l5.7-5.3l-5.3,5.7L191.9,221.4L191.9,221.4z" class="st8"/><path d="M197.6,215.7l-5.7,5.7l5.7-5.3V215.7L197.6,215.7z M191.9,221.4l5.7-5.3l-5.3,5.7L191.9,221.4L191.9,221.4z" class="st9"/><path d="M197.6,215.7v0.4l-5.3,5.7l-0.4-0.4L197.6,215.7v0.4V215.7 M197.6,216.1l-5.3,5.7L197.6,216.1 M192.3,221.8 l-0.4-0.4L192.3,221.8 M191.9,221.4l5.7-5.7L191.9,221.4" class="st7"/><path d="M362.6,241.1l-5.7-5.7l6.1,5.7H362.6L362.6,241.1z M356.9,235.3l6.1,5.7l-5.7-5.7H356.9L356.9,235.3z" class="st8"/><path d="M362.6,241.1l-5.7-5.7l6.1,5.7H362.6L362.6,241.1z M356.9,235.3l6.1,5.7l-5.7-5.7H356.9L356.9,235.3z" class="st9"/><path d="M362.6,241.1h0.4l-5.7-5.7h-0.4L362.6,241.1h0.4H362.6 M363,241.1l-5.7-5.7L363,241.1 M357.3,235.3h-0.4 H357.3 M356.9,235.3l5.7,5.7L356.9,235.3" class="st7"/><path d="M392.1,241.1l-5.7-5.7l6.1,5.3L392.1,241.1L392.1,241.1z M386.4,235.3l6.1,5.3l-5.7-5.7L386.4,235.3 L386.4,235.3z" class="st8"/><path d="M392.1,241.1l-5.7-5.7l6.1,5.3L392.1,241.1L392.1,241.1z M386.4,235.3l6.1,5.3l-5.7-5.7L386.4,235.3 L386.4,235.3z" class="st9"/><path d="M392.1,241.1l0.4-0.4l-5.7-5.7l-0.4,0.4L392.1,241.1l0.4-0.4L392.1,241.1 M392.5,240.7l-5.7-5.7L392.5,240.7 M386.8,234.9l-0.4,0.4L386.8,234.9 M386.4,235.3l5.7,5.7L386.4,235.3" class="st7"/><path d="M394.2,247.2l5.7,6.1l-6.1-5.7L394.2,247.2L394.2,247.2z M399.9,253.4l-6.1-5.7l5.7,5.7H399.9L399.9,253.4z" class="st8"/><path d="M394.2,247.2l5.7,6.1l-6.1-5.7L394.2,247.2L394.2,247.2z M399.9,253.4l-6.1-5.7l5.7,5.7H399.9L399.9,253.4z" class="st9"/><path d="M394.2,247.2l-0.4,0.4l5.7,5.7h0.4L394.2,247.2l-0.4,0.4L394.2,247.2 M393.8,247.6l5.7,5.7L393.8,247.6 M399.5,253.4h0.4H399.5 M399.9,253.4l-5.7-6.1L399.9,253.4 M248.8,141.2v2 M241,143.2v-2 M248.8,141.2h2.9 M248.8,143.2h12.7" class="st7"/><path d="M248.8,141.2l-5.7-5.7l6.1,5.7H248.8L248.8,141.2z M243.1,135.4l6.1,5.7l-5.7-5.7H243.1L243.1,135.4z" class="st8"/><path d="M248.8,141.2l-5.7-5.7l6.1,5.7H248.8L248.8,141.2z M243.1,135.4l6.1,5.7l-5.7-5.7H243.1L243.1,135.4z" class="st9"/><path d="M248.8,141.2h0.4l-5.7-5.7h-0.4L248.8,141.2h0.4H248.8 M249.2,141.2l-5.7-5.7L249.2,141.2 M243.5,135.4h-0.4 H243.5 M243.1,135.4l5.7,5.7L243.1,135.4" class="st7"/><path d="M621.4,142.8l-5.7,5.7l5.3-6.1L621.4,142.8L621.4,142.8z M615.7,148.5l5.3-6.1l-5.7,5.7L615.7,148.5 L615.7,148.5z" class="st8"/><path d="M621.4,142.8l-5.7,5.7l5.3-6.1L621.4,142.8L621.4,142.8z M615.7,148.5l5.3-6.1l-5.7,5.7L615.7,148.5 L615.7,148.5z" class="st9"/><path d="M621.4,142.8l-0.4-0.4l-5.7,5.7l0.4,0.4L621.4,142.8l-0.4-0.4L621.4,142.8 M621,142.4l-5.7,5.7L621,142.4 M615.2,148.1l0.4,0.4L615.2,148.1 M615.7,148.5l5.7-5.7L615.7,148.5" class="st7"/><path d="M709.4,195.2l-5.7-5.7l6.1,5.3L709.4,195.2L709.4,195.2z M703.7,189.5l6.1,5.3l-5.7-5.7L703.7,189.5 L703.7,189.5z" class="st8"/><path d="M709.4,195.2l-5.7-5.7l6.1,5.3L709.4,195.2L709.4,195.2z M703.7,189.5l6.1,5.3l-5.7-5.7L703.7,189.5 L703.7,189.5z" class="st9"/><path d="M709.4,195.2l0.4-0.4l-5.7-5.7l-0.4,0.4L709.4,195.2l0.4-0.4L709.4,195.2 M709.8,194.8l-5.7-5.7L709.8,194.8 M704.1,189.1l-0.4,0.4L704.1,189.1 M703.7,189.5l5.7,5.7L703.7,189.5" class="st7"/><path d="M692.6,194.8l5.7-5.7l-5.3,6.1L692.6,194.8L692.6,194.8z M698.4,189.1l-5.3,6.1l5.7-5.7L698.4,189.1 L698.4,189.1z" class="st8"/><path d="M692.6,194.8l5.7-5.7l-5.3,6.1L692.6,194.8L692.6,194.8z M698.4,189.1l-5.3,6.1l5.7-5.7L698.4,189.1 L698.4,189.1z" class="st9"/><path d="M692.6,194.8l0.4,0.4l5.7-5.7l-0.4-0.4L692.6,194.8l0.4,0.4L692.6,194.8 M693,195.2l5.7-5.7L693,195.2 M698.8,189.5l-0.4-0.4L698.8,189.5 M698.4,189.1l-5.7,5.7L698.4,189.1" class="st7"/><path d="M740.5,428.6v2.5 M705.7,428.6v2.5 M689.3,431.1v-2.5 M756.9,395v26.6 M723.3,428.6H563.7" class="st7"/><path d="M724.6,431.1v-2.5 M669.7,428.6v2.5 M653.3,431.1v-2.5 M633.7,428.6v2.5 M585.4,431.1v-2.5 M597.2,428.6v2.5 M609.5,428.6v2.5 M621.4,428.6v2.5 M61.3,429.8v-2.5 M77.3,427.4v2.5 M97.3,429.8v-2.5 M113.3,427.4v2.5 M133.4,429.8v-2.5 M149.3,427.4v2.5 M169,429.8v-2.5 M234.1,427.4v2.5" class="st7"/><path d="M221,428.6L221,428.6 M207.9,428.6L207.9,428.6 M194.8,428.6h0.4l0,0 M182.1,428.6h0.4 M182.1,428.6 L182.1,428.6" class="st7"/><path d="M221,427.4v2.5 M207.9,427.4v2.5 M195.2,427.4v2.5 M182.1,427.4v2.5 M45.8,60.5h29.1 M120.3,60.5v2 M128.5,62.5v-2h18.4 M120.3,62.5H45.8" class="st7"/><path d="M120.7,62.1l5.7,5.7l-6.1-5.3L120.7,62.1L120.7,62.1z M126.4,67.9l-6.1-5.3l5.7,5.7L126.4,67.9L126.4,67.9z" class="st8"/><path d="M120.7,62.1l5.7,5.7l-6.1-5.3L120.7,62.1L120.7,62.1z M126.4,67.9l-6.1-5.3l5.7,5.7L126.4,67.9L126.4,67.9z" class="st9"/><path d="M120.7,62.1l-0.4,0.4l5.7,5.7l0.4-0.4L120.7,62.1l-0.4,0.4L120.7,62.1 M120.3,62.5l5.7,5.7L120.3,62.5 M126,68.3l0.4-0.4L126,68.3 M126.4,67.9l-5.7-5.7L126.4,67.9" class="st7"/><path d="M146.9,60.5L146.9,60.5 M146.9,60.5h50.8 M197.6,60.5V11 M316.4,19.1v16.4L293,59.3 M318,20.4v16l-24.6,24.2" class="st7"/><path d="M261.5,79.7l3.7,7L261.5,79.7L261.5,79.7z M265.2,86.7l-3.7-7l3.3,7.4L265.2,86.7L265.2,86.7z" class="st8"/><path d="M261.5,79.7l3.7,7L261.5,79.7L261.5,79.7z M265.2,86.7l-3.7-7l3.3,7.4L265.2,86.7L265.2,86.7z" class="st9"/><path d="M261.5,79.7l3.3,7.4l0.4-0.4L261.5,79.7L261.5,79.7 M261.5,79.7l3.3,7.4L261.5,79.7 M264.8,87.1l0.4-0.4 L264.8,87.1 M265.2,86.7l-3.7-7L265.2,86.7 M261.5,87.5h-1.2 M260.3,65.4v14.3h1.2V60.5 M248.4,162h3.7h4.1v-3.3h-4.1h-3.7V162 M208.7,226.7v1.2h-7" class="st7"/><path d="M216.9,228.4l-5.7,5.7l5.3-6.1L216.9,228.4L216.9,228.4z M211.2,234.1l5.3-6.1l-5.7,5.7L211.2,234.1 L211.2,234.1z" class="st8"/><path d="M216.9,228.4l-5.7,5.7l5.3-6.1L216.9,228.4L216.9,228.4z M211.2,234.1l5.3-6.1l-5.7,5.7L211.2,234.1 L211.2,234.1z" class="st9"/><path d="M216.9,228.4l-0.4-0.4l-5.7,5.7l0.4,0.4L216.9,228.4l-0.4-0.4L216.9,228.4 M216.5,228l-5.7,5.7L216.5,228 M210.7,233.7l0.4,0.4L210.7,233.7 M211.2,234.1l5.7-5.7L211.2,234.1 M218.1,228h-1.2v-1.2h1.2 M208.7,226.7h-8.6 M384.3,277.9 v-6.6 M342.6,250.9h-7 M384.3,277.9h-41.8 M335.6,242.3v-38.1 M384.3,271.4h-41.8v-20.5 M342.6,277.9l-7-6.6 M566.1,326.6v27.8 M560.8,326.6v27.8" class="st7"/><path d="M7.3,158.8c-4.1,0-4.1,0-4.1,0 M7.3,158.8c0,5.3,0,5.3,0,5.3c-4.1,0-4.1,0-4.1,0 M3.2,164.1 c0,38.1,15.6,74.5,42.6,101.1 M323.3,467.5c0-4.5,0-4.5,0-4.5 M323.3,463c-5.3,0-5.3,0-5.3,0c0,2.9,0,2.9,0,2.9 M322.5,467.9 c0-4.1,0-4.1,0-4.1c-3.7,0-3.7,0-3.7,0c0,4.1,0,4.1,0,4.1C322.5,467.9,322.5,467.9,322.5,467.9 M323.3,467.5 c18,5.7,36.4,9.4,55.3,11.9 M440,482.6c4.1,0,4.1,0,4.1,0c0-4.5,0-4.5,0-4.5c-4.1,0-4.1,0-4.1,0C440,482.6,440,482.6,440,482.6 M444.5,480.6c0-2.9,0-2.9,0-2.9c-5.3,0-5.3,0-5.3,0c0,3.3,0,3.3,0,3.3 M501,471.2c3.7,0,3.7,0,3.7,0c0-3.7,0-3.7,0-3.7 c-3.7,0-3.7,0-3.7,0C501,471.2,501,471.2,501,471.2 M505.5,469.1c0-2.5,0-2.5,0-2.5c-5.3,0-5.3,0-5.3,0c0,4.1,0,4.1,0,4.1 M384.3,479.8c0-2.9,0-2.9,0-2.9 M384.3,476.9c-5.7,0-5.7,0-5.7,0c0,2.5,0,2.5,0,2.5 M383.5,481.4c0-4.1,0-4.1,0-4.1 c-4.1,0-4.1,0-4.1,0c0,4.1,0,4.1,0,4.1C383.5,481.4,383.5,481.4,383.5,481.4 M505.5,469.1c20.1-5.7,39.7-13.5,58.1-23.3 M383.9,479.8c18.4,2,36.8,2.5,55.3,1.2 M444.5,480.6c18.8-1.6,37.3-4.9,55.3-9.8 M459.7,242.7c-5.7,0-5.7,0-5.7,0 c0,5.3,0,5.3,0,5.3c5.7,0,5.7,0,5.7,0C459.7,242.7,459.7,242.7,459.7,242.7 M457.6,248c0,29.9,0,29.9,0,29.9 M589.5,209.1 c-27,0-27,0-27,0 M590.7,192.8c-1.2,0-1.2,0-1.2,0 M590.7,203.4c-1.2,0-1.2,0-1.2,0" class="st7"/><path d="M632.9,182.5l-5.7,5.7l6.1-5.3L632.9,182.5L632.9,182.5z M627.1,188.2l6.1-5.3l-5.7,5.7L627.1,188.2 L627.1,188.2z" class="st8"/><path d="M632.9,182.5l-5.7,5.7l6.1-5.3L632.9,182.5L632.9,182.5z M627.1,188.2l6.1-5.3l-5.7,5.7L627.1,188.2 L627.1,188.2z" class="st9"/><path d="M632.9,182.5l0.4,0.4l-5.7,5.7l-0.4-0.4L632.9,182.5l0.4,0.4L632.9,182.5 M633.3,182.9l-5.7,5.7L633.3,182.9 M627.5,188.7l-0.4-0.4L627.5,188.7 M627.1,188.2l5.7-5.7L627.1,188.2 M632.9,181.3v1.2 M590.7,182.5h34.4v-1.2h-49.5 M598.5,210.4v1.6 M599.7,210.4v1.6 M598.5,210.4h-36 M611.2,237h-11.5 M567.8,237v-2 M562.4,210.4v1.6h-1.2 M561.2,219.8h1.2" class="st7"/><path d="M562.4,212l5.7,5.3l-6.1-4.9L562.4,212L562.4,212z M568.2,217.3l-6.1-4.9l5.7,5.3L568.2,217.3L568.2,217.3z" class="st8"/><path d="M562.4,212l5.7,5.3l-6.1-4.9L562.4,212L562.4,212z M568.2,217.3l-6.1-4.9l5.7,5.3L568.2,217.3L568.2,217.3z" class="st9"/><path d="M562.4,212l-0.4,0.4l5.7,5.3l0.4-0.4L562.4,212l-0.4,0.4L562.4,212 M562,212.4l5.7,5.3L562,212.4 M567.8,217.7l0.4-0.4L567.8,217.7 M568.2,217.3l-5.7-5.3L568.2,217.3 M562.4,219.8v15.1 M561.2,219.8V255" class="st7"/><path d="M562.4,262.8l5.7-5.7l-6.1,5.7H562.4L562.4,262.8z M568.2,257l-6.1,5.7l5.7-6.1L568.2,257L568.2,257z" class="st8"/><path d="M562.4,262.8l5.7-5.7l-6.1,5.7H562.4L562.4,262.8z M568.2,257l-6.1,5.7l5.7-6.1L568.2,257L568.2,257z" class="st9"/><path d="M562.4,262.8H562l5.7-6.1l0.4,0.4L562.4,262.8H562H562.4 M562,262.8l5.7-6.1L562,262.8 M567.8,256.6l0.4,0.4 L567.8,256.6 M568.2,257l-5.7,5.7L568.2,257 M561.2,255h1.2 M561.2,312.7v-50h1.2 M562.4,243.1v-6.6 M562.4,221.4h-1.2 M562.4,253.4h-1.2 M598.5,237h-30.7 M611.2,244.3v-6.1h-43.4 M562.4,245.2h-1.2 M562.4,229.6h-1.2 M562.4,262.8v34.4" class="st7"/><path d="M600.1,212l5.3,5.3l-5.7-4.9L600.1,212L600.1,212z M605.4,217.3l-5.7-4.9l5.7,5.3V217.3L605.4,217.3z" class="st8"/><path d="M600.1,212l5.3,5.3l-5.7-4.9L600.1,212L600.1,212z M605.4,217.3l-5.7-4.9l5.7,5.3V217.3L605.4,217.3z" class="st9"/><path d="M600.1,212c-0.4,0.4-0.4,0.4-0.4,0.4c5.7,5.3,5.7,5.3,5.7,5.3c0-0.4,0-0.4,0-0.4 C600.1,212,600.1,212,600.1,212c-0.4,0.4-0.4,0.4-0.4,0.4C600.1,212,600.1,212,600.1,212 M599.7,212.4c5.7,5.3,5.7,5.3,5.7,5.3 C599.7,212.4,599.7,212.4,599.7,212.4 M605.4,217.7c0-0.4,0-0.4,0-0.4C605.4,217.7,605.4,217.7,605.4,217.7 M605.4,217.3 c-5.3-5.3-5.3-5.3-5.3-5.3C605.4,217.3,605.4,217.3,605.4,217.3 M598.5,212c1.2,0,1.2,0,1.2,0 M598.5,237c0-17.2,0-17.2,0-17.2 c1.2,0,1.2,0,1.2,0c0,17.2,0,17.2,0,17.2 M562.4,298.8c0,13.9,0,13.9,0,13.9 M562,397.1c0-37.3,0-37.3,0-37.3 M76.1,60.5 L76.1,60.5 M74.8,60.5L74.8,60.5 M76.1,60.5c44.2,0,44.2,0,44.2,0 M649.6,181.3c7.4,0,7.4,0,7.4,0 M670.9,195.2 c0-13.9,0-13.9,0-13.9 M669.7,195.2c0-12.7,0-12.7,0-12.7 M649.6,182.5c7.4,0,7.4,0,7.4,0 M669.7,195.2c-20.1,0-20.1,0-20.1,0" class="st7"/><path d="M657,180.9l5.7-5.7l-5.3,6.1L657,180.9L657,180.9z M662.7,175.1l-5.3,6.1l5.7-5.7L662.7,175.1L662.7,175.1z" class="st8"/><path d="M657,180.9l5.7-5.7l-5.3,6.1L657,180.9L657,180.9z M662.7,175.1l-5.3,6.1l5.7-5.7L662.7,175.1L662.7,175.1z" class="st9"/><path d="M387.6,241.5L387.6,241.5 M387.6,239v7.8h-7.8v-5.3 M379.8,241.5V239h7.8" class="st7"/><line x1="635.3" x2="562.4" y1="298.8" y2="298.8" class="st7"/><line x1="633.7" x2="562.8" y1="297.2" y2="297.2" class="st7"/><line x1="662.7" x2="657" y1="175.6" y2="181.3" class="st7"/></g></g></svg>