<svg xmlns="http://www.w3.org/2000/svg" xmlns:xlink="http://www.w3.org/1999/xlink" x="0" y="0" version="1.1" viewBox="0 0 836.4 516.9" xml:space="preserve" style="enable-background:new 0 0 836.4 516.9"><style type="text/css">.st0{fill:#b3befc}.st0,.st1,.st2,.st3,.st4{stroke:#6e6e6e;stroke-width:.48;stroke-linecap:round;stroke-linejoin:round;stroke-miterlimit:10}.st5{stroke-width:.48}.st5,.st6{stroke-linecap:round;stroke-linejoin:round;stroke-miterlimit:10}.st1{fill:#e1e1e1}.st2{fill:#fff}.st3{fill:#d4efff}.st4{fill:#ff7f7f}.st5{fill:#fff;stroke:#9c9c9c}.st6{clip-path:url(#SVGID_2_);fill:none;stroke:#000;stroke-width:.6024}.st10,.st7,.st8,.st9{fill-rule:evenodd;clip-rule:evenodd}.st10{fill:none;stroke:#000;stroke-linecap:round;stroke-miterlimit:10}.st8{stroke-width:0}.st8,.st9{fill:none;stroke:#000;stroke-linecap:round;stroke-miterlimit:10}.st10,.st9{stroke-linejoin:round}.st9{stroke-width:.6024}.st10{stroke-width:0}</style><g id="Layers"><g id="ThirdFloorPublic"><g><polygon points="98.7 244.8 98.4 244.6 98.2 244.3 98 244.1 97.7 243.8 97.5 243.6 97.2 243.4 97 243.1 97 242.9 96.8 242.6 96.5 242.4 96.3 242.2 96 241.9 95.8 241.7 95.6 241.4 95.3 241.2 95.1 241 95.1 240.7 94.8 240.5 94.6 240.2 94.4 240 94.1 239.8 93.9 239.5 93.9 239.3 93.6 239 93.4 238.8 93.2 238.6 93.2 238.3 92.9 238.1 92.7 237.8 92.4 237.6 92.4 237.4 92.2 237.1 92 236.9 91.7 236.6 91.7 236.4 91.5 236.2 91.2 235.9 91 235.7 91 235.4 90.8 235.2 90.5 235 90.5 234.7 90.3 234.5 90 234.2 90 234 89.8 233.8 89.6 233.5 89.6 233.3 89.3 233 89.1 232.8 89.1 232.6 88.8 232.3 88.8 232.1 88.6 231.8 88.4 231.6 88.4 231.4 88.1 231.1 88.1 230.9 87.9 230.6 87.6 230.4 87.6 230.2 87.4 229.9 87.4 229.7 87.2 229.4 87.2 229.2 86.9 229 86.9 228.7 86.7 228.5 86.4 228.2 86.4 228 86.2 227.8 86.2 227.5 86 227.3 86 227 85.7 226.8 85.7 226.6 85.5 226.3 85.5 226.1 85.2 225.8 85.2 225.6 85 225.4 85 225.1 85 224.9 84.8 224.6 84.8 224.4 84.5 224.2 84.5 223.9 84.3 223.7 84.3 223.4 84 223.2 84 223 84 222.7 83.8 222.5 83.8 222.2 83.6 222 83.6 221.8 83.3 221.5 83.3 221.3 83.3 221 83.1 220.8 83.1 220.6 82.8 220.3 82.8 220.1 82.8 219.8 82.6 219.6 82.6 219.4 82.6 219.1 82.4 218.9 82.4 218.6 82.4 218.4 82.1 218.2 82.1 217.9 82.1 217.7 81.9 217.4 81.9 217.2 81.9 217 81.6 216.7 81.6 216.5 81.6 216.2 81.4 216 81.4 215.8 81.4 215.5 81.2 215.3 81.2 215 81.2 214.8 80.9 214.6 80.9 214.3 80.9 214.1 80.9 213.8 80.7 213.6 80.7 213.4 80.7 213.1 80.7 212.9 80.4 212.6 80.4 212.4 80.4 212.2 80.4 211.9 80.2 211.7 80.2 211.4 80.2 211.2 80.2 211 80 210.7 80 210.5 80 210.2 80 210 79.7 209.8 79.7 209.5 79.7 209.3 79.7 209 79.7 208.8 79.5 208.6 79.5 208.3 79.5 208.1 79.5 207.8 79.5 207.6 79.5 207.4 79.2 207.1 79.2 206.9 79.2 206.6 79.2 206.4 79.2 206.2 79.2 205.9 79 205.7 79 205.4 79 205.2 79 205 79 204.7 79 204.5 79 204.2 78.8 204 78.8 203.8 78.8 203.5 78.8 203.3 78.8 203 78.8 202.8 78.8 202.6 78.8 202.3 78.5 202.1 78.5 201.8 78.5 201.6 78.5 201.4 78.5 201.1 78.5 200.9 78.5 200.6 78.5 200.4 78.5 200.2 78.5 199.9 78.5 199.7 78.5 199.4 78.5 199.2 78.3 199 78.3 198.7 78.3 198.5 78.3 198.2 78.3 198 78.3 197.8 78.3 197.5 78.3 197.3 78.3 197 78.3 196.8 78.3 196.6 78.3 196.3 78.3 196.1 78.3 195.8 78.3 195.6 78.3 195.4 78.3 195.1 78.3 194.9 78.3 194.6 78.3 194.4 78.3 194.2 78.3 193.9 78.3 193.7 78.3 193.4 78.3 193.2 78.3 193 78.3 192.7 78.3 192.5 78.3 192.2 78.3 192 78.3 191.8 78.3 191.5 78.3 191.3 78.3 191 78.5 190.8 78.5 190.6 78.5 190.3 78.5 190.1 78.5 189.8 78.5 189.6 78.5 189.4 78.5 189.1 78.5 188.9 78.5 188.6 78.5 188.4 78.5 188.2 78.5 187.9 78.8 187.7 78.8 187.4 78.8 187.2 78.8 187 78.8 186.7 78.8 186.5 78.8 186.2 78.8 186 79 185.8 79 185.5 79 185.3 79 185 79 184.8 79 184.6 79 184.3 79.2 184.1 79.2 183.8 79.2 183.6 79.2 183.4 79.2 183.1 79.2 182.9 79.5 182.6 79.5 182.4 79.5 182.2 79.5 181.9 79.5 181.7 79.5 181.4 79.7 181.2 79.7 181 79.7 180.7 79.7 180.5 79.7 180.2 80 180 80 179.8 80 179.5 80 179.3 80.2 179 80.2 178.8 80.2 178.6 80.2 178.3 80.4 178.1 80.4 177.8 80.4 177.6 80.4 177.4 80.7 177.1 80.7 176.9 80.7 176.6 80.7 176.4 80.9 176.2 80.9 175.9 80.9 175.7 80.9 175.4 81.2 175.2 81.2 175 81.2 174.7 81.4 174.5 81.4 174.2 81.4 174 81.6 173.8 81.6 173.5 81.6 173.3 81.9 173 81.9 172.8 81.9 172.6 82.1 172.3 82.1 172.1 82.1 171.8 82.4 171.6 82.4 171.4 82.4 171.1 82.6 170.9 82.6 170.6 82.6 170.4 82.8 170.2 82.8 169.9 82.8 169.7 83.1 169.4 83.1 169.2 83.3 169 83.3 168.7 83.3 168.5 83.6 168.2 83.6 168 83.8 167.8 83.8 167.5 84 167.3 84 167 84 166.8 84.3 166.6 84.3 166.3 84.5 166.1 84.5 165.8 84.8 165.6 84.8 165.4 85 165.1 85 164.9 85 164.6 85.2 164.4 85.2 164.2 85.5 163.9 85.5 163.7 85.7 163.4 85.7 163.2 86 163 86 162.7 86.2 162.5 86.2 162.2 86.4 162 86.4 161.8 86.7 161.5 86.9 161.3 86.9 161 87.2 160.8 87.2 160.6 87.4 160.3 87.4 160.1 87.6 159.8 87.6 159.6 87.9 159.4 88.1 159.1 88.1 158.9 88.4 158.6 88.4 158.4 88.6 158.2 88.8 157.9 88.8 157.7 89.1 157.4 89.1 157.2 89.3 157 89.6 156.7 89.6 156.5 89.8 156.2 90 156 90 155.8 90.3 155.5 90.5 155.3 90.5 155 90.8 154.8 91 154.6 91 154.3 91.2 154.1 91.5 153.8 91.7 153.6 91.7 153.4 92 153.1 92.2 152.9 92.4 152.6 92.4 152.4 92.7 152.2 92.9 151.9 93.2 151.7 93.2 151.4 93.4 151.2 93.6 151 93.9 150.7 93.9 150.5 94.1 150.2 94.4 150 94.6 149.8 94.8 149.5 95.1 149.3 95.1 149 95.3 148.8 95.6 148.6 95.8 148.3 43.7 91.2 43.7 92.2 43.5 92.4 43.2 92.6 43 92.9 42.8 93.1 42.5 93.4 42.3 93.6 42 93.8 41.8 94.1 41.6 94.3 41.3 94.6 41.3 94.8 41.1 95 40.8 95.3 40.6 95.5 40.4 95.8 40.1 96 39.9 96.2 39.6 96.5 39.4 96.7 39.2 97 38.9 97.2 38.7 97.4 38.4 97.7 38.2 97.9 38 98.2 38 98.4 37.7 98.6 37.5 98.9 37.2 99.1 37 99.4 36.8 99.6 36.5 99.8 36.3 100.1 36.3 100.3 36 100.6 35.8 100.8 35.6 101 35.3 101.3 35.1 101.5 34.8 101.8 34.8 102 34.6 102.2 34.4 102.5 34.1 102.7 33.9 103 33.6 103.2 33.6 103.4 33.4 103.7 33.2 103.9 32.9 104.2 32.7 104.4 32.4 104.6 32.4 104.9 32.2 105.1 32 105.4 31.7 105.6 31.7 105.8 31.5 106.1 31.2 106.3 31 106.6 30.8 106.8 30.8 107 30.5 107.3 30.3 107.5 30 107.8 30 108 29.8 108.2 29.6 108.5 29.3 108.7 29.3 109 29.1 109.2 28.8 109.4 28.6 109.7 28.6 109.9 28.4 110.2 28.1 110.4 27.9 110.6 27.9 110.9 27.6 111.1 27.4 111.4 27.4 111.6 27.2 111.8 26.9 112.1 26.9 112.3 26.7 112.6 26.4 112.8 26.2 113 26.2 113.3 26 113.5 25.7 113.8 25.7 114 25.5 114.2 25.2 114.5 25.2 114.7 25 115 24.8 115.2 24.8 115.4 24.5 115.7 24.3 115.9 24.3 116.2 24 116.4 23.8 116.6 23.8 116.9 23.6 117.1 23.6 117.4 23.3 117.6 23.1 117.8 23.1 118.1 22.8 118.3 22.6 118.6 22.6 118.8 22.4 119 22.4 119.3 22.1 119.5 21.9 119.8 21.9 120 21.6 120.2 21.4 120.5 21.4 120.7 21.2 121 21.2 121.2 20.9 121.4 20.7 121.7 20.7 121.9 20.4 122.2 20.4 122.4 20.2 122.6 20.2 122.9 20 123.1 19.7 123.4 19.7 123.6 19.5 123.8 19.5 124.1 19.2 124.3 19.2 124.6 19 124.8 18.8 125 18.8 125.3 18.5 125.5 18.5 125.8 18.3 126 18.3 126.2 18 126.5 18 126.7 17.8 127 17.8 127.2 17.6 127.4 17.6 127.7 17.3 127.9 17.1 128.2 17.1 128.4 16.8 128.6 16.8 128.9 16.6 129.1 16.6 129.4 16.4 129.6 16.4 129.8 16.1 130.1 16.1 130.3 15.9 130.6 15.9 130.8 15.6 131 15.6 131.3 15.4 131.5 15.4 131.8 15.2 132 15.2 132.2 14.9 132.5 14.9 132.7 14.9 133 14.7 133.2 14.7 133.4 14.4 133.7 14.4 133.9 14.2 134.2 14.2 134.4 14 134.6 14 134.9 13.7 135.1 13.7 135.4 13.5 135.6 13.5 135.8 13.5 136.1 13.2 136.3 13.2 136.6 13 136.8 13 137 12.8 137.3 12.8 137.5 12.5 137.8 12.5 138 12.5 138.2 12.3 138.5 12.3 138.7 12 139 12 139.2 11.8 139.4 11.8 139.7 11.8 139.9 11.6 140.2 11.6 140.4 11.3 140.6 11.3 140.9 11.3 141.1 11.1 141.4 11.1 141.6 10.8 141.8 10.8 142.1 10.8 142.3 10.6 142.6 10.6 142.8 10.4 143 10.4 143.3 10.4 143.5 10.1 143.8 10.1 144 10.1 144.2 9.9 144.5 9.9 144.7 9.6 145 9.6 145.2 9.6 145.4 9.4 145.7 9.4 145.9 9.4 146.2 9.2 146.4 9.2 146.6 9.2 146.9 8.9 147.1 8.9 147.4 8.7 147.6 8.7 147.8 8.7 148.1 8.4 148.3 8.4 148.6 8.4 148.8 8.2 149 8.2 149.3 8.2 149.5 8 149.8 8 150 8 150.2 7.7 150.5 7.7 150.7 7.7 151 7.5 151.2 7.5 151.4 7.5 151.7 7.5 151.9 7.2 152.2 7.2 152.4 7.2 152.6 7 152.9 7 153.1 7 153.4 6.8 153.6 6.8 153.8 6.8 154.1 6.5 154.3 6.5 154.6 6.5 154.8 6.5 155 6.3 155.3 6.3 155.5 6.3 155.8 6 156 6 156.2 6 156.5 6 156.7 5.8 157 5.8 157.2 5.8 157.4 5.8 157.7 5.6 157.9 5.6 158.2 5.6 158.4 5.3 158.6 5.3 158.9 5.3 159.1 5.3 159.4 5.1 159.6 5.1 159.8 5.1 160.1 5.1 160.3 4.8 160.6 4.8 160.8 4.8 161 4.8 161.3 4.6 161.5 4.6 161.8 4.6 162 4.6 162.2 4.6 162.5 4.4 162.7 4.4 163 4.4 163.2 4.4 163.4 4.1 163.7 4.1 163.9 4.1 164.2 4.1 164.4 4.1 164.6 3.9 164.9 3.9 165.1 3.9 165.4 3.9 165.6 3.6 165.8 3.6 166.1 3.6 166.3 3.6 166.6 3.6 166.8 3.4 167 3.4 167.3 3.4 167.5 3.4 167.8 3.4 168 3.4 168.2 3.2 168.5 3.2 168.7 3.2 169 3.2 169.2 3.2 169.4 2.9 169.7 2.9 169.9 2.9 170.2 2.9 170.4 2.9 170.6 2.9 170.9 2.7 171.1 2.7 171.4 2.7 171.6 2.7 171.8 2.7 172.1 2.7 172.3 2.4 172.6 2.4 172.8 2.4 173 2.4 173.3 2.4 173.5 2.4 173.8 2.2 174 2.2 174.2 2.2 174.5 2.2 174.7 2.2 175 2.2 175.2 2.2 175.4 2 175.7 2 175.9 2 176.2 2 176.4 2 176.6 2 176.9 2 177.1 2 177.4 1.7 177.6 1.7 177.8 1.7 178.1 1.7 178.3 1.7 178.6 1.7 178.8 1.7 179 1.7 179.3 1.7 179.5 1.5 179.8 1.5 180 1.5 180.2 1.5 180.5 1.5 180.7 1.5 181 1.5 181.2 1.5 181.4 1.5 181.7 1.5 181.9 1.2 182.2 1.2 182.4 1.2 182.6 1.2 182.9 1.2 183.1 1.2 183.4 1.2 183.6 1.2 183.8 1.2 184.1 1.2 184.3 1.2 184.6 1.2 184.8 1 185 1 185.3 1 185.5 1 185.8 1 186 1 186.2 1 186.5 1 186.7 1 187 1 187.2 1 187.4 1 187.7 1 187.9 1 188.2 1 188.4 1 188.6 1 188.9 1 189.1 .8 189.4 .8 189.6 .8 189.8 .8 190.1 .8 190.3 .8 190.6 .8 190.8 .8 191 .8 191.3 .8 191.5 .8 191.8 .8 192 .8 192.2 .8 192.5 .8 192.7 .8 193 .8 193.2 .8 193.4 .8 193.7 .8 193.9 .8 194.2 .8 194.4 .8 194.6 .8 194.9 .8 195.1 .8 195.4 .8 195.6 .8 195.8 .8 196.1 .8 196.3 .8 196.6 .8 196.8 .8 197 .8 197.3 .8 197.5 .8 197.8 .8 198 .8 198.2 .8 198.5 .8 198.7 .8 199 .8 199.2 .8 199.4 .8 199.7 .8 199.9 .8 200.2 .8 200.4 .8 200.6 .8 200.9 1 201.1 1 201.4 1 201.6 1 201.8 1 202.1 1 202.3 1 202.6 1 202.8 1 203 1 203.3 1 203.5 1 203.8 1 204 1 204.2 1 204.5 1 204.7 1 205 1 205.2 1.2 205.4 1.2 205.7 1.2 205.9 1.2 206.2 1.2 206.4 1.2 206.6 1.2 206.9 1.2 207.1 1.2 207.4 1.2 207.6 1.2 207.8 1.2 208.1 1.5 208.3 1.5 208.6 1.5 208.8 1.5 209 1.5 209.3 1.5 209.5 1.5 209.8 1.5 210 1.5 210.2 1.5 210.5 1.7 210.7 1.7 211 1.7 211.2 1.7 211.4 1.7 211.7 1.7 211.9 1.7 212.2 1.7 212.4 1.7 212.6 2 212.9 2 213.1 2 213.4 2 213.6 2 213.8 2 214.1 2 214.3 2 214.6 2.2 214.8 2.2 215 2.2 215.3 2.2 215.5 2.2 215.8 2.2 216 2.2 216.2 2.4 216.5 2.4 216.7 2.4 217 2.4 217.2 2.4 217.4 2.4 217.7 2.7 217.9 2.7 218.2 2.7 218.4 2.7 218.6 2.7 218.9 2.7 219.1 2.9 219.4 2.9 219.6 2.9 219.8 2.9 220.1 2.9 220.3 2.9 220.6 3.2 220.8 3.2 221 3.2 221.3 3.2 221.5 3.2 221.8 3.4 222 3.4 222.2 3.4 222.5 3.4 222.7 3.4 223 3.4 223.2 3.6 223.4 3.6 223.7 3.6 223.9 3.6 224.2 3.6 224.4 3.9 224.6 3.9 224.9 3.9 225.1 3.9 225.4 4.1 225.6 4.1 225.8 4.1 226.1 4.1 226.3 4.1 226.6 4.4 226.8 4.4 227 4.4 227.3 4.4 227.5 4.6 227.8 4.6 228 4.6 228.2 4.6 228.5 4.6 228.7 4.8 229 4.8 229.2 4.8 229.4 4.8 229.7 5.1 229.9 5.1 230.2 5.1 230.4 5.1 230.6 5.3 230.9 5.3 231.1 5.3 231.4 5.3 231.6 5.6 231.8 5.6 232.1 5.6 232.3 5.8 232.6 5.8 232.8 5.8 233 5.8 233.3 6 233.5 6 233.8 6 234 6 234.2 6.3 234.5 6.3 234.7 6.3 235 6.5 235.2 6.5 235.4 6.5 235.7 6.5 235.9 6.8 236.2 6.8 236.4 6.8 236.6 7 236.9 7 237.1 7 237.4 7.2 237.6 7.2 237.8 7.2 238.1 7.5 238.3 7.5 238.6 7.5 238.8 7.5 239 7.7 239.3 7.7 239.5 7.7 239.8 8 240 8 240.2 8 240.5 8.2 240.7 8.2 241 8.2 241.2 8.4 241.4 8.4 241.7 8.4 241.9 8.7 242.2 8.7 242.4 8.7 242.6 8.9 242.9 8.9 243.1 9.2 243.4 9.2 243.6 9.2 243.8 9.4 244.1 9.4 244.3 9.4 244.6 9.6 244.8 9.6 245 9.6 245.3 9.9 245.5 9.9 245.8 10.1 246 10.1 246.2 10.1 246.5 10.4 246.7 10.4 247 10.4 247.2 10.6 247.4 10.6 247.7 10.8 247.9 10.8 248.2 10.8 248.4 11.1 248.6 11.1 248.9 11.3 249.1 11.3 249.4 11.3 249.6 11.6 249.8 11.6 250.1 11.8 250.3 11.8 250.6 11.8 250.8 12 251 12 251.3 12.3 251.5 12.3 251.8 12.5 252 12.5 252.2 12.5 252.5 12.8 252.7 12.8 253 13 253.2 13 253.4 13.2 253.7 13.2 253.9 13.5 254.2 13.5 254.4 13.5 254.6 13.7 254.9 13.7 255.1 14 255.4 14 255.6 14.2 255.8 14.2 256.1 14.4 256.3 14.4 256.6 14.7 256.8 14.7 257 14.9 257.3 14.9 257.5 14.9 257.8 15.2 258 15.2 258.2 15.4 258.5 15.4 258.7 15.6 259 15.6 259.2 15.9 259.4 15.9 259.7 16.1 259.9 16.1 260.2 16.4 260.4 16.4 260.6 16.6 260.9 16.6 261.1 16.8 261.4 16.8 261.6 17.1 261.8 17.1 262.1 17.3 262.3 17.6 262.6 17.6 262.8 17.8 263 17.8 263.3 18 263.5 18 263.8 18.3 264 18.3 264.2 18.5 264.5 18.5 264.7 18.8 265 18.8 265.2 19 265.4 19.2 265.7 19.2 265.9 19.5 266.2 19.5 266.4 19.7 266.6 19.7 266.9 20 267.1 20.2 267.4 20.2 267.6 20.4 267.8 20.4 268.1 20.7 268.3 20.7 268.6 20.9 268.8 21.2 269 21.2 269.3 21.4 269.5 21.4 269.8 21.6 270 21.9 270.2 21.9 270.5 22.1 270.7 22.4 271 22.4 271.2 22.6 271.4 22.6 271.7 22.8 271.9 23.1 272.2 23.1 272.4 23.3 272.6 23.6 272.9 23.6 273.1 23.8 273.4 23.8 273.6 24 273.8 24.3 274.1 24.3 274.3 24.5 274.6 24.8 274.8 24.8 275 25 275.3 25.2 275.5 25.2 275.8 25.5 276 25.7 276.2 25.7 276.5 26 276.7 26.2 277 26.2 277.2 26.4 277.4 26.7 277.7 26.9 277.9 26.9 278.2 27.2 278.4 27.4 278.6 27.4 278.9 27.6 279.1 27.9 279.4 27.9 279.6 28.1 279.8 28.4 280.1 28.6 280.3 28.6 280.6 28.8 280.8 29.1 281 29.3 281.3 29.3 281.5 29.6 281.8 29.8 282 30 282.2 30 282.5 30.3 282.7 30.5 283 30.8 283.2 30.8 283.4 31 283.7 31.2 283.9 31.5 284.2 31.7 284.4 31.7 284.6 32 284.9 32.2 285.1 32.4 285.4 32.4 285.6 32.7 285.8 32.9 286.1 33.2 286.3 33.4 286.6 33.6 286.8 33.6 287 33.9 287.3 34.1 287.5 34.4 287.8 34.6 288 34.8 288.2 34.8 288.5 35.1 288.7 35.3 289 35.6 289.2 35.8 289.4 36 289.7 36.3 289.9 36.3 290.2 36.5 290.4 36.8 290.6 37 290.9 37.2 291.1 37.5 291.4 37.7 291.6 38 291.8 38 292.1 38.2 292.3 38.4 292.6 38.7 292.8 38.9 293 39.2 293.3 39.4 293.5 39.6 293.8 39.9 294 40.1 294.2 40.4 294.5 40.6 294.7 40.8 295 41.1 295.2 41.3 295.4 41.3 295.7 41.6 295.9 41.8 296.2 42 296.4 42.3 296.6 42.5 296.9 42.8 297.1 43 297.4 43.2 297.6 43.5 297.8 43.7 298.1 44 298.3 44.2 298.3" class="st0"/><polyline points="114.1 36.5 115.2 133.2 115.5 133 115.7 132.7 116 132.7 116.2 132.5 116.4 132.5 116.7 132.2 116.9 132.2 117.2 132 117.4 132 117.6 131.8 117.9 131.8 118.1 131.5 118.4 131.5 118.6 131.3 118.8 131.3 119.1 131 119.3 131 119.6 131 119.8 130.8 120 130.8 120.3 130.6 120.5 130.6 120.8 130.3 121 130.3 121.2 130.3 121.5 130.1 121.7 130.1 122 129.8 122.2 129.8 122.4 129.8 122.7 129.6 122.9 129.6 123.2 129.4 123.4 129.4 123.6 129.4 123.9 129.1 124.1 129.1 124.4 129.1 124.6 128.9 124.8 128.9 125.1 128.9 125.3 128.6 125.6 128.6 125.8 128.6 126 128.4 126.3 128.4 126.5 128.4 126.8 128.2 127 128.2 127.2 128.2 127.5 127.9 127.7 127.9 128 127.9 128.2 127.7 128.4 127.7 128.7 127.7 128.9 127.7 129.2 127.4 129.4 127.4 129.6 127.4 129.9 127.2 130.1 127.2 130.4 127.2 130.6 127.2 130.8 127 131.1 127 131.3 127 131.6 127 131.8 126.7 132 126.7 132.3 126.7 132.5 126.7 132.8 126.7 133 126.5 133.2 126.5 133.5 126.5 133.7 126.5 134 126.5 134.2 126.2 134.4 126.2 134.7 126.2 134.9 126.2 135.2 126.2 135.4 126 135.6 126 135.9 126 136.1 126 136.4 126 136.6 126 136.8 125.8 137.1 125.8 137.3 125.8 137.6 125.8 137.8 125.8 138 125.8 138.3 125.8 138.5 125.5 138.8 125.5 139 125.5 139.2 125.5 139.5 125.5 139.7 125.5 140 125.5 140.2 125.5 140.4 125.3 140.7 125.3 140.9 125.3 141.2 125.3 141.4 125.3 141.6 125.3 141.9 125.3 142.1 125.3 142.4 125.3 142.6 125.3 142.8 125.3 143.1 125.3 143.3 125.3 143.6 125 143.8 125 144 125 144.3 125 144.5 125 144.8 125 145 125 145.2 125 145.5 125 145.7 125 146 125 146.2 125 146.4 125 146.7 125 146.9 125 147.2 125 147.4 125 147.6 125 147.9 125 148.1 125 148.4 125 148.6 125 148.8 125 149.1 125 149.3 125 149.6 125 149.8 125 150 125 150.3 125 150.5 125 150.8 125 151 125 151.2 125 151.5 125.3 151.7 125.3 152 125.3 152.2 125.3 152.4 125.3 152.7 125.3 152.9 125.3 153.2 125.3 153.4 125.3 153.6 125.3 153.9 125.3 154.1 125.3 154.4 125.3 154.6 125.5 154.8 125.5 155.1 125.5 155.3 125.5 155.6 125.5 155.8 125.5 156 125.5 156.3 125.5 156.5 125.8 156.8 125.8 157 125.8 157.2 125.8 157.5 125.8 157.7 125.8 158 125.8 158.2 126 158.4 126 158.7 126 158.9 126 159.2 126 159.4 126 159.6 126.2 159.9 126.2 160.1 126.2 160.4 126.2 160.6 126.2 160.8 126.5 161.1 126.5 161.3 126.5 161.6 126.5 161.8 126.5 162 126.7 162.3 126.7 162.5 126.7 162.8 126.7 163 126.7 163.2 127 163.5 127 163.7 127 164 127 164.2 127.2 164.4 127.2 164.7 127.2 164.9 127.2 165.2 127.4 165.4 127.4 165.6 127.4 165.9 127.7 166.1 127.7 166.4 127.7 166.6 127.7 166.8 127.9 167.1 127.9 167.3 127.9 167.6 128.2 167.8 128.2 168 128.2 168.3 128.4 168.5 128.4 168.8 128.4 169 128.6 169.2 128.6 169.5 128.6 169.7 128.9 170 128.9 170.2 128.9 170.4 129.1 170.7 129.1 170.9 129.1 171.2 129.4 171.4 129.4 171.6 129.4 171.9 129.6 172.1 129.6 172.4 129.8 172.6 129.8 172.8 129.8 173.1 130.1 173.3 130.1 173.6 130.3 173.8 130.3 174 130.3 174.3 130.6 174.5 130.6 174.8 130.8 172.5 36.5" class="st1"/><path d="M43.7,0.2" class="st1"/><polygon points="117.6 258.2 117.4 258.2 117.2 258 116.9 258 116.7 257.8 116.4 257.8 116.2 257.5 116 257.5 115.7 257.3 115.5 257.3 115.2 257 115 257 114.8 256.8 114.5 256.6 114.3 256.6 114 256.3 113.8 256.3 113.6 256.1 113.3 256.1 113.1 255.8 112.8 255.6 112.6 255.6 112.4 255.4 112.1 255.4 111.9 255.1 111.6 254.9 111.4 254.9 111.2 254.6 110.9 254.4 110.7 254.4 110.4 254.2 110.2 253.9 110 253.9 109.7 253.7 109.5 253.4 109.2 253.4 109 253.2 108.8 253 108.5 253 108.3 252.7 108 252.5 107.8 252.5 107.6 252.2 107.3 252 107.1 251.8 106.8 251.8 106.6 251.5 106.4 251.3 106.1 251 105.9 251 105.6 250.8 105.4 250.6 105.2 250.3 104.9 250.3 104.7 250.1 104.4 249.8 104.2 249.6 104 249.4 103.7 249.4 103.5 249.1 103.2 248.9 103 248.6 102.8 248.4 102.5 248.4 102.3 248.2 102 247.9 101.8 247.7 101.6 247.4 101.3 247.2 101.1 247 100.8 246.7 100.6 246.5 100.4 246.5 100.1 246.2 99.9 246 99.6 245.8 99.4 245.5 99.2 245.3 98.9 245 98.7 244.8 44.2 298.3 44.4 462.2 259.2 462 262.8 462.2 262.8 352.8 117.9 352.8 117.6 293.5 99.6 293.5 99.2 262.1 117.6 262.1" class="st1"/><polygon points="117.6 262.1 117.6 293.5 99.6 293.5 99.2 262.1" class="st2"/><polygon points="259.2 462 259.2 474 259.5 474.2 259.7 474.5 260 474.5 260.2 474.7 260.4 474.7 260.7 475 260.9 475 261.2 475.2 261.4 475.2 261.6 475.4 261.9 475.7 262.1 475.7 262.4 475.9 262.6 475.9 262.8 476.2 263.1 476.2 263.3 476.4 263.6 476.4 263.8 476.6 264 476.9 264.3 476.9 264.5 477.1 264.8 477.1 265 477.4 265.2 477.4 265.5 477.6 265.7 477.6 266 477.8 266.2 477.8 266.4 478.1 266.7 478.3 266.9 478.3 267.2 478.6 267.4 478.6 267.6 478.8 267.9 478.8 268.1 479 268.4 479 268.6 479.3 268.8 479.3 269.1 479.5 269.3 479.5 269.6 479.8 269.8 479.8 270 480 270.3 480 270.5 480.2 270.8 480.2 271 480.5 271.2 480.7 271.5 480.7 271.7 481 272 481 272.2 481.2 272.4 481.2 272.7 481.4 272.9 481.4 273.2 481.7 273.4 481.7 273.6 481.9 273.9 481.9 274.1 482.2 274.4 482.2 274.6 482.4 274.8 482.4 275.1 482.6 275.3 482.6 275.6 482.9 275.8 482.9 276 483.1 276.3 483.1 276.5 483.4 276.8 483.4 277 483.6 277.2 483.6 277.5 483.8 277.7 483.8 278 484.1 278.2 484.1 278.4 484.3 278.7 484.3 278.9 484.6 279.2 484.6 279.4 484.6 279.6 484.8 279.9 484.8 280.1 485 280.4 485 280.6 485.3 280.8 485.3 281.1 485.5 281.3 485.5 281.6 485.8 281.8 485.8 282 486 282.3 486 282.5 486.2 282.8 486.2 283 486.5 283.2 486.5 283.5 486.5 283.7 486.7 284 486.7 284.2 487 284.4 487 284.7 487.2 284.9 487.2 285.2 487.4 285.4 487.4 285.6 487.7 285.9 487.7 286.1 487.9 286.4 487.9 286.6 487.9 286.8 488.2 287.1 488.2 287.3 488.4 287.6 488.4 287.8 488.6 288 488.6 288.3 488.9 288.5 488.9 288.8 488.9 289 489.1 289.2 489.1 289.5 489.4 289.7 489.4 290 489.6 290.2 489.6 290.4 489.8 290.7 489.8 290.9 489.8 291.2 490.1 291.4 490.1 291.6 490.3 291.9 490.3 292.1 490.6 292.4 490.6 292.6 490.6 292.8 490.8 293.1 490.8 293.3 491 293.6 491 293.8 491 294 491.3 294.3 491.3 294.5 491.5 294.8 491.5 295 491.8 295.2 491.8 295.5 491.8 295.7 492 296 492 296.2 492.2 296.4 492.2 296.7 492.2 296.9 492.5 297.2 492.5 297.4 492.7 297.6 492.7 297.9 493 298.1 493 298.4 493 298.6 493.2 298.8 493.2 299.1 493.4 299.3 493.4 299.6 493.4 299.8 493.7 300 493.7 300.3 493.9 300.5 493.9 300.8 493.9 301 494.2 301.2 494.2 301.5 494.2 301.7 494.4 302 494.4 302.2 494.6 302.4 494.6 302.7 494.6 302.9 494.9 303.2 494.9 303.4 495.1 303.6 495.1 303.9 495.1 304.1 495.4 304.4 495.4 304.6 495.4 304.8 495.6 305.1 495.6 305.3 495.8 305.6 495.8 305.8 495.8 306 496.1 306.3 496.1 306.5 496.1 306.8 496.3 307 496.3 307.2 496.6 307.5 496.6 307.7 496.6 308 496.8 308.2 496.8 308.4 496.8 308.7 497 308.9 497 309.2 497.3 309.4 497.3 309.6 497.3 309.9 497.5 310.1 497.5 310.4 497.5 310.6 497.8 310.8 497.8 311.1 497.8 311.3 498 311.6 498 311.8 498 312 498.2 312.3 498.2 312.5 498.2 312.8 498.5 313 498.5 313.2 498.7 313.5 498.7 313.7 498.7 314 499 314.2 499 314.4 499 314.7 499.2 314.9 499.2 315.2 499.2 315.4 499.4 315.6 499.4 315.9 499.4 316.1 499.7 316.4 499.7 316.6 499.7 316.8 499.9 317.1 499.9 317.3 499.9 317.6 500.2 317.8 500.2 318 500.2 318.3 500.4 318.5 500.4 318.8 500.4 319 500.6 319.2 500.6 319.5 500.6 319.7 500.9 320 500.9 320.2 500.9 320.4 501.1 320.7 501.1 320.9 501.1 321.2 501.1 321.4 501.4 321.6 501.4 321.9 501.4 322.1 501.6 322.4 501.6 322.6 501.6 322.8 501.8 323.1 501.8 323.3 501.8 323.6 502.1 323.8 502.1 324 502.1 324.3 502.3 324.5 502.3 324.8 502.3 325 502.3 325.2 502.6 325.5 502.6 325.7 502.6 326 502.8 326.2 502.8 326.4 502.8 326.7 503 326.9 503 327.2 503 327.4 503 327.6 503.3 327.9 503.3 328.1 503.3 328.4 503.5 328.6 503.5 328.8 503.5 329.1 503.5 329.3 503.8 329.6 503.8 329.8 503.8 330 504 330.3 504 330.5 504 330.8 504.2 331 504.2 331.2 504.2 331.5 504.2 331.7 504.5 332 504.5 332.2 504.5 332.4 504.5 332.7 504.7 332.9 504.7 333.2 504.7 333.4 505 333.6 505 333.9 505 334.1 505 334.4 505.2 334.6 505.2 334.8 505.2 335.1 505.2 335.3 505.4 335.6 505.4 335.8 505.4 336 505.7 336.3 505.7 336.5 505.7 336.8 505.7 337 505.9 337.2 505.9 337.5 505.9 337.7 505.9 338 506.2 338.2 506.2 338.4 506.2 338.7 506.2 338.9 506.4 339.2 506.4 339.4 506.4 339.6 506.4 339.9 506.6 340.1 506.6 340.4 506.6 340.6 506.6 340.8 506.9 341.1 506.9 341.3 506.9 341.6 506.9 341.8 507.1 342 507.1 342.3 507.1 342.5 507.1 342.8 507.4 343 507.4 343.2 507.4 343.5 507.4 343.7 507.6 344 507.6 344.2 507.6 344.4 507.6 344.7 507.8 344.9 507.8 345.2 507.8 345.4 507.8 345.6 507.8 345.9 508.1 346.1 508.1 346.4 508.1 346.6 508.1 346.8 508.3 347.1 508.3 347.3 508.3 347.6 508.3 347.8 508.6 348 508.6 348.3 508.6 348.5 508.6 348.8 508.6 349 508.8 349.2 508.8 349.5 508.8 349.7 508.8 350 509 350.2 509 350.4 509 350.7 509 350.9 509 351.2 509.3 351.4 509.3 351.6 509.3 351.9 509.3 352.1 509.3 352.4 509.5 352.6 509.5 352.8 509.5 353.1 509.5 353.3 509.5 353.6 509.8 353.8 509.8 354 509.8 354.3 509.8 354.5 510 354.8 510 355 510 355.2 510 355.5 510 355.7 510.2 356 510.2 356.2 510.2 356.4 510.2 356.7 510.2 356.9 510.2 357.2 510.5 357.4 510.5 357.6 510.5 357.9 510.5 358.1 510.5 358.4 510.7 358.6 510.7 358.8 510.7 359.1 510.7 359.3 510.7 359.6 511 359.8 511 360 511 360.3 511 360.5 511 360.8 511 361 511.2 361.2 511.2 361.5 511.2 361.7 511.2 362 511.2 362.2 511.4 362.4 511.4 362.7 511.4 362.9 511.4 363.2 511.4 363.4 511.4 363.6 511.7 363.9 511.7 364.1 511.7 364.4 511.7 364.6 511.7 364.8 511.7 365.1 511.9 365.3 511.9 365.6 511.9 365.8 511.9 366 511.9 366.3 511.9 366.5 512.2 366.8 512.2 367 512.2 367.2 512.2 367.5 512.2 367.7 512.2 368 512.4 368.2 512.4 368.4 512.4 368.7 512.4 368.9 512.4 369.2 512.4 369.4 512.6 369.6 512.6 369.9 512.6 370.1 512.6 370.4 512.6 370.6 512.6 370.8 512.6 371.1 512.9 371.3 512.9 371.6 512.9 371.8 512.9 372 512.9 372.3 512.9 372.5 512.9 372.8 513.1 373 513.1 373.2 513.1 373.5 513.1 373.7 513.1 374 513.1 374.2 513.1 374.4 513.4 374.7 513.4 374.9 513.4 375.2 513.4 375.4 513.4 375.6 513.4 375.9 513.4 376.1 513.6 376.4 513.6 376.6 513.6 376.8 513.6 377.1 513.6 377.3 513.6 377.6 513.6 377.8 513.6 378 513.8 378.3 513.8 378.5 513.8 378.8 513.8 379 513.8 379.2 513.8 379.5 513.8 379.7 513.8 380 514.1 380.2 514.1 380.4 514.1 380.7 514.1 380.9 514.1 381.2 514.1 381.4 514.1 381.6 514.1 381.9 514.1 382.1 514.3 382.4 514.3 382.6 514.3 382.8 514.3 383.1 514.3 383.3 514.3 383.6 514.3 383.8 514.3 384 514.3 384.3 514.6 384.5 514.6 384.8 514.6 385 514.6 385.2 514.6 385.5 514.6 385.7 514.6 386 514.6 386.2 514.6 386.4 514.8 386.7 514.8 386.9 514.8 387.2 514.8 387.4 514.8 387.6 514.8 387.9 514.8 388.1 514.8 388.4 514.8 388.6 514.8 388.8 514.8 389.1 515 389.3 515 389.6 515 389.8 515 390 515 390.3 515 390.5 515 390.8 515 391 515 391.2 515 391.5 515 391.7 515 392 515.3 392.2 515.3 392.4 515.3 392.7 515.3 392.9 515.3 393.2 515.3 393.4 515.3 393.6 515.3 393.9 515.3 394.1 515.3 394.4 515.3 394.6 515.3 394.8 515.5 395.1 515.5 395.3 515.5 395.6 515.5 395.8 515.5 396 515.5 396.3 515.5 396.5 515.5 396.8 515.5 397 515.5 397.2 515.5 397.5 515.5 397.7 515.5 398 515.5 398.2 515.5 398.4 515.8 398.7 515.8 398.9 515.8 399.2 515.8 399.4 515.8 399.6 515.8 399.9 515.8 400.1 515.8 400.4 515.8 400.6 515.8 400.8 515.8 401.1 515.8 401.3 515.8 401.6 515.8 401.8 515.8 402 515.8 402.3 515.8 402.5 515.8 402.8 515.8 403 516 403.2 516 403.5 516 403.7 516 403.9 516 404.2 516 404.4 516 404.7 516 404.9 516 405.2 516 405.4 516 405.6 516 405.9 516 406.1 516 406.4 516 406.6 516 406.8 516 407.1 516 407.3 516 407.6 516 407.8 516 408 516 408.3 516 408.5 516 408.8 516 409 516 409.2 516.2 409.5 516.2 409.7 516.2 409.9 516.2 410.2 516.2 410.4 516.2 410.7 516.2 410.9 516.2 411.2 516.2 411.4 516.2 411.6 516.2 411.9 516.2 412.1 516.2 412.4 516.2 412.6 516.2 412.8 516.2 413.1 516.2 413.3 516.2 413.6 516.2 413.8 516.2 414 516.2 414.3 516.2 414.5 516.2 414.8 516.2 415 516.2 415.2 516.2 415.5 516.2 415.7 516.2 415.9 516.2 416.2 516.2 416.4 516.2 416.7 516.2 416.9 516.2 417.2 516.2 417.4 516.2 417.6 516.2 417.9 516.2 418.1 516.2 418.3 516.2 418.6 516.2 418.8 516.2 419.1 516.2 419.3 516.2 419.6 516.2 419.8 516.2 420 516.2 420.3 516.2 420.5 516.2 420.8 516.2 421 516.2 421.2 516.2 421.5 516.2 421.7 516.2 421.9 516.2 422.2 516.2 422.4 516.2 422.7 516.2 422.9 516.2 423.2 516.2 423.4 516.2 423.6 516.2 423.9 516.2 424.1 516.2 424.3 516.2 424.6 516.2 424.8 516.2 425.1 516.2 425.3 516.2 425.6 516.2 425.8 516.2 426 516.2 426.3 516.2 426.5 516.2 426.8 516.2 427 516 427.2 516 427.5 516 427.7 516 427.9 516 428.2 516 428.4 516 428.7 516 428.9 516 429.2 516 429.4 516 429.6 516 429.9 516 430.1 516 430.3 516 430.6 516 430.8 516 431.1 516 431.3 516 431.6 516 431.8 516 432 516 432.3 516 432.5 516 432.8 516 433 516 433.2 515.8 433.5 515.8 433.7 515.8 433.9 515.8 434.2 515.8 434.4 515.8 434.7 515.8 434.9 515.8 435.2 515.8 435.4 515.8 435.6 515.8 435.9 515.8 436.1 515.8 436.3 515.8 436.6 515.8 436.8 515.8 437.1 515.8 437.3 515.8 437.6 515.8 437.8 515.5 438 515.5 438.3 515.5 438.5 515.5 438.8 515.5 439 515.5 439.2 515.5 439.5 515.5 439.7 515.5 439.9 515.5 440.2 515.5 440.4 515.5 440.7 515.5 440.9 515.5 441.2 515.5 441.4 515.3 441.6 515.3 441.9 515.3 442.1 515.3 442.3 515.3 442.6 515.3 442.8 515.3 443.1 515.3 443.3 515.3 443.6 515.3 443.8 515.3 444 515.3 444.3 515 444.5 515 444.7 515 445 515 445.2 515 445.5 515 445.7 515 445.9 515 446.2 515 446.4 515 446.7 515 446.9 515 447.2 514.8 447.4 514.8 447.6 514.8 447.9 514.8 448.1 514.8 448.3 514.8 448.6 514.8 448.8 514.8 449.1 514.8 449.3 514.8 449.6 514.8 449.8 514.6 450 514.6 450.3 514.6 450.5 514.6 450.7 514.6 451 514.6 451.2 514.6 451.5 514.6 451.7 514.6 451.9 514.3 452.2 514.3 452.4 514.3 452.7 514.3 452.9 514.3 453.1 514.3 453.4 514.3 453.6 514.3 453.9 514.3 454.1 514.1 454.3 514.1 454.6 514.1 454.8 514.1 455.1 514.1 455.3 514.1 455.6 514.1 455.8 514.1 456 514.1 456.3 513.8 456.5 513.8 456.7 513.8 457 513.8 457.2 513.8 457.5 513.8 457.7 513.8 457.9 513.8 458.2 513.6 458.4 513.6 458.7 513.6 458.9 513.6 459.1 513.6 459.4 513.6 459.6 513.6 459.9 513.6 460.1 513.4 460.3 513.4 460.6 513.4 460.8 513.4 461.1 513.4 461.3 513.4 461.6 513.4 461.8 513.1 462 513.1 462.3 513.1 462.5 513.1 462.7 513.1 463 513.1 463.2 513.1 463.5 512.9 463.7 512.9 463.9 512.9 464.2 512.9 464.4 512.9 464.7 512.9 464.9 512.9 465.1 512.6 465.4 512.6 465.6 512.6 465.9 512.6 466.1 512.6 466.3 512.6 466.6 512.6 466.8 512.4 467.1 512.4 467.3 512.4 467.6 512.4 467.8 512.4 468 512.4 468.3 512.2 468.5 512.2 468.7 512.2 469 512.2 469.2 512.2 469.5 512.2 469.7 511.9 469.9 511.9 470.2 511.9 470.4 511.9 470.7 511.9 470.9 511.9 471.1 511.7 471.4 511.7 471.6 511.7 471.9 511.7 472.1 511.7 472.3 511.7 472.6 511.4 472.8 511.4 473.1 511.4 473.3 511.4 473.6 511.4 473.8 511.4 474 511.2 474.3 511.2 474.5 511.2 474.7 511.2 475 511.2 475.2 511 475.5 511 475.7 511 475.9 511 476.2 511 476.4 511 476.7 510.7 476.9 510.7 477.1 510.7 477.4 510.7 477.6 510.7 477.9 510.5 478.1 510.5 478.3 510.5 478.6 510.5 478.8 510.5 479.1 510.2 479.3 510.2 479.6 510.2 479.8 510.2 480 510.2 480.3 510.2 480.5 510 480.7 510 481 510 481.2 510 481.5 510 481.7 509.8 481.9 509.8 482.2 509.8 482.4 509.8 482.7 509.5 482.9 509.5 483.1 509.5 483.4 509.5 483.6 509.5 483.9 509.3 484.1 509.3 484.3 509.3 484.6 509.3 484.8 509.3 485.1 509 485.3 509 485.6 509 485.8 509 486 509 486.3 508.8 486.5 508.8 486.7 508.8 487 508.8 487.2 508.6 487.5 508.6 487.7 508.6 487.9 508.6 488.2 508.6 488.4 508.3 488.7 508.3 488.9 508.3 489.1 508.3 489.4 508.1 489.6 508.1 489.9 508.1 490.1 508.1 490.3 507.8 490.6 507.8 490.8 507.8 491.1 507.8 491.3 507.8 491.5 507.6 491.8 507.6 492 507.6 492.3 507.6 492.5 507.4 492.7 507.4 493 507.4 493.2 507.4 493.5 507.1 493.7 507.1 493.9 507.1 494.2 507.1 494.4 506.9 494.7 506.9 494.9 506.9 495.1 506.9 495.4 506.6 495.6 506.6 495.9 506.6 496.1 506.6 496.3 506.4 496.6 506.4 496.8 506.4 497.1 506.4 497.3 506.2 497.5 506.2 497.8 506.2 498 506.2 498.3 505.9 498.5 505.9 498.7 505.9 499 505.9 499.2 505.7 499.5 505.7 499.7 505.7 499.9 505.7 500.2 505.4 500.4 505.4 500.7 505.4 500.9 505.2 501.1 505.2 501.4 505.2 501.6 505.2 501.9 505 502.1 505 502.3 505 502.6 505 502.8 504.7 503.1 504.7 503.3 504.7 503.5 504.5 503.8 504.5 504 504.5 504.3 504.5 504.5 504.2 504.7 504.2 505 504.2 505.2 504.2 505.5 504 505.7 504 505.9 504 506.2 503.8 506.4 503.8 506.7 503.8 506.9 503.5 507.1 503.5 507.4 503.5 507.6 503.5 507.9 503.3 508.1 503.3 508.3 503.3 508.6 503 508.8 503 509.1 503 509.3 503 509.5 502.8 509.8 502.8 510 502.8 510.3 502.6 510.5 502.6 510.7 502.6 511 502.3 511.2 502.3 511.5 502.3 511.7 502.3 511.9 502.1 512.2 502.1 512.4 502.1 512.7 501.8 512.9 501.8 513.1 501.8 513.4 501.6 513.6 501.6 513.9 501.6 514.1 501.4 514.3 501.4 514.6 501.4 514.8 501.1 515.1 501.1 515.3 501.1 515.5 501.1 515.8 500.9 516 500.9 516.3 500.9 516.5 500.6 516.7 500.6 517 500.6 517.2 500.4 517.5 500.4 517.7 500.4 517.9 500.2 518.2 500.2 518.4 500.2 518.7 499.9 518.9 499.9 519.1 499.9 519.4 499.7 519.6 499.7 519.9 499.7 520.1 499.4 520.3 499.4 520.6 499.4 520.8 499.2 521.1 499.2 521.3 499.2 521.5 499 521.8 499 522 499 522.3 498.7 522.5 498.7 522.7 498.7 523 498.5 523.2 498.5 523.5 498.2 523.7 498.2 523.9 498.2 524.2 498 524.4 498 524.7 498 524.9 497.8 525.1 497.8 525.4 497.8 525.6 497.5 525.9 497.5 526.1 497.5 526.3 497.3 526.6 497.3 526.8 497.3 527.1 497 527.3 497 527.5 496.8 527.8 496.8 528 496.8 528.3 496.6 528.5 496.6 528.7 496.6 529 496.3 529.2 496.3 529.5 496.1 529.7 496.1 529.9 496.1 530.2 495.8 530.4 495.8 530.7 495.8 530.9 495.6 531.1 495.6 531.4 495.4 531.6 495.4 531.9 495.4 532.1 495.1 532.3 495.1 532.6 495.1 532.8 494.9 533.1 494.9 533.3 494.6 533.5 494.6 533.8 494.6 534 494.4 534.3 494.4 534.5 494.2 534.7 494.2 535 494.2 535.2 493.9 535.5 493.9 535.7 493.9 535.9 493.7 536.2 493.7 536.4 493.4 536.7 493.4 536.9 493.4 537.1 493.2 537.4 493.2 537.6 493 537.9 493 538.1 493 538.3 492.7 538.6 492.7 538.8 492.5 539.1 492.5 539.3 492.2 539.6 492.2 539.8 492.2 540 492 540.3 492 540.5 491.8 540.7 491.8 541 491.8 541.2 491.5 541.5 491.5 541.7 491.3 541.9 491.3 542.2 491 542.4 491 542.7 491 542.9 490.8 543.1 490.8 543.4 490.6 543.6 490.6 543.9 490.6 544.1 490.3 544.3 490.3 544.6 490.1 544.8 490.1 545.1 489.8 545.3 489.8 545.6 489.8 545.8 489.6 546 489.6 546.3 489.4 546.5 489.4 546.7 489.1 547 489.1 547.2 488.9 547.5 488.9 547.7 488.9 547.9 488.6 548.2 488.6 548.4 488.4 548.7 488.4 548.9 488.2 549.1 488.2 549.4 487.9 549.6 487.9 549.9 487.9 550.1 487.7 550.3 487.7 550.6 487.4 550.8 487.4 551.1 487.2 551.3 487.2 551.6 487 551.8 487 552 486.7 552.3 486.7 552.5 486.5 552.7 486.5 553 486.5 553.2 486.2 553.5 486.2 553.7 486 553.9 486 554.2 485.8 554.4 485.8 554.7 485.5 554.9 485.5 555.1 485.3 555.4 485.3 555.6 485 555.9 485 556.1 484.8 556.3 484.8 556.6 484.6 556.8 484.6 557.1 484.6 557.3 484.3 557.6 484.3 557.8 484.1 558 484.1 558.3 483.8 558.5 483.8 558.7 483.6 559 483.6 559.2 483.4 559.5 483.4 559.7 483.1 559.9 483.1 560.2 482.9 560.4 482.9 560.7 482.6 560.9 482.6 561.1 482.4 561.4 482.4 561.6 482.2 561.9 482.2 562.1 481.9 562.3 481.9 562.6 481.7 562.8 481.7 563.1 481.4 563.3 481.4 563.6 481.2 563.8 481.2 564 481 564.3 481 564.5 480.7 564.7 480.7 565 480.5 565.2 480.2 565.5 480.2 565.7 480 565.9 480 566.2 479.8 566.4 479.8 566.7 479.5 566.9 479.5 567.1 479.3 567.4 479.3 567.6 479 567.9 479 567.9 478.8 567.9 462.7 567.6 461.5 262.8 462 262.8 462.2" class="st1"/><polyline points="836.1 358.1 760.8 401.8 757.9 401.8 757.9 382.8 732.3 382.8 732 216.7 747.6 185.3 736.6 169 683.8 169 683.5 82.3 825.5 0 836.4 0" class="st1"/><polyline points="692.7 77 683.5 82.3 683.5 69.1 630 69.1 630.3 161.5 613.7 161.3 613.2 67" class="st1"/><polygon points="683.5 82.3 683.5 112.8 630.3 113 630 69.1 683.5 69.1" class="st3"/><polygon points="683.8 169 736.6 169 747.6 185.3 743.1 194.2 712.1 194.4 712.1 174 688.6 174 688.8 194.4 677.8 194.4 677.8 169" class="st1"/><polygon points="712.1 174 712.1 194.4 688.8 194.4 688.6 174" class="st2"/><polygon points="760.8 401.8 760.8 462.5 711.4 462.5 711.1 391.4 683.8 391.4 683.5 316.8 622.6 316.8 622.3 217.2 732 217 732.3 382.8 757.9 382.8 757.9 401.8" class="st1"/><polygon points="683.5 316.8 683.8 391.4 622.6 391.4 622.6 316.8" class="st2"/><polygon points="562.8 95 563.3 373.4 341.8 373.9 341.8 337 252.8 337.2 252.8 335 252.5 95.5" class="st1"/><polygon points="203.1 50.9 263.1 50.6 263.1 65.5 203.1 65.8 203.3 90.2 263.1 90 263.1 95.5 252.5 95.5 252.5 149.8 200.4 149.8 200.2 33.1 202.8 33.1" class="st1"/><polygon points="263.1 65.5 263.1 90 203.3 90.2 203.1 65.8" class="st4"/><polygon points="227.1 298.3 252.8 298.1 252.8 337.2 176.2 337.2 176 307 180.5 307 219.6 307.2 219.6 260.6 219.4 209.5 226.8 209.5 226.8 249.4" class="st1"/><polygon points="219.6 260.6 219.6 307.2 180.5 307 180.3 260.6" class="st3"/><polygon points="252.8 249.4 252.8 298.1 227.1 298.3 226.8 249.4" class="st4"/><polygon points="200.2 33.1 174.8 33.1 174.8 131 174.5 130.8 174.3 130.8 174 130.6 173.8 130.6 173.6 130.6 173.3 130.3 173.1 130.3 172.8 130.1 172.6 130.1 172.4 130.1 172.1 129.8 171.9 129.8 171.6 129.6 171.4 129.6 171.2 129.6 170.9 129.4 170.7 129.4 170.4 129.4 170.2 129.1 170 129.1 169.7 128.9 169.5 128.9 169.2 128.9 169 128.6 168.8 128.6 168.5 128.6 168.3 128.6 168 128.4 167.8 128.4 167.6 128.4 167.3 128.2 167.1 128.2 166.8 128.2 166.6 127.9 166.4 127.9 166.1 127.9 165.9 127.9 165.6 127.7 165.4 127.7 165.2 127.7 164.9 127.4 164.7 127.4 164.4 127.4 164.2 127.4 164 127.2 163.7 127.2 163.5 127.2 163.2 127.2 163 127 162.8 127 162.5 127 162.3 127 162 127 161.8 126.7 161.6 126.7 161.3 126.7 161.1 126.7 160.8 126.7 160.6 126.5 160.4 126.5 160.1 126.5 159.9 126.5 159.6 126.5 159.4 126.2 159.2 126.2 158.9 126.2 158.7 126.2 158.4 126.2 158.2 126.2 158 126 157.7 126 157.5 126 157.2 126 157 126 156.8 126 156.5 126 156.3 125.8 156 125.8 155.8 125.8 155.6 125.8 155.3 125.8 155.1 125.8 154.8 125.8 154.6 125.8 154.4 125.5 154.1 125.5 153.9 125.5 153.6 125.5 153.4 125.5 153.2 125.5 152.9 125.5 152.7 125.5 152.4 125.5 152.2 125.5 152 125.5 151.7 125.5 151.5 125.5 151.2 125.3 151 125.3 150.8 125.3 150.5 125.3 150.3 125.3 150 125.3 149.8 125.3 149.6 125.3 149.3 125.3 149.1 125.3 148.8 125.3 148.6 125.3 148.4 125.3 148.1 125.3 147.9 125.3 147.6 125.3 147.4 125.3 147.2 125.3 146.9 125.3 146.7 125.3 146.4 125.3 146.2 125.3 146 125.3 145.7 125.3 145.5 125.3 145.2 125.3 145 125.3 144.8 125.3 144.5 125.3 144.3 125.3 144 125.3 143.8 125.3 143.6 125.3 143.3 125.5 143.1 125.5 142.8 125.5 142.6 125.5 142.4 125.5 142.1 125.5 141.9 125.5 141.6 125.5 141.4 125.5 141.2 125.5 140.9 125.5 140.7 125.5 140.4 125.5 140.2 125.8 140 125.8 139.7 125.8 139.5 125.8 139.2 125.8 139 125.8 138.8 125.8 138.5 125.8 138.3 126 138 126 137.8 126 137.6 126 137.3 126 137.1 126 136.8 126 136.6 126.2 136.4 126.2 136.1 126.2 135.9 126.2 135.6 126.2 135.4 126.2 135.2 126.5 134.9 126.5 134.7 126.5 134.4 126.5 134.2 126.5 134 126.7 133.7 126.7 133.5 126.7 133.2 126.7 133 126.7 132.8 127 132.5 127 132.3 127 132 127 131.8 127 131.6 127.2 131.3 127.2 131.1 127.2 130.8 127.2 130.6 127.4 130.4 127.4 130.1 127.4 129.9 127.4 129.6 127.7 129.4 127.7 129.2 127.7 128.9 127.9 128.7 127.9 128.4 127.9 128.2 127.9 128 128.2 127.7 128.2 127.5 128.2 127.2 128.4 127 128.4 126.8 128.4 126.5 128.6 126.3 128.6 126 128.6 125.8 128.6 125.6 128.9 125.3 128.9 125.1 128.9 124.8 129.1 124.6 129.1 124.4 129.4 124.1 129.4 123.9 129.4 123.6 129.6 123.4 129.6 123.2 129.6 122.9 129.8 122.7 129.8 122.4 130.1 122.2 130.1 122 130.1 121.7 130.3 121.5 130.3 121.2 130.6 121 130.6 120.8 130.6 120.5 130.8 120.3 130.8 120 131 119.8 131 119.6 131 119.3 131.3 119.1 131.3 118.8 131.5 118.6 131.5 118.4 131.8 118.1 131.8 117.9 132 117.6 132 117.4 132.2 117.2 132.2 116.9 132.5 116.7 132.5 116.4 132.7 116.2 132.7 116 133 115.7 133 115.5 133.2 115.2 133.2 115 133.4 114.8 133.4 114.5 133.7 114.3 133.7 114 133.9 113.8 133.9 113.6 134.2 113.3 134.4 113.1 134.4 112.8 134.6 112.6 134.6 112.4 134.9 112.1 135.1 111.9 135.1 111.6 135.4 111.4 135.4 111.2 135.6 110.9 135.8 110.7 135.8 110.4 136.1 110.2 136.1 110 136.3 109.7 136.6 109.5 136.6 109.2 136.8 109 137 108.8 137 108.5 137.3 108.3 137.5 108 137.5 107.8 137.8 107.6 138 107.3 138.2 107.1 138.2 106.8 138.5 106.6 138.7 106.4 139 106.1 139 105.9 139.2 105.6 139.4 105.4 139.7 105.2 139.7 104.9 139.9 104.7 140.2 104.4 140.4 104.2 140.4 104 140.6 103.7 140.9 103.5 141.1 103.2 141.4 103 141.6 102.8 141.6 102.5 141.8 102.3 142.1 102 142.3 101.8 142.6 101.6 142.8 101.3 143 101.1 143.3 100.8 143.3 100.6 143.5 100.4 143.8 100.1 144 99.9 144.2 99.6 144.5 99.4 144.7 99.2 145 98.9 145.2 98.7 145.4 98.4 145.7 98.2 145.9 98 146.2 97.7 146.4 97.5 146.6 97.2 146.9 97 147.1 96.8 147.4 96.5 147.6 96.5 147.8 96.3 148.1 96 148.3 95.8 148.6 95.6 148.8 95.3 149 95.1 149.3 94.8 149.5 94.8 149.8 94.6 150 94.4 150.2 94.1 150.5 93.9 150.7 93.9 151 93.6 151.2 93.4 151.4 93.2 151.7 92.9 151.9 92.9 152.2 92.7 152.4 92.4 152.6 92.2 152.9 92.2 153.1 92 153.4 91.7 153.6 91.5 153.8 91.5 154.1 91.2 154.3 91 154.6 91 154.8 90.8 155 90.5 155.3 90.5 155.5 90.3 155.8 90 156 90 156.2 89.8 156.5 89.6 156.7 89.6 157 89.3 157.2 89.1 157.4 89.1 157.7 88.8 157.9 88.6 158.2 88.6 158.4 88.4 158.6 88.4 158.9 88.1 159.1 87.9 159.4 87.9 159.6 87.6 159.8 87.6 160.1 87.4 160.3 87.4 160.6 87.2 160.8 86.9 161 86.9 161.3 86.7 161.5 86.7 161.8 86.4 162 86.4 162.2 86.2 162.5 86.2 162.7 86 163 86 163.2 85.7 163.4 85.7 163.7 85.5 163.9 85.5 164.2 85.2 164.4 85.2 164.6 85 164.9 85 165.1 84.8 165.4 84.8 165.6 84.5 165.8 84.5 166.1 84.5 166.3 84.3 166.6 84.3 166.8 84 167 84 167.3 83.8 167.5 83.8 167.8 83.8 168 83.6 168.2 83.6 168.5 83.3 168.7 83.3 169 83.3 169.2 83.1 169.4 83.1 169.7 82.8 169.9 82.8 170.2 82.8 170.4 82.6 170.6 82.6 170.9 82.4 171.1 82.4 171.4 82.4 171.6 82.1 171.8 82.1 172.1 82.1 172.3 81.9 172.6 81.9 172.8 81.9 173 81.6 173.3 81.6 173.5 81.6 173.8 81.4 174 81.4 174.2 81.4 174.5 81.4 174.7 81.2 175 81.2 175.2 81.2 175.4 80.9 175.7 80.9 175.9 80.9 176.2 80.9 176.4 80.7 176.6 80.7 176.9 80.7 177.1 80.4 177.4 80.4 177.6 80.4 177.8 80.4 178.1 80.2 178.3 80.2 178.6 80.2 178.8 80.2 179 80 179.3 80 179.5 80 179.8 80 180 80 180.2 79.7 180.5 79.7 180.7 79.7 181 79.7 181.2 79.7 181.4 79.5 181.7 79.5 181.9 79.5 182.2 79.5 182.4 79.5 182.6 79.2 182.9 79.2 183.1 79.2 183.4 79.2 183.6 79.2 183.8 79.2 184.1 79 184.3 79 184.6 79 184.8 79 185 79 185.3 79 185.5 79 185.8 78.8 186 78.8 186.2 78.8 186.5 78.8 186.7 78.8 187 78.8 187.2 78.8 187.4 78.8 187.7 78.8 187.9 78.5 188.2 78.5 188.4 78.5 188.6 78.5 188.9 78.5 189.1 78.5 189.4 78.5 189.6 78.5 189.8 78.5 190.1 78.5 190.3 78.5 190.6 78.5 190.8 78.3 191 78.3 191.3 78.3 191.5 78.3 191.8 78.3 192 78.3 192.2 78.3 192.5 78.3 192.7 78.3 193 78.3 193.2 78.3 193.4 78.3 193.7 78.3 193.9 78.3 194.2 78.3 194.4 78.3 194.6 78.3 194.9 78.3 195.1 78.3 195.4 78.3 195.6 78.3 195.8 78.3 196.1 78.3 196.3 78.3 196.6 78.3 196.8 78.3 197 78.3 197.3 78.3 197.5 78.3 197.8 78.3 198 78.3 198.2 78.3 198.5 78.3 198.7 78.3 199 78.3 199.2 78.5 199.4 78.5 199.7 78.5 199.9 78.5 200.2 78.5 200.4 78.5 200.6 78.5 200.9 78.5 201.1 78.5 201.4 78.5 201.6 78.5 201.8 78.5 202.1 78.8 202.3 78.8 202.6 78.8 202.8 78.8 203 78.8 203.3 78.8 203.5 78.8 203.8 78.8 204 78.8 204.2 79 204.5 79 204.7 79 205 79 205.2 79 205.4 79 205.7 79 205.9 79.2 206.2 79.2 206.4 79.2 206.6 79.2 206.9 79.2 207.1 79.2 207.4 79.5 207.6 79.5 207.8 79.5 208.1 79.5 208.3 79.5 208.6 79.7 208.8 79.7 209 79.7 209.3 79.7 209.5 79.7 209.8 80 210 80 210.2 80 210.5 80 210.7 80 211 80.2 211.2 80.2 211.4 80.2 211.7 80.2 211.9 80.4 212.2 80.4 212.4 80.4 212.6 80.4 212.9 80.7 213.1 80.7 213.4 80.7 213.6 80.9 213.8 80.9 214.1 80.9 214.3 80.9 214.6 81.2 214.8 81.2 215 81.2 215.3 81.4 215.5 81.4 215.8 81.4 216 81.4 216.2 81.6 216.5 81.6 216.7 81.6 217 81.9 217.2 81.9 217.4 81.9 217.7 82.1 217.9 82.1 218.2 82.1 218.4 82.4 218.6 82.4 218.9 82.4 219.1 82.6 219.4 82.6 219.6 82.8 219.8 82.8 220.1 82.8 220.3 83.1 220.6 83.1 220.8 83.3 221 83.3 221.3 83.3 221.5 83.6 221.8 83.6 222 83.8 222.2 83.8 222.5 83.8 222.7 84 223 84 223.2 84.3 223.4 84.3 223.7 84.5 223.9 84.5 224.2 84.5 224.4 84.8 224.6 84.8 224.9 85 225.1 85 225.4 85.2 225.6 85.2 225.8 85.5 226.1 85.5 226.3 85.7 226.6 85.7 226.8 86 227 86 227.3 86.2 227.5 86.2 227.8 86.4 228 86.4 228.2 86.7 228.5 86.7 228.7 86.9 229 86.9 229.2 87.2 229.4 87.4 229.7 87.4 229.9 87.6 230.2 87.6 230.4 87.9 230.6 87.9 230.9 88.1 231.1 88.4 231.4 88.4 231.6 88.6 231.8 88.6 232.1 88.8 232.3 89.1 232.6 89.1 232.8 89.3 233 89.6 233.3 89.6 233.5 89.8 233.8 90 234 90 234.2 90.3 234.5 90.5 234.7 90.5 235 90.8 235.2 91 235.4 91 235.7 91.2 235.9 91.5 236.2 91.5 236.4 91.7 236.6 92 236.9 92.2 237.1 92.2 237.4 92.4 237.6 92.7 237.8 92.9 238.1 92.9 238.3 93.2 238.6 93.4 238.8 93.6 239 93.9 239.3 93.9 239.5 94.1 239.8 94.4 240 94.6 240.2 94.8 240.5 94.8 240.7 95.1 241 95.3 241.2 95.6 241.4 95.8 241.7 96 241.9 96.3 242.2 96.5 242.4 96.5 242.6 96.8 242.9 97 243.1 97.2 243.4 97.5 243.6 97.7 243.8 98 244.1 98.2 244.3 98.4 244.6 98.7 244.8 98.9 245 99.2 245.3 99.4 245.5 99.6 245.8 99.9 246 100.1 246.2 100.4 246.5 100.6 246.5 100.8 246.7 101.1 247 101.3 247.2 101.6 247.4 101.8 247.7 102 247.9 102.3 248.2 102.5 248.4 102.8 248.4 103 248.6 103.2 248.9 103.5 249.1 103.7 249.4 104 249.4 104.2 249.6 104.4 249.8 104.7 250.1 104.9 250.3 105.2 250.3 105.4 250.6 105.6 250.8 105.9 251 106.1 251 106.4 251.3 106.6 251.5 106.8 251.8 107.1 251.8 107.3 252 107.6 252.2 107.8 252.5 108 252.5 108.3 252.7 108.5 253 108.8 253 109 253.2 109.2 253.4 109.5 253.4 109.7 253.7 110 253.9 110.2 253.9 110.4 254.2 110.7 254.4 110.9 254.4 111.2 254.6 111.4 254.9 111.6 254.9 111.9 255.1 112.1 255.4 112.4 255.4 112.6 255.6 112.8 255.6 113.1 255.8 113.3 256.1 113.6 256.1 113.8 256.3 114 256.3 114.3 256.6 114.5 256.6 114.8 256.8 115 257 115.2 257 115.5 257.3 115.7 257.3 116 257.5 116.2 257.5 116.4 257.8 116.7 257.8 116.9 258 117.2 258 117.4 258.2 117.6 258.2 117.6 258.5 117.9 353 176.2 353 176.2 337.2 176 307 180.5 307 180.3 260.6 219.6 260.6 219.4 209.5 226.8 209.5 226.8 249.4 252.8 249.4 252.5 149.8 200.4 149.8" class="st5"/><polygon points="683.5 113 683.8 169.2 677.8 169 677.8 194.6 743.1 194.4 732 216.7 732 217.2 622.3 217.4 622.3 217.2 622.3 200.4 613.5 200.4 613.7 161.3 630.3 161.8 630.3 113.3" class="st5"/></g></g></g><g id="Other_2"><g><defs><rect id="SVGID_1_" width="1089.5" height="749.3" x="-16" y="-207.2"/></defs><clipPath id="SVGID_2_"><use xlink:href="#SVGID_1_" style="overflow:visible"/></clipPath><path d="M43.2,91.1c2.6-66.1,2.6-66.1,2.6-66.1 M43.2,90.9C-14,148.2-14,241,43.2,298.2 M258.7,474.2 c95.2,54.6,211.6,56.4,308.4,5.2 M243.4,89.7c0,3.6,0,3.6,0,3.6 M258.7,96c-59,0-59,0-59,0 M255.7,89.7c4.8,0,4.8,0,4.8,0 M255.7,93.4c-12.2,0-12.2,0-12.2,0 M220.5,285.4c2.8,0,2.8,0,2.8,0c0,4,0,4,0,4c-2.8,0-2.8,0-2.8,0 C220.5,285.4,220.5,285.4,220.5,285.4 M43.2,462c215.5,0,215.5,0,215.5,0 M43.2,298.2c0,45.6,0,45.6,0,45.6 M683.2,386.2 c0,5.4,0,5.4,0,5.4c5.4,0,5.4,0,5.4,0c0-5.4,0-5.4,0-5.4c-2.8,0-2.8,0-2.8,0C683.2,386.2,683.2,386.2,683.2,386.2 M687.8,391.1 c0-4,0-4,0-4c-4,0-4,0-4,0c0,4,0,4,0,4C687.8,391.1,687.8,391.1,687.8,391.1 M752.2,458.5c4,0,4,0,4,0c0-4,0-4,0-4c-4,0-4,0-4,0 C752.2,458.5,752.2,458.5,752.2,458.5 M758.1,453.9c-6.6,0-6.6,0-6.6,0c0,6.6,0,6.6,0,6.6 M683.8,458.5c4,0,4,0,4,0c0-4,0-4,0-4 c-4,0-4,0-4,0C683.8,458.5,683.8,458.5,683.8,458.5 M685.6,453.9c-2.6,0-2.6,0-2.6,0c0,6.6,0,6.6,0,6.6 M688.4,460.6 c0-6.6,0-6.6,0-6.6c-2.8,0-2.8,0-2.8,0 M760.7,402.5c0,60.7,0,60.7,0,60.7 M758.1,317.5c0,20.1,0,20.1,0,20.1 M623.1,391.1 c4,0,4,0,4,0c0-4,0-4,0-4c-4,0-4,0-4,0C623.1,391.1,623.1,391.1,623.1,391.1 M625.1,386.2c-0.6,0-0.6,0-0.6,0 M622.5,386.2 c0,5.4,0,5.4,0,5.4c5.2,0,5.2,0,5.2,0 M627.7,390.7c0-4.4,0-4.4,0-4.4c-2.6,0-2.6,0-2.6,0 M623.1,458.5c4,0,4,0,4,0c0-4,0-4,0-4 c-4,0-4,0-4,0C623.1,458.5,623.1,458.5,623.1,458.5 M625.1,453.9c-2.6,0-2.6,0-2.6,0c0,6.6,0,6.6,0,6.6 M627.7,460.6 c0-6.6,0-6.6,0-6.6c-2.6,0-2.6,0-2.6,0 M567.1,460.6c0-6.6,0-6.6,0-6.6c-2.8,0-2.8,0-2.8,0 M564.3,453.9c-2.6,0-2.6,0-2.6,0 c0,5.6,0,5.6,0,5.6 M566.5,458.5c0-4,0-4,0-4c-4.2,0-4.2,0-4.2,0c0,4,0,4,0,4C566.5,458.5,566.5,458.5,566.5,458.5 M760.7,463.2 c-193.6,0-193.6,0-193.6,0c0,16.5,0,16.5,0,16.5 M261.1,459.6c0-57.7,0-57.7,0-57.7 M261.1,453.9c-5.4,0-5.4,0-5.4,0 c0,5.4,0,5.4,0,5.4 M260.5,458.5c0-4,0-4,0-4c-4,0-4,0-4,0c0,4,0,4,0,4C260.5,458.5,260.5,458.5,260.5,458.5 M261.1,386.2 c-5.2,0-5.2,0-5.2,0c0,5.4,0,5.4,0,5.4c5.2,0,5.2,0,5.2,0c0-33.3,0-33.3,0-33.3 M260.5,391.1c0-4,0-4,0-4c-4,0-4,0-4,0 c0,4,0,4,0,4C260.5,391.1,260.5,391.1,260.5,391.1 M258.7,474.2c0-12.3,0-12.3,0-12.3 M45.8,459.4c209.8,0,209.8,0,209.8,0 M379.2,386.2c0,5.4,0,5.4,0,5.4c5.2,0,5.2,0,5.2,0c0-5.4,0-5.4,0-5.4 M318.9,458.5c4.2,0,4.2,0,4.2,0c0-4,0-4,0-4 c-4.2,0-4.2,0-4.2,0C318.9,458.5,318.9,458.5,318.9,458.5 M323.7,459.6c0-5.6,0-5.6,0-5.6c-5.4,0-5.4,0-5.4,0c0,5.6,0,5.6,0,5.6 M379.8,458.5c4.2,0,4.2,0,4.2,0c0-4,0-4,0-4c-4.2,0-4.2,0-4.2,0C379.8,458.5,379.8,458.5,379.8,458.5 M384.4,459.6 c0-5.6,0-5.6,0-5.6c-5.2,0-5.2,0-5.2,0c0,5.6,0,5.6,0,5.6 M439.8,386.2c0,5.4,0,5.4,0,5.4c5.4,0,5.4,0,5.4,0c0-5.4,0-5.4,0-5.4 C439.8,386.2,439.8,386.2,439.8,386.2 M506.1,459.6c0-5.6,0-5.6,0-5.6 M506.1,453.9c-5.4,0-5.4,0-5.4,0c0,5.6,0,5.6,0,5.6 M505.5,458.5c0-4,0-4,0-4c-4,0-4,0-4,0c0,4,0,4,0,4C505.5,458.5,505.5,458.5,505.5,458.5 M500.6,386.2c0,5.4,0,5.4,0,5.4 c5.4,0,5.4,0,5.4,0c0-5.4,0-5.4,0-5.4C500.6,386.2,500.6,386.2,500.6,386.2 M445.2,459.6c0-5.6,0-5.6,0-5.6 M439.8,450.3 c0,9.2,0,9.2,0,9.2 M445.2,453.9c-5.4,0-5.4,0-5.4,0 M444.6,458.5c0-4,0-4,0-4c-4,0-4,0-4,0c0,4,0,4,0,4 C444.6,458.5,444.6,458.5,444.6,458.5 M445.2,453.9c0-3.6,0-3.6,0-3.6c-5.4,0-5.4,0-5.4,0 M256.5,357.7c4,0,4,0,4,0c0-4,0-4,0-4 c-4,0-4,0-4,0C256.5,357.7,256.5,357.7,256.5,357.7 M261.1,352.9c-5.2,0-5.2,0-5.2,0c0,5.4,0,5.4,0,5.4c5.2,0,5.2,0,5.2,0 C261.1,352.9,261.1,352.9,261.1,352.9 M677.7,194.4c17.3,0,17.3,0,17.3,0c0-2.8,0-2.8,0-2.8c-6.2,0-6.2,0-6.2,0 c0-17.1,0-17.1,0-17.1 M687,193.4c0-18.9,0-18.9,0-18.9 M688.8,193.4c5.4,0,5.4,0,5.4,0 M694.2,193.4c0-0.8,0-0.8,0-0.8 c-5.4,0-5.4,0-5.4,0c0,0.8,0,0.8,0,0.8 M678.7,193.4c8.2,0,8.2,0,8.2,0 M687,174.5c-8.2,0-8.2,0-8.2,0c0,8,0,8,0,8 M680.5,170.5 c35.1,0,35.1,0,35.1,0 M688.8,174.5c22.9,0,22.9,0,22.9,0c0,17.7,0,17.7,0,17.7c-7,0-7,0-7,0c0,2.2,0,2.2,0,2.2 c11.8,0,11.8,0,11.8,0 M713.1,173.3c0,19.5,0,19.5,0,19.5 M705.4,193.6c9.4,0,9.4,0,9.4,0 M713.1,192.8c-7.6,0-7.6,0-7.6,0 c0,0.8,0,0.8,0,0.8 M677.7,191c1,0,1,0,1,0 M678.7,182.5c-1,0-1,0-1,0 M678.7,191c0,2.4,0,2.4,0,2.4 M677.7,191c0,3.4,0,3.4,0,3.4 M677.9,68.8c0,64.3,0,64.3,0,64.3c0,49.4,0,49.4,0,49.4 M675.9,95.8c2,0,2,0,2,0 M676.5,96.2c1.4,0,1.4,0,1.4,0 M677.9,131.9 c0-0.4,0-0.4,0-0.4 M677.9,95.8c0,0.4,0,0.4,0,0.4 M654.4,100c0-5,0-5,0-5 M654.8,100.2c0-5.6,0-5.6,0-5.6 M629.7,112.8 c19.7,0,19.7,0,19.7,0 M629.7,110.4c19.7,0,19.7,0,19.7,0 M629.7,108.2c19.7,0,19.7,0,19.7,0 M629.7,106c19.7,0,19.7,0,19.7,0 M629.7,103.8c19.7,0,19.7,0,19.7,0 M629.7,101.4c19.7,0,19.7,0,19.7,0 M629.7,99.2c19.7,0,19.7,0,19.7,0 M650,111.6 c27.9,0,27.9,0,27.9,0 M672.5,107c3.4,0,3.4,0,3.4,0 M666.7,104.8c9.2,0,9.2,0,9.2,0" class="st6"/></g><g><path d="M678.9,190.6l-6.4-4.8l6,5.2L678.9,190.6L678.9,190.6z M672.5,185.8l6,5.2l-6.4-4.8L672.5,185.8L672.5,185.8z" class="st7"/><path d="M678.9,190.6l-6.4-4.8l6,5.2L678.9,190.6L678.9,190.6z M672.5,185.8l6,5.2l-6.4-4.8L672.5,185.8L672.5,185.8z" class="st8"/><path d="M678.9,190.6l-0.4,0.4l-6.4-4.8l0.4-0.4L678.9,190.6l-0.4,0.4L678.9,190.6 M678.5,191l-6.4-4.8L678.5,191 M672.1,186.2l0.4-0.4L672.1,186.2 M672.5,185.8l6.4,4.8L672.5,185.8 M261.9,334v-35 M46.6,94.4v4 M46.6,98.4h4v-4h-4 M51.1,98.8 V94 M419.7,513.8v2.8 M45.8,94V25.1 M201.8,147.2v-21.9 M113.5,94v4.8h5V94 M118.1,98.4h-4 M118.1,98.4v-4h-4v4 M172.5,98.8h-4.6 V94 M172.3,98.4h-4 M172.3,98.4v-4h-4v4 M201.8,147.2h35.5 M199.6,149H241 M253.9,335.4V224.5 M253.9,131.9h4.4v-4v-2.8h-4.6 v-15.7h5.4 M251.8,171.1V149 M252.9,130.1h3.6 M256.5,130.1v-3.6h-3.6v3.6 M251.8,108h6.8V96 M260.5,89.7V74.3 M255.7,93.4v-3.6 M240.8,93.4h-37.5 M251.8,127.9L251.8,127.9 M230.6,96L230.6,96 M233.4,96L233.4,96 M250,96L250,96 M233.4,96L233.4,96 M250,96 L250,96 M221.9,89.7l2.4-2.8l4,0.8l-3.6-4.6h2.8l6.2-7.2 M215.3,89.7V79.5 M223.9,307.1h-4 M174.5,258.5v5.4 M174.5,263.9h5.4 v-5.4h-5.4 M173.9,257.9v6.8h6.8 M180.8,307.1v-13.7 M179.4,307.1v-42.4 M225.3,308.5h-34.5 M219.9,307.1v-97.6 M223.9,331.4 L223.9,331.4 M225.3,308.5v-9 M189.4,308.5L189.4,308.5 M189.4,335.4L189.4,335.4 M190.8,335.4L190.8,335.4 M190.8,308.5h-10.6 M218.5,307.1h-43.6 M251.8,299.5h-26.5 M251.8,298.2h-26.5 M220.5,254.5v-4h2.8v4H220.5 M180.8,292.6v-36.4 M188.2,274.1h-7.4 M189.2,277h-0.8 M192,279.6h-11.2 M194.8,282.2h-14.1 M197.2,285h-16.5 M197.2,287.8h-16.5 M197.2,290.4h-16.5 M197.2,293.2 h-16.5 M197.2,295.8h-16.5 M218.5,298.7h-18.1 M180.8,268.7l5.6,5.4l2.6-1.4l-3.2,6.4l3-2.6l8.4,8 M186.8,277h-6 M220.9,219.5h2.8 v4h-2.8V219.5 M218.5,307.1v-97.6 M237.4,281.4V250 M241.6,282.6h-4.8 M240.8,281.4h-3.4 M236.8,282.6V250 M225.3,298.2V250 M240.8,281.4V250 M241.6,282.6v-33.1 M240.8,250h-3.4 M241.6,249.4H236 M225.3,282.4h11.4 M241.6,282.4h10.2 M225.3,279.8h11.4 M225.3,277.2h11.4 M225.3,274.3h11.4 M225.3,271.7h11.4 M225.3,268.9h11.4 M225.3,266.3h11.4 M225.3,263.5h11.4 M225.3,260.9 h11.4 M225.3,258.1h11.4 M341,336.8h-67.5 M190.8,308.5L190.8,308.5 M189.4,335.4h-2.6 M223.9,307.1v-97.6 M225.3,308.5 L225.3,308.5 M259.1,335.4h-5.2 M227.4,336.8v-5.4h-5.4v5.4 M221.9,335.4h-2.6v1.4 M211.1,335.4v1.4 M238.2,335.4v1.4 M230,336.8 v-1.4 M211.1,335.4h-21.7 M211.1,336.8h-24.3 M230,335.4h-2.6 M230,336.8h-10.6" class="st9"/><path d="M229.8,335.4v-8l0.4,8H229.8L229.8,335.4z M229.8,327.4l0.4,8v-8H229.8L229.8,327.4z" class="st7"/><path d="M229.8,335.4v-8l0.4,8H229.8L229.8,335.4z M229.8,327.4l0.4,8v-8H229.8L229.8,327.4z" class="st8"/><path d="M229.8,335.4h0.4v-8h-0.4V335.4h0.4H229.8 M230.2,335.4v-8V335.4 M230.2,327.4h-0.4H230.2 M229.8,327.4v8 V327.4" class="st9"/><path d="M219.1,335.4v-8l0.4,8H219.1L219.1,335.4z M219.1,327.4l0.4,8v-8H219.1L219.1,327.4z" class="st7"/><path d="M219.1,335.4v-8l0.4,8H219.1L219.1,335.4z M219.1,327.4l0.4,8v-8H219.1L219.1,327.4z" class="st8"/><path d="M219.1,335.4h0.4v-8h-0.4V335.4h0.4H219.1 M219.5,335.4v-8V335.4 M219.5,327.4h-0.4H219.5 M219.1,327.4v8 V327.4 M218.5,209.5h6.8 M46.4,296.2v4 M46.4,300.3h4v-4h-4 M51.1,292.4v8.4h-5.2 M113.9,259.7v4 M113.9,263.7h4.2v-4h-4.2 M115.9,259.1h-2.4v2.6 M118.7,259.1v5.2h-2.6 M113.5,291h-12.9 M97.8,291.8v-30.1 M100.6,291v-26.5h12.9 M116.1,264.3v2.6 M113.5,264.5v2.4h2.6 M116.1,292.8v-16.5h-2.6V291 M113.7,352.9v5.2h5.2v-5.2H113.7 M118.3,357.7h-4.2 M118.3,357.7v-4.2h-4.2 v4.2 M46,352.9v5.2h5.2v-5.2 M50.7,357.7h-4.2 M50.7,357.7v-4.2h-4.2v4.2 M175.3,353.7v4 M175.3,357.7h4.2v-4h-4.2 M180.2,353.1 h-5.2v5.2h5.2V353.1 M174.9,358.3L174.9,358.3 M175.3,454.5v4 M175.3,458.5h4.2v-4h-4.2 M180.2,453.9h-5.2v5.2h5.2V453.9 M46.6,386.8v4.2 M46.6,391.1h4.2v-4.2h-4.2 M51.5,386.4h-5.2v5.2 M51.5,391.7v-5.2 M46.6,454.5v4 M46.6,458.5h4.2v-4h-4.2 M51.5,453.9h-5.2v5.2h5.2V453.9 M114.1,454.5v4 M114.1,458.5h4.2v-4h-4.2 M118.9,453.9h-5.2v5.2h5.2V453.9 M110.7,223.1l2.4,2.8 l2.4,2.6l2.8,2.2 M114.5,219.3l-3.8,3.8 M118.3,230.8l3.8-3.8 M114.5,219.3l2.2,2.8l2.6,2.4l2.8,2.4 M111.3,223.1l3.2,3.8l3.8,3.2 M111.3,223.1l3-3.2l3.4,3.8l3.6,3.2l-3,3.2 M118.3,159.2l3,3 M121.3,162.3l-3.6,3.4l-3.4,3.6l-3-3.2l3.2-3.6l3.8-3.2 M118.3,158.6l3.8,3.6l-2.8,2.4l-2.6,2.6l-2.2,2.6 M114.5,170.1l-3.8-3.8 M118.3,158.6l-2.8,2.2l-2.4,2.6l-2.4,2.8 M175.1,230.2 l-3-3.2 M172.1,226.9l3.6-3.2l3.4-3.8l3,3.2l-3.2,3.8l-3.8,3.2 M171.5,226.9l2.6-2.4l2.6-2.4l2.4-2.8 M175.1,230.8l-3.8-3.8 M179,219.3l3.8,3.8l-2.2,2.8l-2.6,2.6l-2.8,2.2 M179,170.1l3.8-3.8l-2.2-2.8l-2.6-2.6l-2.8-2.2l-3.8,3.6 M179.2,169.9l-2.4-2.6 l-2.6-2.6l-2.6-2.4 M182.2,166.1l-3.2-3.6l-3.8-3.2 M182.2,166.1l-3,3.2l-3.4-3.6l-3.6-3.4l3-3 M249,147.2v1.8 M241,149v-1.8 M249,147.2h2.8" class="st9"/><path d="M249,147.2l-5.8-5.6l6,5.4L249,147.2L249,147.2z M243.2,141.6l6,5.4l-5.6-5.8L243.2,141.6L243.2,141.6z" class="st7"/><path d="M249,147.2l-5.8-5.6l6,5.4L249,147.2L249,147.2z M243.2,141.6l6,5.4l-5.6-5.8L243.2,141.6L243.2,141.6z" class="st8"/><path d="M249,147.2l0.2-0.2l-5.6-5.8l-0.4,0.4L249,147.2l0.2-0.2L249,147.2 M249.2,147l-5.6-5.8L249.2,147 M243.6,141.2l-0.4,0.4L243.6,141.2 M243.2,141.6l5.8,5.6L243.2,141.6 M741.6,460.6v2.6 M706.4,460.6v2.6 M690.2,463.2v-2.6 M751.4,460.6h-39.4 M725.5,463.2v-2.6 M741.6,462h-16.1 M706.4,462h-16.3 M670.5,460.6v2.6 M654.2,463.2v-2.6 M634.6,460.6v2.6 M585.8,463.2v-2.6 M670.5,462h-16.3 M634.6,462h-48.8 M598,460.6v2.6 M610.3,460.6v2.6 M622.3,460.6v2.6 M61.1,462v-2.6 M133.4,462v-2.6 M149.4,459.4v2.6 M169.3,462v-2.6 M234.2,459.4v2.6 M133.4,460.6h16.1 M234.2,460.6h-64.9" class="st9"/><path d="M220.9,460.6h0.4 M221.1,460.8v-0.2 M208.1,460.6h0.2 M208.1,460.8v-0.2 M195,460.6h0.4 M195.2,460.8v-0.2 M182.2,460.6h0.2 M182.2,460.8v-0.2" class="st10"/><path d="M221.1,459.4v2.6 M208.1,459.4v2.6 M195.2,459.4v2.6 M182.2,459.4v2.6 M752.2,390.9h4v-4h-4V390.9 M754.2,386.2h-23.5 M751.6,386.2v5.4h6.4 M757,391.7v-5.4 M758.1,386.2h-3.8 M759.9,315.5v86 M758.1,360.9h-5.4 M758.1,359.1 h-5.4 M758.1,339.4h-5.4 M758.1,337.6h-5.4v1.8 M752.6,359.1v1.8 M758.1,360.9v93 M758.1,339.4v19.7 M836.1,358.1l-75.4,44.4 M836.1,358.1l-76.2,43.4" class="st9"/><path d="M758.1,383.8h-26.3 M712.1,391.7v1.2 M711.1,391.7v1.2 M730.7,391.7h-18.7 M729.5,390.7h-25.1 M729.5,221.5 v96 M683.2,390.7h-13.7 M683.2,391.7h-22.7 M711.1,392.9h1 M712.1,460.6v-59.7h-1v59.7 M711.1,391.7h-6.6" class="st9"/><path d="M712.3,392.7l5.8,5.8l-6-5.4L712.3,392.7L712.3,392.7z M718.1,398.5l-6-5.4l5.6,5.6L718.1,398.5L718.1,398.5z" class="st7"/><path d="M712.3,392.7l5.8,5.8l-6-5.4L712.3,392.7L712.3,392.7z M718.1,398.5l-6-5.4l5.6,5.6L718.1,398.5L718.1,398.5z" class="st8"/><path d="M712.3,392.7l-0.2,0.4l5.6,5.6l0.4-0.2L712.3,392.7l-0.2,0.4L712.3,392.7 M712.1,393.1l5.6,5.6L712.1,393.1 M717.7,398.7l0.4-0.2L717.7,398.7 M718.1,398.5l-5.8-5.8L718.1,398.5 M622.5,386.2V285.8 M624.5,386.2v-41.4 M625.1,315.5H685 M624.5,317.5h4.4 M731.7,216.9v157.7 M729.5,382.6h1.2 M730.7,386.2v5.4 M730.7,382.6h1 M731.7,374.6h-2.2 M752.6,317.5h5.4 M731.7,383.8v-1.2 M729.5,382.6v8" class="st9"/><path d="M731.5,382.6l5.8-5.8l-5.4,6L731.5,382.6L731.5,382.6z M737.4,376.8l-5.4,6l5.8-5.8L737.4,376.8L737.4,376.8z" class="st7"/><path d="M731.5,382.6l5.8-5.8l-5.4,6L731.5,382.6L731.5,382.6z M737.4,376.8l-5.4,6l5.8-5.8L737.4,376.8L737.4,376.8z" class="st8"/><path d="M731.5,382.6l0.4,0.2l5.8-5.8l-0.4-0.2L731.5,382.6l0.4,0.2L731.5,382.6 M731.9,382.8l5.8-5.8L731.9,382.8 M737.8,377l-0.4-0.2L737.8,377 M737.4,376.8l-5.8,5.8L737.4,376.8 M759.9,315.5h-7.2v2 M683.2,386.2v-68.7 M685,386.2v-26.9 M729.5,317.5L729.5,317.5 M685,317.5L685,317.5 M729.5,344L729.5,344 M685,344L685,344 M729.5,346.9L729.5,346.9 M685,346.9 L685,346.9 M729.5,358.5L729.5,358.5 M685,358.5L685,358.5 M729.5,359.3L729.5,359.3 M685,359.3L685,359.3 M685,347.1v-31.5 M685,359.3v-12.5 M729.5,359.3v15.3 M729.5,346.9v12.5 M625.1,221.5H685 M625.1,315.5v-29.7 M685,315.5L685,315.5 M685,315.5 L685,315.5 M729.5,317.5v29.3 M622.5,285.8h2.6 M622.5,277.6h2.6 M622.5,277.6v-59.7 M625.1,277.6v-56 M683.2,221.5L683.2,221.5 M685,221.5L685,221.5 M729.5,315.5L729.5,315.5 M623.3,220.7h105.6 M623.3,218.9h104.4 M623.7,217.9h103.6 M685,221.5h44.6 M623.3,220.7v-1.8 M622.5,217.9v-17.7h-8.8v-20.1 M623.7,217.9V199h-5.6 M615.1,199v-15.3 M616.7,199v-15.3 M618.1,199v-15.3 M615.1,182.3h5.8 M615.1,183.7h1.6 M620.9,182.3v1.4 M613.7,180.1h1.4 M618.1,183.7h2.8 M615.1,182.3v-2.2 M616.7,199h-1.6 M615.1,163.9h-1.4" class="st9"/><path d="M614.9,179.9l5.6-5.8l-5.4,6.2L614.9,179.9L614.9,179.9z M620.5,174.1l-5.4,6.2l5.8-5.8L620.5,174.1 L620.5,174.1z" class="st7"/><path d="M614.9,179.9l5.6-5.8l-5.4,6.2L614.9,179.9L614.9,179.9z M620.5,174.1l-5.4,6.2l5.8-5.8L620.5,174.1 L620.5,174.1z" class="st8"/><path d="M614.9,179.9l0.2,0.4l5.8-5.8l-0.4-0.4L614.9,179.9l0.2,0.4L614.9,179.9 M615.1,180.3l5.8-5.8L615.1,180.3 M620.9,174.5l-0.4-0.4L620.9,174.5 M620.5,174.1l-5.6,5.8L620.5,174.1 M615.1,163.9v-2.4h14.7" class="st9"/><path d="M615.1,163.7l5.8,5.8l-6-5.4L615.1,163.7L615.1,163.7z M620.9,169.5l-6-5.4l5.6,5.6L620.9,169.5L620.9,169.5z" class="st7"/><path d="M615.1,163.7l5.8,5.8l-6-5.4L615.1,163.7L615.1,163.7z M620.9,169.5l-6-5.4l5.6,5.6L620.9,169.5L620.9,169.5z" class="st8"/><path d="M615.1,163.7l-0.2,0.4l5.6,5.6l0.4-0.2L615.1,163.7l-0.2,0.4L615.1,163.7 M614.9,164.1l5.6,5.6L614.9,164.1 M620.5,169.7l0.4-0.2L620.5,169.7 M620.9,169.5l-5.8-5.8L620.9,169.5 M615.1,160h12 M627.1,66.2v23.7 M615.1,161.5v2.4 M629.7,68.8v57.9 M629.7,135.7h1.6 M629.7,134.3h1.6 M650,135.7v-23.1h27.9 M649.4,134.3v-6 M675.9,108.4V95.8 M676.5,108.6V96.2 M650,111.6V95 M629.7,135.7v25.7 M627.1,91.1L627.1,91.1 M615.1,91.1L615.1,91.1 M627.1,89.9L627.1,89.9 M615.1,89.9L615.1,89.9 M649.4,94.6h5.4 M650,95h4.4 M659.9,102h1.2 M654.8,99.4h7.8 M654.8,96.6h21.1 M629.7,96.6h19.7 M615.1,89.9V160 M627.1,89.9V160 M613.7,88.5h1.4 M613.7,88.5v75.3 M615.1,88.5v1.4" class="st9"/><path d="M614.9,88.3l5.6-5.8l-5.4,6.2L614.9,88.3L614.9,88.3z M620.5,82.5l-5.4,6.2l5.8-5.8L620.5,82.5L620.5,82.5z" class="st7"/><path d="M614.9,88.3l5.6-5.8l-5.4,6.2L614.9,88.3L614.9,88.3z M620.5,82.5l-5.4,6.2l5.8-5.8L620.5,82.5L620.5,82.5z" class="st8"/><path d="M614.9,88.3l0.2,0.4l5.8-5.8l-0.4-0.4L614.9,88.3l0.2,0.4L614.9,88.3 M615.1,88.7l5.8-5.8L615.1,88.7 M620.5,82.5l-5.6,5.8L620.5,82.5 M650,98.4l10.6,4l3.2-4.8V108l2.2-3.4l11.8,4.4 M663.9,102h12 M663.9,99.4h12 M680.5,66.2v106.1 M683.4,82.1v87.4 M680.5,172.3v1 M714.9,173.3v20.3 M715.9,173.3v20.3 M680.5,173.3h32.5 M734.8,173.3l8.2,12.9l-3.6,7.4 M680.5,172.3h54.6l8.8,13.9l-16.3,32.7 M715.9,170.5h20.3l10,15.5l-17.3,34.8 M683.4,169.5h53.2l10.6,16.5l-15.5,30.9 M713.1,173.3h21.7 M715.9,193.6h0.6 M739,194.4l-11.6,23.5 M735.4,193.6v0.8 M727.3,194.4v-0.8 M735.4,193.6h4 M735.4,194.4h3.6" class="st9"/><path d="M735.8,194.8l-5.8,5.4l5.6-5.8L735.8,194.8L735.8,194.8z M729.9,200.2l5.6-5.8l-5.8,5.6L729.9,200.2 L729.9,200.2z" class="st7"/><path d="M735.8,194.8l-5.8,5.4l5.6-5.8L735.8,194.8L735.8,194.8z M729.9,200.2l5.6-5.8l-5.8,5.6L729.9,200.2 L729.9,200.2z" class="st8"/><path d="M735.8,194.8l-0.2-0.4l-5.8,5.6l0.2,0.2L735.8,194.8l-0.2-0.4L735.8,194.8 M735.6,194.4l-5.8,5.6L735.6,194.4 M729.7,200l0.2,0.2L729.7,200 M729.9,200.2l5.8-5.4L729.9,200.2 M718.9,193.6h8.4 M718.9,194.4h8.4 M718.9,193h-2.4v1.8h2.4V193 M628.9,336.8v-19.3 M628.9,338.2v5.4h-4.4 M624.5,344.9h5.6v-6.6v-20.7 M628.9,338.2h-4.4 M628.9,336.8h-4.4 M624.5,343.6v-5.4 M624.5,336.8v-19.3 M649.6,317.5 M635.4,390.7v-1 M669.5,390.7v-1 M655,317.5h28.1 M649.6,317.5h5.4 M660.5,391.7v-1 M637.4,389.6v1h6.8v1h-16.5 M667.5,390.7v-1 M635.4,389.6h2 M667.5,390.7h-7 M667.5,389.6h2 M635.4,390.7h-7.6" class="st9"/><path d="M635.2,389.8l-5.8-5.8l6,5.4L635.2,389.8L635.2,389.8z M629.3,384l6,5.4l-5.6-5.6L629.3,384L629.3,384z" class="st7"/><path d="M635.2,389.8l-5.8-5.8l6,5.4L635.2,389.8L635.2,389.8z M629.3,384l6,5.4l-5.6-5.6L629.3,384L629.3,384z" class="st8"/><path d="M635.2,389.8l0.2-0.4l-5.6-5.6l-0.4,0.2L635.2,389.8l0.2-0.4L635.2,389.8 M635.4,389.4l-5.6-5.6L635.4,389.4 M629.7,383.8l-0.4,0.2L629.7,383.8 M629.3,384l5.8,5.8L629.3,384" class="st9"/><path d="M669.3,389.4l5.8-5.6l-5.4,6L669.3,389.4L669.3,389.4z M675.1,383.8l-5.4,6l5.8-5.8L675.1,383.8L675.1,383.8z" class="st7"/><path d="M669.3,389.4l5.8-5.6l-5.4,6L669.3,389.4L669.3,389.4z M675.1,383.8l-5.4,6l5.8-5.8L675.1,383.8L675.1,383.8z" class="st8"/><path d="M669.3,389.4c0.4,0.4,0.4,0.4,0.4,0.4c5.8-5.8,5.8-5.8,5.8-5.8c-0.4-0.2-0.4-0.2-0.4-0.2 C669.3,389.4,669.3,389.4,669.3,389.4c0.4,0.4,0.4,0.4,0.4,0.4C669.3,389.4,669.3,389.4,669.3,389.4 M669.7,389.8 c5.8-5.8,5.8-5.8,5.8-5.8C669.7,389.8,669.7,389.8,669.7,389.8 M675.5,384c-0.4-0.2-0.4-0.2-0.4-0.2 C675.5,384,675.5,384,675.5,384 M675.1,383.8c-5.8,5.6-5.8,5.6-5.8,5.6C675.1,383.8,675.1,383.8,675.1,383.8 M318.3,459.6 c-57.2,0-57.2,0-57.2,0 M259.9,473.4c94.4,53.8,209.8,55.8,306,5.2 M259.9,473.4c0-11,0-11,0-11 M565.9,462.4 c0,16.3,0,16.3,0,16.3 M561.7,459.6c-55.6,0-55.6,0-55.6,0 M565.9,462.4c-306,0-306,0-306,0 M379.2,459.6c-55.4,0-55.4,0-55.4,0 M439.8,459.6c-55.4,0-55.4,0-55.4,0 M500.6,459.6c-55.4,0-55.4,0-55.4,0 M259.9,453.9c0-49.8,0-49.8,0-49.8 M87.8,459.4 L87.8,459.4 M89,459.4L89,459.4 M155.1,459.4L155.1,459.4 M156.1,459.4L156.1,459.4 M118.9,455.1L118.9,455.1 M208.9,459.4 L208.9,459.4 M210.1,459.4L210.1,459.4 M174.9,312.5c5.2,0,5.2,0,5.2,0c0-5.2,0-5.2,0-5.2 M174.9,307.1c0,29.7,0,29.7,0,29.7 M180.2,307.3c-5.2,0-5.2,0-5.2,0 M179.6,311.9c-4.2,0-4.2,0-4.2,0 M179.6,311.9c0-4,0-4,0-4c-4.2,0-4.2,0-4.2,0c0,4,0,4,0,4 M176.1,312.5c0,22.9,0,22.9,0,22.9 M186.8,335.4c0,1.4,0,1.4,0,1.4 M174.9,336.8c3.8,0,3.8,0,3.8,0c0-1.4,0-1.4,0-1.4 c-2.6,0-2.6,0-2.6,0" class="st9"/><path d="M187,337l-5.6,5.6l5.4-6L187,337L187,337z M181.4,342.6l5.4-6l-5.8,5.8L181.4,342.6L181.4,342.6z" class="st7"/><path d="M187,337l-5.6,5.6l5.4-6L187,337L187,337z M181.4,342.6l5.4-6l-5.8,5.8L181.4,342.6L181.4,342.6z" class="st8"/><path d="M187,337l-0.2-0.4l-5.8,5.8l0.4,0.2L187,337l-0.2-0.4L187,337 M186.8,336.6l-5.8,5.8L186.8,336.6 M181,342.4 l0.4,0.2L181,342.4 M181.4,342.6l5.6-5.6L181.4,342.6 M255.9,352.9H155.1 M255.9,354.1h-37.3 M260.1,386.2v-27.9 M176.1,358.3 L176.1,358.3 M174.9,354.1h-19.9 M217.5,354.1L217.5,354.1 M218.5,354.1L218.5,354.1 M261.1,393.7h-1.2 M259.9,401.9h1.2 M261.1,393.7v-2 M259.9,404.1v-2.2 M259.9,393.7v-2" class="st9"/><path d="M261.3,393.5l5.8,5.8l-6-5.4L261.3,393.5L261.3,393.5z M267.1,399.3l-6-5.4l5.6,5.8L267.1,399.3L267.1,399.3z" class="st7"/><path d="M261.3,393.5l5.8,5.8l-6-5.4L261.3,393.5L261.3,393.5z M267.1,399.3l-6-5.4l5.6,5.8L267.1,399.3L267.1,399.3z" class="st8"/><path d="M261.3,393.5l-0.2,0.4l5.6,5.8l0.4-0.4L261.3,393.5l-0.2,0.4L261.3,393.5 M261.1,393.9l5.6,5.8L261.1,393.9 M266.7,399.7l0.4-0.4L266.7,399.7 M267.1,399.3l-5.8-5.8L267.1,399.3" class="st9"/><path d="M43.2,401.9h2.6 M45.8,393.7h-2.6 M45.8,401.9v57.5 M43.2,401.9V462 M46.2,391.7L46.2,391.7 M51.5,390.4 L51.5,390.4" class="st9"/><path d="M45.8,401.7l5.6-5.8l-5.4,6.2L45.8,401.7L45.8,401.7z M51.5,395.9l-5.4,6.2l5.6-5.8L51.5,395.9L51.5,395.9z" class="st7"/><path d="M45.8,401.7l5.6-5.8l-5.4,6.2L45.8,401.7L45.8,401.7z M51.5,395.9l-5.4,6.2l5.6-5.8L51.5,395.9L51.5,395.9z" class="st8"/><path d="M45.8,401.7l0.2,0.4l5.6-5.8l-0.2-0.4L45.8,401.7l0.2,0.4L45.8,401.7 M46,402.1l5.6-5.8L46,402.1 M51.7,396.3 l-0.2-0.4L51.7,396.3 M51.5,395.9l-5.6,5.8L51.5,395.9 M46,352.9h5.2v1.2l0,0" class="st9"/><path d="M113.7,354.1L113.7,354.1 M155.1,354.1v-1.2 M113.7,352.9h25.1v1.2h-19.9" class="st9"/><path d="M138.6,352.9l5.8-5.8l-5.4,6L138.6,352.9L138.6,352.9z M144.4,347.1l-5.4,6l5.6-5.6L144.4,347.1L144.4,347.1z" class="st7"/><path d="M138.6,352.9l5.8-5.8l-5.4,6L138.6,352.9L138.6,352.9z M144.4,347.1l-5.4,6l5.6-5.6L144.4,347.1L144.4,347.1z" class="st8"/><path d="M138.6,352.9l0.4,0.2l5.6-5.6l-0.2-0.4L138.6,352.9l0.4,0.2L138.6,352.9 M139,353.1l5.6-5.6L139,353.1 M144.6,347.5l-0.2-0.4L144.6,347.5 M144.4,347.1l-5.8,5.8L144.4,347.1" class="st9"/><path d="M154.9,353.1l-5.8-5.6l6,5.4L154.9,353.1L154.9,353.1z M149,347.5l6,5.4l-5.6-5.8L149,347.5L149,347.5z" class="st7"/><path d="M154.9,353.1l-5.8-5.6l6,5.4L154.9,353.1L154.9,353.1z M149,347.5l6,5.4l-5.6-5.8L149,347.5L149,347.5z" class="st8"/><path d="M154.9,353.1l0.2-0.2l-5.6-5.8l-0.4,0.4L154.9,353.1l0.2-0.2L154.9,353.1 M155.1,352.9l-5.6-5.8L155.1,352.9 M149.4,347.1l-0.4,0.4L149.4,347.1 M149,347.5l5.8,5.6L149,347.5 M115.1,340.8L115.1,340.8 M115.1,339.8L115.1,339.8 M115.1,353.1v-1 M115.1,353.1h1v-1 M115.1,326.2L115.1,326.2 M45.8,325.2L45.8,325.2 M115.1,325.2L115.1,325.2 M45.8,326.2 L45.8,326.2 M115.1,325.2V324 M115.1,339.8v-14.7 M116.1,352.1h-1 M43.2,343.8h2.6 M116.1,343.8V324 M116.1,343.8h-1v-4 M45.8,393.7v-41.6h-2.6v41.6" class="st9"/><path d="M45.8,352.1l5.8-5.8l-5.4,6L45.8,352.1L45.8,352.1z M51.7,346.3l-5.4,6l5.6-5.8L51.7,346.3L51.7,346.3z" class="st7"/><path d="M45.8,352.1l5.8-5.8l-5.4,6L45.8,352.1L45.8,352.1z M51.7,346.3l-5.4,6l5.6-5.8L51.7,346.3L51.7,346.3z" class="st8"/><path d="M45.8,352.1l0.4,0.2l5.6-5.8l-0.2-0.2L45.8,352.1l0.4,0.2L45.8,352.1 M46.2,352.3l5.6-5.8L46.2,352.3 M51.9,346.5l-0.2-0.2L51.9,346.5 M51.7,346.3l-5.8,5.8L51.7,346.3" class="st9"/><path d="M109.3,346.3l5.8,5.8l-6-5.6L109.3,346.3L109.3,346.3z M115.1,352.1l-6-5.6l5.6,5.8L115.1,352.1L115.1,352.1z" class="st7"/><path d="M109.3,346.3l5.8,5.8l-6-5.6L109.3,346.3L109.3,346.3z M115.1,352.1l-6-5.6l5.6,5.8L115.1,352.1L115.1,352.1z" class="st8"/><path d="M109.3,346.3l-0.2,0.2l5.6,5.8l0.4-0.2L109.3,346.3l-0.2,0.2L109.3,346.3 M109.1,346.5l5.6,5.8L109.1,346.5 M114.7,352.3l0.4-0.2L114.7,352.3 M115.1,352.1l-5.8-5.8L115.1,352.1" class="st9"/><path d="M109.5,318.1l5.8,5.6l-6-5.4L109.5,318.1L109.5,318.1z M115.3,323.8l-6-5.4l5.6,5.8L115.3,323.8L115.3,323.8z" class="st7"/><path d="M109.5,318.1l5.8,5.6l-6-5.4L109.5,318.1L109.5,318.1z M115.3,323.8l-6-5.4l5.6,5.8L115.3,323.8L115.3,323.8z" class="st8"/><path d="M109.5,318.1l-0.2,0.2l5.6,5.8l0.4-0.4L109.5,318.1l-0.2,0.2L109.5,318.1 M109.3,318.3l5.6,5.8L109.3,318.3 M114.9,324.2l0.4-0.4L114.9,324.2 M115.3,323.8l-5.8-5.6L115.3,323.8 M115.1,324h1 M116.1,293v22.9h-1V293 M586.4,401.9h-2.2 M585.4,400.7h-1.2 M585.4,376.4h-20.5 M341,336.8v65.1 M342.2,376.4v24.3 M586.4,95.2v14.3 M585.4,95.2v14.3 M361.3,376.4v24.3 M362.5,376.4v24.3 M381.6,376.4v9.8 M382.8,376.4v9.8 M401.8,376.4v24.3 M403,376.4v24.3 M422.1,376.4v24.3 M423.3,376.4v24.3 M442.4,376.4v9.8 M443.6,376.4v9.8 M564.9,95.2v23.3 M544.6,376.4v24.3 M524.3,376.4v24.3 M523.3,376.4v24.3 M543.6,376.4v24.3 M504,376.4v9.8 M502.8,376.4v9.8 M483.8,376.4v24.3 M482.8,376.4v24.3 M463.5,376.4v24.3 M462.5,376.4v24.3 M563.9,376.4v9.8 M563.9,391.7v9 M502.8,391.7v9 M504,391.7v9 M564.9,376.4v9.8 M360.1,400.7v1.2 M352,401.9v-1.2 M363.5,400.7v1.2 M371.5,401.9 v-1.2 M432.6,401.9v-1.2 M424.5,400.7v1.2 M413.1,401.9v-1.2 M421.3,400.7v1.2 M481.6,400.7v1.2 M473.5,401.9v-1.2 M485,400.7v1.2 M493,401.9v-1.2 M542.8,400.7v1.2 M534.6,401.9v-1.2 M546,400.7v1.2 M554.2,401.9v-1.2 M473.5,400.7h-10 M473.5,401.9h-12.2 M482.8,400.7h-1.2 M482.8,376.4h-19.3 M502.8,376.4h-19.1 M502.8,400.7H493 M523.3,400.7h-1.8 M523.3,376.4H504 M543.6,376.4 h-19.3 M543.6,400.7h-0.8 M534.6,400.7h-10.2 M534.6,401.9h-13.1 M546,401.9h-3.2 M546,400.7h-1.4 M481.6,401.9h3.4 M485,400.7 h-1.2" class="st9"/><path d="M484.8,400.5l5.6-5.6l-5.2,6L484.8,400.5L484.8,400.5z M490.4,394.9l-5.2,6l5.6-5.8L490.4,394.9L490.4,394.9z" class="st7"/><path d="M484.8,400.5l5.6-5.6l-5.2,6L484.8,400.5L484.8,400.5z M490.4,394.9l-5.2,6l5.6-5.8L490.4,394.9L490.4,394.9z" class="st8"/><path d="M484.8,400.5l0.4,0.4l5.6-5.8l-0.4-0.2L484.8,400.5l0.4,0.4L484.8,400.5 M485.2,400.9l5.6-5.8L485.2,400.9 M490.8,395.1l-0.4-0.2L490.8,395.1 M490.4,394.9l-5.6,5.6L490.4,394.9" class="st9"/><path d="M481.6,400.9l-5.8-5.8l6,5.4L481.6,400.9L481.6,400.9z M475.7,395.1l6,5.4l-5.8-5.6L475.7,395.1L475.7,395.1z" class="st7"/><path d="M481.6,400.9l-5.8-5.8l6,5.4L481.6,400.9L481.6,400.9z M475.7,395.1l6,5.4l-5.8-5.6L475.7,395.1L475.7,395.1z" class="st8"/><path d="M481.6,400.9l0.2-0.4l-5.8-5.6l-0.2,0.2L481.6,400.9l0.2-0.4L481.6,400.9 M481.8,400.5l-5.8-5.6L481.8,400.5 M475.9,394.9l-0.2,0.2L475.9,394.9 M475.7,395.1l5.8,5.8L475.7,395.1 M521.5,401.9v-1.2 M493,401.9h20.5v-1.2H504" class="st9"/><path d="M545.8,400.5l5.8-5.6l-5.4,6L545.8,400.5L545.8,400.5z M551.6,394.9l-5.4,6l5.8-5.8L551.6,394.9L551.6,394.9z" class="st7"/><path d="M545.8,400.5l5.8-5.6l-5.4,6L545.8,400.5L545.8,400.5z M551.6,394.9l-5.4,6l5.8-5.8L551.6,394.9L551.6,394.9z" class="st8"/><path d="M545.8,400.5l0.4,0.4l5.8-5.8l-0.4-0.2L545.8,400.5l0.4,0.4L545.8,400.5 M546.2,400.9l5.8-5.8L546.2,400.9 M552,395.1l-0.4-0.2L552,395.1 M551.6,394.9l-5.8,5.6L551.6,394.9" class="st9"/><path d="M542.6,400.9l-5.8-5.8l6.2,5.4L542.6,400.9L542.6,400.9z M536.8,395.1l6.2,5.4l-5.8-5.6L536.8,395.1 L536.8,395.1z" class="st7"/><path d="M542.6,400.9l-5.8-5.8l6.2,5.4L542.6,400.9L542.6,400.9z M536.8,395.1l6.2,5.4l-5.8-5.6L536.8,395.1 L536.8,395.1z" class="st8"/><path d="M542.6,400.9l0.4-0.4l-5.8-5.6l-0.4,0.2L542.6,400.9l0.4-0.4L542.6,400.9 M543,400.5l-5.8-5.6L543,400.5 M537.2,394.9l-0.4,0.2L537.2,394.9 M536.8,395.1l5.8,5.8L536.8,395.1" class="st9"/><path d="M521.3,400.9l-5.8-5.6l6,5.4L521.3,400.9L521.3,400.9z M515.5,395.3l6,5.4l-5.6-5.8L515.5,395.3L515.5,395.3z" class="st7"/><path d="M521.3,400.9l-5.8-5.6l6,5.4L521.3,400.9L521.3,400.9z M515.5,395.3l6,5.4l-5.6-5.8L515.5,395.3L515.5,395.3z" class="st8"/><path d="M521.3,400.9l0.2-0.2l-5.6-5.8l-0.4,0.4L521.3,400.9l0.2-0.2L521.3,400.9 M521.5,400.7l-5.6-5.8L521.5,400.7 M515.9,394.9l-0.4,0.4L515.9,394.9 M515.5,395.3l5.8,5.6L515.5,395.3 M361.3,376.4h-19.1 M352,400.7h-9.8 M352,401.9h-11 M361.3,400.7h-1.2 M363.5,400.7h-1 M363.5,401.9h-3.4 M381.6,376.4h-19.1 M381.6,391.7v9h-10 M382.8,391.7v9 M401.8,400.7h-1.4 M401.8,376.4h-19.1 M422.1,376.4H403 M413.1,401.9h-12.7 M413.1,400.7h-10 M422.1,400.7h-0.8 M424.5,400.7h-1.2 M424.5,401.9 h-3.2 M400.4,401.9v-1.2 M371.5,401.9h20.7v-1.2h-9.4 M461.3,400.7v1.2 M453.2,401.9v-1.2 M462.5,400.7h-1.2 M453.2,401.9h-20.7 M453.2,400.7h-9.6 M442.4,400.7h-9.8 M443.6,391.7v9 M442.4,391.7v9 M442.4,376.4h-19.1 M462.5,376.4h-18.9 M584.2,400.7v1.2 M576.1,401.9v-1.2 M563.9,376.4h-19.3 M576.1,400.7h-11.2 M576.1,401.9h-21.9 M563.9,400.7h-9.6" class="st9"/><path d="M420.9,400.7l-5.6-5.8l6,5.4L420.9,400.7L420.9,400.7z M415.3,394.9l6,5.4l-5.8-5.6L415.3,394.9L415.3,394.9z" class="st7"/><path d="M420.9,400.7l-5.6-5.8l6,5.4L420.9,400.7L420.9,400.7z M415.3,394.9l6,5.4l-5.8-5.6L415.3,394.9L415.3,394.9z" class="st8"/><path d="M420.9,400.7l0.4-0.4l-5.8-5.6l-0.2,0.2L420.9,400.7l0.4-0.4L420.9,400.7 M421.3,400.3l-5.8-5.6L421.3,400.3 M415.5,394.7l-0.2,0.2L415.5,394.7 M415.3,394.9l5.6,5.8L415.3,394.9" class="st9"/><path d="M424.3,400.3l5.6-5.6l-5.4,6L424.3,400.3L424.3,400.3z M430,394.7l-5.4,6l5.8-5.8L430,394.7L430,394.7z" class="st7"/><path d="M424.3,400.3l5.6-5.6l-5.4,6L424.3,400.3L424.3,400.3z M430,394.7l-5.4,6l5.8-5.8L430,394.7L430,394.7z" class="st8"/><path d="M424.3,400.3l0.2,0.4l5.8-5.8l-0.4-0.2L424.3,400.3l0.2,0.4L424.3,400.3 M424.5,400.7l5.8-5.8L424.5,400.7 M430.4,394.9l-0.4-0.2L430.4,394.9 M430,394.7l-5.6,5.6L430,394.7" class="st9"/><path d="M359.9,400.7l-5.8-5.8l6,5.4L359.9,400.7L359.9,400.7z M354.1,394.9l6,5.4l-5.6-5.6L354.1,394.9L354.1,394.9z" class="st7"/><path d="M359.9,400.7l-5.8-5.8l6,5.4L359.9,400.7L359.9,400.7z M354.1,394.9l6,5.4l-5.6-5.6L354.1,394.9L354.1,394.9z" class="st8"/><path d="M359.9,400.7l0.2-0.4l-5.6-5.6l-0.4,0.2L359.9,400.7l0.2-0.4L359.9,400.7 M360.1,400.3l-5.6-5.6L360.1,400.3 M354.5,394.7l-0.4,0.2L354.5,394.7 M354.1,394.9l5.8,5.8L354.1,394.9" class="st9"/><path d="M363.1,400.3l5.8-5.6l-5.4,6L363.1,400.3L363.1,400.3z M368.9,394.7l-5.4,6l5.8-5.8L368.9,394.7L368.9,394.7z" class="st7"/><path d="M363.1,400.3l5.8-5.6l-5.4,6L363.1,400.3L363.1,400.3z M368.9,394.7l-5.4,6l5.8-5.8L368.9,394.7L368.9,394.7z" class="st8"/><path d="M363.1,400.3l0.4,0.4l5.8-5.8l-0.4-0.2L363.1,400.3l0.4,0.4L363.1,400.3 M363.5,400.7l5.8-5.8L363.5,400.7 M369.3,394.9l-0.4-0.2L369.3,394.9 M368.9,394.7l-5.8,5.6L368.9,394.7" class="st9"/><path d="M584.2,400.7l-5.6-5.8l6,5.4L584.2,400.7L584.2,400.7z M578.5,394.9l6,5.4l-5.6-5.6L578.5,394.9L578.5,394.9z" class="st7"/><path d="M584.2,400.7l-5.6-5.8l6,5.4L584.2,400.7L584.2,400.7z M578.5,394.9l6,5.4l-5.6-5.6L578.5,394.9L578.5,394.9z" class="st8"/><path d="M584.2,400.7l0.4-0.4l-5.6-5.6l-0.4,0.2L584.2,400.7l0.4-0.4L584.2,400.7 M584.6,400.3l-5.6-5.6L584.6,400.3 M578.9,394.7l-0.4,0.2L578.9,394.7 M578.5,394.9l5.6,5.8L578.5,394.9" class="st9"/><path d="M400.4,400.7l-5.8-5.8l6.2,5.4L400.4,400.7L400.4,400.7z M394.6,394.9l6.2,5.4l-5.8-5.6L394.6,394.9 L394.6,394.9z" class="st7"/><path d="M400.4,400.7l-5.8-5.8l6.2,5.4L400.4,400.7L400.4,400.7z M394.6,394.9l6.2,5.4l-5.8-5.6L394.6,394.9 L394.6,394.9z" class="st8"/><path d="M400.4,400.7l0.4-0.4l-5.8-5.6l-0.4,0.2L400.4,400.7l0.4-0.4L400.4,400.7 M400.8,400.3l-5.8-5.6L400.8,400.3 M395,394.7l-0.4,0.2L395,394.7 M394.6,394.9l5.8,5.8L394.6,394.9 M265.3,336.8V334 M273.5,336.8V334h70.3 M265.3,334h-3.4 M265.3,336.8h-27.1 M343.8,334v39.8" class="st9"/><path d="M265.3,334l5.8-5.6l-5.4,6L265.3,334L265.3,334z M271.1,328.4l-5.4,6l5.6-5.8L271.1,328.4L271.1,328.4z" class="st7"/><path d="M265.3,334l5.8-5.6l-5.4,6L265.3,334L265.3,334z M271.1,328.4l-5.4,6l5.6-5.8L271.1,328.4L271.1,328.4z" class="st8"/><path d="M265.3,334l0.4,0.4l5.6-5.8l-0.2-0.2L265.3,334l0.4,0.4L265.3,334 M265.7,334.4l5.6-5.8L265.7,334.4 M271.3,328.6l-0.2-0.2L271.3,328.6 M271.1,328.4l-5.8,5.6L271.1,328.4 M503.4,96.4h-2.8v-5.4h5.4v5.4H503.4 M546.6,96.4v-5.4h5.4 v5.4h-2.6H546.6 M439.8,96.4v-5.4h5.4v5.4h-2.6H439.8 M379.2,96.4v-5.4h5.2v5.4h-2.6H379.2 M321.3,96.4h-2.8v-5.4h5.4v5.4H321.3 M524.1,92.6h-18.1 M585.4,95.2h-20.5 M281,92.6V68.2 M525.3,92.6V68.2 M524.1,92.6V68.2 M300,92.6V68.2 M301.2,92.6V68.2 M340.6,92.6V68.2 M341.8,92.6V68.2 M360.9,92.6V68.2 M362.1,92.6V68.2 M483.4,92.6V68.2 M463.3,92.6V68.2 M462.1,92.6V68.2 M482.4,92.6V68.2 M422.5,92.6V68.2 M421.5,92.6V68.2 M402.4,92.6V68.2 M401.2,92.6V68.2 M502.6,90.9V68.2 M441.8,90.9V68.2 M442.8,90.9V68.2 M503.8,90.9V68.2 M421.5,92.6h-19.1 M439.8,92.6h-17.3 M462.1,92.6h-16.9 M482.4,92.6h-19.1" class="st9"/><path d="M300,92.6H281 M318.5,92.6h-17.3 M320.3,90.9V68.2h-1 M321.5,90.9V68.2 M340.6,92.6h-16.7 M360.9,92.6h-19.1 M382.4,90.9V68.2 M381.2,90.9V68.2 M379.2,92.6h-17.1 M401.2,92.6h-16.9 M500.6,92.6h-17.3" class="st9"/><path d="M261.9,92.6H280V76.5 M318.5,95.2h-56.6 M379.2,95.2h-55.2 M500.6,95.2h-55.4 M439.8,95.2h-55.4" class="st9"/><path d="M563.9,92.6H552" class="st9"/><path d="M544.4,92.6h-19.1 M564.9,92.6V68.2 M563.9,92.6V68.2 M544.4,92.6V68.2 M545.4,92.6V68.2 M585.4,92.6V68.2 M586.4,95.2V67 M585.4,92.6h-20.5 M546.6,92.6h-1.2 M546.6,95.2h-40.6 M562.3,95.2v278.6H343.8 M564.9,391.7v9 M585.4,376.4v24.3 M585.4,375.2h-20.5 M585.4,350.7h-20.5 M585.4,349.7h-20.5 M585.4,325h-20.5 M585.4,323.8h-20.5 M585.4,299.3h-20.5 M585.4,298.2 h-20.5 M585.4,273.5h-20.5 M585.4,272.5h-20.5 M585.4,248h-20.5 M585.4,246.8h-20.5 M585.4,222.3h-20.5 M585.4,221.1h-20.5 M585.4,196.6h-20.5 M585.4,195.4h-20.5 M585.4,170.9h-20.5 M585.4,169.9h-20.5 M585.4,145.2h-20.5 M585.4,144.2h-20.5 M585.4,119.7h-20.5 M585.4,118.5h-20.5 M379.2,386.2h5.2 M566.7,386.2h-5.4v5.4h5.4V386.2 M562.3,95.2H552 M585.4,348.5h1 M586.4,340.2h-1 M585.4,351.9h1 M586.4,401.9v-42h-1v15.3 M586.4,348.5v3.4 M585.4,351.9v-1.2 M585.4,348.5v1.2" class="st9"/><path d="M585.6,352.1l-5.8,5.6l5.4-6L585.6,352.1L585.6,352.1z M579.7,357.7l5.4-6l-5.8,5.6L579.7,357.7L579.7,357.7z" class="st7"/><path d="M585.6,352.1l-5.8,5.6l5.4-6L585.6,352.1L585.6,352.1z M579.7,357.7l5.4-6l-5.8,5.6L579.7,357.7L579.7,357.7z" class="st8"/><path d="M585.6,352.1l-0.4-0.4l-5.8,5.6l0.4,0.4L585.6,352.1l-0.4-0.4L585.6,352.1 M585.2,351.7l-5.8,5.6L585.2,351.7 M579.3,357.3l0.4,0.4L579.3,357.3 M579.7,357.7l5.8-5.6L579.7,357.7" class="st9"/><path d="M585.2,348.7l-5.8-5.8l6.2,5.4L585.2,348.7L585.2,348.7z M579.3,342.8l6.2,5.4l-5.8-5.8L579.3,342.8 L579.3,342.8z" class="st7"/><path d="M585.2,348.7l-5.8-5.8l6.2,5.4L585.2,348.7L585.2,348.7z M579.3,342.8l6.2,5.4l-5.8-5.8L579.3,342.8 L579.3,342.8z" class="st8"/><path d="M585.2,348.7l0.4-0.4l-5.8-5.8l-0.4,0.4L585.2,348.7l0.4-0.4L585.2,348.7 M585.6,348.3l-5.8-5.8L585.6,348.3 M579.7,342.4l-0.4,0.4L579.7,342.4 M579.3,342.8l5.8,5.8L579.3,342.8" class="st9"/><path d="M585.6,300.7l-5.8,5.6l5.4-6L585.6,300.7L585.6,300.7z M579.7,306.3l5.4-6l-5.8,5.8L579.7,306.3L579.7,306.3z" class="st7"/><path d="M585.6,300.7l-5.8,5.6l5.4-6L585.6,300.7L585.6,300.7z M579.7,306.3l5.4-6l-5.8,5.8L579.7,306.3L579.7,306.3z" class="st8"/><path d="M585.6,300.7l-0.4-0.4l-5.8,5.8l0.4,0.2L585.6,300.7l-0.4-0.4L585.6,300.7 M585.2,300.3l-5.8,5.8L585.2,300.3 M579.3,306.1l0.4,0.2L579.3,306.1 M579.7,306.3l5.8-5.6L579.7,306.3 M586.4,308.7h-1 M585.4,300.5h1" class="st9"/><path d="M585.2,297.2l-5.8-5.6l6.2,5.2L585.2,297.2L585.2,297.2z M579.3,291.6l6.2,5.2l-5.8-5.6L579.3,291.6 L579.3,291.6z" class="st7"/><path d="M585.2,297.2l-5.8-5.6l6.2,5.2L585.2,297.2L585.2,297.2z M579.3,291.6l6.2,5.2l-5.8-5.6L579.3,291.6 L579.3,291.6z" class="st8"/><path d="M585.2,297.2l0.4-0.4l-5.8-5.6l-0.4,0.4L585.2,297.2l0.4-0.4L585.2,297.2 M585.6,296.8l-5.8-5.6L585.6,296.8 M579.7,291.2l-0.4,0.4L579.7,291.2 M579.3,291.6l5.8,5.6L579.3,291.6 M586.4,289h-1 M585.4,297h1 M585.4,308.7v15.1 M586.4,308.7 v31.5 M585.4,299.3v1.2 M585.4,297v1.2 M586.4,297v3.4 M564.9,350.7v24.5 M564.9,325v24.7 M585.4,325v15.3 M586.4,257.5V289 M585.4,257.5v15.1 M585.4,249h1 M586.4,257.1h-1" class="st9"/><path d="M585.6,249.2l-5.8,5.6l5.4-6L585.6,249.2L585.6,249.2z M579.7,254.9l5.4-6l-5.8,5.8L579.7,254.9L579.7,254.9z" class="st7"/><path d="M585.6,249.2l-5.8,5.6l5.4-6L585.6,249.2L585.6,249.2z M579.7,254.9l5.4-6l-5.8,5.8L579.7,254.9L579.7,254.9z" class="st8"/><path d="M585.6,249.2l-0.4-0.4l-5.8,5.8l0.4,0.2L585.6,249.2l-0.4-0.4L585.6,249.2 M585.2,248.8l-5.8,5.8L585.2,248.8 M579.3,254.7l0.4,0.2L579.3,254.7 M579.7,254.9l5.8-5.6L579.7,254.9 M585.4,245.6h1 M586.4,237.6h-1" class="st9"/><path d="M585.2,245.8l-5.8-5.8l6.2,5.4L585.2,245.8L585.2,245.8z M579.3,240l6.2,5.4l-5.8-5.6L579.3,240L579.3,240z" class="st7"/><path d="M585.2,245.8l-5.8-5.8l6.2,5.4L585.2,245.8L585.2,245.8z M579.3,240l6.2,5.4l-5.8-5.6L579.3,240L579.3,240z" class="st8"/><path d="M585.2,245.8l0.4-0.4l-5.8-5.6l-0.4,0.2L585.2,245.8l0.4-0.4L585.2,245.8 M585.6,245.4l-5.8-5.6L585.6,245.4 M579.7,239.8l-0.4,0.2L579.7,239.8 M579.3,240l5.8,5.8L579.3,240 M564.9,248v24.5 M585.4,248v1 M585.4,257.1v15.5 M586.4,257.1 V289 M585.4,245.6v1.2 M586.4,245.6v3.4" class="st9"/><path d="M585.6,197.8l-5.8,5.8l5.4-6L585.6,197.8L585.6,197.8z M579.7,203.6l5.4-6l-5.8,5.6L579.7,203.6L579.7,203.6z" class="st7"/><path d="M585.6,197.8l-5.8,5.8l5.4-6L585.6,197.8L585.6,197.8z M579.7,203.6l5.4-6l-5.8,5.6L579.7,203.6L579.7,203.6z" class="st8"/><path d="M585.6,197.8l-0.4-0.2l-5.8,5.6l0.4,0.4L585.6,197.8l-0.4-0.2L585.6,197.8 M585.2,197.6l-5.8,5.6L585.2,197.6 M579.3,203.2l0.4,0.4L579.3,203.2 M579.7,203.6l5.8-5.8L579.7,203.6 M586.4,205.8h-1 M585.4,197.8h1 M585.4,194.4v1" class="st9"/><path d="M585.2,194.4l-5.8-5.6l6.2,5.4L585.2,194.4L585.2,194.4z M579.3,188.8l6.2,5.4l-5.8-5.8L579.3,188.8 L579.3,188.8z" class="st7"/><path d="M585.2,194.4l-5.8-5.6l6.2,5.4L585.2,194.4L585.2,194.4z M579.3,188.8l6.2,5.4l-5.8-5.8L579.3,188.8 L579.3,188.8z" class="st8"/><path d="M585.2,194.4l0.4-0.2l-5.8-5.8l-0.4,0.4L585.2,194.4l0.4-0.2L585.2,194.4 M585.6,194.2l-5.8-5.8L585.6,194.2 M579.7,188.4l-0.4,0.4L579.7,188.4 M579.3,188.8l5.8,5.6L579.3,188.8 M586.4,186.2h-1 M585.4,194.4h1" class="st9"/><path d="M585.6,146.6l-5.8,5.6l5.4-6L585.6,146.6L585.6,146.6z M579.7,152.2l5.4-6l-5.8,5.8L579.7,152.2L579.7,152.2z" class="st7"/><path d="M585.6,146.6l-5.8,5.6l5.4-6L585.6,146.6L585.6,146.6z M579.7,152.2l5.4-6l-5.8,5.8L579.7,152.2L579.7,152.2z" class="st8"/><path d="M585.6,146.6l-0.4-0.4l-5.8,5.8l0.4,0.2L585.6,146.6l-0.4-0.4L585.6,146.6 M585.2,146.2l-5.8,5.8L585.2,146.2 M579.3,152l0.4,0.2L579.3,152 M579.7,152.2l5.8-5.6L579.7,152.2 M586.4,154.4h-1 M585.4,146.4h1 M585.4,143v1.2" class="st9"/><path d="M585.2,143.2l-5.8-5.8l6.2,5.4L585.2,143.2L585.2,143.2z M579.3,137.3l6.2,5.4l-5.8-5.6L579.3,137.3 L579.3,137.3z" class="st7"/><path d="M585.2,143.2l-5.8-5.8l6.2,5.4L585.2,143.2L585.2,143.2z M579.3,137.3l6.2,5.4l-5.8-5.6L579.3,137.3 L579.3,137.3z" class="st8"/><path d="M585.2,143.2l0.4-0.4l-5.8-5.6l-0.4,0.2L585.2,143.2l0.4-0.4L585.2,143.2 M585.6,142.8l-5.8-5.6L585.6,142.8 M579.7,137.1l-0.4,0.2L579.7,137.1 M579.3,137.3l5.8,5.8L579.3,137.3 M586.4,134.9h-1 M585.4,144.2V143h1v3.4 M586.4,154.4v31.7 M585.4,154.4v15.5 M585.4,145.2v1.2 M586.4,205.8v31.7 M585.4,205.8v15.3 M564.9,196.6v24.5 M585.4,196.6v1.2 M585.4,194.4v1 M586.4,194.4v3.4 M564.9,119.7v24.5 M585.4,119.7v15.3 M585.4,117.7h1 M586.4,109.4h-1" class="st9"/><path d="M585.2,117.9l-5.8-5.8l6.2,5.4L585.2,117.9L585.2,117.9z M579.3,112l6.2,5.4l-5.8-5.8L579.3,112L579.3,112z" class="st7"/><path d="M585.2,117.9l-5.8-5.8l6.2,5.4L585.2,117.9L585.2,117.9z M579.3,112l6.2,5.4l-5.8-5.8L579.3,112L579.3,112z" class="st8"/><path d="M585.2,117.9l0.4-0.4l-5.8-5.8l-0.4,0.4L585.2,117.9l0.4-0.4L585.2,117.9 M585.6,117.5l-5.8-5.8L585.6,117.5 M579.7,111.6l-0.4,0.4L579.7,111.6 M579.3,112l5.8,5.8L579.3,112 M585.4,117.7v0.8 M586.4,117.7v17.3 M199.6,149v-23.7 M203.3,93.4h-3 M203.3,93.4v-3h-3 M243.4,89.7h-43.2v3.6 M241,89.7V74.5 M241.6,89.7V74.1 M218.1,89.7V79.5 M220.7,89.7V79.5 M223.5,87.9v-8.4 M240,93.4h3.2v-3h-40 M240,90.3v3 M172.5,36.5l1,93.2" class="st9"/><path d="M172.5,94h-8.4v4.8h3.8 M172.5,98.8V109" class="st9"/><path d="M114.1,36.5c0,57.5,0,57.5,0,57.5 M116.1,36.5c0,57.5,0,57.5,0,57.5 M172.5,36.5c0,57.5,0,57.5,0,57.5 M187.4,194.6c-0.2-4-0.2-4-0.2-4c-0.6-3.8-0.6-3.8-0.6-3.8c-1-3.8-1-3.8-1-3.8c-1.4-3.8-1.4-3.8-1.4-3.8 c-1.6-3.6-1.6-3.6-1.6-3.6c-2-3.4-2-3.4-2-3.4c-2.4-3.2-2.4-3.2-2.4-3.2c-2.6-2.8-2.6-2.8-2.6-2.8c-3-2.8-3-2.8-3-2.8 c-3.2-2.4-3.2-2.4-3.2-2.4c-3.4-2-3.4-2-3.4-2c-3.6-1.8-3.6-1.8-3.6-1.8c-3.8-1.2-3.8-1.2-3.8-1.2c-3.8-1-3.8-1-3.8-1 c-4-0.6-4-0.6-4-0.6c-3.8-0.2-3.8-0.2-3.8-0.2c-4,0.2-4,0.2-4,0.2c-4,0.6-4,0.6-4,0.6c-3.8,1-3.8,1-3.8,1 c-3.8,1.2-3.8,1.2-3.8,1.2c-3.6,1.8-3.6,1.8-3.6,1.8c-3.4,2-3.4,2-3.4,2c-3,2.4-3,2.4-3,2.4c-3,2.8-3,2.8-3,2.8 c-2.8,2.8-2.8,2.8-2.8,2.8c-2.2,3.2-2.2,3.2-2.2,3.2c-2.2,3.4-2.2,3.4-2.2,3.4c-1.6,3.6-1.6,3.6-1.6,3.6c-1.4,3.8-1.4,3.8-1.4,3.8 c-1,3.8-1,3.8-1,3.8c-0.4,3.8-0.4,3.8-0.4,3.8c-0.2,4-0.2,4-0.2,4c0.2,4,0.2,4,0.2,4c0.4,4,0.4,4,0.4,4c1,3.8,1,3.8,1,3.8 c1.4,3.6,1.4,3.6,1.4,3.6c1.6,3.8,1.6,3.8,1.6,3.8c2.2,3.2,2.2,3.2,2.2,3.2c2.2,3.2,2.2,3.2,2.2,3.2c2.8,3,2.8,3,2.8,3 c3,2.8,3,2.8,3,2.8c3,2.2,3,2.2,3,2.2c3.4,2.2,3.4,2.2,3.4,2.2c3.6,1.6,3.6,1.6,3.6,1.6c3.8,1.4,3.8,1.4,3.8,1.4 c3.8,0.8,3.8,0.8,3.8,0.8c4,0.6,4,0.6,4,0.6c4,0.2,4,0.2,4,0.2c3.8-0.2,3.8-0.2,3.8-0.2c4-0.6,4-0.6,4-0.6 c3.8-0.8,3.8-0.8,3.8-0.8c3.8-1.4,3.8-1.4,3.8-1.4c3.6-1.6,3.6-1.6,3.6-1.6c3.4-2.2,3.4-2.2,3.4-2.2c3.2-2.2,3.2-2.2,3.2-2.2 c3-2.8,3-2.8,3-2.8c2.6-3,2.6-3,2.6-3c2.4-3.2,2.4-3.2,2.4-3.2c2-3.2,2-3.2,2-3.2c1.6-3.8,1.6-3.8,1.6-3.8 c1.4-3.6,1.4-3.6,1.4-3.6c1-3.8,1-3.8,1-3.8c0.6-4,0.6-4,0.6-4C187.4,194.6,187.4,194.6,187.4,194.6 M120.7,228.1 c3.2,2.4,3.2,2.4,3.2,2.4c3.6,1.8,3.6,1.8,3.6,1.8c3.6,1.6,3.6,1.6,3.6,1.6c3.8,1.4,3.8,1.4,3.8,1.4c3.8,1,3.8,1,3.8,1 c4,0.4,4,0.4,4,0.4c4,0.2,4,0.2,4,0.2c3.8-0.2,3.8-0.2,3.8-0.2c4-0.4,4-0.4,4-0.4c3.8-1,3.8-1,3.8-1c3.8-1.4,3.8-1.4,3.8-1.4 c3.6-1.6,3.6-1.6,3.6-1.6c3.6-1.8,3.6-1.8,3.6-1.8c3.2-2.4,3.2-2.4,3.2-2.4 M113.3,168.7c-2.2,3.2-2.2,3.2-2.2,3.2 c-2,3.4-2,3.4-2,3.4c-1.8,3.6-1.8,3.6-1.8,3.6c-1.2,4-1.2,4-1.2,4c-1,3.8-1,3.8-1,3.8c-0.6,3.8-0.6,3.8-0.6,3.8c0,4,0,4,0,4 c0,4,0,4,0,4c0.6,4,0.6,4,0.6,4c1,3.8,1,3.8,1,3.8c1.2,3.8,1.2,3.8,1.2,3.8c1.8,3.6,1.8,3.6,1.8,3.6c2,3.4,2,3.4,2,3.4 c2.2,3.4,2.2,3.4,2.2,3.4 M172.7,161.3c-3.2-2.4-3.2-2.4-3.2-2.4c-3.6-2-3.6-2-3.6-2c-3.6-1.6-3.6-1.6-3.6-1.6 c-3.8-1.2-3.8-1.2-3.8-1.2c-3.8-1-3.8-1-3.8-1c-4-0.6-4-0.6-4-0.6c-3.8-0.2-3.8-0.2-3.8-0.2c-4,0.2-4,0.2-4,0.2 c-4,0.6-4,0.6-4,0.6c-3.8,1-3.8,1-3.8,1c-3.8,1.2-3.8,1.2-3.8,1.2c-3.6,1.6-3.6,1.6-3.6,1.6c-3.6,2-3.6,2-3.6,2 c-3.2,2.4-3.2,2.4-3.2,2.4 M180.2,220.7c2.4-3.4,2.4-3.4,2.4-3.4c1.8-3.4,1.8-3.4,1.8-3.4c1.8-3.6,1.8-3.6,1.8-3.6 c1.2-3.8,1.2-3.8,1.2-3.8c1-3.8,1-3.8,1-3.8c0.6-4,0.6-4,0.6-4c0.2-4,0.2-4,0.2-4c-0.2-4-0.2-4-0.2-4c-0.6-3.8-0.6-3.8-0.6-3.8 c-1-3.8-1-3.8-1-3.8c-1.2-4-1.2-4-1.2-4c-1.8-3.6-1.8-3.6-1.8-3.6c-1.8-3.4-1.8-3.4-1.8-3.4c-2.4-3.2-2.4-3.2-2.4-3.2 M77,202.6 c0.8,5.2,0.8,5.2,0.8,5.2c1.2,5.2,1.2,5.2,1.2,5.2c1.4,5,1.4,5,1.4,5c2,4.8,2,4.8,2,4.8c2.2,4.8,2.2,4.8,2.2,4.8 c2.8,4.4,2.8,4.4,2.8,4.4c2.8,4.2,2.8,4.2,2.8,4.2c3.2,4.2,3.2,4.2,3.2,4.2c3.6,3.8,3.6,3.8,3.6,3.8c3.8,3.6,3.8,3.6,3.8,3.6 c4.2,3.2,4.2,3.2,4.2,3.2c4.2,3,4.2,3,4.2,3c4.6,2.6,4.6,2.6,4.6,2.6c4.8,2.2,4.8,2.2,4.8,2.2 M93.8,146.6 c-3.2,3.8-3.2,3.8-3.2,3.8c-3,4-3,4-3,4c-2.4,4.2-2.4,4.2-2.4,4.2c-2.4,4.2-2.4,4.2-2.4,4.2c-2.2,4.6-2.2,4.6-2.2,4.6 c-1.6,4.6-1.6,4.6-1.6,4.6c-1.4,4.6-1.4,4.6-1.4,4.6c-1,4.8-1,4.8-1,4.8c-0.8,5-0.8,5-0.8,5 M31.6,104.2c-3.6,4.6-7,9.6-10,14.7 M35.8,107.6c-3.6,4.4-6.8,9-9.6,14.1 M13.3,134.5c-2.4,5.4-4.6,10.8-6.2,16.5 M18.1,136.7c-2.2,5.2-4.2,10.4-6,15.9 M8.1,169.3 c-1,5.6-1.8,11.2-2,16.9 M2.7,168.3c-1,5.8-1.6,11.7-2,17.5 M6.1,203.2c0.4,5.6,1,11.2,2,16.9 M0.7,203.6c0.4,5.8,1,11.7,2.2,17.5 M12.3,236.8c1.6,5.4,3.6,10.6,6,15.9 M7.1,238.4c1.8,5.6,3.8,11,6.2,16.5 M21.5,270.5c3.2,5,6.4,9.8,10,14.7 M31.6,285.2 c4.2-3.4,4.2-3.4,4.2-3.4 M26.2,267.7c-4.6,2.8-4.6,2.8-4.6,2.8 M18.1,252.9c-4.8,2.2-4.8,2.2-4.8,2.2 M12.1,236.8 c-5,1.6-5,1.6-5,1.6 M8.1,220.3c-5.2,1-5.2,1-5.2,1 M5.9,203.2c-5.2,0.4-5.2,0.4-5.2,0.4 M5.9,186.2C0.7,186,0.7,186,0.7,186 M2.7,168.3c5.4,1,5.4,1,5.4,1 M12.1,152.8c-5.2-1.6-5.2-1.6-5.2-1.6 M18.1,136.7c-5-2.2-5-2.2-5-2.2 M26,121.7 c-4.6-2.8-4.6-2.8-4.6-2.8 M35.8,107.6c-4.2-3.2-4.2-3.2-4.2-3.2 M24.5,270.3L24.5,270.3 M24.1,272.1c2.2,3.4,4.4,6.8,6.8,10 M33,282.4L33,282.4 M31,282.2c0.2,0.4,0.6,0.6,1,0.6s0.8,0,1-0.4 M33,282.4c0.6-0.4,0.8-1.2,0.2-1.8 M26.6,270.7 c-0.4-0.6-1.4-0.8-2-0.4 M24.5,270.3c-0.4,0-0.6,0.4-0.6,0.8c-0.2,0.4,0,0.8,0.2,1 M2.3,206.2c0.2,4,0.8,8,1.4,11.9 M4.9,206 c0.4,3.8,0.8,7.8,1.4,11.7 M5.3,219.5L5.3,219.5 M3.3,204.8L3.3,204.8 M3.3,184.8L3.3,184.8 M6.3,171.7c-0.6,3.8-1.2,7.8-1.4,11.7 M3.7,171.1c-0.6,4-1.2,8-1.4,12.1 M5.1,170.1L5.1,170.1 M10.1,238.8L10.1,238.8 M11.7,239.6c1.2,3.8,2.6,7.4,4.2,11.2 M9.1,240.6 c1.4,3.8,2.8,7.4,4.4,11.2 M15.3,252.7L15.3,252.7 M5.3,170.1c-0.4,0-0.8,0-1.2,0.2c-0.2,0.2-0.4,0.6-0.4,1 M2.1,183.1 c0,0.4,0.2,0.8,0.4,1c0.2,0.4,0.6,0.6,1,0.6 M3.5,204.8c-0.4,0-0.8,0.2-1,0.4c-0.2,0.2-0.4,0.6-0.4,1 M3.7,218.3 c0,0.4,0.2,0.6,0.4,0.8c0.4,0.2,0.8,0.4,1.2,0.2 M10.1,238.8c-0.4,0-0.8,0.4-0.8,0.6c-0.2,0.4-0.2,0.8-0.2,1.2 M13.3,251.8 c0.2,0.4,0.6,0.6,0.8,0.8c0.4,0,0.8,0,1.2,0 M11.7,239.6c-0.2-0.6-1-1-1.6-0.8 M15.3,252.7c0.6-0.4,1-1.2,0.6-2 M4.9,206 c0-0.8-0.6-1.4-1.4-1.2 M5.3,219.3c0.6,0,1.2-0.8,1-1.6 M6.3,171.7c0.2-0.8-0.4-1.4-1-1.6 M3.5,184.8c0.8,0,1.4-0.6,1.4-1.4 M13.3,137.5c-1.4,3.8-3,7.4-4.2,11.2 M15.1,136.9L15.1,136.9 M15.9,138.6c-1.6,3.6-3,7.4-4.2,11.2 M9.9,150.6L9.9,150.6 M24.5,119.1L24.5,119.1 M31,107.2c-2.4,3.2-4.8,6.6-6.8,10 M32.8,107L32.8,107 M33,108.8c-2.2,3.2-4.6,6.4-6.6,9.8 M33,107 c-0.4-0.2-0.8-0.4-1.2-0.4c-0.2,0.2-0.6,0.4-0.8,0.6 M33.2,109c0.4-0.6,0.4-1.6-0.2-2 M23.9,117.3c-0.2,0.2-0.2,0.6-0.2,1 c0.2,0.4,0.4,0.6,0.8,0.8 M24.5,119.1c0.6,0.4,1.4,0.2,1.8-0.4 M15.1,136.9c-0.2-0.2-0.6-0.2-1,0c-0.4,0-0.6,0.4-0.8,0.6 M15.9,138.8c0.2-0.8,0-1.6-0.8-1.8 M9.9,150.6c0.8,0.4,1.6,0,1.8-0.8 M9.1,149c-0.2,0.2-0.2,0.6,0,1c0.2,0.4,0.4,0.6,0.8,0.6 M26.4,270.7c6.8,9.8,6.8,9.8,6.8,9.8 M115.1,293c-19.3,0-19.3,0-19.3,0 M97.8,291.8c-2,0-2,0-2,0 M47,294.4 c49.2-49.2,49.2-49.2,49.2-49.2 M51.1,292c45.8-45.8,46-46,46-46 M95.8,291.8c0,1.2,0,1.2,0,1.2 M51.1,292L51.1,292 M51.1,293 L51.1,293 M44.6,97.4c23.5,23.3,23.5,23.3,23.5,23.3 M49.2,100.6c19.5,19.3,19.5,19.3,19.5,19.3 M44.6,97.2 C-8.2,152.8-7,240.2,47,294.4 M51.1,94c-5.2,0-5.2,0-5.2,0 M51.1,98.8c-1.8,1.8-1.8,1.8-1.8,1.8" class="st9"/><path d="M55.7,107h0.4 M55.9,107v-0.2 M62.1,113.4h0.4 M62.3,113.4L62.3,113.4" class="st10"/><path d="M68.7,119.9l-0.6,0.8 M94.6,145.8l-19.3-19.5l-0.8,0.8l19.3,19.5" class="st9"/><path d="M68.3,120.7l1.2,8l-1.8-8H68.3L68.3,120.7z M69.5,128.7l-1.8-8l1.4,8H69.5L69.5,128.7z" class="st7"/><path d="M68.3,120.7l1.2,8l-1.8-8H68.3L68.3,120.7z M69.5,128.7l-1.8-8l1.4,8H69.5L69.5,128.7z" class="st8"/><path d="M68.3,120.7h-0.6l1.4,8h0.4L68.3,120.7h-0.6H68.3 M67.7,120.7l1.4,8L67.7,120.7 M69.1,128.7h0.4H69.1 M69.5,128.7l-1.2-8L69.5,128.7 M62.3,113.4l-0.8,0.8 M55.9,107l-0.8,0.8 M49.2,100.6l-0.6,0.8 M68.3,120.3L49,101 M81.8,132.7 l-0.8,1 M88.2,139.4l-0.8,0.8 M94.2,146.2l-19.3-19.5 M94.6,145.8l-0.8,0.8 M77,186.6h-1.2 M96.2,245.2l-3.6-4l-3.4-4l-3-4.4 l-2.6-4.6l-2.2-4.8l-2-5l-1.6-5l-1.2-5.2l-0.8-5.4H77" class="st9"/><path d="M76,186.8l-5.8,5.6l5.4-6L76,186.8L76,186.8z M70.1,192.4l5.4-6l-5.6,5.8L70.1,192.4L70.1,192.4z" class="st7"/><path d="M76,186.8l-5.8,5.6l5.4-6L76,186.8L76,186.8z M70.1,192.4l5.4-6l-5.6,5.8L70.1,192.4L70.1,192.4z" class="st8"/><path d="M76,186.8l-0.4-0.4l-5.6,5.8l0.2,0.2L76,186.8l-0.4-0.4L76,186.8 M75.5,186.4l-5.6,5.8L75.5,186.4 M69.9,192.2l0.2,0.2L69.9,192.2 M70.1,192.4l5.8-5.6L70.1,192.4" class="st9"/><path d="M76,202.6l-5.8-5.8l5.4,6L76,202.6L76,202.6z M70.1,196.8l5.4,6l-5.6-5.6L70.1,196.8L70.1,196.8z" class="st7"/><path d="M76,202.6l-5.8-5.8l5.4,6L76,202.6L76,202.6z M70.1,196.8l5.4,6l-5.6-5.6L70.1,196.8L70.1,196.8z" class="st8"/><path d="M76,202.6l-0.4,0.2l-5.6-5.6l0.2-0.4L76,202.6l-0.4,0.2L76,202.6 M75.5,202.8l-5.6-5.6L75.5,202.8 M69.9,197.2l0.2-0.4L69.9,197.2 M70.1,196.8l5.8,5.8L70.1,196.8 M114.1,131.1l-4.2,2.4l-4,2.6 M172.5,127.9l-5.2-1.8l-5.2-1.2 l-5.6-1h16.1 M172.5,122.5h-57.2 M172.5,123.9v4 M115.3,123.9H137l-5.6,1l-5.4,1.4l-5.4,1.8l-5.2,2.2 M113.5,94h5 M114.1,98.8v1 M45.8,343.8v-18.7 M45.8,325.2v-24.3 M113.5,261.7h-9.8 M97,246l4.8,4.2l5,3.6l-4.6,7.8 M103.7,261.7l4-7.2l4,2.4l4.2,2.2 M102.3,261.7h-4.4 M173.5,129.7l-5-1.8l-5.2-1.6l-5.2-1l-5.4-0.8l-5.4-0.2l-5.4,0.2l-5.4,0.6l-5.4,1l-5,1.4l-5.2,1.8l-4.8,2.2 l-4.8,2.6l-4.6,2.8 M173.9,257.9l1.8,0.2l1.8-0.4l1.6-0.6l1.6-0.8 M200.4,300.5v-37.2 M200.4,300.5h-3.2v-37.2 M198,299.7v-37.4 M198,299.7h1.8v-37.4H198 M197.2,298.7h-16.5 M218.5,295.8h-18.1 M218.5,293.2h-18.1 M218.5,290.4h-18.1 M218.5,287.8h-18.1 M218.5,285h-18.1 M218.5,282.2h-18.1 M218.5,279.6h-18.1 M218.5,277h-18.1 M218.5,274.1h-18.1 M218.5,271.5h-18.1 M218.5,268.7 h-18.1 M218.5,266.1h-18.1 M218.5,263.3h-18.7 M236.8,250H236 M225.3,249.4v-40 M241.6,279.8h10.2 M241.6,277.2h10.2 M241.6,274.3 h10.2 M241.6,271.7h10.2 M241.6,268.9h10.2 M241.6,266.3h10.2 M241.6,263.5h10.2 M241.6,260.9h10.2 M241.6,258.1h10.2 M241.6,255.5h10.2 M241.6,252.9h10.2 M241.6,250h10.2 M259.1,335.4v-226 M249,149h2.8 M251.8,177.1v41.4 M251.8,299.5v36h-13.7 M242.8,196.4h9 M242.8,196.4v7.4h9v-1.2 M201.8,89.7V64.6 M237.4,147.2L237.4,147.2 M235.6,147.2L235.6,147.2 M237.4,147.2h3.6 M199.6,125.3h2.2 M201.8,117.1h-2.2 M201.8,117.1V99 M199.6,117.1V32.7 M201.8,99.4V96 M114.1,99.8h1.2 M115.3,99.8h-1.2v31.3 M115.3,98.8v1 M115.3,99.8v10.4 M115.3,123.9v6.4" class="st9"/><path d="M115.3,100l0.2-0.4L115.3,100L115.3,100z M115.3,100" class="st7"/><path d="M115.3,100l0.2-0.4l0,0 M115.3,100L115.3,100" class="st8"/><path d="M115.5,99.6l-0.2,0.4L115.5,99.6 M115.5,99.6l-0.2,0.4 M115.3,100L115.3,100 M115.3,100L115.3,100 M115.5,99.6L115.5,99.6 M172.5,109L172.5,109 M172.5,110.2L172.5,110.2 M115.3,110.2v12.3 M115.3,110.2L115.3,110.2 M115.3,110.2 L115.3,110.2" class="st9"/><path d="M624.9,285.6l5.8-5.8l-5.4,6.2L624.9,285.6L624.9,285.6z M630.7,279.8l-5.4,6.2l5.8-5.8L630.7,279.8 L630.7,279.8z" class="st7"/><path d="M624.9,285.6l5.8-5.8l-5.4,6.2L624.9,285.6L624.9,285.6z M630.7,279.8l-5.4,6.2l5.8-5.8L630.7,279.8 L630.7,279.8z" class="st8"/><path d="M624.9,285.6l0.4,0.4l5.8-5.8l-0.4-0.4L624.9,285.6l0.4,0.4L624.9,285.6 M625.3,286l5.8-5.8L625.3,286 M631.2,280.2l-0.4-0.4L631.2,280.2 M630.7,279.8l-5.8,5.8L630.7,279.8" class="st9"/><path d="M106.3,136.9l-1,8l1.4-7.8L106.3,136.9L106.3,136.9z M105.3,145l1.4-7.8l-1,7.8H105.3L105.3,145z" class="st7"/><path d="M106.3,136.9l-1,8l1.4-7.8L106.3,136.9L106.3,136.9z M105.3,145l1.4-7.8l-1,7.8H105.3L105.3,145z" class="st8"/><path d="M106.3,136.9l0.4,0.2l-1,7.8h-0.4L106.3,136.9l0.4,0.2L106.3,136.9 M106.7,137.1l-1,7.8L106.7,137.1 M105.7,145h-0.4H105.7 M105.3,145l1-8L105.3,145 M99.4,141.2l0.6,0.8 M106.5,136.9l-0.6-0.8 M100,142l-3.6,3.6l-3.4,3.8l-3.2,4 l-2.8,4.2l-2.6,4.4l-2.2,4.6l-1.8,4.8l-1.6,5l-1,5l-0.8,5 M99.4,141.2l-4.8,4.6 M251.8,147.2V96" class="st9"/><path d="M199.2,110.2l-5.6-5.6l6,5.4L199.2,110.2L199.2,110.2z M193.6,104.6l6,5.4l-5.8-5.8L193.6,104.6L193.6,104.6z" class="st7"/><path d="M199.2,110.2l-5.6-5.6l6,5.4L199.2,110.2L199.2,110.2z M193.6,104.6l6,5.4l-5.8-5.8L193.6,104.6L193.6,104.6z" class="st8"/><path d="M199.2,110.2l0.4-0.2l-5.8-5.8l-0.2,0.4L199.2,110.2l0.4-0.2L199.2,110.2 M199.6,110l-5.8-5.8L199.6,110 M193.8,104.2l-0.2,0.4L193.8,104.2 M193.6,104.6l5.6,5.6L193.6,104.6 M172.5,108.8v13.7" class="st9"/><path d="M193.6,104.4l0.2-0.2L190,101L193.6,104.4L193.6,104.4z M193.8,104.2L190,101l0.4-0.4L193.8,104.2 L193.8,104.2z" class="st7"/><path d="M193.6,104.4l0.2-0.2L190,101L193.6,104.4L193.6,104.4z M193.8,104.2L190,101l0.4-0.4L193.8,104.2 L193.8,104.2z" class="st8"/><path d="M182.8,119.1l-5.8-5.6l6,5.2L182.8,119.1L182.8,119.1z M177,113.4l6,5.2l-5.6-5.6L177,113.4L177,113.4z" class="st7"/><path d="M182.8,119.1l-5.8-5.6l6,5.2L182.8,119.1L182.8,119.1z M177,113.4l6,5.2l-5.6-5.6L177,113.4L177,113.4z" class="st8"/><path d="M182.8,119.1l0.2-0.4l-5.6-5.6l-0.4,0.4L182.8,119.1l0.2-0.4L182.8,119.1 M183,118.7l-5.6-5.6L183,118.7 M177.4,113l-0.4,0.4L177.4,113 M177,113.4l5.8,5.6L177,113.4" class="st9"/><path d="M177,113.4l0.4-0.4l-3.8-3.2L177,113.4L177,113.4z M177.4,113l-3.8-3.2l0.2-0.4L177.4,113L177.4,113z" class="st7"/><path d="M177,113.4l0.4-0.4l-3.8-3.2L177,113.4L177,113.4z M177.4,113l-3.8-3.2l0.2-0.4L177.4,113L177.4,113z" class="st8"/><path d="M207.5,119.5l-5.6,5.8l6-5.4L207.5,119.5L207.5,119.5z M201.8,125.3l6-5.4l-5.8,5.6L201.8,125.3L201.8,125.3z" class="st7"/><path d="M207.5,119.5l-5.6,5.8l6-5.4L207.5,119.5L207.5,119.5z M201.8,125.3l6-5.4l-5.8,5.6L201.8,125.3L201.8,125.3z" class="st8"/><path d="M207.5,119.5l0.4,0.4l-5.8,5.6l-0.2-0.2L207.5,119.5l0.4,0.4L207.5,119.5 M207.9,119.9l-5.8,5.6L207.9,119.9 M202.1,125.5l-0.2-0.2L202.1,125.5 M201.8,125.3l5.6-5.8L201.8,125.3 M255.9,390.7L255.9,390.7 M255.9,391.7L255.9,391.7 M250.6,224.5v-6h4v6H250.6 M250.6,171.1h4v6h-4V171.1 M253.9,171.1v-39.2 M251.8,224.5v73.7 M253.9,218.5v-41.4 M261.9,299.1 L261.9,299.1 M261.9,301.7L261.9,301.7" class="st9"/><path d="M302,95.2 M302,95.2l-0.2,0.2L302,95.2L302,95.2z" class="st7"/><path d="M302,95.2L302,95.2 M302,95.2l-0.2,0.2" class="st8"/><path d="M702.4,397.1l-5.6-5.6l5.2,6L702.4,397.1L702.4,397.1z M696.8,391.5l5.2,6l-5.6-5.8L696.8,391.5L696.8,391.5z" class="st7"/><path d="M702.4,397.1l-5.6-5.6l5.2,6L702.4,397.1L702.4,397.1z M696.8,391.5l5.2,6l-5.6-5.8L696.8,391.5L696.8,391.5z" class="st8"/><path d="M702.4,397.1l-0.4,0.4l-5.6-5.8l0.4-0.2L702.4,397.1l-0.4,0.4L702.4,397.1 M702,397.5l-5.6-5.8L702,397.5 M696.4,391.7l0.4-0.2L696.4,391.7 M696.8,391.5l5.6,5.6L696.8,391.5 M704.4,390.7v1 M688.6,391.7h7.8v-1h-7.8" class="st9"/><path d="M647.8,134.1l-5.8-5.6l5.4,6L647.8,134.1L647.8,134.1z M642,128.5l5.4,6l-5.6-5.8L642,128.5L642,128.5z" class="st7"/><path d="M647.8,134.1l-5.8-5.6l5.4,6L647.8,134.1L647.8,134.1z M642,128.5l5.4,6l-5.6-5.8L642,128.5L642,128.5z" class="st8"/><path d="M647.8,134.1l-0.4,0.4l-5.6-5.8l0.2-0.2L647.8,134.1l-0.4,0.4L647.8,134.1 M647.4,134.5l-5.6-5.8L647.4,134.5 M641.8,128.7l0.2-0.2L641.8,128.7 M642,128.5l5.8,5.6L642,128.5" class="st9"/><path d="M631.6,134.5l5.6-5.8l-5.8,5.4L631.6,134.5L631.6,134.5z M637.2,128.7l-5.8,5.4l5.6-5.6L637.2,128.7 L637.2,128.7z" class="st7"/><path d="M631.6,134.5l5.6-5.8l-5.8,5.4L631.6,134.5L631.6,134.5z M637.2,128.7l-5.8,5.4l5.6-5.6L637.2,128.7 L637.2,128.7z" class="st8"/><path d="M631.6,134.5l-0.2-0.4l5.6-5.6l0.2,0.2L631.6,134.5l-0.2-0.4L631.6,134.5 M631.4,134.1l5.6-5.6L631.4,134.1 M637,128.5l0.2,0.2L637,128.5 M637.2,128.7l-5.6,5.8L637.2,128.7 M647.6,135.5v-1.2 M631.4,134.3v1.4 M647.6,134.3h1.8 M647.6,135.5h2.4 M629.7,126.7h1.8 M649.4,128.3h-1.8 M631.6,128.3v-1.6 M647.6,126.7v1.6 M649.4,126.7V94.6 M631.6,128.3h-1.8 M647.6,126.7h1.8 M629.7,128.3v6" class="st9"/><path d="M197.2,275.3h-9.6 M197.2,272.5h-12.4 M197.2,269.9H182 M197.2,267.3h-16.5 M197.2,264.5h-16.5 M197.2,278 h-6.8 M197.2,280.8h-4 M183.6,271.5h-2.8 M197.2,283.4H196 M198,263.3h-1.4v-2.6h4.6v2.6 M226.5,249.4v0.6 M236,250v-0.6 M226.5,249.4h-1.2 M226.5,250h-1.2" class="st9"/><path d="M226.7,249.8l-0.4,0.4l7,6.2L226.7,249.8L226.7,249.8z M226.3,250.2l7,6.2l-0.2,0.4L226.3,250.2L226.3,250.2z" class="st7"/><path d="M226.7,249.8l-0.4,0.4l7,6.2L226.7,249.8L226.7,249.8z M226.3,250.2l7,6.2l-0.2,0.4L226.3,250.2L226.3,250.2z" class="st8"/><path d="M218.5,354.1h-38.4 M711.1,460.6h-144" class="st9"/><path d="M461.1,400.7l-5.6-5.6l5.8,5.4L461.1,400.7L461.1,400.7z M455.5,395.1l5.8,5.4l-5.6-5.8L455.5,395.1 L455.5,395.1z" class="st7"/><path d="M461.1,400.7l-5.6-5.6l5.8,5.4L461.1,400.7L461.1,400.7z M455.5,395.1l5.8,5.4l-5.6-5.8L455.5,395.1 L455.5,395.1z" class="st8"/><path d="M461.1,400.7l0.2-0.2l-5.6-5.8l-0.2,0.4L461.1,400.7l0.2-0.2L461.1,400.7 M461.3,400.5l-5.6-5.8L461.3,400.5 M455.7,394.7l-0.2,0.4L455.7,394.7 M455.5,395.1l5.6,5.6L455.5,395.1 M564.9,145.2v24.7 M564.9,170.9v24.5 M585.4,170.9v15.3 M585.4,222.3v15.3 M564.9,222.3v24.5 M585.4,273.5V289 M564.9,273.5v24.7 M564.9,299.3v24.5 M630.1,317.5h20.5 M261.9,299.1V95.2 M261.9,92.6V76.5" class="st9"/><line x1="51.5" x2="46.2" y1="391.7" y2="391.7" class="st9"/></g></g></svg>