<?xml version="1.0" encoding="utf-8"?>
<!-- Generator: Adobe Illustrator 21.1.0, SVG Export Plug-In . SVG Version: 6.00 Build 0)  -->
<svg version="1.1" xmlns="http://www.w3.org/2000/svg" xmlns:xlink="http://www.w3.org/1999/xlink" x="0px" y="0px"
	 viewBox="0 0 890.6 481.8" style="enable-background:new 0 0 890.6 481.8;" xml:space="preserve">
<style type="text/css">
	.st0{fill:#E1E1E1;stroke:#6E6E6E;stroke-width:0.48;stroke-linecap:round;stroke-linejoin:round;stroke-miterlimit:10;}
	.st1{fill:none;stroke:#6E6E6E;stroke-width:0.48;stroke-linecap:round;stroke-linejoin:round;stroke-miterlimit:10;}
	.st2{fill:#FF7F7F;stroke:#6E6E6E;stroke-width:0.48;stroke-linecap:round;stroke-linejoin:round;stroke-miterlimit:10;}
	.st3{fill:#FFFFFF;stroke:#6E6E6E;stroke-width:0.48;stroke-linecap:round;stroke-linejoin:round;stroke-miterlimit:10;}
	.st4{fill:#E9FFBE;stroke:#6E6E6E;stroke-width:0.48;stroke-linecap:round;stroke-linejoin:round;stroke-miterlimit:10;}
	.st5{fill:#D4EFFF;stroke:#6E6E6E;stroke-width:0.48;stroke-linecap:round;stroke-linejoin:round;stroke-miterlimit:10;}
	.st6{fill:#E9FFBE;stroke:#000000;stroke-width:0.6147;stroke-linecap:round;stroke-linejoin:round;stroke-miterlimit:10;}
	.st7{fill:none;stroke:#000000;stroke-width:0.6147;stroke-linecap:round;stroke-linejoin:round;stroke-miterlimit:10;}
	
		.st8{fill-rule:evenodd;clip-rule:evenodd;fill:none;stroke:#000000;stroke-width:0.6147;stroke-linecap:round;stroke-linejoin:round;stroke-miterlimit:10;}
	.st9{fill-rule:evenodd;clip-rule:evenodd;}
	.st10{fill-rule:evenodd;clip-rule:evenodd;fill:none;stroke:#000000;stroke-width:0;stroke-linecap:round;stroke-miterlimit:10;}
	
		.st11{fill-rule:evenodd;clip-rule:evenodd;fill:none;stroke:#000000;stroke-width:0;stroke-linecap:round;stroke-linejoin:round;stroke-miterlimit:10;}
</style>
<g id="Layers">
	<g id="SecondFloorPublic">
		<g>
			<polyline class="st0" points="203.3,9.6 46.6,10.9 46.2,56 46.2,56.2 46.4,57.9 46.9,65.1 73.8,92.4 73.5,92.7 74,92.7 97,115.2 
				97.3,115 97.5,114.8 97.8,114.5 98,114.3 98.2,114 98.5,113.8 98.7,113.6 99,113.3 99.2,113.1 99.4,112.8 99.7,112.6 99.9,112.6 
				100.2,112.4 100.4,112.1 100.6,111.9 100.9,111.6 101.1,111.4 101.4,111.2 101.6,110.9 101.8,110.9 102.1,110.7 102.3,110.4 
				102.6,110.2 102.8,110 103,109.7 103.3,109.7 103.5,109.5 103.8,109.2 104,109 104.2,108.8 104.5,108.8 104.7,108.5 105,108.3 
				105.2,108 105.4,108 105.7,107.8 105.9,107.6 106.2,107.3 106.4,107.3 106.6,107.1 106.9,106.8 107.1,106.8 107.4,106.6 
				107.6,106.4 107.8,106.4 108.1,106.1 108.3,105.9 108.6,105.9 108.8,105.6 109,105.4 109.3,105.4 109.5,105.2 109.8,104.9 
				110,104.9 110.2,104.7 110.5,104.7 110.7,104.4 111,104.2 111.2,104.2 111.4,104 111.7,104 111.9,103.7 112.2,103.5 112.4,103.5 
				112.6,103.2 112.9,103.2 113.1,103 113.4,103 113.6,102.8 113.8,102.5 114.1,102.5 114.3,102.3 114.6,102.3 114.8,102 115,102 
				115.3,101.8 115.5,101.8 115.8,101.6 116,101.6 116.2,101.3 116.5,101.3 116.7,101.1 117,101.1 117.2,100.8 117.4,100.8 
				117.7,100.8 117.9,100.6 118.2,100.6 118.4,100.4 118.6,100.4 118.9,100.1 119.1,100.1 119.4,99.9 119.6,99.9 119.8,99.9 
				120.1,99.6 120.3,99.6 120.6,99.4 120.8,99.4 121,99.4 121.3,99.2 121.5,99.2 121.8,98.9 122,98.9 122.2,98.9 122.5,98.7 
				122.7,98.7 123,98.4 123.2,98.4 123.4,98.4 123.7,98.2 123.9,98.2 124.2,98.2 124.4,98 124.6,98 124.9,98 125.1,97.7 125.4,97.7 
				125.6,97.7 125.8,97.5 126.1,97.5 126.3,97.5 126.6,97.2 126.8,97.2 127,97.2 127.3,97.2 127.5,97 127.8,97 128,97 128,96.8 
				122,64.6 122,59.8 202.9,59.8 202.9,29.1 201.9,29.1 201.9,25.7 203.8,26 204.1,16.1 204.1,15.9 203.8,15.9 			"/>
			<polyline class="st1" points="262.6,143.6 240.1,143.6 240.3,145 213.7,145 			"/>
			<polyline class="st1" points="213.7,145 213.4,144.8 213.4,144.5 213.4,144.3 213.2,144 213.2,143.8 213.2,143.6 213,143.3 
				213,143.1 213,142.8 212.7,142.6 212.7,142.4 212.7,142.1 212.5,141.9 212.5,141.6 212.5,141.4 212.2,141.2 212.2,140.9 
				212.2,140.7 212,140.4 212,140.2 212,140 211.8,139.7 211.8,139.5 211.8,139.2 211.5,139 211.5,138.8 211.3,138.5 211.3,138.3 
				211.3,138 211,137.8 211,137.6 210.8,137.3 210.8,137.1 210.8,136.8 210.6,136.6 210.6,136.4 210.3,136.1 210.3,135.9 
				210.1,135.6 210.1,135.4 209.8,135.2 209.8,134.9 209.8,134.7 209.6,134.4 209.6,134.2 209.4,134 209.4,133.7 209.1,133.5 
				209.1,133.2 208.9,133 208.9,132.8 208.6,132.5 208.6,132.3 208.4,132 208.4,131.8 208.2,131.6 208.2,131.3 207.9,131.1 
				207.9,130.8 207.7,130.6 207.7,130.4 207.4,130.1 207.2,129.9 207.2,129.6 207,129.4 207,129.2 206.7,128.9 206.7,128.7 
				206.5,128.4 206.2,128.2 206.2,128 206,127.7 206,127.5 205.8,127.2 205.5,127 205.5,126.8 205.3,126.5 205,126.3 205,126 
				204.8,125.8 204.6,125.6 204.6,125.3 204.3,125.1 204.1,124.8 204.1,124.6 203.8,124.4 203.6,124.1 203.6,123.9 203.4,123.6 
				203.1,123.4 203.1,123.2 202.9,122.9 202.6,122.7 202.4,122.4 202.4,122.2 202.2,122 201.9,121.7 201.7,121.5 201.7,121.2 
				201.4,121 201.2,120.8 201,120.5 200.7,120.3 200.7,120 200.5,119.8 200.2,119.6 200,119.3 199.8,119.1 199.5,118.8 199.5,118.6 
				199.3,118.4 199,118.1 198.8,117.9 198.6,117.6 198.3,117.4 198.1,117.2 197.8,116.9 197.8,116.7 197.6,116.4 197.4,116.2 
				197.1,116 196.9,115.7 196.6,115.5 196.4,115.2 196.2,115 195.9,114.8 195.7,114.5 195.4,114.3 195.2,114 195,113.8 194.7,113.6 
				194.5,113.3 194.2,113.1 194,112.8 193.8,112.6 193.5,112.6 193.3,112.4 193,112.1 192.8,111.9 192.6,111.6 192.3,111.4 
				192.1,111.2 191.8,110.9 191.6,110.9 191.4,110.7 191.1,110.4 190.9,110.2 190.6,110 190.4,109.7 190.2,109.7 189.9,109.5 
				189.7,109.2 189.4,109 189.2,108.8 189,108.8 188.7,108.5 188.5,108.3 188.2,108 188,108 187.8,107.8 187.5,107.6 187.3,107.3 
				187,107.3 186.8,107.1 186.6,106.8 186.3,106.8 186.1,106.6 185.8,106.4 185.6,106.4 185.4,106.1 185.1,105.9 184.9,105.9 
				184.6,105.6 184.4,105.4 184.2,105.4 183.9,105.2 183.7,104.9 183.4,104.9 183.2,104.7 183,104.7 182.7,104.4 182.5,104.2 
				182.2,104.2 182,104 181.8,104 181.5,103.7 181.3,103.5 181,103.5 180.8,103.2 180.6,103.2 180.3,103 180.1,103 179.8,102.8 
				179.6,102.5 179.4,102.5 179.1,102.3 178.9,102.3 178.6,102 178.4,102 178.2,101.8 177.9,101.8 177.7,101.6 177.4,101.6 
				177.2,101.3 177,101.3 176.7,101.1 176.5,101.1 176.2,100.8 176,100.8 175.8,100.8 175.5,100.6 175.3,100.6 175,100.4 
				174.8,100.4 174.6,100.1 174.3,100.1 174.1,99.9 173.8,99.9 173.6,99.9 173.4,99.6 173.1,99.6 172.9,99.4 172.6,99.4 172.4,99.4 
				172.2,99.2 171.9,99.2 171.7,98.9 171.4,98.9 171.2,98.9 171,98.7 170.7,98.7 170.5,98.4 170.2,98.4 170,98.4 169.8,98.2 
				169.5,98.2 169.3,98.2 169,98 168.8,98 168.6,98 168.3,97.7 168.1,97.7 167.8,97.7 167.6,97.5 167.4,97.5 167.1,97.5 166.9,97.2 
				166.6,97.2 166.4,97.2 166.2,97.2 165.9,97 165.7,97 165.4,97 165.2,96.8 165,96.8 164.7,96.8 164.5,96.8 164.2,96.5 164,96.5 
				163.8,96.5 163.5,96.5 163.3,96.3 163,96.3 162.8,96.3 162.6,96.3 162.3,96 162.1,96 161.8,96 161.6,96 161.4,95.8 161.1,95.8 
				160.9,95.8 160.6,95.8 160.4,95.8 160.2,95.6 159.9,95.6 159.7,95.6 159.4,95.6 159.2,95.6 159,95.6 158.7,95.3 158.5,95.3 
				158.2,95.3 158,95.3 157.8,95.3 157.5,95.3 157.3,95.1 157,95.1 156.8,95.1 156.6,95.1 156.3,95.1 156.1,95.1 155.8,95.1 
				155.6,94.8 155.4,94.8 155.1,94.8 154.9,94.8 154.6,94.8 154.4,94.8 154.2,94.8 153.9,94.8 153.7,94.6 153.4,94.6 153.2,94.6 
				153,94.6 152.7,94.6 152.5,94.6 152.2,94.6 152,94.6 151.8,94.6 151.5,94.6 151.3,94.6 151,94.6 150.8,94.4 150.6,94.4 
				150.3,94.4 150.1,94.4 149.8,94.4 149.6,94.4 149.4,94.4 149.1,94.4 148.9,94.4 148.6,94.4 148.4,94.4 148.2,94.4 147.9,94.4 
				147.7,94.4 147.4,94.4 147.2,94.4 147,94.4 146.7,94.4 146.5,94.4 146.2,94.4 146,94.4 145.8,94.4 145.5,94.4 145.3,94.4 
				145,94.4 144.8,94.4 144.6,94.4 144.3,94.4 144.1,94.4 143.8,94.4 143.6,94.4 143.4,94.4 143.1,94.4 142.9,94.4 142.6,94.4 
				142.4,94.6 142.2,94.6 141.9,94.6 141.7,94.6 141.4,94.6 141.2,94.6 141,94.6 140.7,94.6 140.5,94.6 140.2,94.6 140,94.6 
				139.8,94.6 139.5,94.8 139.3,94.8 139,94.8 138.8,94.8 138.6,94.8 138.3,94.8 138.1,94.8 137.8,94.8 137.6,95.1 137.4,95.1 
				137.1,95.1 136.9,95.1 136.6,95.1 136.4,95.1 136.2,95.1 135.9,95.3 135.7,95.3 135.4,95.3 135.2,95.3 135,95.3 134.7,95.3 
				134.5,95.6 134.2,95.6 134,95.6 133.8,95.6 133.5,95.6 133.3,95.6 133,95.8 132.8,95.8 132.6,95.8 132.3,95.8 132.1,95.8 
				131.8,96 131.6,96 131.4,96 131.1,96 130.9,96.3 130.6,96.3 130.4,96.3 130.2,96.3 129.9,96.5 129.7,96.5 129.4,96.5 129.2,96.5 
				129,96.8 128.7,96.8 128.5,96.8 128.2,96.8 128,96.8 			"/>
			<polyline class="st1" points="128,96.8 122,64.6 122,59.8 203.1,59.8 203.1,62.2 233.8,62.2 233.8,116.2 263.1,116.2 
				262.6,143.6 			"/>
			<polygon class="st2" points="204.1,15.9 264.6,15.9 263.8,62 234.1,62 233.4,62.2 203.1,62.2 203.1,59.8 202.9,59.8 202.9,29.1 
				201.9,29.1 201.9,25.7 203.8,26 204.1,16.1 			"/>
			<polygon class="st0" points="263.8,62 263.1,116.2 233.8,116.2 233.8,62.2 233.4,62.2 234.1,62 			"/>
			<polygon class="st0" points="118.6,227.8 118.4,227.6 118.2,227.6 117.9,227.6 117.7,227.3 117.4,227.3 117.2,227.1 117,227.1 
				116.7,226.8 116.5,226.8 116.2,226.8 116,226.6 115.8,226.6 115.5,226.4 115.3,226.4 115,226.1 114.8,226.1 114.6,225.9 
				114.3,225.9 114.1,225.6 113.8,225.6 113.6,225.4 113.4,225.4 113.1,225.2 112.9,225.2 112.6,224.9 112.4,224.9 112.2,224.7 
				111.9,224.7 111.7,224.4 111.4,224.2 111.2,224.2 111,224 110.7,224 110.5,223.7 110.2,223.7 110,223.5 109.8,223.2 109.5,223.2 
				109.3,223 109,223 108.8,222.8 108.6,222.5 108.3,222.5 108.1,222.3 107.8,222 107.6,222 107.4,221.8 107.1,221.6 106.9,221.6 
				106.6,221.3 106.4,221.1 106.2,221.1 105.9,220.8 105.7,220.6 105.4,220.4 105.2,220.4 105,220.1 104.7,219.9 104.5,219.6 
				104.2,219.6 104,219.4 103.8,219.2 103.5,218.9 103.3,218.9 103,218.7 102.8,218.4 102.6,218.2 102.3,218 102.1,218 101.8,217.7 
				101.6,217.5 101.4,217.2 101.1,217 100.9,216.8 100.6,216.5 100.4,216.3 100.2,216.3 99.9,216 99.7,215.8 99.4,215.6 99.2,215.3 
				99,215.1 98.7,214.8 98.5,214.6 98.2,214.4 98,214.1 97.8,213.9 97.5,213.6 97.3,213.4 97,213.4 73.8,236.4 74,236.7 46.6,264 
				46.6,284 87.9,284.2 87.9,263.1 97.8,263.1 97.8,231.2 113.1,231.2 113.4,233.6 116.5,233.6 116.5,233.8 118.6,233.8 			"/>
			<polygon class="st3" points="116.5,233.6 116.5,233.8 116.5,263.1 97.8,263.1 97.8,231.2 113.1,231.2 113.4,233.6 			"/>
			<polyline class="st4" points="460.9,209.8 397.8,209.8 320,209.8 320,178.6 460.9,178.1 460.9,209.8 			"/>
			<polygon class="st0" points="224.5,266.9 250.4,266.9 250.4,202.4 250.4,180.5 261.7,180.5 261.7,275.3 258.3,275.3 258.3,280.6 
				261.7,280.6 261.7,305.6 173.4,305.6 173.4,276.5 179.8,276.5 217.5,276.5 217.5,227.3 217.5,180.5 224.5,180.5 224.5,202.4 			
				"/>
			<rect x="179.8" y="227.3" class="st5" width="37.7" height="49.2"/>
			<rect x="224.5" y="202.4" class="st2" width="25.9" height="64.6"/>
			<polygon class="st3" points="503.1,216.5 503.3,239.8 477.7,239.6 477.7,216.5 			"/>
			<polyline class="st0" points="530.2,213.9 530.2,212.9 521.3,212.9 			"/>
			<polyline class="st0" points="503.1,216.5 477.7,216.5 477.7,178.6 508.9,178.6 508.9,184.1 504.8,184.1 504.8,215.1 			"/>
			<polygon class="st0" points="631,178.6 631.3,233.8 581.3,233.8 581.3,178.6 			"/>
			<polygon class="st0" points="685.7,228.5 723.7,228.5 733,244.6 748.6,235.7 739.7,220.6 742.1,219.4 750.3,233.1 768.8,222.5 
				772.1,228.3 719.6,258.8 719.6,261.4 731.3,285.2 736.1,285.2 736.1,319 735.9,319 735.9,332 684.3,332 684.5,240 689.8,240 
				689.8,233.6 684.5,233.6 684.5,226.6 685.7,226.6 			"/>
			<polygon class="st3" points="750.5,190.6 768.8,222 750.3,232.8 742.1,218.9 739.7,220.1 748.6,235.5 733,244.1 723.7,228.3 
				685.7,228.3 685.7,226.1 684.5,226.1 684.5,201.9 731.1,201.9 			"/>
			<polygon class="st0" points="683,19.1 704.7,50.4 694.6,56 717.7,96 720.5,94.4 727.7,107.1 730.1,105.6 756.1,149.8 
				738.3,159.9 713.8,159.6 713.6,140 690.5,140 690.8,159.6 679.7,159.6 679.7,122.7 681.2,122.7 681.7,39.6 628.1,39.6 
				627.7,101.3 621.4,101.3 621.4,94.4 621.4,59.3 614.5,59.3 614.5,19.1 			"/>
			<polygon class="st3" points="621.4,59.3 621.4,94.4 567.4,94.1 567.4,59.3 611.3,59.3 614.5,59.3 			"/>
			<polygon class="st5" points="681.7,39.6 681.2,122.7 679.7,122.7 627.7,122.7 627.7,101.3 628.1,39.6 			"/>
			<polygon class="st3" points="713.6,140 713.8,159.6 690.8,159.6 690.5,140 			"/>
			<polygon class="st3" points="753.4,75.4 786.8,132.5 756.1,149.8 730.1,105.6 727.7,107.1 720.5,94.4 			"/>
			<polyline class="st1" points="398,267.9 319.8,267.9 320,209.8 397.8,209.8 397.8,243.9 398,267.9 			"/>
			<polygon class="st0" points="460.9,209.8 461.1,243.9 397.8,243.9 397.8,209.8 			"/>
		</g>
	</g>
	<g id="Other">
	</g>
</g>
<g id="Other_2">
	<polygon class="st6" points="529.7,265.5 504.5,265.3 504.5,216.5 519.7,216.5 519.7,230.4 529.7,230.4 	"/>
	<g>
		<path class="st7" d="M838.1,318.6c-46.7,27-46.7,27-46.7,27 M890.3,288.4C844,315.3,844,315.3,844,315.3 M785.6,348.9
			c-26.2,15.2-26.2,15.2-26.2,15.2 M792.2,346.6c-3.3-5.3-3.3-5.3-3.3-5.3c-5.7,3.3-5.7,3.3-5.7,3.3c3.1,5.5,3.1,5.5,3.1,5.5
			 M787.1,348.5c3.3-1.8,3.3-1.8,3.3-1.8c-1.8-3.5-1.8-3.5-1.8-3.5c-3.5,2-3.5,2-3.5,2C787.1,348.5,787.1,348.5,787.1,348.5
			 M844.6,316.3c-3.1-5.3-3.1-5.3-3.1-5.3c-5.9,3.3-5.9,3.3-5.9,3.3c3.3,5.5,3.3,5.5,3.3,5.5 M839.5,318.4c3.5-2,3.5-2,3.5-2
			c-2-3.5-2-3.5-2-3.5c-3.5,2-3.5,2-3.5,2C839.5,318.4,839.5,318.4,839.5,318.4 M890.3,288.4c-130.9,77.1-130.9,77.1-130.9,77.1
			 M46.6,64.7c0-55.2,0-53.7,0-53.7 M261.1,438.6c95.5,54.9,211.6,56.8,308.1,5.1 M200.7,25.9c-0.3-16.3,0-16.3,0-16.3 M261.3,61.8
			c-25.2,0-25.2,0-25.2,0 M263.8,57.9c0,3.1,0,3.1,0,3.1 M258.3,57.9c3.7,0,3.7,0,3.7,0 M689.7,29L689.7,29 M399.4,211.6
			c-2.9,0-2.9,0-2.9,0c0-2.9,0-2.9,0-2.9c2.9,0,2.9,0,2.9,0C399.4,211.6,399.4,211.6,399.4,211.6 M399.4,235.8c-2.7,0-2.7,0-2.7,0
			c0-2.7,0-2.7,0-2.7c2.7,0,2.7,0,2.7,0C399.4,235.8,399.4,235.8,399.4,235.8 M497.6,238.2c5.3,0,5.3,0,5.3,0 M487.5,239.5
			c0-1.2,0-1.2,0-1.2 M497.6,238.2c0,1.2,0,1.2,0,1.2 M478.7,180c0,31.6,0,31.6,0,31.6 M478.7,238.2c8.8,0,8.8,0,8.8,0 M508.4,184.1
			c0-5.5,0-5.5,0-5.5 M502.9,178.6c0,5.5,0,5.5,0,5.5c0.2,0,0.2,0,0.2,0 M502.9,233.3c0,4.9,0,4.9,0,4.9 M733.4,316.9
			c0-2.9,0-2.9,0-2.9 M733.4,314.1c-2.7,0-2.7,0-2.7,0c0,2.9,0,2.9,0,2.9c2.7,0,2.7,0,2.7,0 M46.6,426.4c214.5,0,214.5,0,214.5,0
			 M46.6,263.2c0,65.8,0,65.8,0,65.8 M563.3,47c3.5,0,3.5,0,3.5,0c0,3.5,0,3.5,0,3.5c-3.5,0-3.5,0-3.5,0C563.3,47,563.3,47,563.3,47
			 M699.2,49.5L699.2,49.5 M697.9,52.6L697.9,52.6 M699.8,76.9c2.9,4.7,2.9,4.7,2.9,4.7 M704.5,74.3c-4.7,2.7-4.7,2.7-4.7,2.7
			 M745.7,147.2c-4.5,2.5-4.5,2.5-4.5,2.5 M762.1,367.1"/>
		<path class="st7" d="M753.5,423.1c4.1,0,4.1,0,4.1,0c0-3.9,0-3.9,0-3.9c-4.1,0-4.1,0-4.1,0C753.5,423.1,753.5,423.1,753.5,423.1
			 M759.4,418.4c-6.6,0-6.6,0-6.6,0c0,6.6,0,6.6,0,6.6 M685.4,423.1c3.9,0,3.9,0,3.9,0c0-3.9,0-3.9,0-3.9c-3.9,0-3.9,0-3.9,0
			C685.4,423.1,685.4,423.1,685.4,423.1 M687.3,418.4c-2.7,0-2.7,0-2.7,0c0,6.6,0,6.6,0,6.6 M689.9,424.9c0-6.6,0-6.6,0-6.6
			c-2.7,0-2.7,0-2.7,0 M762.1,367.1c0,60.5,0,60.5,0,60.5 M759.4,364.1c0,54.3,0,54.3,0,54.3 M735.8,285c0,33.8,0,33.8,0,33.8
			c-0.4,0-0.4,0-0.4,0 M735.4,318.8c0,12.9,0,12.9,0,12.9 M734,330.4c0-11.7,0-11.7,0-11.7 M735.4,331.7c-51.2,0-51.2,0-51.2,0
			 M734,330.4c-48.4,0-48.4,0-48.4,0 M684.2,331.7c0-74.6,0-74.6,0-74.6 M685.6,330.4c-0.2-13.1-0.2-13.1-0.2-13.1 M685.6,314.1
			c0-25,0-25,0-25 M685.6,286.4c0-22.5,0-22.5,0-22.5 M733.4,289L733.4,289 M686.7,289L686.7,289 M733.4,289c0-2.7,0-2.7,0-2.7
			c-2.7,0-2.7,0-2.7,0c0,2.7,0,2.7,0,2.7 M687.9,287.2L687.9,287.2 M717.8,262.4c10.9,21.7,12.5,24.8,12.5,24.8 M685.6,248.9
			c0-1.2,0-2.5,0-2.5 M685.6,241.3c0,5.1,0,5.1,0,5.1 M625,423.1c4.1,0,4.1,0,4.1,0c0-4.1,0-4.1,0-4.1c-4.1,0-4.1,0-4.1,0
			C625,423.1,625,423.1,625,423.1 M627,418.4c-2.7,0-2.7,0-2.7,0c0,6.6,0,6.6,0,6.6 M629.7,424.9c0-6.6,0-6.6,0-6.6
			c-2.7,0-2.7,0-2.7,0 M569.1,424.9c0-6.6,0-6.6,0-6.6c-2.7,0-2.7,0-2.7,0 M566.4,418.4c-2.7,0-2.7,0-2.7,0c0,5.3,0,5.3,0,5.3
			 M568.4,423.1c0-4.1,0-4.1,0-4.1c-4.1,0-4.1,0-4.1,0c0,4.1,0,4.1,0,4.1C568.4,423.1,568.4,423.1,568.4,423.1 M762.1,427.6
			c-192.8,0-192.8,0-192.8,0 M752.8,424.9c-26,0-26,0-26,0 M569.3,427.6c0,16.4,0,16.4,0,16.4 M566.6,424.9c0,17.2,0,17.2,0,17.2
			 M563.7,423.7c2.9,0,2.9,0,2.9,0c0,1.2,0,1.2,0,1.2 M263.8,437c18.6,10.2,37.7,19.3,57.6,25.8 M263.8,437c0-18.6,0-18.6,0-18.6
			 M263.8,418.4c-5.5,0-5.5,0-5.5,0c0,5.3,0,5.3,0,5.3 M263.2,423.1c0-4.1,0-4.1,0-4.1c-4.1,0-4.1,0-4.1,0c0,4.1,0,4.1,0,4.1
			C263.2,423.1,263.2,423.1,263.2,423.1 M261.1,438.6c0-12.3,0-12.3,0-12.3 M54.8,423.7c203.4,0,203.4,0,203.4,0 M477.5,239.5
			c10,0,10,0,10,0 M529.7,265.5c0-26,0-26,0-26 M531.2,265.5c0-36.9,0-36.9,0-36.9c-1.4,0-1.4,0-1.4,0 M529.7,230.4c-10,0-10,0-10,0
			 M529.7,229.2c-8.6,0-8.6,0-8.6,0 M519.7,230.4c0-13.9,0-13.9,0-13.9 M521.1,229.2c0-7.4,0-7.4,0-7.4 M519.7,211.6
			c11.5,0,11.5,0,11.5,0 M521.1,213c8.8,0,8.8,0,8.8,0 M531.2,211.6c0,2.3,0,2.3,0,2.3 M529.9,213c0,0.8,0,0.8,0,0.8
			c1.2,0,1.2,0,1.2,0 M529.7,229.2c0-0.6,0-0.6,0-0.6 M504.5,239.5c0-16.8,0-23,0-23 M529.9,222.9c0-1,0-1,0-1 M531.4,221.8
			c0-2.5,0-2.5,0-2.5c-1.4,0-1.4,0-1.4,0 M529.9,222.9c1.4,0,1.4,0,1.4,0c0-2.5,0-2.5,0-2.5 M477.5,178.6c0,60.9,0,60.9,0,60.9
			 M504.5,215.3c15.2,0,15.2,0,15.2,0 M504.5,216.5c15.4,0,15.2,0,15.2,0 M519.7,215.3c0-3.7,0-3.7,0-3.7 M503.1,215.3
			c0-2.5,0-3.7,0-3.7 M504.5,215.3c0-4.9,0-4.9,0-4.9 M478.7,216.5c0,21.7,0,21.7,0,21.7 M503.1,215.3c-24.4,0-24.4,0-24.4,0
			 M502.9,233.3c0-16.8,0-16.8,0-16.8c-24.2,0-24.2,0-24.2,0 M478.7,216.5c24.2,21.7,24.2,21.7,24.2,21.7 M478.7,238.2
			c24.2-21.7,24.2-21.7,24.2-21.7 M447.8,241.5c0-7,0-7,0-7 M442.4,239.9c5.3,0,5.3,0,5.3,0 M447.8,234.5c-5.3,0-5.3,0-5.3,0
			c0,7,0,7,0,7 M460.5,178.6c0,22.7,0,22.7,0,22.7 M459.2,179.6c0,21.7,0,21.7,0,21.7 M395.7,266.5c0-14.1,0-14.1,0-14.1
			 M459.2,234.5c-59.8,0-59.8,0-59.8,0 M459.2,233.1c-62.1,0-62.1,0-62.1,0 M459.2,241.5c-62.1,0-62.1,0-62.1,0 M460.5,242.7
			c-63.3,0-63.3,0-63.3,0 M459.2,234.1c0,7.4,0,7.4,0,7.4 M397.2,233.1c0-21.5,0-21.5,0-21.5 M397.2,241.5c0-5.7,0-5.7,0-5.7
			 M397.2,267.5c0-15.2,0-15.2,0-15.2 M462.5,211.6c-2,0-2,0-2,0 M461.5,210.2c-1,0-1,0-1,0 M396.6,208.7L396.6,208.7 M459.2,211.6
			c0,0.4,0,0.4,0,0.4c1.2,0,1.2,0,1.2,0 M462.5,220.2c-3.3,0-3.3,0-3.3,0c0,12.9,0,12.9,0,12.9 M418.1,210.2L418.1,210.2
			 M416.8,210.2L416.8,210.2 M438.8,210.2L438.8,210.2 M439.4,210.2c-19.7,0-21.3,0-21.3,0 M418.1,210.2c-17.4,0-18.6,0-18.6,0
			 M459.2,202.8L459.2,202.8 M440.4,211.4c0,0.8,0,0.8,0,0.8 M439.8,211.4c0,0.8,0,0.8,0,0.8 M439.8,221c-29.9,0-29.9,0-29.9,0
			 M410.5,221.6c0,1,0,1,0,1 M409.9,221c0,2.5,0,2.5,0,2.5"/>
		<path class="st7" d="M410.5,222.7h28.3 M409.9,223.5h29.7 M438.8,222.7v-1 M439.6,223.5v-1.8 M440.4,211.4h-0.6 M440.4,212.2h-0.6
			 M439.8,221v-0.6h0.6v1.2h-29.9 M414.2,221v-9.4 M416.8,221v-9.4 M419.5,215.9v-4.3 M422.4,221v-4.7 M425,221v-9.4 M427.7,221
			v-9.4 M430.4,221v-9.4 M414.2,223.5v9.6 M416.8,223.5v9.6 M419.5,223.5v9.6 M422.2,223.5v9.6 M424.8,223.5v9.6 M427.5,223.5v9.6
			 M430.4,223.5v9.6 M433,223.5v9.6 M435.7,223.5v9.6 M416.8,221l2.3-3.7l-0.6-2l1.6,1v-0.8l2.3-3.9 M419.1,221l2.3-3.7l-0.6-2
			l1.6,1v-0.8l2.3-3.9"/>
		<path class="st8" d="M679.5,122.6v25.4 M679.5,159.7h17.2v-2.7h-6.4v-17 M688.7,158.9l-0.2-19.7 M690.4,158.9h5.5 M695.9,158.9
			v-0.8h-5.5v0.8 M680.3,158.9h8.4 M680.3,148.1L680.3,148.1 M688.5,139.2L688.5,139.2 M690.4,140.1h22.9v17.4h-7v2.3h12.1
			 M688.5,139l26-0.2 M714.5,138.8v20.9 M714.5,159.1h-7.6 M714.5,158.3h-7.6v0.8 M713.3,157.5l-22.9-17.4 M690.4,157.1l22.9-17
			 M743.6,154l-2.5-4.3 M679.5,156.5h0.8 M680.3,148.1h-0.8 M680.3,156.5v2.5 M679.5,156.5v3.3 M717.2,158.5L717.2,158.5
			 M723.7,161.2h-5.3v-3.7h5.3V161.2 M694,56.3l10-5.7 M692.4,55.6l9.8-5.5L689.7,29 M704.1,50.5l-4.3-7.6 M697.9,50.1l1,1.8
			 M689.7,29L676.8,6.6 M616.8,31.7L616.8,31.7 M627.7,122.6v-21.5 M627.7,39.7h53.3v24.2 M680.9,67.5v27.9 M628.9,40.9h50.6v58
			v22.5 M707.4,79l-4.7,2.7 M703.5,74.9l-11.1-19.3 M744.2,145.8l-38.1-66.2 M746.1,146.2l-20.9-36.3 M680.9,99.1l-0.2,49.2
			 M679.5,93.3h-1.8 M679.5,92.9h-1.2 M677.6,93.3V69.2 M678.3,92.9V69.6 M677.6,69.2h1.8 M678.3,69.6h1.2 M679.5,93.3v-0.4
			 M679.5,69.2v0.4 M656.3,95V65.3 M656.8,95.4V65.1 M656.3,65.3h-6.8 M656.8,65.1h-7.6 M649.6,65.3V95 M649.2,65.1v30.3
			 M625.8,45.6h1.8 M627.7,48.1h-1.8 M628.9,121.4V111 M630.7,93.1h18.4 M630.7,90.9h18.4 M630.7,88.6h18.4 M630.7,86.4h18.4
			 M630.7,84.1h18.4 M630.7,81.9h18.4 M630.7,79.6h18.4 M630.7,77.4h18.4 M630.7,75.1h18.4 M630.7,72.9h18.4 M630.7,70.6h18.4"/>
		<path class="st9" d="M680.1,156.3l6.6-4.9l-6.4,5.1L680.1,156.3L680.1,156.3z M686.7,151.3l-6.4,5.1l6.6-4.7L686.7,151.3
			L686.7,151.3z"/>
		<path class="st10" d="M680.1,156.3l6.6-4.9l-6.4,5.1L680.1,156.3L680.1,156.3z M686.7,151.3l-6.4,5.1l6.6-4.7L686.7,151.3
			L686.7,151.3z"/>
		<path class="st8" d="M680.1,156.3l0.2,0.2l6.6-4.7l-0.2-0.4L680.1,156.3l0.2,0.2L680.1,156.3 M680.3,156.5l6.6-4.7L680.3,156.5
			 M686.9,151.7l-0.2-0.4L686.9,151.7 M686.7,151.3l-6.6,4.9L686.7,151.3 M50.1,60.4v3.9 M50.1,64.2H54v-3.9h-3.9 M54.4,67.3v-7.6"
			/>
		<path class="st11" d="M276.9,444h0.2 M277.1,444.2V444 M291,451.1h0.2 M291,451.4v-0.2 M305,456.9h0.2 M305,457.1v-0.2 M318.9,462
			h0.4 M319.1,462.2V462 M333.2,466.7h0.2 M333.4,466.7v-0.2 M347.8,470.4h0.2 M348,470.4v-0.2 M362.5,473.5h0.2 M362.5,473.5v-0.2
			 M377.3,475.9h0.2 M377.5,475.9v-0.2 M407.2,478.6h0.2 M407.4,478.6v-0.2 M422.2,478.8h0.2 M422.4,478.8v-0.2 M437.1,478.4h0.4
			 M437.3,478.4v-0.2 M452.3,477.2h0.2 M452.3,477.2V477 M467,475.3h0.2 M467.2,475.3v-0.2 M481.8,472.7h0.4 M482,472.9v-0.4
			 M496.5,469.4h0.2 M496.5,469.4v-0.2 M510.9,465.5h0.4 M511.1,465.5v-0.2 M525.2,460.8h0.2 M525.4,461v-0.2 M539.1,455.4h0.2
			 M539.4,455.7v-0.4 M553.1,449.5h0.2 M553.1,449.5L553.1,449.5"/>
		<path class="st8" d="M553.1,449.5l1.2,2.5 M539.4,455.4l1,2.5 M525.4,460.8l0.8,2.5 M511.1,465.5l0.8,2.5 M496.5,469.4l0.8,2.7
			 M482,472.7l0.6,2.7 M467.2,475.3l0.4,2.7 M452.3,477.2l0.4,2.7 M437.3,478.4l0.2,2.7 M422.4,478.8v2.7 M407.4,478.6l-0.2,2.7
			 M392.2,477.6l-0.2,2.7 M377.5,475.9l-0.4,2.7 M362.5,473.5l-0.4,2.7 M348,470.4l-0.6,2.7 M333.4,466.7l-0.8,2.5 M319.1,462
			L319.1,462 M319.1,462l-0.8,2.7 M305,456.9l-1,2.5 M291,451.1l-1,2.5 M277.1,444l-1.4,2.5 M49.3,59.7v-48 M116.7,59.7v4.9h4.9
			v-4.9 M121.2,64.2h-3.9 M121.2,64.2v-3.9h-3.9v3.9 M171,59.7v4.9h4.9v-4.9 M175.3,64.2h-3.9 M175.3,64.2v-3.9h-3.9v3.9
			 M254.6,97.6h5.7 M260.9,97.6v-4.1v-2.7h-4.5V75.1h7.4 M254.6,97.6V61.8 M255.6,95.8h3.5 M259.1,95.8v-3.5h-3.5v3.5 M254.6,73.9
			h6.8v-2 M204.6,59.1h53.7v-1.2 M254.6,93.8h-3.7 M252.7,91.1h-1.8 M233.5,61.8v32 M236.1,61.8v29.3 M252.7,91.1V61.8 M241,91.1
			v2.7 M250.9,93.8v-2.7 M241,91.1h-4.9 M241,93.8h-7.6 M236.1,61.8l16.6,29.3 M236.1,91.1l16.6-29.3 M227.1,59.1v-6.4l-5.5,6.4
			 M227.1,52.8l3.9,1l-3.7-4.7h3.1l3.1-3.7 M229.8,59.1v-5.7 M232.4,59.1V46.4 M235.3,59.1V45.4 M238,59.1V45.4 M240.6,59.1V45.4
			 M243.3,59.1V45.4 M229.8,52.2v-3.1 M246.2,28h-2.7v-2.7h2.7V28 M49.7,261.2v4.1 M54,265.3v-4.1h-4.3 M53.2,260.8h-3.9
			 M49.3,260.8v21.7 M49.3,323.1h5.3v-5.3h-5.3 M54.2,322.5h-4.3 M54.2,322.5v-4.1h-4.3v4.1 M178.4,419v4.1 M178.4,423.1h4.1V419
			h-4.1 M183.1,418.4h-5.1v5.3h5.1V418.4 M50.1,351.6v4.1 M50.1,355.7h4.1v-4.1h-4.1 M54.8,351.1h-5.5 M54.8,351.1v5.1h-5.5
			 M50.1,419v4.1 M50.1,423.1h4.1V419h-4.1 M54.8,423.7v-5.3h-5.5 M117.5,419v4.1 M117.5,423.1h4.1V419h-4.1 M122,418.4h-5.1v5.3
			h5.1V418.4"/>
		<path class="st11" d="M303.9,459.3h0.2 M303.9,459.5v-0.2"/>
		<path class="st8" d="M276.5,445.2c5.1,2.3,9.6,5.1,14.1,7.2 M304.6,458.1c4.7,1.8,9.4,3.5,14.1,5.1 M333,467.7
			c4.9,1.4,9.6,2.7,14.5,3.9 M362.3,474.7c4.9,0.8,10,1.6,15,2.5 M392.2,478.8c4.9,0.4,10,0.6,15,0.8 M422.4,480
			c4.9,0,10-0.2,15-0.4 M452.5,478.4c4.9-0.6,9.8-1.2,15-1.8 M482.2,473.9c4.9-1,9.8-2,14.8-3.3 M511.5,466.7
			c4.7-1.4,9.6-3.1,14.3-4.7 M539.8,456.7c4.7-2,9.4-3.9,13.9-6.1 M497.6,239.5c5.5,0,5.5,0,5.5,0"/>
		<path class="st9" d="M459,220.4l-4.1-7l4.5,6.8L459,220.4L459,220.4z M454.9,213.4l4.5,6.8l-4.1-7L454.9,213.4L454.9,213.4z"/>
		<path class="st10" d="M459,220.4l-4.1-7l4.5,6.8L459,220.4L459,220.4z M454.9,213.4l4.5,6.8l-4.1-7L454.9,213.4L454.9,213.4z"/>
		<path class="st8" d="M459,220.4l0.4-0.2l-4.1-7l-0.4,0.2L459,220.4l0.4-0.2L459,220.4 M459.4,220.2l-4.1-7L459.4,220.2
			 M455.4,213.2l-0.4,0.2L455.4,213.2 M454.9,213.4l4.1,7L454.9,213.4"/>
		<path class="st9" d="M440.4,220.2l8-1.2l-7.8,1.6L440.4,220.2L440.4,220.2z M448.4,219l-7.8,1.6l7.8-1.2V219L448.4,219z"/>
		<path class="st10" d="M440.4,220.2l8-1.2l-7.8,1.6L440.4,220.2L440.4,220.2z M448.4,219l-7.8,1.6l7.8-1.2V219L448.4,219z"/>
		<path class="st8" d="M440.4,220.2l0.2,0.4l7.8-1.2V219L440.4,220.2l0.2,0.4L440.4,220.2 M440.6,220.6l7.8-1.2L440.6,220.6
			 M448.4,219.4V219V219.4 M448.4,219l-8,1.2L448.4,219 M743,424.9v2.7 M708.2,424.9v2.7 M691.8,427.6v-2.7 M726.8,427.6v-2.7H569.1
			 M743,426.4h-16.2 M708.2,426.4h-16.4 M672.1,424.9v2.7 M656.1,427.6v-2.7 M636.3,424.9v2.7 M587.9,427.6v-2.7 M672.1,426.4h-16
			 M636.3,426.4h-48.4 M600,424.9v2.7 M612.1,424.9v2.7 M624.2,424.9v2.7 M64.6,426.4v-2.7 M80.8,423.7v2.7 M100.5,426.4v-2.7
			 M116.7,423.7v2.7 M64.6,425.1h16.2 M100.5,425.1h16.2 M136.3,426.4v-2.7 M152.5,423.7v2.7 M172.2,426.4v-2.7 M236.7,423.7v2.7
			 M136.3,425.1h16.2 M236.7,425.1h-64.5"/>
		<path class="st11" d="M223.8,425.1h0.2 M223.8,425.1v-0.2 M210.9,425.1h0.2 M211.1,425.1v-0.2 M198,425.1h0.2 M198,425.1v-0.2
			 M185.1,425.1h0.2 M185.1,425.1v-0.2"/>
		<path class="st8" d="M223.8,423.7v2.7 M211.1,423.7v2.7 M198,423.7v2.7 M185.1,423.7v2.7"/>
		<path class="st8" d="M699.8,42.9l9.4-5.3l-4.9-8.6 M698.3,32.3l5.1,8.6 M704.3,29l-9.6,5.3 M699.8,76.9L699.8,76.9 M701.2,79.2
			L701.2,79.2 M786,132.7l-48.6,27 M714.7,158.7l3.7-0.2 M725,158.5L725,158.5 M725,158.5h1.6 M723.7,158.5h1.2 M723.7,159.7h2.9
			 M746.1,146.2l-5.7,3.3l3.3,5.5 M744.2,145.8l-5.7,3.1l3.9,7 M726.6,158.5v1.2 M737.5,159.7h-2.9v-1.2h3.1"/>
		<path class="st9" d="M734.4,158.7l-5.7-5.7l6.1,5.3L734.4,158.7L734.4,158.7z M728.7,153l6.1,5.3l-5.7-5.7L728.7,153L728.7,153z"
			/>
		<path class="st10" d="M734.4,158.7l-5.7-5.7l6.1,5.3L734.4,158.7L734.4,158.7z M728.7,153l6.1,5.3l-5.7-5.7L728.7,153L728.7,153z"
			/>
		<path class="st8" d="M734.4,158.7l0.4-0.4l-5.7-5.7l-0.4,0.4L734.4,158.7l0.4-0.4L734.4,158.7 M734.8,158.3l-5.7-5.7L734.8,158.3
			 M729.1,152.6l-0.4,0.4L729.1,152.6 M728.7,153l5.7,5.7L728.7,153 M717.4,96.4L753,75.5 M717.8,97.2l2-1 M753,75.5l27.9,48.4
			 M752.8,77.2l6.6,11.7 M785,130.8l-0.8,0.6 M784.6,132.3l-29.9,16.6 M742.4,155.8l-4.7,2.7 M780.9,123.9l-0.8,0.6 M785,130.8
			l1,1.8 M784.2,131.5l0.4,0.8"/>
		<path class="st9" d="M780.3,124.5v8l-0.4-8H780.3L780.3,124.5z M780.3,132.5l-0.4-8v8H780.3L780.3,132.5z"/>
		<path class="st10" d="M780.3,124.5v8l-0.4-8H780.3L780.3,124.5z M780.3,132.5l-0.4-8v8H780.3L780.3,132.5z"/>
		<path class="st8" d="M780.3,124.5h-0.4v8h0.4V124.5h-0.4H780.3 M779.9,124.5v8V124.5 M779.9,132.5h0.4H779.9 M780.3,132.5v-8
			V132.5 M743.6,154l4.5-2.5l-2.5-4.3 M743.6,155l5.3-2.9l-1.6-3.3 M750.6,152.6l-1.8-3.5 M747.3,148.9l4.5-2.7 M748.7,149.1l3.7-2
			l1.8,3.5 M754.7,148.9l-15.6-27.1 M751.8,146.2l-22.3-38.7 M724.6,108.9l2-1 M725.2,109.9l4.3-2.5 M730.5,106.9l14.3-8.4
			 M724.6,108.9l-6.8-11.7 M717.4,96.4L694,56.3 M726.6,107.9l-6.8-11.7 M744.2,97.4l-16.8,9.8l-6.6-11.7l32-18.4 M760,89.9l8,13.9
			 M760,108.5l0.4,1 M751.8,94.6l-0.6-1 M744.2,97.4l0.6,1 M751.2,93.5l8.2-4.7 M751.8,94.6l5.9-3.5 M748.1,79.8l6.8,11.7
			 M738.5,120.8l14.5-8.2 M739.1,121.8l14.3-8.4 M769.2,124.5l8.2-4.5 M769.2,124.5l0.6,1l8-4.7l2.3,3.7 M768.6,104.6l8.8,15.4
			 M758.8,90.5l8.2,13.9 M757.8,91.1l8,13.9 M758.8,90.5l1.2-0.6 M767,104.4l1-0.6 M753,112.6l0.4,0.8 M760,108.5l5.7-3.5
			 M760.4,109.5l8.2-4.9 M738.5,120.8l-8-13.9 M734.4,113.8l14.8-8.4 M699.2,42.1l3.7-2 M708,37.2l-4.1-7l-4.3,2.5l4.1,7L708,37.2
			 M699,33.1l-3.7,2 M694.7,34.3L677.4,4.4 M699.2,42.1l-3.9-7 M697.9,50.1l2.7-1.6l1,2 M680.3,95.4h4.1v3.5h-4.1V95.4 M684.4,63.8
			v3.7h-4.1v-3.7H684.4 M627.7,122.6h2.9 M628.9,121.4h1.6 M648.1,121.4V111 M649.4,121.4v-11.5 M648.1,111h-1.4 M628.9,109.9V40.9
			 M649.4,109.9h-2.7 M630.5,109.9v1 M646.7,122.6v-1.2 M649.4,121.4h30.1 M630.5,109.9h-1.6 M630.5,111h-1.6 M630.5,121.4v1.2
			 M646.7,111v-1 M646.7,121.4h1.4 M646.7,122.6h32.8"/>
		<path class="st9" d="M630.3,121.4l5.7-5.7l-5.3,5.9L630.3,121.4L630.3,121.4z M636.1,115.7l-5.3,5.9l5.7-5.7L636.1,115.7
			L636.1,115.7z"/>
		<path class="st10" d="M630.3,121.4l5.7-5.7l-5.3,5.9L630.3,121.4L630.3,121.4z M636.1,115.7l-5.3,5.9l5.7-5.7L636.1,115.7
			L636.1,115.7z"/>
		<path class="st8" d="M630.3,121.4l0.4,0.2l5.7-5.7l-0.4-0.2L630.3,121.4l0.4,0.2L630.3,121.4 M630.7,121.6l5.7-5.7L630.7,121.6
			 M636.5,115.9l-0.4-0.2L636.5,115.9 M636.1,115.7l-5.7,5.7L636.1,115.7"/>
		<path class="st9" d="M646.5,121.6l-5.7-5.7l6.1,5.5L646.5,121.6L646.5,121.6z M640.8,115.9l6.1,5.5l-5.7-5.7L640.8,115.9
			L640.8,115.9z"/>
		<path class="st10" d="M646.5,121.6l-5.7-5.7l6.1,5.5L646.5,121.6L646.5,121.6z M640.8,115.9l6.1,5.5l-5.7-5.7L640.8,115.9
			L640.8,115.9z"/>
		<path class="st8" d="M646.5,121.6l0.4-0.2l-5.7-5.7l-0.4,0.2L646.5,121.6l0.4-0.2L646.5,121.6 M646.9,121.4l-5.7-5.7L646.9,121.4
			 M641.2,115.7l-0.4,0.2L641.2,115.7 M640.8,115.9l5.7,5.7L640.8,115.9 M627.7,101.1h-6.6 M627.7,48.1v51.8h-5.3V59.5 M621.1,95.2
			h-26.6 M622.3,59.5h-5.5 M621.1,94.2h-24.2 M621.1,60.6h-24.2 M566.8,50.5v9 M565.8,50.5v43.6 M621.1,101.1v-5.9 M616.8,59.5V29
			 M614.1,59.5h-47.3 M577.3,97.6v-2.5 M577.3,95.2h-7 M577.3,97.6h1.2v-2.5 M586.3,95.2v-1 M594.5,94.2v1 M596.9,94.2v-2.7
			 M595.7,94.2V78.6 M621.1,94.2v-2.7 M586.3,94.2h-16 M586.3,95.2h-7.8 M595.7,94.2h-1.2 M595.7,60.6h-28.9 M595.7,70.8h1.2
			 M596.9,78.6h-1.2 M595.7,70.8V60.6 M596.9,70.8V60.6 M621.1,91.5h-24.2 M621.1,60.6v29.7h-24.2V78.6 M614.1,59.5V0.3 M625.8,48.1
			v-2.5 M627.7,45.6v-5.9 M616.8,29V3.8 M656.3,95h-6.8 M656.8,95.4h-7.6 M656.8,70.6h20.9 M656.8,72.9h20.9 M656.8,75.1h20.9
			 M656.8,77.4h20.9 M656.8,79.6h20.9 M656.8,81.9h20.9 M656.8,84.1h20.9 M656.8,86.4h20.9 M656.8,88.6h20.9 M656.8,90.9h20.9
			 M656.8,93.1h20.9 M628.9,69.2v0.4 M628.9,93.3v-0.4 M630.3,69.6h-1.4 M630.7,69.2h-1.8 M630.3,92.9V69.6 M630.7,93.3V69.2
			 M628.9,92.9h1.4 M628.9,93.3h1.8 M719.2,258.3l52.4-30.3 M717.8,257.7l35.9-20.7 M731.1,285h4.7 M685.6,263.8L685.6,263.8
			 M684.2,248.9h1.4 M685.6,257.1h-1.4 M685.4,286.4h2.5v2.7h-1 M685.4,289h2.5 M685.6,267.5L685.6,267.5 M685.6,264.7L685.6,264.7
			 M719.2,258.3v2.7l11.9,24 M684.8,316.9h2.7 M687.5,316.9v-2.9h-2.7v2.9 M686.3,289L686.3,289 M686.3,314.1L686.3,314.1
			 M686.3,286.4L686.3,286.4"/>
		<path class="st9" d="M685.6,248.7l5.7,5.7l-5.9-5.3L685.6,248.7L685.6,248.7z M691.4,254.4l-5.9-5.3l5.7,5.5L691.4,254.4
			L691.4,254.4z"/>
		<path class="st10" d="M685.6,248.7l5.7,5.7l-5.9-5.3L685.6,248.7L685.6,248.7z M691.4,254.4l-5.9-5.3l5.7,5.5L691.4,254.4
			L691.4,254.4z"/>
		<path class="st8" d="M685.6,248.7l-0.2,0.4l5.7,5.5l0.2-0.2L685.6,248.7l-0.2,0.4L685.6,248.7 M685.4,249.1l5.7,5.5L685.4,249.1
			 M691.2,254.6l0.2-0.2L691.2,254.6 M691.4,254.4l-5.7-5.7L691.4,254.4 M771.7,228l-21.5-37.3l-19.9,11.5 M767,222l-17-29.1
			l-16.2,9.4 M751,232.3L751,232.3 M753.7,237L753.7,237 M750,232.9l-8.2-13.9 M684.2,248.9v-9h5.3v-6.8h-5.3v-6.8h1.4 M685.4,218.3
			h-1.2v-16.2h46.1 M753.7,237l17.2-10 M685.4,218.3v-14.8H733 M685.6,231.9v-2.7 M691,231.9h-5.3 M685.6,241.3h5.3v-9.4
			 M685.6,231.9L685.6,231.9 M697.7,229.2h-12.1 M696.7,228.2h-11.1v-1.8 M719.2,256.9L719.2,256.9 M697.7,229.2v-1h25.6
			 M697.7,227.4h26 M696.7,228.2v-13.3h1v12.5"/>
		<path class="st9" d="M685.4,226.3l5.7-5.7l-5.5,5.9L685.4,226.3L685.4,226.3z M691.2,220.6l-5.5,5.9l5.7-5.7L691.2,220.6
			L691.2,220.6z"/>
		<path class="st10" d="M685.4,226.3l5.7-5.7l-5.5,5.9L685.4,226.3L685.4,226.3z M691.2,220.6l-5.5,5.9l5.7-5.7L691.2,220.6
			L691.2,220.6z"/>
		<path class="st8" d="M685.4,226.3c0.2,0.2,0.2,0.2,0.2,0.2c5.7-5.7,5.7-5.7,5.7-5.7c-0.2-0.2-0.2-0.2-0.2-0.2
			C685.4,226.3,685.4,226.3,685.4,226.3c0.2,0.2,0.2,0.2,0.2,0.2C685.4,226.3,685.4,226.3,685.4,226.3 M685.6,226.5
			c5.7-5.7,5.7-5.7,5.7-5.7C685.6,226.5,685.6,226.5,685.6,226.5 M691.4,220.8c-0.2-0.2-0.2-0.2-0.2-0.2
			C691.4,220.8,691.4,220.8,691.4,220.8 M691.2,220.6c-5.7,5.7-5.7,5.7-5.7,5.7C691.2,220.6,691.2,220.6,691.2,220.6 M748.1,235.4
			c-8.6-15.2-8.6-15.2-8.6-15.2 M738.3,220c3.1-1.8,3.1-1.8,3.1-1.8 M739.5,220.2c2.3-1.2,2.3-1.2,2.3-1.2 M741.4,218.1
			c-0.4-0.6-0.4-0.6-0.4-0.6 M732.8,244.4c15.4-9,15.4-9,15.4-9 M723.7,227.4c9.2,15.8,9.2,15.8,9.2,15.8
			c13.9-8.2,13.9-8.2,13.9-8.2 M732.8,244.4c-9.4-16.2-9.4-16.2-9.4-16.2 M750,232.9c17.2-10,18.2-10.7,18.2-10.7 M742,216.7
			c8.6,14.8,8.6,14.8,8.6,14.8C767,222,767,222,767,222 M770.5,227.2c-2.7-4.7-2.7-4.7-2.7-4.7 M746.9,234.9c-8.6-15-8.6-15-8.6-15
			 M741,217.5c1-0.8,1-0.8,1-0.8 M733.8,202.4c3.7,6.1,3.7,6.1,3.7,6.1c-1.2,0.8-1.2,0.8-1.2,0.8c-3.3-5.7-3.3-5.7-3.3-5.7
			 M685.6,263.8c0-6.8,0-6.8,0-6.8 M503.7,466.9c4.1,0,4.1,0,4.1,0c0-4.1,0-4.1,0-4.1c-4.1,0-4.1,0-4.1,0
			C503.7,466.9,503.7,466.9,503.7,466.9 M508.4,466.3c0-4.1,0-4.1,0-4.1c-5.5,0-5.5,0-5.5,0c0,5.5,0,5.5,0,5.5 M443.3,477.2
			c4.1,0,4.1,0,4.1,0c0-3.9,0-3.9,0-3.9c-4.1,0-4.1,0-4.1,0C443.3,477.2,443.3,477.2,443.3,477.2 M448,477.6c0-4.9,0-4.9,0-4.9
			c-5.3,0-5.3,0-5.3,0c0,5.3,0,5.3,0,5.3 M508.4,466.1c20.1-5.7,39.5-13.5,58.2-24 M448,477.6c18.4-1.6,36.9-4.9,54.9-9.8
			 M387.1,477c0-5.3,0-5.3,0-5.3 M387.1,471.6c-5.3,0-5.3,0-5.3,0c0,4.7,0,4.7,0,4.7 M386.7,476.4c0-4.1,0-4.1,0-4.1
			c-4.1,0-4.1,0-4.1,0c0,4.1,0,4.1,0,4.1C386.7,476.4,386.7,476.4,386.7,476.4 M326.7,464.5c0-5.3,0-5.3,0-5.3 M326.7,459.1
			c-5.5,0-5.5,0-5.5,0c0,3.7,0,3.7,0,3.7 M326.1,463.9c0-4.1,0-4.1,0-4.1c-4.1,0-4.1,0-4.1,0c0,4.1,0,4.1,0,4.1
			C326.1,463.9,326.1,463.9,326.1,463.9 M387.3,477c18.2,2,36.9,2.3,55.1,1 M326.7,464.5c18,5.7,36.5,9.6,55.1,11.9 M562.7,178.6
			c0,5.3,0,5.3,0,5.3 M630.7,178.6c-153.3,0-153.3,0-153.3,0 M562.7,183.9c7.6,0,7.6,0,7.6,0c0-5.3,0-5.3,0-5.3 M630.7,233.9
			c-7.8,0-7.8,0-7.8,0c0,5.5,0,5.5,0,5.5 M630.7,239.5c0-8.2,0-8.2,0-8.2 M630.7,223.3c0-7.6,0-7.6,0-7.6c0-37.1,0-37.1,0-37.1
			 M622.9,239.5c7.8,0,7.8,0,7.8,0 M629.3,180c-48.4,0-48.4,0-48.4,0 M629.3,233.9c0-2.7,0-2.7,0-2.7 M629.3,223.3
			c0-7.6,0-7.6,0-7.6c0-35.7,0-35.7,0-35.7 M630.7,239.5c0,27.5,0,27.5,0,27.5c-9,0-9,0-9,0 M503.1,266.9c0-27.5,0-27.5,0-27.5
			 M629.3,239.5c0,26,0,26,0,26c-7.6,0-7.6,0-7.6,0 M504.5,265.5c0-26,0-26,0-26 M478.7,211.6c0,2.5,0,3.7,0,3.7 M502.9,180
			c-24.2,0-24.2,0-24.2,0 M562.7,180c-54.3,0-54.3,0-54.3,0 M504.5,184.1c3.9,0,3.9,0,3.9,0 M503.1,211.6c0-1.2,0-1.2,0-1.2
			 M580.9,180c0,75.8,0,75.8,0,75.8 M579.7,180c0,75.8,0,75.8,0,75.8 M589.1,265.5c0,1.4,0,1.4,0,1.4 M621.7,266.9
			c0-1.4,0-1.4,0-1.4 M589.1,265.5c-8.2,0-8.2,0-8.2,0 M589.1,266.9c-48.6,0-48.6,0-48.6,0 M579.7,265.5c-14.5,0-14.5,0-14.5,0
			 M579.7,180c-9.4,0-9.4,0-9.4,0 M579.7,264c1.2,0,1.2,0,1.2,0 M580.9,255.9c-1.2,0-1.2,0-1.2,0 M580.9,264c0,1.4,0,1.4,0,1.4
			 M579.7,264c0,1.4,0,1.4,0,1.4 M529.7,239.5c0-7.8,0-9,0-9 M529.7,265.5c-1.2,0-1.2,0-1.2,0c0,1.4,0,1.4,0,1.4 M520.5,265.5
			c0,1.4,0,1.4,0,1.4 M540.6,265.5c0,1.4,0,1.4,0,1.4 M532.6,266.9c0-1.4,0-1.4,0-1.4 M520.5,265.5c-16,0-16,0-16,0 M520.5,266.9
			c-17.4,0-17.4,0-17.4,0 M532.6,266.9c-4.1,0-4.1,0-4.1,0 M532.6,265.5c-1.4,0-1.4,0-1.4,0 M543.5,261.4c0,5.5,0,5.5,0,5.5
			 M565.2,266.9c0-5.5,0-5.5,0-5.5c-21.7,0-21.7,0-21.7,0 M543.5,265.5c-2.9,0-2.9,0-2.9,0"/>
		<path class="st9" d="M532.4,265.3l5.7-5.7l-5.3,6.1L532.4,265.3L532.4,265.3z M538.1,259.5l-5.3,6.1l5.7-5.7L538.1,259.5
			L538.1,259.5z"/>
		<path class="st10" d="M532.4,265.3l5.7-5.7l-5.3,6.1L532.4,265.3L532.4,265.3z M538.1,259.5l-5.3,6.1l5.7-5.7L538.1,259.5
			L538.1,259.5z"/>
		<path class="st8" d="M532.4,265.3l0.4,0.4l5.7-5.7l-0.4-0.4L532.4,265.3l0.4,0.4L532.4,265.3 M532.8,265.7l5.7-5.7L532.8,265.7
			 M538.5,259.9l-0.4-0.4L538.5,259.9 M538.1,259.5l-5.7,5.7L538.1,259.5 M504.5,210.4h-1.4 M503.1,184.1v18h1.4v-18"/>
		<path class="st9" d="M502.9,210.4l-5.7-5.5l6.1,5.3L502.9,210.4L502.9,210.4z M497.1,204.8l6.1,5.3l-5.9-5.7L497.1,204.8
			L497.1,204.8z"/>
		<path class="st10" d="M502.9,210.4l-5.7-5.5l6.1,5.3L502.9,210.4L502.9,210.4z M497.1,204.8l6.1,5.3l-5.9-5.7L497.1,204.8
			L497.1,204.8z"/>
		<path class="st8" d="M502.9,210.4l0.4-0.2l-5.9-5.7l-0.2,0.4L502.9,210.4l0.4-0.2L502.9,210.4 M503.3,210.2l-5.9-5.7L503.3,210.2
			 M497.4,204.4l-0.2,0.4L497.4,204.4 M497.1,204.8l5.7,5.5L497.1,204.8"/>
		<path class="st9" d="M528.5,265.7l-5.7-5.7l5.9,5.3L528.5,265.7L528.5,265.7z M522.8,259.9l5.9,5.3l-5.7-5.7L522.8,259.9
			L522.8,259.9z"/>
		<path class="st10" d="M528.5,265.7l-5.7-5.7l5.9,5.3L528.5,265.7L528.5,265.7z M522.8,259.9l5.9,5.3l-5.7-5.7L522.8,259.9
			L522.8,259.9z"/>
		<path class="st8" d="M528.5,265.7l0.2-0.4l-5.7-5.7l-0.2,0.4L528.5,265.7l0.2-0.4L528.5,265.7 M528.7,265.3l-5.7-5.7L528.7,265.3
			 M523,259.5l-0.2,0.4L523,259.5 M522.8,259.9l5.7,5.7L522.8,259.9"/>
		<path class="st9" d="M579.5,264l-5.7-5.7l6.1,5.5L579.5,264L579.5,264z M573.8,258.3l6.1,5.5l-5.7-5.7L573.8,258.3L573.8,258.3z"
			/>
		<path class="st10" d="M579.5,264l-5.7-5.7l6.1,5.5L579.5,264L579.5,264z M573.8,258.3l6.1,5.5l-5.7-5.7L573.8,258.3L573.8,258.3z"
			/>
		<path class="st8" d="M579.5,264l0.4-0.2l-5.7-5.7l-0.4,0.2L579.5,264l0.4-0.2L579.5,264 M579.9,263.8l-5.7-5.7L579.9,263.8
			 M574.2,258.1l-0.4,0.2L574.2,258.1 M573.8,258.3l5.7,5.7L573.8,258.3 M562.7,99.7v-5.5h7.6 M562.7,99.7h7.6v-5.5 M203.3,15.9
			h59.4h1v14.8h-2.7v-1.8h-56.5h5.7 M216.3,39.9h28.1v5.5h-28.1V39.9 M204.6,28.6h-2.7v-2.7h2.7v33.2 M216.9,40.5h26.8 M243.7,40.5
			v4.3h-26.8v-4.3 M261.9,26.9h-15.8 M203.3,17.5h58.6v9.4 M243.5,26.9h-38.9 M227.1,59.1v-6.4 M229.8,39.9V28.8 M232.4,39.9V28.8
			 M235.3,39.9V28.8 M238,39.9V28.8 M240.6,39.9V28.8 M243.3,39.9V28.8 M224.4,59.1v-7 M221.8,52.8v-7.4 M218.9,55.8V45.4
			 M216.3,59.1l5.5-6.4l3.9,1l-3.7-4.7h2.9l3.3-3.7 M218.9,39.9V28.8 M221.8,39.9V28.8 M224.4,39.9V28.8 M227.1,39.9V28.8
			 M224.4,49.1v-3.7 M227.1,46.4v-1 M233.5,61.8h-30.5 M263.8,61v2.7 M261.9,57.9V38.6h1.8v19.3 M202.9,28.6v31.1 M201.9,25.9h-35
			 M166.9,59.7h4.1h32 M166.9,25.9v2.5 M166.9,63.8h4.1 M201.9,26.9h-34v1.4h-1 M167.9,59.7V36.4h-1v27.5 M175.9,60.8h27v1"/>
		<path class="st9" d="M168.1,28.2l5.7,5.7l-6.1-5.5L168.1,28.2L168.1,28.2z M173.8,33.9l-6.1-5.5l5.7,5.7L173.8,33.9L173.8,33.9z"
			/>
		<path class="st10" d="M168.1,28.2l5.7,5.7l-6.1-5.5L168.1,28.2L168.1,28.2z M173.8,33.9l-6.1-5.5l5.7,5.7L173.8,33.9L173.8,33.9z"
			/>
		<path class="st8" d="M168.1,28.2l-0.4,0.2l5.7,5.7l0.4-0.2L168.1,28.2l-0.4,0.2L168.1,28.2 M167.7,28.4l5.7,5.7L167.7,28.4
			 M173.4,34.1l0.4-0.2L173.4,34.1 M173.8,33.9l-5.7-5.7L173.8,33.9 M203.3,25.9v-8.4 M203.3,15.9V2.8"/>
		<path class="st8" d="M8.9,118.3c-0.2,0.4,0,0.8,0,1c0.2,0.4,0.6,0.6,0.8,0.8 M9.7,120.2c0.8,0.2,1.4-0.2,1.6-1 M15.7,108.1
			c0.2-0.6,0-1.4-0.8-1.6 M14.9,106.5c-0.2-0.2-0.6-0.2-1,0c-0.2,0-0.4,0.2-0.6,0.6 M24.3,88.6c0.6,0.4,1.4,0.2,1.8-0.4 M23.9,86.8
			c-0.2,0.4-0.4,0.8-0.2,1c0,0.4,0.2,0.6,0.6,0.8 M32.7,78.6c0.6-0.6,0.4-1.4-0.2-1.8 M32.5,76.7c-0.2-0.2-0.6-0.4-1-0.4
			c-0.2,0.2-0.6,0.2-0.8,0.6 M32.9,78.6c-2.5,3.1-4.7,6.4-6.8,9.6 M32.5,76.7L32.5,76.7 M30.6,76.9c-2.5,3.1-4.7,6.6-6.8,9.8
			 M24.3,88.8L24.3,88.8 M9.7,120.2L9.7,120.2 M15.7,108.1c-1.6,3.7-3.1,7.4-4.3,11.1 M14.9,106.5L14.9,106.5 M13.2,107.1
			c-1.6,3.7-3.1,7.4-4.3,11.3 M3.2,154c0.8,0,1.4-0.4,1.4-1.2 M6,140.9c0.2-0.6-0.4-1.2-1-1.4 M5,188.4c0.6,0,1.2-0.8,1-1.4
			 M4.8,175.3c-0.2-0.8-0.8-1.2-1.4-1.2 M15.1,221.6c0.6-0.4,1-1.2,0.6-1.8 M11.6,208.7c-0.2-0.6-1-1-1.6-0.8 M13.2,220.8
			c0.2,0.4,0.4,0.6,0.8,0.8c0.4,0,0.6,0,1,0 M9.9,207.9c-0.4,0.2-0.6,0.4-0.8,0.8c-0.2,0.2-0.2,0.6,0,1 M3.4,187.4
			c0.2,0.4,0.4,0.6,0.6,0.8c0.2,0.2,0.6,0.4,1,0.2 M3.4,174.1c-0.4,0-0.8,0.2-1,0.4c-0.2,0.2-0.4,0.6-0.2,1 M1.9,152.6
			c0,0.4,0.2,0.6,0.4,1c0.2,0.2,0.4,0.4,0.8,0.4 M5,139.5c-0.4,0-0.8,0-1,0.2c-0.2,0.2-0.4,0.6-0.6,0.8 M15.1,221.6L15.1,221.6
			 M8.9,209.5c1.4,3.9,2.9,7.6,4.3,11.3 M11.6,208.7c1.2,3.9,2.7,7.6,4.1,11.1 M9.9,207.9L9.9,207.9 M5,139.5L5,139.5 M3.4,140.7
			c-0.6,3.9-1,7.8-1.4,11.9 M6,141.1c-0.6,3.9-1,7.8-1.4,11.7 M3.2,154L3.2,154 M3.2,174.1L3.2,174.1 M5,188.4L5,188.4 M4.6,175.3
			C5,179.2,5.4,183.1,6,187 M1.9,175.5c0.4,3.9,0.8,8,1.6,11.9 M24.3,239.3c-0.2,0.2-0.4,0.4-0.6,0.8c0,0.4,0,0.8,0.2,1 M26.1,239.7
			c-0.4-0.6-1.2-0.8-1.8-0.4 M32.7,251.3c0.6-0.4,0.6-1.2,0.2-1.8 M30.8,251.1c0.2,0.2,0.4,0.4,0.8,0.4c0.4,0,0.6,0,1-0.2
			 M32.7,251.3L32.7,251.3 M23.9,241.1c2.3,3.5,4.5,6.8,7,9.8 M24.3,239.5L24.3,239.5 M26.1,239.7c2.3,3.3,4.5,6.6,6.8,9.8
			 M35.3,77.4c-4.1-3.5-4.1-3.5-4.1-3.5 M25.7,91.3c-4.5-2.9-4.5-2.9-4.5-2.9 M17.9,106.3c-4.9-2-4.9-2-4.9-2 M12,122.2
			c-5.1-1.6-5.1-1.6-5.1-1.6 M2.6,137.8c5.3,0.8,5.3,0.8,5.3,0.8 M5.8,155.6c-5.5-0.4-5.5-0.4-5.5-0.4 M5.8,172.7
			c-5.5,0.2-5.5,0.2-5.5,0.2 M7.9,189.5c-5.3,1-5.3,1-5.3,1 M12,205.8c-5.1,1.6-5.1,1.6-5.1,1.6 M17.9,221.8c-4.9,2-4.9,2-4.9,2
			 M25.9,236.8c-4.5,2.9-4.5,2.9-4.5,2.9 M31.4,254.2c4.1-3.5,4.1-3.5,4.1-3.5 M21.4,239.5c3.1,5.1,6.4,10,10,14.6 M25.9,236.8
			c3.1,4.7,6.1,9.4,9.6,13.9 M6.9,207.5c1.8,5.5,3.9,11.1,6.4,16.4 M12,205.8c1.6,5.3,3.7,10.7,6.1,15.8 M0.5,172.9
			c0.4,5.7,1,11.7,2,17.4 M5.8,172.4c0.4,5.7,1,11.3,2,16.8 M2.6,137.6c-1,5.9-1.8,11.7-2,17.6 M7.9,138.6c-1,5.5-1.6,11.3-2,16.8
			 M17.9,106.3c-2.3,5.1-4.3,10.5-5.9,16 M13,104c-2.5,5.3-4.5,10.9-6.1,16.6 M35.5,77.2c-3.5,4.5-6.8,9.2-9.6,14.1 M31.2,73.9
			c-3.7,4.7-7,9.4-10,14.5"/>
		<path class="st9" d="M168.7,275.3l-7.6-7.6l8,7.4L168.7,275.3L168.7,275.3z M161.1,267.7l8,7.4l-7.6-7.8L161.1,267.7L161.1,267.7z
			"/>
		<path class="st10" d="M168.7,275.3l-7.6-7.6l8,7.4L168.7,275.3L168.7,275.3z M161.1,267.7l8,7.4l-7.6-7.8L161.1,267.7L161.1,267.7
			z"/>
		<path class="st8" d="M168.7,275.3l0.4-0.2l-7.6-7.8l-0.4,0.4L168.7,275.3l0.4-0.2L168.7,275.3 M169.1,275.1l-7.6-7.8L169.1,275.1
			 M161.6,267.3l-0.4,0.4L161.6,267.3 M161.1,267.7l7.6,7.6L161.1,267.7"/>
		<path class="st9" d="M147.2,275.1l7.8-7.8l-7.4,8L147.2,275.1L147.2,275.1z M155,267.3l-7.4,8l7.6-7.6L155,267.3L155,267.3z"/>
		<path class="st10" d="M147.2,275.1l7.8-7.8l-7.4,8L147.2,275.1L147.2,275.1z M155,267.3l-7.4,8l7.6-7.6L155,267.3L155,267.3z"/>
		<path class="st8" d="M147.2,275.1l0.4,0.2l7.6-7.6l-0.2-0.4L147.2,275.1l0.4,0.2L147.2,275.1 M147.6,275.3l7.6-7.6L147.6,275.3
			 M155.2,267.7l-0.2-0.4L155.2,267.7 M155,267.3l-7.8,7.8L155,267.3"/>
		<path class="st9" d="M143.1,275.3l-7.6-7.6l8,7.4L143.1,275.3L143.1,275.3z M135.5,267.7l8,7.4l-7.6-7.8L135.5,267.7L135.5,267.7z
			"/>
		<path class="st10" d="M143.1,275.3l-7.6-7.6l8,7.4L143.1,275.3L143.1,275.3z M135.5,267.7l8,7.4l-7.6-7.8L135.5,267.7L135.5,267.7
			z"/>
		<path class="st8" d="M143.1,275.3l0.4-0.2l-7.6-7.8l-0.4,0.4L143.1,275.3l0.4-0.2L143.1,275.3 M143.5,275.1l-7.6-7.8L143.5,275.1
			 M135.9,267.3l-0.4,0.4L135.9,267.3 M135.5,267.7l7.6,7.6L135.5,267.7"/>
		<path class="st9" d="M121.6,275.1l7.8-7.8l-7.4,8L121.6,275.1L121.6,275.1z M129.4,267.3l-7.4,8l7.6-7.6L129.4,267.3L129.4,267.3z
			"/>
		<path class="st10" d="M121.6,275.1l7.8-7.8l-7.4,8L121.6,275.1L121.6,275.1z M129.4,267.3l-7.4,8l7.6-7.6L129.4,267.3L129.4,267.3
			z"/>
		<path class="st8" d="M121.6,275.1l0.4,0.2l7.6-7.6l-0.2-0.4L121.6,275.1l0.4,0.2L121.6,275.1 M122,275.3l7.6-7.6L122,275.3
			 M129.6,267.7l-0.2-0.4L129.6,267.7 M129.4,267.3l-7.8,7.8L129.4,267.3 M120.6,275.1h1.2 M118.1,266.9v9.6 M171.6,275.1h7
			 M170.2,262.8h-1.2 M178.6,261.8v-28.3 M171.6,262.8v12.3 M168.9,275.1v1.4 M121.8,263v-1.2 M146,275.1h1.4 M143.3,275.1v1.4
			 M146,263h1.4v-1.2 M143.3,275.1h1.4 M168.9,275.1h1.2v-12.3 M121.8,263h-1.2v12.1 M144.7,263v12.1 M146,275.1V263 M143.3,263h1.4
			 M168.9,261.8v1 M143.3,276.5h4.1v-1.4 M168.9,276.5h4.3 M143.3,263v-1.2h4.1 M46.6,64.7l49.8,49.8 M54.4,68.5l21.1,21.1"/>
		<path class="st11" d="M146,163.8h0.2 M146,164v-0.2"/>
		<path class="st8" d="M107.7,223.3L107.7,223.3 M101.7,230.9L101.7,230.9 M106.6,222.7L106.6,222.7 M100.3,230.9L100.3,230.9
			 M90.7,223.1L90.7,223.1 M99.1,230.9L99.1,230.9 M89.8,223.9L89.8,223.9 M97.4,230.9L97.4,230.9"/>
		<path class="st9" d="M96.6,261.6l-5.7-5.7l5.9,5.3L96.6,261.6L96.6,261.6z M90.9,255.9l5.9,5.3l-5.7-5.7L90.9,255.9L90.9,255.9z"
			/>
		<path class="st10" d="M96.6,261.6l-5.7-5.7l5.9,5.3L96.6,261.6L96.6,261.6z M90.9,255.9l5.9,5.3l-5.7-5.7L90.9,255.9L90.9,255.9z"
			/>
		<path class="st8" d="M96.6,261.6l0.2-0.4l-5.7-5.7l-0.2,0.4L96.6,261.6l0.2-0.4L96.6,261.6 M96.8,261.2l-5.7-5.7L96.8,261.2
			 M91.1,255.4l-0.2,0.4L91.1,255.4 M90.9,255.9l5.7,5.7L90.9,255.9 M113,262.6H96.6 M97.4,230.9h15.4 M97.4,261.4v-27.9 M98,215.9
			l-44.9,44.9 M121.8,261.8h-6.1 M178.6,262.8h-7 M118.1,276.5h3.7 M178.6,261.8h-9.6 M121.8,276.5v-1.4"/>
		<path class="st9" d="M249.2,144.4l-4.9,4.9l5.3-4.5L249.2,144.4L249.2,144.4z M244.3,149.3l5.3-4.5l-5.1,4.9L244.3,149.3
			L244.3,149.3z"/>
		<path class="st10" d="M249.2,144.4l-4.9,4.9l5.3-4.5L249.2,144.4L249.2,144.4z M244.3,149.3l5.3-4.5l-5.1,4.9L244.3,149.3
			L244.3,149.3z"/>
		<path class="st8" d="M249.2,144.4l0.4,0.4l-5.1,4.9l-0.2-0.4L249.2,144.4l0.4,0.4L249.2,144.4 M249.6,144.8l-5.1,4.9L249.6,144.8
			 M244.5,149.7l-0.2-0.4L244.5,149.7 M244.3,149.3l4.9-4.9L244.3,149.3"/>
		<path class="st9" d="M249.2,160.2l-5.1-5.1l5.3,4.7L249.2,160.2L249.2,160.2z M244.1,155l5.3,4.7l-4.9-4.9L244.1,155L244.1,155z"
			/>
		<path class="st10" d="M249.2,160.2l-5.1-5.1l5.3,4.7L249.2,160.2L249.2,160.2z M244.1,155l5.3,4.7l-4.9-4.9L244.1,155L244.1,155z"
			/>
		<path class="st8" d="M249.2,160.2l0.2-0.4l-4.9-4.9l-0.4,0.2L249.2,160.2l0.2-0.4L249.2,160.2 M249.4,159.7l-4.9-4.9L249.4,159.7
			 M244.5,154.8l-0.4,0.2L244.5,154.8 M244.1,155l5.1,5.1L244.1,155"/>
		<path class="st9" d="M249.2,165.1l-4.9,4.9l5.3-4.5L249.2,165.1L249.2,165.1z M244.3,170l5.3-4.5l-5.1,4.9L244.3,170L244.3,170z"
			/>
		<path class="st10" d="M249.2,165.1l-4.9,4.9l5.3-4.5L249.2,165.1L249.2,165.1z M244.3,170l5.3-4.5l-5.1,4.9L244.3,170L244.3,170z"
			/>
		<path class="st8" d="M249.2,165.1l0.4,0.4l-5.1,4.9l-0.2-0.4L249.2,165.1l0.4,0.4L249.2,165.1 M249.6,165.5l-5.1,4.9L249.6,165.5
			 M244.5,170.4l-0.2-0.4L244.5,170.4 M244.3,170l4.9-4.9L244.3,170"/>
		<path class="st9" d="M249.2,180l-5.1-4.9l5.3,4.7L249.2,180L249.2,180z M244.1,175.1l5.3,4.7l-4.9-5.1L244.1,175.1L244.1,175.1z"
			/>
		<path class="st10" d="M249.2,180l-5.1-4.9l5.3,4.7L249.2,180L249.2,180z M244.1,175.1l5.3,4.7l-4.9-5.1L244.1,175.1L244.1,175.1z"
			/>
		<path class="st8" d="M249.2,180l0.2-0.2l-4.9-5.1l-0.4,0.4L249.2,180l0.2-0.2L249.2,180 M249.4,179.8l-4.9-5.1L249.4,179.8
			 M244.5,174.7l-0.4,0.4L244.5,174.7 M244.1,175.1l5.1,4.9L244.1,175.1 M249.4,144.4v-1.2 M250.3,144.4v-1.2 M250.3,165.3v-5.3
			 M249.4,165.3v-0.8 M250.3,144.4h-0.8 M249.4,180h0.8 M249.4,160.8v-0.8 M240.4,160.8v-0.8 M249.4,165.3h0.8 M249.4,159.9h0.8
			 M240.4,165.3v-0.8h9 M249.4,180.8V180 M240.4,160.8h9 M239.6,159.9v5.3h0.8 M250.3,180.8V180 M239.6,159.9h0.8 M240.8,182.3v-1.4
			 M250.3,182.3v-1.4 M178.6,275.1v-12.3 M190.6,259.3h6.6 M179.8,264l6.4-5.9l5.1,2.3l-3.3-5.7l1.4,0.2l7.8-7.4 M196.2,248.5h1
			 M193.3,251.1h3.9 M190.4,253.8h6.8 M189.2,256.5h8 M184.7,259.3h4.1 M179.8,262h17.4 M179.8,264.5h17.4 M200.3,230.6h17.2
			 M200.3,233.5h17.2 M200.3,236.2h17.2 M200.3,238.8h17.2 M200.3,241.5h17.2 M200.3,244.2h17.2 M200.3,247h17.2 M200.3,249.7h17.2
			 M200.3,252.2h17.2 M200.3,255h17.2 M200.3,257.7h17.2 M200.3,260.4h17.2 M200.3,263h17.2 M200.3,265.7h17.2 M199.7,230v35h-1.8
			v-35 M200.3,230v35.7h-3.1V230 M252.5,240.7h-1V238h1v-50.2 M239.8,223.1h10.4 M239.8,225.7h10.4 M239.8,228.4h10.4 M239.8,231.1
			h10.4 M239.8,233.7h8.8 M239.8,236.6h3.7 M239.8,239.3h5.7 M239.8,241.9h1.6 M239.8,243.8l3.5-3.9l4.1,1.8l-5.3-7l4.3,1.4l3.9-4.3
			 M250.3,199.1v-15.4"/>
		<path class="st9" d="M225.9,203.4l5.7,5.7l-5.9-5.3L225.9,203.4L225.9,203.4z M231.6,209.1l-5.9-5.3l5.5,5.7L231.6,209.1
			L231.6,209.1z"/>
		<path class="st10" d="M225.9,203.4l5.7,5.7l-5.9-5.3L225.9,203.4L225.9,203.4z M231.6,209.1l-5.9-5.3l5.5,5.7L231.6,209.1
			L231.6,209.1z"/>
		<path class="st8" d="M225.9,203.4l-0.2,0.4l5.5,5.7l0.4-0.4L225.9,203.4l-0.2,0.4L225.9,203.4 M225.7,203.8l5.5,5.7L225.7,203.8
			 M231.2,209.5l0.4-0.4L231.2,209.5 M231.6,209.1l-5.7-5.7L231.6,209.1 M240.8,199.1v-1.8 M224.2,202.6v-21.7 M233.9,203.6h5.7
			 M233.9,203.6v-1h5.7 M225.9,202.6v1 M240.8,199.1h9.4 M240.8,200.3h9.4 M239.6,202.6v-5.3 M240.8,202.6v-2.3 M250.3,202.6v-2.3
			 M239.6,203.6h10.7 M240.8,202.6h9.4 M250.3,182.3v-1.4 M240.8,186.4v-2.7 M239.6,186.4v-5.5 M224.2,203.6h1.6 M224.2,202.6h1.6
			 M239.6,197.2h1.2 M239.6,186.4h1.2 M240.8,182.3h9.4 M240.8,183.7h9.4 M217.5,180.8h6.8 M251.5,182.3v5.5h5.5v-5.5 M223,182.3
			h-4.1 M260.3,182.3h-8.8 M261.5,180.8h-21.9 M223,184.9v-2.7 M219.5,254.4h2.7v3.9h-2.7V254.4 M118.1,266.9h-5.3v-4.3
			 M117.5,266.5h-4.1 M117.5,266.5v-4.3h-4.1v4.3 M173.8,276.5v5.3 M173.8,281.9h5.3v-5.3h-5.3 M223,275.9h-4.1 M173.2,276.5v28.9
			 M179.8,277.2v5.3h-5.3 M173.8,227.6v5.3 M173.8,232.9h5.3v-5.3h-5.3 M173.8,227h-0.6v6.6h6.6 M224.2,277.2H190 M217.5,275.9
			v-95.1 M218.9,275.9v-93.7 M223,300.1L223,300.1 M224.2,277.2v-4.5 M188.6,277.2L188.6,277.2 M188.6,304L188.6,304 M190,304
			L190,304 M190,277.2h-10.2 M217.5,275.9h-37.7 M252.5,268.6l-28.3-0.2 M250.3,267.1h-26 M219.5,223.5v-4.1h2.7v4.1H219.5
			 M179.8,275.9v-50.6 M182.7,258.7h-2.9 M187.4,256.1h-7.6 M188.4,253.4h-0.8 M191.1,250.7h-11.3 M193.9,248.1h-14.1 M197.2,245.4
			h-17.4 M197.2,242.5h-17.4 M197.2,239.9h-17.4 M197.2,237.2h-17.4 M197.2,234.5h-17.4 M197.2,231.9h-17.4 M179.8,261.6l5.7-5.5
			l2.7,1.4l-3.3-6.1l3.1,2.5l8.8-8.4 M185.9,253.4h-6.1 M219.9,188.6h2.9v4.1h-2.9V188.6 M250.3,267.1v-63.5 M261.5,305.4v-25
			 M252.5,268.6v-27.9 M235.9,250.3v-31.1 M239.8,251.5h-4.7 M239.2,250.3h-3.3 M235.1,251.5v-33.2 M224.2,267.1v-63.5 M239.2,250.3
			v-31.1 M239.8,251.5v-33.2 M239.2,219.2h-3.3 M239.8,218.3h-4.7 M224.2,251.5h10.9 M239.8,251.5h10.4 M224.2,248.7h10.9
			 M224.2,246h10.9 M224.2,243.4h10.9 M224.2,240.7h10.9 M224.2,238h10.9 M224.2,235.2h10.9 M224.2,232.5h10.9 M224.2,230h10.9
			 M224.2,227.2h10.9 M242.3,248.7h3.5 M244.9,246h5.3 M247,243.4h3.3 M249.4,240.7h0.8 M239.8,251.3l3.5-3.9l4.1,2l-5.3-7.2
			l4.3,1.6l3.9-4.3 M246.8,248.7h3.5 M260.3,304v-22.1 M255.4,238h-2.9 M255.4,240.7h-2.9 M261.5,305.4h-24.6 M174.5,282.5V304
			 M190,277.2L190,277.2 M188.6,304h-14.1 M223,275.9v-91 M224.2,277.2L224.2,277.2 M260.3,304h-10.7 M226.3,305.4v-5.3H221v5.3
			 M221,304h-2.7v1.4 M210.3,304v1.4 M236.9,304v1.4 M229,305.4V304 M210.3,304h-21.7 M210.3,305.4h-37.1 M229,304h-2.7 M229,305.4
			h-10.7"/>
		<path class="st9" d="M228.8,304v-8l0.4,8H228.8L228.8,304z M228.8,296l0.4,8v-8H228.8L228.8,296z"/>
		<path class="st10" d="M228.8,304v-8l0.4,8H228.8L228.8,304z M228.8,296l0.4,8v-8H228.8L228.8,296z"/>
		<path class="st8" d="M228.8,304h0.4v-8h-0.4V304h0.4H228.8 M229.2,304v-8V304 M229.2,296h-0.4H229.2 M228.8,296v8V296"/>
		<path class="st9" d="M218.1,304v-8l0.4,8H218.1L218.1,304z M218.1,296l0.4,8v-8H218.1L218.1,296z"/>
		<path class="st10" d="M218.1,304v-8l0.4,8H218.1L218.1,304z M218.1,296l0.4,8v-8H218.1L218.1,296z"/>
		<path class="st8" d="M218.1,304h0.4v-8h-0.4V304h0.4H218.1 M218.5,304v-8V304 M218.5,296h-0.4H218.5 M218.1,296v8V296
			 M113.4,228.6v4.1 M113.4,232.7h4.1v-4.1h-4.1 M115.7,228.2h-2.9v2.7 M118.1,227.6v5.7h-2.5 M113,259.9h-12.9 M97.4,259.9v-29.1
			 M100.1,259.9v-26.4H113 M115.7,227.8v0.4 M113,233.5v2.3h2.7 M115.7,261.8v-16.6H113v14.8 M100.1,233.5l12.9,26.4 M100.1,259.9
			l12.9-26.4 M110.1,192.3l2.3,2.7l2.7,2.7l2.7,2.3 M113.8,188.4l-3.7,3.9 M117.7,199.9l3.9-3.9 M113.8,188.4l2.5,2.9l2.5,2.5
			l2.7,2.3 M110.7,192.3l3.3,3.7l3.7,3.3 M110.7,192.3l3.1-3.1l3.3,3.7l3.7,3.3l-3.1,3.1 M117.7,128.6l3.1,3.1 M120.8,131.7
			l-3.7,3.3l-3.3,3.7l-3.1-3.1l3.3-3.7l3.7-3.3 M121.4,131.7l-2.7,2.5l-2.5,2.5l-2.5,2.7 M117.7,128l3.9,3.7 M113.8,139.2l-3.7-3.7
			 M117.7,128l-2.7,2.3l-2.7,2.7l-2.3,2.7 M174.5,199.3l-3.1-3.1 M171.4,196.2l3.5-3.3l3.5-3.7l3.1,3.1l-3.3,3.7l-3.7,3.3
			 M170.6,196l2.9-2.3l2.5-2.5l2.3-2.9 M174.5,199.9l-3.9-3.9 M178.1,188.4l3.9,3.9 M174.5,199.9l2.7-2.3l2.5-2.7l2.5-2.7
			 M182,135.6l-2.5-2.7l-2.5-2.7l-2.7-2.3 M178.1,139.2l3.9-3.7 M174.5,128l-3.9,3.7 M178.1,139.2l-2.3-2.7l-2.5-2.5l-2.9-2.5
			 M181.4,135.6l-3.3-3.7l-3.7-3.3 M181.4,135.6l-3.1,3.1l-3.5-3.7l-3.5-3.3l3.1-3.1 M51.1,191.7v5.1h5.1v-5.1H51.1 M55.6,196.4
			h-4.1 M55.6,196.4v-4.1h-4.1v4.1 M51.5,131.3v4.1 M51.5,135.4h4.1v-4.1h-4.1 M56.2,130.6h-5.1v5.3h5.1V130.6 M255.4,238v2.7
			 M261.9,143.1v-35.5 M260.3,99.7h1.6 M261.9,107.7h-1.6 M260.9,97.6h1 M260.3,99.7v-2 M261.9,99.7v-2"/>
		<path class="st9" d="M260.3,99.9l-5.7,5.7l5.5-6.1L260.3,99.9L260.3,99.9z M254.6,105.6l5.5-6.1l-5.7,5.7L254.6,105.6L254.6,105.6
			z"/>
		<path class="st10" d="M260.3,99.9l-5.7,5.7l5.5-6.1L260.3,99.9L260.3,99.9z M254.6,105.6l5.5-6.1l-5.7,5.7L254.6,105.6
			L254.6,105.6z"/>
		<path class="st8" d="M260.3,99.9l-0.2-0.4l-5.7,5.7l0.2,0.4L260.3,99.9l-0.2-0.4L260.3,99.9 M260.1,99.5l-5.7,5.7L260.1,99.5
			 M254.4,105.2l0.2,0.4L254.4,105.2 M254.6,105.6l5.7-5.7L254.6,105.6 M233.5,93.8v21.5h26.8 M234.5,93.8v20.5h25.8v-6.6
			 M261.9,143.1h-11.7 M260.3,115.3v26.4h-22.1 M249.4,143.1h-9.8v1.2h-26.2 M214,143.1h24.2v-1.4 M186.5,163.8l-0.2-3.9l-0.6-3.9
			l-1-3.9l-1.2-3.7l-1.6-3.7l-2.3-3.3l-2.3-3.3l-2.7-2.9l-2.9-2.7l-3.3-2.5l-3.5-1.8l-3.5-1.8l-3.9-1.2l-3.7-1l-3.9-0.6l-4.1-0.2
			l-3.9,0.2l-3.9,0.6l-3.9,1l-3.7,1.2l-3.7,1.8l-3.3,1.8l-3.3,2.5l-2.9,2.7l-2.7,2.9l-2.5,3.3l-1.8,3.3l-1.8,3.7l-1.2,3.7l-1,3.9
			l-0.6,3.9l-0.2,3.9l0.2,4.1l0.6,3.9l1,3.9l1.2,3.7l1.8,3.7l1.8,3.3l2.5,3.3l2.7,2.9l2.9,2.7l3.3,2.5l3.3,2l3.7,1.6l3.7,1.2l3.9,1
			l3.9,0.6l3.9,0.2l4.1-0.2l3.9-0.6l3.7-1l3.9-1.2l3.5-1.6l3.5-2l3.3-2.5l2.9-2.7l2.7-2.9l2.3-3.3l2.3-3.3l1.6-3.7l1.2-3.7l1-3.9
			l0.6-3.9L186.5,163.8 M120,197l3.1,2.5l3.5,1.8l3.7,1.6l3.9,1.4l3.7,1l4.1,0.4l3.9,0.2h4.1l3.9-0.6l3.9-0.8l3.9-1.4l3.5-1.6
			l3.5-1.8l3.3-2.3 M112.6,138.2l-2.3,3.3l-2,3.3l-1.4,3.7l-1.2,3.7l-1,3.9l-0.6,3.9l-0.2,3.9l0.2,4.1l0.6,3.9l1,3.9l1.2,3.7
			l1.4,3.7l2,3.5l2.3,3.3 M172.2,130.8l-3.3-2.5l-3.5-1.8l-3.5-1.8l-3.9-1.2l-3.9-1l-3.9-0.6h-4.1h-3.9l-3.9,0.6l-3.9,0.8l-3.9,1.2
			l-3.7,1.8l-3.5,1.8l-3.1,2.3 M179.6,189.9l2.3-3.3l1.8-3.5l1.6-3.7l1.2-3.7l1-3.9l0.4-3.9l0.2-4.1l-0.2-3.9l-0.4-3.9l-1-3.9
			l-1.2-3.7l-1.6-3.7l-1.8-3.3l-2.3-3.3 M214,143.1l-1.6-5.1l-2-4.9l-2.7-4.7l-2.9-4.5l-3.1-4.5l-3.5-3.9l-3.9-3.9l-4.1-3.5
			l-4.3-3.1l-4.5-2.9l-4.7-2.5l-4.9-2.3l-5.1-1.6l-5.3-1.4l-5.1-0.8 M96.8,213.2l3.9,3.5l3.9,3.3l4.3,2.9l4.5,2.5l4.7,2.3 M97,214.9
			l4.7,4.1l4.9,3.7 M115.7,233.3v2.5 M213.4,144.4l-1.6-4.7l-1.8-4.7l-2.3-4.5l-2.7-4.3l-2.9-4.3l-3.3-3.9l-3.5-3.7l-3.7-3.5
			l-4.1-3.3l-4.1-2.9l-4.3-2.5l-4.5-2.3l-4.9-1.8l-4.9-1.6l-4.9-1.2l-4.9-0.6 M173.2,227l2.3-0.2l2.3-0.6l2-0.8 M97,214.9
			l-45.7,45.9 M96.8,213.2l-50.2,50 M106.6,222.7l4.9,3.1l4.1,2 M76.7,90.7l-1,1L95.2,111 M74.7,92.5l-4.3,4.7l-3.9,4.9l-3.9,5.1
			l-3.3,5.3l-3.1,5.5l-2.7,5.7l-2.3,5.9l-2,5.9l-1.6,6.1l-1,6.4l-0.8,6.1l-0.4,6.4v6.4l0.4,6.4l0.8,6.1l1,6.4l1.6,6.1l2,5.9l2.3,5.9
			l2.7,5.7l3.1,5.5l3.3,5.3l3.9,5.1l3.9,4.9l4.3,4.5 M74.1,91.9l-4.3,4.5l-3.9,4.7l-3.7,4.9l-3.3,5.3l-2.9,5.3l-2.9,5.3l-2.3,5.7
			l-2,5.9l-1.6,5.7l-1.2,6.1l-1,5.9l-0.6,6.4v5.9v6.4l0.6,5.9l1,6.1l1.2,5.9l1.6,5.9l2,5.9l2.3,5.5l2.9,5.5l2.9,5.3l3.3,5.3l3.7,4.9
			l3.9,4.7l4.3,4.5 M74.5,92.3L70,97l-3.9,4.9l-3.9,5.1l-3.3,5.3l-3.1,5.5l-2.7,5.7l-2.5,5.9l-1.8,6.1l-1.6,5.9l-1.2,6.4l-0.8,6.4
			l-0.4,6.4v6.4l0.4,6.4l0.8,6.4l1.2,6.1l1.6,6.1l1.8,6.1l2.5,5.9l2.7,5.7l3.1,5.5l3.3,5.3l3.9,5.1l3.9,4.9l4.5,4.7"/>
		<path class="st11" d="M71,95.8h0.2 M71,96v-0.2 M67.7,99.7h0.2 M67.7,99.7L67.7,99.7 M64.6,103.6h0.2 M64.6,103.8v-0.4
			 M61.8,107.7H62 M61.8,107.7v-0.2 M59.1,112h0.2 M59.1,112v-0.2 M56.7,116.3h0.2 M56.7,116.3v-0.2 M54.4,120.6h0.2 M54.4,120.8
			v-0.2 M52.3,125.1h0.2 M52.3,125.3v-0.2 M50.5,129.8h0.2 M50.7,129.8v-0.2 M49.1,134.5h0.2 M49.1,134.5v-0.2 M47.6,139.2h0.2
			 M47.8,139.5v-0.2 M46.6,144.2h0.2 M46.8,144.2V144 M45.8,149.1H46 M45.8,149.1v-0.2 M45.2,154h0.2 M45.2,154v-0.2 M44.8,158.9H45
			 M44.8,159.1v-0.4 M44.6,163.8h0.2 M44.8,164v-0.2 M44.8,169H45 M44.8,169v-0.2 M45.2,173.9h0.2 M45.2,173.9v-0.2 M45.8,178.8H46
			 M45.8,178.8v-0.2 M46.6,183.7h0.2 M46.8,183.7v-0.2 M47.6,188.4h0.2 M47.8,188.6v-0.2 M49.1,193.3h0.2 M49.1,193.3v-0.2
			 M50.5,198.1h0.2 M50.7,198.1L50.7,198.1 M52.3,202.8h0.2 M52.3,202.8v-0.2 M54.4,207.3h0.2 M54.4,207.5v-0.4 M56.7,211.8h0.2
			 M56.7,211.8v-0.2 M59.1,216.1h0.2 M59.1,216.1v-0.2 M61.8,220.2H62 M61.8,220.2L61.8,220.2 M64.6,224.3h0.2 M64.6,224.5v-0.4
			 M67.7,228.2h0.2 M67.7,228.4V228 M71,232.1h0.2 M71,232.1v-0.2"/>
		<path class="st8" d="M54.4,59.7h-5.1 M116.7,64.7L76.3,90.5 M116.7,63.2L75.5,89.7 M54.4,67.3L76.3,89 M76.3,90.5l0.4,0.2
			 M121.6,59.7h-4.9 M155,94.6v-8 M137.2,86.6v8 M135.9,85.4v8.2 M156.2,93.5v-8.2 M135.9,93.5l-4.5,0.8l-4.5,1 M137.2,94.6
			l-5.1,0.6l-4.9,1.2l-4.9,1.6l-4.7,1.8l-4.5,2.3l-4.5,2.7l-4.3,2.9l-3.9,3.3l-3.9,3.5 M137.2,86.6h0.8 M135.9,85.4h2 M154.2,86.6
			v-1.2 M138,85.4v1.2 M154.2,85.4h2 M154.2,86.6h0.8"/>
		<path class="st9" d="M138.2,86.4l5.7,5.7l-6.1-5.3L138.2,86.4L138.2,86.4z M143.9,92.1l-6.1-5.3l5.7,5.5L143.9,92.1L143.9,92.1z"
			/>
		<path class="st10" d="M138.2,86.4l5.7,5.7l-6.1-5.3L138.2,86.4L138.2,86.4z M143.9,92.1l-6.1-5.3l5.7,5.5L143.9,92.1L143.9,92.1z"
			/>
		<path class="st8" d="M138.2,86.4l-0.4,0.4l5.7,5.5l0.4-0.2L138.2,86.4l-0.4,0.4L138.2,86.4 M137.8,86.8l5.7,5.5L137.8,86.8
			 M143.5,92.3l0.4-0.2L143.5,92.3 M143.9,92.1l-5.7-5.7L143.9,92.1"/>
		<path class="st9" d="M154.4,86.8l-5.7,5.5l5.3-5.9L154.4,86.8L154.4,86.8z M148.6,92.3l5.3-5.9l-5.7,5.7L148.6,92.3L148.6,92.3z"
			/>
		<path class="st10" d="M154.4,86.8l-5.7,5.5l5.3-5.9L154.4,86.8L154.4,86.8z M148.6,92.3l5.3-5.9l-5.7,5.7L148.6,92.3L148.6,92.3z"
			/>
		<path class="st8" d="M154.4,86.8l-0.4-0.4l-5.7,5.7l0.4,0.2L154.4,86.8l-0.4-0.4L154.4,86.8 M154,86.4l-5.7,5.7L154,86.4
			 M148.2,92.1l0.4,0.2L148.2,92.1 M148.6,92.3l5.7-5.5L148.6,92.3 M95,111.2l31.6-18 M125.5,93.8l-3.3-19.1 M126.9,95.4l-3.7-20.7
			 M122,66.3l-1.2,0.2 M122.2,74.7h1 M122,66.3l-0.4-1.6 M120.8,66.5l-0.2-1.8"/>
		<path class="st9" d="M121,66.5l-2.7,7.6l2.3-7.8L121,66.5L121,66.5z M118.3,74.1l2.3-7.8l-2.7,7.6L118.3,74.1L118.3,74.1z"/>
		<path class="st10" d="M121,66.5l-2.7,7.6l2.3-7.8L121,66.5L121,66.5z M118.3,74.1l2.3-7.8l-2.7,7.6L118.3,74.1L118.3,74.1z"/>
		<path class="st8" d="M121,66.5l-0.4-0.2l-2.7,7.6l0.4,0.2L121,66.5l-0.4-0.2L121,66.5 M120.6,66.3l-2.7,7.6L120.6,66.3
			 M117.9,73.9l0.4,0.2L117.9,73.9 M118.3,74.1l2.7-7.6L118.3,74.1 M122.6,76.5l1-0.2 M125.5,87.2l-1.2,0.2 M124.9,87.2L123,76.3
			 M87.2,281.9h-1.2 M96.6,262.6v-1.2 M88.6,261.6v1 M87.2,262.6v11.3 M87.2,283.7H49.3 M85.9,282.5H49.3 M85.9,262.6v2.5
			 M85.9,273.9h1.2 M85.9,281.9v0.6 M87.2,281.9v1.8 M49.3,283.7v34 M97.4,261.4h-0.8 M88.6,262.6h-1.4 M85.9,262.6h-2.5
			 M82.5,261.6L82.5,261.6 M49.3,266.5L49.3,266.5 M55,258.7L55,258.7 M54,265.3h-4.3 M88.6,261.6h-5.9"/>
		<path class="st9" d="M85.7,282.1l-5.7-5.5l6.1,5.3L85.7,282.1L85.7,282.1z M80,276.5l6.1,5.3l-5.7-5.7L80,276.5L80,276.5z"/>
		<path class="st10" d="M85.7,282.1l-5.7-5.5l6.1,5.3L85.7,282.1L85.7,282.1z M80,276.5l6.1,5.3l-5.7-5.7L80,276.5L80,276.5z"/>
		<path class="st8" d="M85.7,282.1l0.4-0.2l-5.7-5.7l-0.4,0.4L85.7,282.1l0.4-0.2L85.7,282.1 M86.2,281.9l-5.7-5.7L86.2,281.9
			 M80.4,276.1l-0.4,0.4L80.4,276.1 M80,276.5l5.7,5.5L80,276.5 M49.3,356.3v62.1 M49.3,323.1v5.9h-2.7 M49.3,345.2h-2.7
			 M64.4,328.8h1.4v-1.4h-1.4V328.8 M64.4,345.4h1.4v1.2h-1.4V345.4 M46.6,345.2v81.2 M49.3,345.2v5.9"/>
		<path class="st9" d="M49.5,328.8l5.7,5.7l-5.9-5.3L49.5,328.8L49.5,328.8z M55.2,334.5l-5.9-5.3l5.5,5.7L55.2,334.5L55.2,334.5z"
			/>
		<path class="st10" d="M49.5,328.8l5.7,5.7l-5.9-5.3L49.5,328.8L49.5,328.8z M55.2,334.5l-5.9-5.3l5.5,5.7L55.2,334.5L55.2,334.5z"
			/>
		<path class="st8" d="M49.5,328.8l-0.2,0.4l5.5,5.7l0.4-0.4L49.5,328.8l-0.2,0.4L49.5,328.8 M49.3,329.2l5.5,5.7L49.3,329.2
			 M54.8,335l0.4-0.4L54.8,335 M55.2,334.5l-5.7-5.7L55.2,334.5"/>
		<path class="st9" d="M49.3,345l5.5-5.7l-5.3,6.1L49.3,345L49.3,345z M54.8,339.3l-5.3,6.1l5.7-5.7L54.8,339.3L54.8,339.3z"/>
		<path class="st10" d="M49.3,345l5.5-5.7l-5.3,6.1L49.3,345L49.3,345z M54.8,339.3l-5.3,6.1l5.7-5.7L54.8,339.3L54.8,339.3z"/>
		<path class="st8" d="M49.3,345l0.2,0.4l5.7-5.7l-0.4-0.4L49.3,345l0.2,0.4L49.3,345 M49.5,345.4l5.7-5.7L49.5,345.4 M55.2,339.7
			l-0.4-0.4L55.2,339.7 M54.8,339.3l-5.5,5.7L54.8,339.3 M62.4,337.6h5.5 M37.8,304.8h8.8 M37.8,369.4h8.8 M257,281.9v-7.8
			 M258.3,280.4v-4.9 M257,274.1h3.3 M258.3,275.5h3.3v-94.7 M258.3,280.4h3.3 M260.3,274.1v-91.8 M83.5,262.6v2.5 M82.7,261.6v4.3
			 M85.9,265.9v8 M82.7,265.9h3.3 M83.5,265.1h2.5 M82.7,261.6L82.7,261.6 M460.5,242.7v-10.9 M327.9,239.7v-5.5h-7.6v5.5H327.9
			 M320.3,183.9h7.6v-5.3h-7.6v78.9 M381,178.6v5.3h7.8v-5.3h-43.4 M441.4,183.9h7.6v-5.3 M460.5,178.6h-27.2 M441.4,178.6v5.3
			 M321.4,266.5h74.4 M320.3,267.5h76.8 M396.6,210.2h-75.2 M395.7,211.6h-43.4 M395.7,210.2L395.7,210.2 M459.2,179.6H449
			 M459.2,201.3v8.8 M441.4,179.6h-8.2 M321.4,183.9v26.2 M321.4,239.7v17.8 M321.4,211.6v22.5 M352.3,211.6L352.3,211.6
			 M351.3,211.6L351.3,211.6 M327.9,238.4L327.9,238.4 M395.7,244.4v-32.8 M337.3,178.6v1 M345.3,179.6v-1 M346.8,178.6v1
			 M337.3,178.6h-17 M337.3,179.6h-9.4"/>
		<path class="st9" d="M337.5,179.4l5.5,5.7l-5.9-5.3L337.5,179.4L337.5,179.4z M343.1,185.2l-5.9-5.3l5.7,5.7L343.1,185.2
			L343.1,185.2z"/>
		<path class="st10" d="M337.5,179.4l5.5,5.7l-5.9-5.3L337.5,179.4L337.5,179.4z M343.1,185.2l-5.9-5.3l5.7,5.7L343.1,185.2
			L343.1,185.2z"/>
		<path class="st8" d="M337.5,179.4l-0.4,0.4l5.7,5.7l0.2-0.4L337.5,179.4l-0.4,0.4L337.5,179.4 M337.1,179.8l5.7,5.7L337.1,179.8
			 M342.9,185.6l0.2-0.4L342.9,185.6 M343.1,185.2l-5.5-5.7L343.1,185.2 M346.8,179H381"/>
		<path class="st11" d="M358,179h0.2 M358.2,179.2V179 M369.5,179h0.2 M369.5,179.2V179"/>
		<path class="st8" d="M433.2,178.6v1 M425.2,179.6v-1 M381,179.6h-35.6 M425.2,178.6h-36.5 M425.2,179.6h-36.5"/>
		<path class="st9" d="M433.6,180l-5.7,5.7l5.3-6.1L433.6,180L433.6,180z M427.9,185.8l5.3-6.1l-5.7,5.7L427.9,185.8L427.9,185.8z"
			/>
		<path class="st10" d="M433.6,180l-5.7,5.7l5.3-6.1L433.6,180L433.6,180z M427.9,185.8l5.3-6.1l-5.7,5.7L427.9,185.8L427.9,185.8z"
			/>
		<path class="st8" d="M433.6,180l-0.4-0.4l-5.7,5.7l0.4,0.4L433.6,180l-0.4-0.4L433.6,180 M433.2,179.6l-5.7,5.7L433.2,179.6
			 M427.5,185.4l0.4,0.4L427.5,185.4 M427.9,185.8l5.7-5.7L427.9,185.8 M424.2,179.6v-1 M389.2,178.6v1 M389.2,179h35 M444.7,183.9
			L444.7,183.9 M445.7,183.9L445.7,183.9 M460.5,201.3h2"/>
		<path class="st8" d="M445.7,184.5h-0.4 M444.9,184.5L444.9,184.5 M444.9,184.5h-0.2 M445.3,184.5L445.3,184.5"/>
		<path class="st8" d="M395.7,244.4h1.4 M397.2,252.4h-1.4 M397.2,244.4v-1.6"/>
		<path class="st9" d="M390.6,246.2l5.5,5.9l-5.7-5.5L390.6,246.2L390.6,246.2z M396.1,252.2l-5.7-5.5l5.3,5.7L396.1,252.2
			L396.1,252.2z"/>
		<path class="st10" d="M390.6,246.2l5.5,5.9l-5.7-5.5L390.6,246.2L390.6,246.2z M396.1,252.2l-5.7-5.5l5.3,5.7L396.1,252.2
			L396.1,252.2z"/>
		<path class="st8" d="M390.6,246.2l-0.2,0.4l5.3,5.7l0.4-0.2L390.6,246.2l-0.2,0.4L390.6,246.2 M390.4,246.6l5.3,5.7L390.4,246.6
			 M395.7,252.4l0.4-0.2L395.7,252.4 M396.1,252.2l-5.5-5.9L396.1,252.2 M327.9,239.7L327.9,239.7 M352.3,211.6h-30.9 M616.8,29
			L616.8,29 M529.9,220.4h-8.8 M529.9,221.8h-8.8 M529.9,220.4v-1 M521.1,220.4V213"/>
		<path class="st9" d="M326.7,259.5l-5.5,5.9l5.9-5.7L326.7,259.5L326.7,259.5z M321.2,265.5l5.9-5.7l-5.5,5.9L321.2,265.5
			L321.2,265.5z"/>
		<path class="st10" d="M326.7,259.5l-5.5,5.9l5.9-5.7L326.7,259.5L326.7,259.5z M321.2,265.5l5.9-5.7l-5.5,5.9L321.2,265.5
			L321.2,265.5z"/>
		<path class="st8" d="M326.7,259.5l0.4,0.2l-5.5,5.9l-0.4-0.2L326.7,259.5l0.4,0.2L326.7,259.5 M327.1,259.7l-5.5,5.9L327.1,259.7
			 M321.6,265.7l-0.4-0.2L321.6,265.7 M321.2,265.5l5.5-5.9L321.2,265.5 M321.4,265.7h-1 M320.3,257.5h1 M320.3,265.7v1.8
			 M321.4,265.7v0.8 M37.8,347.5v8.6 M62.4,337.6v-1.2h5.5v1.2 M462.5,201.3v10.2 M462.5,231.9h-2 M459.2,211.6h-62.1 M459.2,210.2
			h-20.5 M460.5,211.6v0.4 M460.5,210.2v-7.4h1v7.4 M461.5,221.4h-1 M461.5,221.4v9.2h-1v-9.2 M462.5,220.2v11.7 M459.2,201.3
			L459.2,201.3 M566.8,60.6v33.6"/>
		<path class="st9" d="M594.5,94.2l-5.7-5.7l5.9,5.3L594.5,94.2L594.5,94.2z M588.7,88.4l5.9,5.3l-5.7-5.7L588.7,88.4L588.7,88.4z"
			/>
		<path class="st10" d="M594.5,94.2l-5.7-5.7l5.9,5.3L594.5,94.2L594.5,94.2z M588.7,88.4l5.9,5.3l-5.7-5.7L588.7,88.4L588.7,88.4z"
			/>
		<path class="st8" d="M594.5,94.2l0.2-0.4l-5.7-5.7l-0.2,0.4L594.5,94.2l0.2-0.4L594.5,94.2 M594.7,93.8l-5.7-5.7L594.7,93.8
			 M588.9,88l-0.2,0.4L588.9,88 M588.7,88.4l5.7,5.7L588.7,88.4"/>
		<path class="st8" d="M201.3,224.5v5.5H196v-5.5H201.3"/>
		<path class="st9" d="M263.8,63.6l5.7,5.7l-5.5-5.9L263.8,63.6L263.8,63.6z M269.5,69.4l-5.5-5.9l5.7,5.7L269.5,69.4L269.5,69.4z"
			/>
		<path class="st10" d="M263.8,63.6l5.7,5.7l-5.5-5.9L263.8,63.6L263.8,63.6z M269.5,69.4l-5.5-5.9l5.7,5.7L269.5,69.4L269.5,69.4z"
			/>
		<path class="st8" d="M263.8,63.6l0.2-0.2l5.7,5.7l-0.2,0.2L263.8,63.6l0.2-0.2L263.8,63.6 M264,63.4l5.7,5.7L264,63.4 M269.7,69.2
			l-0.2,0.2L269.7,69.2 M269.5,69.4l-5.7-5.7L269.5,69.4 M263.8,71.8h-2.5 M261.3,61.8v1.8h2.5 M263.8,71.8v3.3 M37.8,324.1v-19.3
			 M37.8,356.1l-17.2,2.5l22.3,1.8l-5.1,2.5v6.6"/>
		<path class="st9" d="M261.1,30.6l-5.7,5.7l5.3-5.9L261.1,30.6L261.1,30.6z M255.4,36.4l5.3-5.9L255,36L255.4,36.4L255.4,36.4z"/>
		<path class="st10" d="M261.1,30.6l-5.7,5.7l5.3-5.9L261.1,30.6L261.1,30.6z M255.4,36.4l5.3-5.9L255,36L255.4,36.4L255.4,36.4z"/>
		<path class="st8" d="M261.1,30.6l-0.4-0.2L255,36l0.4,0.4L261.1,30.6l-0.4-0.2L261.1,30.6 M260.7,30.4L255,36L260.7,30.4 M255,36
			l0.4,0.4L255,36 M255.4,36.4l5.7-5.7L255.4,36.4 M224.2,274.1L224.2,274.1 M250.7,304L250.7,304 M224.2,272.7L224.2,272.7
			 M249.6,304L249.6,304 M260.3,281.9H257 M249.6,304h-12.7 M224.2,272.7v-4.3 M580.9,232.7h48.4 M580.9,233.9h48.4"/>
		<path class="st9" d="M630.5,231.3l5.7-5.7l-5.5,5.9L630.5,231.3L630.5,231.3z M636.3,225.5l-5.5,5.9l5.7-5.7L636.3,225.5
			L636.3,225.5z"/>
		<path class="st10" d="M630.5,231.3l5.7-5.7l-5.5,5.9L630.5,231.3L630.5,231.3z M636.3,225.5l-5.5,5.9l5.7-5.7L636.3,225.5
			L636.3,225.5z"/>
		<path class="st8" d="M630.5,231.3l0.2,0.2l5.7-5.7l-0.2-0.2L630.5,231.3l0.2,0.2L630.5,231.3 M630.7,231.5l5.7-5.7L630.7,231.5
			 M636.5,225.7l-0.2-0.2L636.5,225.7 M636.3,225.5l-5.7,5.7L636.3,225.5"/>
		<line class="st8" x1="717.6" y1="257.7" x2="717.6" y2="262"/>
		<path class="st8" d="M730.7,289c2.7,0,2.7,0,2.7,0"/>
		<path class="st8" d="M734,289.3c-0.2,29.5,0,29.5,0,29.5"/>
	</g>
</g>
</svg>
