<?xml version="1.0" encoding="utf-8"?>
<!-- Generator: Adobe Illustrator 21.1.0, SVG Export Plug-In . SVG Version: 6.00 Build 0)  -->
<svg version="1.1" xmlns="http://www.w3.org/2000/svg" xmlns:xlink="http://www.w3.org/1999/xlink" x="0px" y="0px"
	 viewBox="0 0 515.2 391.8" style="enable-background:new 0 0 515.2 391.8;" xml:space="preserve">
<style type="text/css">
	.st0{fill:#E1E1E1;stroke:#6E6E6E;stroke-width:0.48;stroke-linecap:round;stroke-linejoin:round;stroke-miterlimit:10;}
	.st1{fill:#D4EFFF;stroke:#6E6E6E;stroke-width:0.48;stroke-linecap:round;stroke-linejoin:round;stroke-miterlimit:10;}
	.st2{fill:#FF7F7F;stroke:#6E6E6E;stroke-width:0.48;stroke-linecap:round;stroke-linejoin:round;stroke-miterlimit:10;}
	.st3{fill:none;stroke:#000000;stroke-width:0.6024;stroke-linecap:round;stroke-linejoin:round;stroke-miterlimit:10;}
	
		.st4{fill-rule:evenodd;clip-rule:evenodd;fill:none;stroke:#000000;stroke-width:0.6024;stroke-linecap:round;stroke-linejoin:round;stroke-miterlimit:10;}
	.st5{fill-rule:evenodd;clip-rule:evenodd;}
	.st6{fill-rule:evenodd;clip-rule:evenodd;fill:none;stroke:#000000;stroke-width:0;stroke-linecap:round;stroke-miterlimit:10;}
</style>
<g id="Layers">
	<g id="ThirdFloorPublic">
		<g>
			<path class="st0" d="M283.8,369.4H231l-0.2-86.6l210.7-122.2l5.5,9.8l6.5-3.6l43.3,77.9c0.3,0.5,0,0.5,0,0l0,0"/>
			<polygon class="st0" points="201,210.3 239.8,277.5 230.7,282.7 230.7,269.5 177.2,269.5 177.4,361.9 160.9,361.7 160.2,233.8 
							"/>
			<polygon class="st1" points="230.7,282.7 230.7,313.2 177.4,313.5 177.2,269.5 230.7,269.5 			"/>
			<polyline class="st0" points="0.2,295.6 110,295.5 110.2,391.8 0.2,391.8 			"/>
			<polygon class="st2" points="473.1,87.9 496.6,128.4 440.5,159.1 441.4,160.8 439.3,162 415.3,120.7 			"/>
		</g>
	</g>
	<g id="Other">
	</g>
</g>
<g id="Other_2">
	<g>
		<path class="st3" d="M367.7,32.4c-51.4,29.7-51.4,29.7-51.4,29.7 M367.5,30.8c-0.4,0.4-0.4,0.4-0.4,0.4 M370.7,32.2
			c-1.4-2.4-1.4-2.4-1.4-2.4c-0.6,0.4-0.6,0.4-0.6,0.4c0.4,0.6,0.4,0.6,0.4,0.6c-1.2,0.6-1.2,0.6-1.2,0.6c-0.4-0.6-0.4-0.6-0.4-0.6
			 M367.1,31.2c1.2,2.4,1.2,2.4,1.2,2.4 M313.9,63.4c-50.2,29.1-50.2,29.1-50.2,29.1 M313.3,62.4c1.2,2.2,1.2,2.2,1.2,2.2
			 M316.9,63.2c-1.4-2.2-1.4-2.2-1.4-2.2c-0.6,0.4-0.6,0.4-0.6,0.4 M313.9,62c0.2,0.6,0.2,0.6,0.2,0.6 M314.1,62.6
			c1.2-0.6,1.2-0.6,1.2-0.6c-0.4-0.6-0.4-0.6-0.4-0.6 M313.9,62c-0.6,0.4-0.6,0.4-0.6,0.4 M208,123c1.2,2.4,1.2,2.4,1.2,2.4
			 M211.6,124c-1.2-2.4-1.2-2.4-1.2-2.4c-0.6,0.4-0.6,0.4-0.6,0.4 M208.6,122.8c0.2,0.6,0.2,0.6,0.2,0.6 M208.8,123.4
			c1.2-0.8,1.2-0.8,1.2-0.8c-0.2-0.6-0.2-0.6-0.2-0.6 M208.6,122.8C208,123,208,123,208,123 M261.8,95.1
			c-52.6,30.3-52.6,30.3-52.6,30.3 M424.1,1.3C264.3,93.7,264.3,93.7,264.3,93.7 M261.2,92.3c-0.8,0.4-0.8,0.4-0.8,0.4 M260.4,92.7
			c1.4,2.4,1.4,2.4,1.4,2.4c2.4-1.4,2.4-1.4,2.4-1.4c-1.4-2.2-1.4-2.2-1.4-2.2c-0.6,0.2-0.6,0.2-0.6,0.2c0.4,0.6,0.4,0.6,0.4,0.6
			c-1.2,0.6-1.2,0.6-1.2,0.6c-0.2-0.6-0.2-0.6-0.2-0.6 M261.2,93.9C211,122.8,211,122.8,211,122.8 M422.7,5.3
			c-212,122.5-212,122.5-212,122.5 M423.5,0.3C369.9,31,369.9,31,369.9,31 M460.4,73.2c2.2-1.2,2.2-1.2,2.2-1.2c-1.4-2-1.4-2-1.4-2
			c-2,1.2-2,1.2-2,1.2C460.4,73.2,460.4,73.2,460.4,73.2 M428.3,17.4c2-1,2-1,2-1c-1.2-2.2-1.2-2.2-1.2-2.2c-2,1.2-2,1.2-2,1.2
			C428.3,17.4,428.3,17.4,428.3,17.4 M459.4,69.8c-29.7-51.4-29.7-51.4-29.7-51.4 M470.7,89.3C462,74.4,462,74.4,462,74.4
			 M476.5,99.3c-4.8-8.4-4.8-8.4-4.8-8.4 M475.7,101.7c-51.2,29.3-51.2,29.3-51.2,29.3 M494.4,128.7c-16.3-28.3-16.3-28.3-16.3-28.3
			 M477.3,100.7c14.3,24.9,14.3,24.9,14.3,24.9c0.8-0.4,0.8-0.4,0.8-0.4 M490.2,126.5c-14.5-24.7-14.5-24.7-14.5-24.7 M445,156.4
			c8-4.6,8-4.6,8-4.6 M454.6,151.8c39.8-23.1,39.8-23.1,39.8-23.1 M453.2,149.3c39.8-23.1,39.8-23.1,39.8-23.1 M441.6,159.8
			c2.8-1.6,2.8-1.6,2.8-1.6 M441.6,159.8c-2-3.4-2-3.4-2-3.4c3-1.6,3-1.6,3-1.6c1.8,3.4,1.8,3.4,1.8,3.4 M444.4,155.4
			c8-4.6,8-4.6,8-4.6 M446,158c-4.2,2.6-4.2,2.6-4.2,2.6 M427.5,13.6c-4.8-8.2-4.8-8.2-4.8-8.2 M428.1,19.4c1.6-1,1.6-1,1.6-1
			 M427.5,13.6c-2,1-2,1-2,1 M108.4,174.5c-5.4,0.6-5.4,0.6-5.4,0.6c0.6,5.4,0.6,5.4,0.6,5.4c5.4-0.6,5.4-0.6,5.4-0.6
			C108.4,174.5,108.4,174.5,108.4,174.5 M461.8,108c-32.1,18.5-32.1,18.5-32.1,18.5 M462.4,109c-1.4-2.4-1.4-2.4-1.4-2.4
			c2.4-1.2,2.4-1.2,2.4-1.2c1.2,2.2,1.2,2.2,1.2,2.2C462.4,109,462.4,109,462.4,109 M481.3,136.1c-2.2,1.4-2.2,1.4-2.2,1.4
			c-1.4-2.2-1.4-2.2-1.4-2.2c2.4-1.4,2.4-1.4,2.4-1.4C481.3,136.1,481.3,136.1,481.3,136.1 M423.9,127.3c1.4,2.6,1.4,2.6,1.4,2.6
			c4.8-2.8,4.8-2.8,4.8-2.8 M459.4,69.8c-1.6,0.8-1.6,0.8-1.6,0.8c2.8,4.6,2.8,4.6,2.8,4.6 M476.5,99.3c-12.4,7.2-12.4,7.2-12.4,7.2
			 M480.5,98.9c-3.2,1.8-3.2,1.8-3.2,1.8 M497.4,128.5C423.5,0.3,423.5,0.3,423.5,0.3 M426.9,141.1c10.8,18.7,10.8,18.7,10.8,18.7
			 M190.4,216.8c2,3.6,2,3.6,2,3.6c4.6-2.6,4.6-2.6,4.6-2.6 M514.9,275.9c-62.3-107.3-62.3-107.3-62.3-107.3 M452.6,168.6
			c-4.6,2.6-4.6,2.6-4.6,2.6c-6.2-10.6-6.2-10.6-6.2-10.6 M446,158c-2.6-4.6-2.6-4.6-2.6-4.6c-4.2,2.6-4.2,2.6-4.2,2.6 M423.9,127.3
			c4.8-2.6,4.8-2.6,4.8-2.6 M451.4,148.7c38.8-22.3,38.8-22.3,38.8-22.3 M453.2,149.3c1.4,2.4,1.4,2.4,1.4,2.4 M451.4,148.7
			c2.6,4.8,2.6,4.8,2.6,4.8 M445.4,157c8-4.6,8-4.6,8-4.6 M454,153.6c43.4-25.1,43.4-25.1,43.4-25.1 M426.9,141.1
			c2.8-1.6,2.8-1.6,2.8-1.6c9.4,16.5,9.4,16.5,9.4,16.5 M423.1,134.1c-7.4-13.1-7.4-13.1-7.4-13.1 M425.5,132.7c-1-1.6-1-1.6-1-1.6
			 M415.7,121c55-31.7,55-31.7,55-31.7 M418.9,121.4c52.8-30.5,52.8-30.5,52.8-30.5 M423.1,134.1c2.4-1.4,2.4-1.4,2.4-1.4
			 M428.7,124.6c1.4,2.4,1.4,2.4,1.4,2.4 M425.1,129.3c-1.2,0.6-1.2,0.6-1.2,0.6 M165.3,237.3L165.3,237.3 M225.1,269.3
			c0,64.3,0,64.3,0,64.3c0,49.4,0,49.4,0,49.4 M223.1,296.2c2,0,2,0,2,0 M223.7,296.6c1.4,0,1.4,0,1.4,0 M225.1,296.2
			c0,0.4,0,0.4,0,0.4 M201.6,300.4c0-5,0-5,0-5 M202,300.6c0-5.6,0-5.6,0-5.6 M176.9,313.3c19.7,0,19.7,0,19.7,0 M176.9,310.9
			c19.7,0,19.7,0,19.7,0 M176.9,308.6c19.7,0,19.7,0,19.7,0 M176.9,306.4c19.7,0,19.7,0,19.7,0 M176.9,304.2c19.7,0,19.7,0,19.7,0
			 M176.9,301.8c19.7,0,19.7,0,19.7,0 M176.9,299.6c19.7,0,19.7,0,19.7,0 M197.2,312.1c27.9,0,27.9,0,27.9,0 M219.7,307.4
			c3.4,0,3.4,0,3.4,0 M213.9,305.2c9.2,0,9.2,0,9.2,0"/>
	</g>
	<g>
		<path class="st4" d="M109.8,180.7l-0.6-7l-7,0.6l0.6,7L109.8,180.7"/>
		<path class="st4" d="M460.6,75.2l1.4-0.8 M452,170.4l62.4,108 M463.2,129.9v-0.2 M463,129.3L463,129.3 M463.4,129.1l6.6-3.8
			 M463.2,129.7L463.2,129.7 M463.2,129.7l7-4 M470.1,125.2L470.1,125.2 M470.1,125.2l4.4-2.6 M470.3,125.6L470.3,125.6
			 M470.3,125.6l4.8-2.8 M474.5,122.6l-1.8-3 M475.1,122.8l-2.2-4 M472.7,119.6l-23.1,13.5 M472.9,118.8l-23.7,13.7 M449.6,133.1
			L449.6,133.1 M449.6,133.1l-4.6,2.4 M449.2,132.5L449.2,132.5 M449.2,132.5l-4.8,3 M445,135.5l5.4,9.2 M444.4,135.5l5.6,9.4
			 M450.4,144.7L450.4,144.7 M450.4,144.7l0.2,0.4 M450,144.9L450,144.9 M450,144.9l0.2,0.2 M450.6,145.1L450.6,145.1 M450.6,145.1
			l1.8,3 M450.2,145.1L450.2,145.1 M450.2,145.1l1.8,3.4 M454.6,152l-0.4,0.4 M438.9,122.8l6.8,11.9 M441.4,121.4l6.8,11.9
			 M443.8,120.2l6.6,11.7 M446,118.8l6.8,11.9 M448.4,117.4l6.6,11.9 M450.6,116.2l6.8,11.7 M453,114.8l6.8,11.7 M455.4,113.4
			l6.6,11.9 M457.6,112l6.8,11.9 M460,110.8l6.8,11.7 M458.4,144.7l2.6-7.8 M461.8,133.9l2.6-1l-4,3.2l0.6,0.8 M469.1,126.2l5.2,9.2
			 M466.7,127.7l5.4,9.2 M464.4,129.1l5.2,9.2 M462.6,131.5l4.6,8.2 M461.6,135.1l3.4,5.8 M460.4,138.3l2.2,4 M459.2,141.9l1.2,1.8
			 M461.8,133.9l2.2-7 M446,174.1l6-3.6 M439.1,162L230.5,282.5 M437.7,159.8L238,275.1 M439.1,162l6.8,12.1 M279.3,251.2l-2-3.4
			l5.8-3.4l2.2,3.6 M331.9,220.9l-2-3.4l6-3.4l2,3.4 M384.7,190.5l-2-3.6l5.8-3.2l2,3.4 M50.4,165.8l13.5-0.6l13.5-0.8l13.3-1.6
			l13.5-2 M50.2,163.2l11.8-0.6l11.6-0.6l11.6-1.2l11.6-1.6l11.4-1.8l11.4-2.2l11.4-2.6l11.4-2.8l11.2-3.2l15.5-4.8 M235.9,271.7
			l9.8-5.6l2,3.4 M190.4,216.8l4.6-2.6l2,3.6 M195,214.2l6-3.4l36.9,64.3 M200.2,213.2l23.3,40.4 M186.1,221.3l5.2-2.8 M184.5,222.3
			L184.5,222.3 M196,215.6l4.2-2.4 M190.4,216.8l-2.6,1.4 M172.3,191.7l29.9-17.3 M172.9,192.9l31.1-18.1 M202.2,174.5l-6.6-11.7
			 M204,174.9l-7.4-12.9 M186.5,219.1l-25.7,14.9 M196.6,162l-1,0.8 M191.4,155.8l1.2-0.8 M187.2,145.7l-1,0.6 M191.4,155.8l-9-15.9
			 M192.6,155l-9-15.7 M183.5,139.3l13.7-5.6l13.5-5.8 M191.2,155l1-0.6 M197.2,162.8l-1.2,0.8 M201.8,173.7l1.2-0.8 M202.4,173.3
			l-5.8-10 M191.6,154.8l-5-8.6"/>
		<path class="st5" d="M192.8,154.8l7.8,2.2l-8-1.8L192.8,154.8L192.8,154.8z M200.6,157l-8-1.8l7.8,2.2L200.6,157L200.6,157z"/>
		<path class="st6" d="M192.8,154.8l7.8,2.2l-8-1.8L192.8,154.8L192.8,154.8z M200.6,157l-8-1.8l7.8,2.2L200.6,157L200.6,157z"/>
		<path class="st4" d="M192.8,154.8l-0.2,0.4l7.8,2.2l0.2-0.4L192.8,154.8l-0.2,0.4L192.8,154.8 M192.6,155.2l7.8,2.2L192.6,155.2
			 M200.4,157.4l0.2-0.4L200.4,157.4 M200.6,157l-7.8-2.2L200.6,157"/>
		<path class="st4" d="M109.4,203.4l-0.8-7.4 M108.2,204.8l-1-8.6 M172.3,191.7L131.1,204 M131.1,205.4l-22.9-0.6 M131.1,204
			l-21.7-0.6 M105.4,160.6l13.1-2.4l12.9-2.8l13.1-3.2l12.9-3.6l12.4-4.2l12.7-4.4 M105.2,173.9l-1.2-13.1 M106.6,173.9l-1.2-13.3
			 M106.6,188.1l1.2-0.2 M108.6,196l-1.4,0.2 M106.6,188.1l-0.8-7 M107.8,187.9l-0.6-6.8"/>
		<path class="st5" d="M106.8,188.1l-5.8,5.8l5.4-6L106.8,188.1L106.8,188.1z M101,193.9l5.4-6l-5.8,5.6L101,193.9L101,193.9z"/>
		<path class="st6" d="M106.8,188.1l-5.8,5.8l5.4-6L106.8,188.1L106.8,188.1z M101,193.9l5.4-6l-5.8,5.6L101,193.9L101,193.9z"/>
		<path class="st4" d="M106.8,188.1l-0.4-0.2l-5.8,5.6l0.4,0.4L106.8,188.1l-0.4-0.2L106.8,188.1 M106.4,187.9l-5.8,5.6L106.4,187.9
			 M100.6,193.5l0.4,0.4L100.6,193.5 M101,193.9l5.8-5.8L101,193.9 M163.5,238.1L163.5,238.1 M160.8,233.9v46.8 M161.2,234.1h4v4h-4
			V234.1"/>
		<path class="st4" d="M171.7,193.3l-40.6,12.1 M162.1,238.3l0.2,42.4 M174.3,266.7v23.7 M176.9,269.3v57.9 M197.2,336.2v-23.1h27.9
			 M196.6,334.8v-6 M223.1,308.8v-12.7 M223.7,309v-12.5 M197.2,312.1v-16.7 M174.3,291.6L174.3,291.6 M162.3,291.6L162.3,291.6
			 M174.3,290.4L174.3,290.4 M162.3,290.4L162.3,290.4 M225.1,256.2L225.1,256.2 M162.1,238.3L162.1,238.3 M223.5,253.6L223.5,253.6
			 M174.3,266.7h53.4 M176.9,269.3h48.2 M196.6,295h5.4 M197.2,295.4h4.4 M207,302.4h1.2 M202,299.8h7.8 M202,297h21.1 M176.9,297
			h19.7 M162.3,290.4v70.1 M174.3,290.4v70.1 M160.8,289h1.4 M162.3,280.7h-1.4 M160.8,289v75.3 M162.3,289v1.4"/>
		<path class="st5" d="M162.1,288.8l5.6-5.8l-5.4,6.2L162.1,288.8L162.1,288.8z M167.7,282.9l-5.4,6.2l5.8-5.8L167.7,282.9
			L167.7,282.9z"/>
		<path class="st6" d="M162.1,288.8l5.6-5.8l-5.4,6.2L162.1,288.8L162.1,288.8z M167.7,282.9l-5.4,6.2l5.8-5.8L167.7,282.9
			L167.7,282.9z"/>
		<path class="st4" d="M162.1,288.8l0.2,0.4l5.8-5.8l-0.4-0.4L162.1,288.8l0.2,0.4L162.1,288.8 M162.3,289.2l5.8-5.8L162.3,289.2
			 M168.1,283.3l-0.4-0.4L168.1,283.3 M167.7,282.9l-5.6,5.8L167.7,282.9 M174.3,279.7L174.3,279.7 M174.3,279.3L174.3,279.3
			 M174.3,279.7v-0.4 M174.3,267.5L174.3,267.5 M162.3,271.5L162.3,271.5 M197.2,298.8l10.6,4l3.2-4.8v10.4l2.2-3.4l11.8,4.4
			 M211,302.4h12 M211,299.8h12 M227.7,266.7v106.1 M230.5,282.5v87.4 M223.5,253.6l13.1,22.3"/>
		<path class="st4" d="M133.5,295.6v14.3 M132.5,295.6v14.3 M112.1,295.6v23.3"/>
		<path class="st4" d="M93.8,296.8v-5.4h5.4v5.4h-2.6H93.8 M73.3,267.5h-3 M71.3,268.7h-1 M71.3,293H53.2 M132.5,295.6h-20.5
			 M72.5,293v-24.3 M71.3,293v-24.3"/>
		<path class="st4" d="M70.3,268.7v-1.2"/>
		<path class="st5" d="M70.3,268.7l-5.8,5.8l6.2-5.6L70.3,268.7L70.3,268.7z M64.5,274.5l6.2-5.6l-5.8,5.8L64.5,274.5L64.5,274.5z"
			/>
		<path class="st6" d="M70.3,268.7l-5.8,5.8l6.2-5.6L70.3,268.7L70.3,268.7z M64.5,274.5l6.2-5.6l-5.8,5.8L64.5,274.5L64.5,274.5z"
			/>
		<path class="st4" d="M70.3,268.7l0.4,0.2l-5.8,5.8l-0.4-0.2L70.3,268.7l0.4,0.2L70.3,268.7 M70.7,268.9l-5.8,5.8L70.7,268.9
			 M64.5,274.5l5.8-5.8L64.5,274.5"/>
		<path class="st5" d="M113.3,268.5l5.6,5.6l-6-5.4L113.3,268.5L113.3,268.5z M118.9,274.1l-6-5.4l5.8,5.8L118.9,274.1L118.9,274.1z
			"/>
		<path class="st6" d="M113.3,268.5l5.6,5.6l-6-5.4L113.3,268.5L113.3,268.5z M118.9,274.1l-6-5.4l5.8,5.8L118.9,274.1L118.9,274.1z
			"/>
		<path class="st4" d="M113.3,268.5l-0.4,0.2l5.8,5.8l0.2-0.4L113.3,268.5l-0.4,0.2L113.3,268.5 M112.9,268.7l5.8,5.8L112.9,268.7
			 M118.7,274.5l0.2-0.4L118.7,274.5 M118.9,274.1l-5.6-5.6L118.9,274.1 M111,268.7h-1.4 M111,293H99.2 M113.1,267.5v1.2
			 M121.1,268.7v-1.2"/>
		<path class="st5" d="M78.7,274.7l-5.6-5.8l6,5.6L78.7,274.7L78.7,274.7z M73.1,268.9l6,5.6l-5.8-5.8L73.1,268.9L73.1,268.9z"/>
		<path class="st6" d="M78.7,274.7l-5.6-5.8l6,5.6L78.7,274.7L78.7,274.7z M73.1,268.9l6,5.6l-5.8-5.8L73.1,268.9L73.1,268.9z"/>
		<path class="st4" d="M78.7,274.7l0.4-0.2l-5.8-5.8l-0.2,0.2L78.7,274.7l0.4-0.2L78.7,274.7 M79.1,274.5l-5.8-5.8L79.1,274.5
			 M73.3,268.7l-0.2,0.2L73.3,268.7 M73.1,268.9l5.6,5.8L73.1,268.9"/>
		<path class="st5" d="M109.8,268.9l-5.8,5.6l5.4-6L109.8,268.9L109.8,268.9z M104,274.5l5.4-6l-5.6,5.8L104,274.5L104,274.5z"/>
		<path class="st6" d="M109.8,268.9l-5.8,5.6l5.4-6L109.8,268.9L109.8,268.9z M104,274.5l5.4-6l-5.6,5.8L104,274.5L104,274.5z"/>
		<path class="st4" d="M109.8,268.9l-0.4-0.4l-5.6,5.8l0.2,0.2L109.8,268.9l-0.4-0.4L109.8,268.9 M109.4,268.5l-5.6,5.8L109.4,268.5
			 M103.8,274.3l0.2,0.2L103.8,274.3 M104,274.5l5.8-5.6L104,274.5 M101.6,268.7h-9 M101.6,267.5H81.5 M91.6,268.7h-10 M91.6,293
			H72.5 M109.6,267.5v1.2 M101.6,268.7v-1.2 M112.1,293v-24.3 M111,293v-24.3 M91.6,293v-24.3 M92.6,293v-24.3 M132.5,293v-24.3
			 M133.5,295.6v-28.1 M132.5,293h-20.5 M132.5,268.7h-11.4 M133.5,267.5h-12.4 M73.3,267.5v1.2 M81.5,268.7v-1.2 M73.3,268.7h-0.8
			 M93.8,293h-1.2 M93.8,295.6H53.2 M113.1,267.5h-3.4 M113.1,268.7h-1 M109.4,295.6 M132.5,320.1h-20.5 M132.5,318.9h-20.5
			 M109.4,295.6H99.2"/>
		<path class="st4" d="M112.1,320.1v24.5 M132.5,320.1v15.3 M132.5,318.1h1 M133.5,309.8h-1"/>
		<path class="st5" d="M132.3,318.3l-5.8-5.8l6.2,5.4L132.3,318.3L132.3,318.3z M126.5,312.5l6.2,5.4l-5.8-5.8L126.5,312.5
			L126.5,312.5z"/>
		<path class="st6" d="M132.3,318.3l-5.8-5.8l6.2,5.4L132.3,318.3L132.3,318.3z M126.5,312.5l6.2,5.4l-5.8-5.8L126.5,312.5
			L126.5,312.5z"/>
		<path class="st4" d="M132.3,318.3l0.4-0.4l-5.8-5.8l-0.4,0.4L132.3,318.3l0.4-0.4L132.3,318.3 M132.7,317.9l-5.8-5.8L132.7,317.9
			 M126.9,312.1l-0.4,0.4L126.9,312.1 M126.5,312.5l5.8,5.8L126.5,312.5 M132.5,318.1v0.8 M133.5,318.1v17.3"/>
		<line class="st4" x1="186.1" y1="221.3" x2="163.9" y2="234.1"/>
		<path class="st5" d="M195,334.6l-5.8-5.6l5.4,6L195,334.6L195,334.6z M189.2,328.9l5.4,6l-5.6-5.8L189.2,328.9L189.2,328.9z"/>
		<path class="st6" d="M195,334.6l-5.8-5.6l5.4,6L195,334.6L195,334.6z M189.2,328.9l5.4,6l-5.6-5.8L189.2,328.9L189.2,328.9z"/>
		<path class="st4" d="M195,334.6l-0.4,0.4l-5.6-5.8l0.2-0.2L195,334.6l-0.4,0.4L195,334.6 M194.6,335l-5.6-5.8L194.6,335
			 M189,329.1l0.2-0.2L189,329.1 M189.2,328.9l5.8,5.6L189.2,328.9"/>
		<path class="st5" d="M178.7,335l5.6-5.8l-5.8,5.4L178.7,335L178.7,335z M184.3,329.1l-5.8,5.4l5.6-5.6L184.3,329.1L184.3,329.1z"
			/>
		<path class="st6" d="M178.7,335l5.6-5.8l-5.8,5.4L178.7,335L178.7,335z M184.3,329.1l-5.8,5.4l5.6-5.6L184.3,329.1L184.3,329.1z"
			/>
		<path class="st4" d="M178.7,335l-0.2-0.4l5.6-5.6l0.2,0.2L178.7,335l-0.2-0.4L178.7,335 M178.5,334.6l5.6-5.6L178.5,334.6
			 M184.1,328.9l0.2,0.2L184.1,328.9 M184.3,329.1l-5.6,5.8L184.3,329.1 M176.9,327.1h1.8 M196.6,328.7h-1.8 M178.7,328.7v-1.6
			 M194.8,327.1v1.6 M196.6,327.1V295 M178.7,328.7h-1.8 M194.8,327.1h1.8 M176.9,328.7v6 M187.8,218.2l-1.2,0.8 M171.7,193.3
			l1.2-0.4"/>
		<path class="st5" d="M425.5,132.5l-0.2,0.4l8,1.4L425.5,132.5L425.5,132.5z M425.3,132.9l8,1.4l-0.2,0.6L425.3,132.9L425.3,132.9z
			"/>
		<path class="st6" d="M425.5,132.5l-0.2,0.4l8,1.4L425.5,132.5L425.5,132.5z M425.3,132.9l8,1.4l-0.2,0.6L425.3,132.9L425.3,132.9z
			"/>
		<path class="st4" d="M425.5,14.6l2.6,4.8"/>
		<path class="st4" d="M236.5,275.9l-8.8,5"/>
		<path class="st4" d="M169.5,141.7l11-4l14.1-5.6 M194.6,132.1l14.9-6.8 M423.9,129.9l-5-8.4 M314.5,64.8l2.4-1.4 M368.3,33.6
			l2.4-1.4 M209.4,125.2l2.2-1.2"/>
	</g>
	<line class="st4" x1="186.9" y1="218.4" x2="183.1" y2="210.7"/>
	<line class="st4" x1="185.7" y1="219.2" x2="181.9" y2="211.4"/>
	<line class="st4" x1="176.4" y1="199.8" x2="177.4" y2="199.2"/>
	<line class="st4" x1="183.1" y1="210.7" x2="181.9" y2="211.4"/>
	<line class="st4" x1="176.4" y1="199.8" x2="172.9" y2="192.9"/>
	<line class="st4" x1="177.4" y1="199.2" x2="174.3" y2="192.4"/>
	<path class="st5" d="M176.5,199.7l-3.5,7.4l3.1-7.5L176.5,199.7L176.5,199.7z M173,207.1l3.1-7.5l-3.6,7.3L173,207.1L173,207.1z"/>
	<path class="st6" d="M176.5,199.7l-3.5,7.4l3.1-7.5L176.5,199.7L176.5,199.7z M173,207.1l3.1-7.5l-3.6,7.3L173,207.1L173,207.1z"/>
	<polyline class="st4" points="176.5,199.7 176.1,199.6 172.5,206.9 173,207.1 176.5,199.7 176.1,199.6 176.5,199.7 	"/>
	<polyline class="st4" points="176.1,199.6 172.5,206.9 176.1,199.6 	"/>
	<polyline class="st4" points="172.5,206.9 173,207.1 172.5,206.9 	"/>
	<polyline class="st4" points="173,207.1 176.5,199.7 173,207.1 	"/>
	<path class="st5" d="M181.9,211.8l-8.2-1l8.1,0.5L181.9,211.8L181.9,211.8z M173.7,210.8l8.1,0.5l-8-1.1L173.7,210.8L173.7,210.8z"
		/>
	<path class="st6" d="M181.9,211.8l-8.2-1l8.1,0.5L181.9,211.8L181.9,211.8z M173.7,210.8l8.1,0.5l-8-1.1L173.7,210.8L173.7,210.8z"
		/>
	<polyline class="st4" points="181.9,211.8 181.8,211.4 173.8,210.3 173.7,210.8 181.9,211.8 181.8,211.4 181.9,211.8 	"/>
	<polyline class="st4" points="181.8,211.4 173.8,210.3 181.8,211.4 	"/>
	<polyline class="st4" points="174.4,210.3 174.3,210.8 174.4,210.3 	"/>
	<polyline class="st4" points="173.7,210.8 181.9,211.8 173.7,210.8 	"/>
</g>
</svg>
